<svg xmlns="http://www.w3.org/2000/svg" xmlns:xlink="http://www.w3.org/1999/xlink" viewBox="0 0 400 400"><defs><linearGradient id="linear-gradient" x1="111.89" y1="324.66" x2="303.9" y2="324.66" gradientUnits="userSpaceOnUse"><stop offset="0" stop-color="#aa80f9"/><stop offset="1" stop-color="#6165d7"/></linearGradient><linearGradient id="linear-gradient-2" x1="358.53" y1="12.41" x2="328.3" y2="86.61" gradientUnits="userSpaceOnUse"><stop offset="0" stop-color="#fcb148"/><stop offset="0.05" stop-color="#fdba46"/><stop offset="0.14" stop-color="#ffc244"/><stop offset="0.32" stop-color="#ffc444"/><stop offset="0.48" stop-color="#fdb946"/><stop offset="0.78" stop-color="#f99c4d"/><stop offset="0.87" stop-color="#f8924f"/><stop offset="1" stop-color="#f8924f"/></linearGradient><linearGradient id="linear-gradient-3" x1="323.58" y1="50.36" x2="354.72" y2="50.36" xlink:href="#linear-gradient-2"/><linearGradient id="linear-gradient-4" x1="87.6" y1="157.68" x2="13.53" y2="285.96" gradientUnits="userSpaceOnUse"><stop offset="0" stop-color="#e38ddd"/><stop offset="1" stop-color="#9571f6"/></linearGradient><linearGradient id="linear-gradient-5" x1="87.36" y1="158.1" x2="14.01" y2="285.13" xlink:href="#linear-gradient-4"/><linearGradient id="linear-gradient-6" x1="-523.08" y1="-270.19" x2="-470.95" y2="-197" gradientTransform="matrix(0.91, 0.41, -0.41, 0.91, 501.15, 587.53)" gradientUnits="userSpaceOnUse"><stop offset="0" stop-color="#d8dee8"/><stop offset="1" stop-color="#fff"/></linearGradient><clipPath id="clip-path"><path d="M115.76,210.25c-12.34-7.6-15.29-21.63-16-25-.41-2-3.55-18,5.57-32,8.19-12.53,18.93-12.13,24.22-26.18A40.21,40.21,0,0,0,132,114.28c.05-10.32-4.56-12.4-4-20.47C128.54,85.17,134.4,79,138.21,75c4.67-4.92,9-9.44,15.16-9.33s12,4.6,14.5,10.14c3.77,8.52-3.64,13.18-1.69,26.7,1.23,8.53,4.48,8.77,4.44,16.26,0,8.14-3.9,10.53-5.47,18.79s1.08,12.86,2.92,22.23c1.76,8.93,5.53,28-2.76,40.43C156.25,213.77,132.11,220.34,115.76,210.25Z" style="fill:none"/></clipPath><linearGradient id="linear-gradient-7" x1="425.2" y1="367.22" x2="462.67" y2="600.84" gradientTransform="translate(-386.67 -207.42) rotate(-9.58)" xlink:href="#linear-gradient-4"/><clipPath id="clip-path-2"><path d="M169,255.68c9.88-11.07,2.68-37-6.45-51.84-5.85-9.51-10.46-11.11-13.09-20.74-3.64-13.31,3-18.15-.28-32.11-3-12.71-9.15-11.88-13-24.84-4.56-15.25,3.21-20.09.28-35-3.3-16.74-17.93-35.2-31.3-33.48-9,1.15-16.8,11.4-18.72,21.16-3,15.08,9.81,20.16,10.42,39.2a32.44,32.44,0,0,1-1,9.81,67.9,67.9,0,0,1-7,16.34c-6.67,12.09-4.78,26.07-4,31.45,1.92,14.13,8.32,14.27,14.46,32.22,6.31,18.49,1.06,22.83,6.32,32.37C116.74,260.64,156.58,269.56,169,255.68Z" style="fill:none"/></clipPath><linearGradient id="linear-gradient-8" x1="226.46" y1="443.28" x2="278.6" y2="516.47" gradientTransform="translate(-221.83 -205.72) rotate(-11.48)" gradientUnits="userSpaceOnUse"><stop offset="0" stop-color="#ff9085"/><stop offset="1" stop-color="#fb6fbb"/></linearGradient><clipPath id="clip-path-3"><path d="M121.84,261.11c-14.45,1-25-8.73-27.54-11.07-1.48-1.36-13.35-12.61-14-29.26-.61-14.95,8.36-20.87,4.5-35.38a40.54,40.54,0,0,0-5.46-11.85c-6-8.42-10.92-7.43-15.17-14.32-4.54-7.37-3.36-15.8-2.59-21.3.94-6.71,1.8-12.88,6.92-16.39s12.48-3.25,17.69-.17c8,4.75,4.7,12.85,14.13,22.72,6,6.23,8.75,4.54,13.06,10.66,4.7,6.65,2.94,10.83,6.46,18.46,3.58,7.78,8.35,9.85,15.29,16.41,6.62,6.24,20.78,19.6,21.24,34.51C156.85,240.45,141,259.82,121.84,261.11Z" style="fill:none"/></clipPath><linearGradient id="linear-gradient-9" x1="95.44" y1="205.06" x2="52.67" y2="279.14" xlink:href="#linear-gradient-4"/><linearGradient id="linear-gradient-10" x1="95.25" y1="205.4" x2="53.07" y2="278.45" xlink:href="#linear-gradient-4"/><linearGradient id="linear-gradient-11" x1="410.22" y1="154.97" x2="329.09" y2="295.48" xlink:href="#linear-gradient-4"/><linearGradient id="linear-gradient-12" x1="409.95" y1="155.45" x2="329.65" y2="294.51" xlink:href="#linear-gradient-4"/><linearGradient id="linear-gradient-13" x1="84.95" y1="206.86" x2="303.43" y2="335.02" xlink:href="#linear-gradient-4"/><linearGradient id="linear-gradient-14" x1="90.47" y1="191.99" x2="301.48" y2="315.77" xlink:href="#linear-gradient-4"/><linearGradient id="linear-gradient-15" x1="139.65" y1="252.02" x2="208.32" y2="292.3" xlink:href="#linear-gradient-4"/><linearGradient id="linear-gradient-16" x1="164.03" y1="262.46" x2="205.69" y2="286.9" xlink:href="#linear-gradient-4"/><linearGradient id="linear-gradient-17" x1="12.81" y1="285.31" x2="380.9" y2="285.31" gradientUnits="userSpaceOnUse"><stop offset="0" stop-color="#ebeff2"/><stop offset="0.47" stop-color="#d2d9e1"/><stop offset="0.99" stop-color="#b7c0ce"/></linearGradient><linearGradient id="linear-gradient-18" x1="75.18" y1="296.36" x2="204.12" y2="296.36" xlink:href="#linear-gradient-17"/><linearGradient id="linear-gradient-19" x1="-53.84" y1="282.01" x2="19.88" y2="282.01" xlink:href="#linear-gradient-17"/><linearGradient id="linear-gradient-20" x1="74.33" y1="107.9" x2="105.68" y2="222.15" xlink:href="#linear-gradient-17"/><linearGradient id="linear-gradient-21" x1="649.07" y1="100" x2="200.71" y2="162.64" xlink:href="#linear-gradient-17"/><linearGradient id="linear-gradient-22" x1="190.59" y1="217.96" x2="387.43" y2="333.43" xlink:href="#linear-gradient-4"/><linearGradient id="linear-gradient-23" x1="188.34" y1="204.47" x2="396.72" y2="326.7" xlink:href="#linear-gradient-4"/><linearGradient id="linear-gradient-24" x1="73.16" y1="172.11" x2="34.26" y2="391.73" xlink:href="#linear-gradient-17"/><linearGradient id="linear-gradient-25" x1="60.64" y1="234.24" x2="37.65" y2="248.36" xlink:href="#linear-gradient-17"/><linearGradient id="linear-gradient-26" x1="292.55" y1="172.27" x2="259.48" y2="366.99" xlink:href="#linear-gradient-4"/><linearGradient id="linear-gradient-27" x1="309.89" y1="173.57" x2="278.39" y2="359.04" xlink:href="#linear-gradient-4"/><linearGradient id="linear-gradient-28" x1="304.42" y1="156.32" x2="355.83" y2="186.48" xlink:href="#linear-gradient-4"/><linearGradient id="linear-gradient-29" x1="317.97" y1="167.54" x2="350.36" y2="186.54" xlink:href="#linear-gradient-4"/><linearGradient id="linear-gradient-30" x1="258.22" y1="262.56" x2="363.3" y2="324.19" xlink:href="#linear-gradient-4"/><linearGradient id="linear-gradient-31" x1="188.71" y1="172.16" x2="154.01" y2="345.96" xlink:href="#linear-gradient-17"/><linearGradient id="linear-gradient-32" x1="299.92" y1="136.54" x2="259.73" y2="161.24" xlink:href="#linear-gradient-17"/><linearGradient id="linear-gradient-33" x1="121.43" y1="185.78" x2="89.92" y2="371.32" xlink:href="#linear-gradient-4"/><linearGradient id="linear-gradient-34" x1="138.01" y1="184.36" x2="105.56" y2="375.46" xlink:href="#linear-gradient-4"/><linearGradient id="linear-gradient-35" x1="156.43" y1="182.78" x2="123.14" y2="378.8" xlink:href="#linear-gradient-4"/><linearGradient id="linear-gradient-36" x1="131.34" y1="170.97" x2="173.8" y2="195.88" xlink:href="#linear-gradient-4"/><linearGradient id="linear-gradient-37" x1="147.08" y1="174.87" x2="178.54" y2="193.33" xlink:href="#linear-gradient-4"/><linearGradient id="linear-gradient-38" x1="164.62" y1="175.37" x2="195.31" y2="193.37" xlink:href="#linear-gradient-4"/><linearGradient id="linear-gradient-39" x1="370.61" y1="109.04" x2="116.05" y2="251.95" xlink:href="#linear-gradient-17"/><linearGradient id="linear-gradient-40" x1="359.41" y1="78.36" x2="85.41" y2="82.27" xlink:href="#linear-gradient-4"/><linearGradient id="linear-gradient-41" x1="510.9" y1="85.27" x2="203.11" y2="89.66" xlink:href="#linear-gradient-4"/><linearGradient id="linear-gradient-42" x1="217.94" y1="81.24" x2="164.53" y2="82" xlink:href="#linear-gradient-4"/><linearGradient id="linear-gradient-43" x1="177.14" y1="169.85" x2="142.45" y2="343.66" xlink:href="#linear-gradient-17"/><linearGradient id="linear-gradient-44" x1="138.31" y1="88.91" x2="109.62" y2="89.32" xlink:href="#linear-gradient-4"/><linearGradient id="linear-gradient-45" x1="292.59" y1="173.05" x2="253.22" y2="395.32" gradientUnits="userSpaceOnUse"><stop offset="0" stop-color="#ebeff2"/><stop offset="0.07" stop-color="#e7ecf0"/><stop offset="0.47" stop-color="#d2d9e1"/><stop offset="0.99" stop-color="#b7c0ce"/></linearGradient><linearGradient id="linear-gradient-46" x1="661.12" y1="195.67" x2="213.59" y2="258.19" xlink:href="#linear-gradient-17"/><linearGradient id="linear-gradient-47" x1="253.91" y1="266.45" x2="215.19" y2="494.47" xlink:href="#linear-gradient-4"/><linearGradient id="linear-gradient-48" x1="271.38" y1="268.8" x2="231.45" y2="503.92" xlink:href="#linear-gradient-4"/><linearGradient id="linear-gradient-49" x1="289.97" y1="271.36" x2="248.69" y2="514.45" xlink:href="#linear-gradient-4"/><linearGradient id="linear-gradient-50" x1="267.21" y1="247.69" x2="322.36" y2="280.04" xlink:href="#linear-gradient-4"/><linearGradient id="linear-gradient-51" x1="281.78" y1="259.21" x2="322.76" y2="283.25" xlink:href="#linear-gradient-4"/><linearGradient id="linear-gradient-52" x1="299.7" y1="265.29" x2="335.23" y2="286.13" xlink:href="#linear-gradient-4"/><linearGradient id="linear-gradient-53" x1="67.71" y1="149.56" x2="56.83" y2="210.97" xlink:href="#linear-gradient-4"/><linearGradient id="linear-gradient-54" x1="140.63" y1="171.79" x2="125.59" y2="256.71" xlink:href="#linear-gradient-4"/><linearGradient id="linear-gradient-55" x1="348.46" y1="167.48" x2="341.39" y2="207.41" xlink:href="#linear-gradient-4"/><linearGradient id="linear-gradient-56" x1="293.98" y1="163.65" x2="278.4" y2="251.59" xlink:href="#linear-gradient-4"/><linearGradient id="linear-gradient-57" x1="204.45" y1="178.62" x2="169.31" y2="385.51" xlink:href="#linear-gradient-4"/><linearGradient id="linear-gradient-58" x1="222.94" y1="177.05" x2="186.75" y2="390.12" xlink:href="#linear-gradient-4"/><linearGradient id="linear-gradient-59" x1="243.48" y1="175.28" x2="206.36" y2="393.84" xlink:href="#linear-gradient-4"/><linearGradient id="linear-gradient-60" x1="215.5" y1="162.12" x2="262.84" y2="189.89" xlink:href="#linear-gradient-4"/><linearGradient id="linear-gradient-61" x1="233.05" y1="166.47" x2="268.13" y2="187.05" xlink:href="#linear-gradient-4"/><linearGradient id="linear-gradient-62" x1="252.61" y1="167.02" x2="286.83" y2="187.09" xlink:href="#linear-gradient-4"/><linearGradient id="linear-gradient-63" x1="388.94" y1="242.35" x2="344.69" y2="318.99" xlink:href="#linear-gradient-4"/><linearGradient id="linear-gradient-64" x1="-45.77" y1="335.18" x2="106.5" y2="335.18" xlink:href="#linear-gradient-17"/><linearGradient id="linear-gradient-65" x1="248.27" y1="345.11" x2="315.69" y2="345.11" xlink:href="#linear-gradient-17"/><clipPath id="clip-path-4"><polygon id="_Clipping_Path_" data-name="&lt;Clipping Path&gt;" points="248.79 354.77 111.89 304.01 188.1 294.56 303.9 323.38 248.79 354.77" style="fill:url(#linear-gradient)"/></clipPath><clipPath id="clip-path-5"><polygon points="247.98 365.21 116.96 304.88 171.51 293.8 331.31 317.79 247.98 365.21" style="fill:none"/></clipPath><linearGradient id="linear-gradient-67" x1="188.01" y1="310.02" x2="303.9" y2="310.02" xlink:href="#linear-gradient-17"/><linearGradient id="linear-gradient-68" x1="2538.21" y1="-3336.1" x2="2536.33" y2="-3284.99" gradientTransform="matrix(0.68, 0.73, -0.73, 0.68, -3855.32, 729.61)" xlink:href="#linear-gradient-8"/><linearGradient id="linear-gradient-69" x1="-3715.62" y1="314.56" x2="-3748.63" y2="353.81" gradientTransform="matrix(-1, 0, 0, 1, -3395.7, 0)" xlink:href="#linear-gradient-4"/><linearGradient id="linear-gradient-70" x1="-3613.63" y1="427.07" x2="-3616.25" y2="403.3" gradientTransform="matrix(-1, 0.05, 0.05, 1, -3308.29, 123.68)" xlink:href="#linear-gradient"/></defs><title>Wavy_REst-03_Single-10 [Converted]</title><g style="isolation:isolate"><g id="Illustration"><path d="M378.71,157.69c-4.09-49.61-6.13-74.42-15.66-90.47C335.78,21.27,256.5,10.35,206.42,14.54,139.39,20.14,62.69,58,28.94,131.2-1.73,197.65,12.41,272.86,58.61,322.07,143.3,412.26,318,396.16,360.68,337c17-23.62,18.26-61.34,20.06-116.76A517.23,517.23,0,0,0,378.71,157.69Z" style="fill:#f4f7fa"/><path d="M365.48,46.76a20.94,20.94,0,1,1-21-20.95A21,21,0,0,1,365.48,46.76Z" style="fill:url(#linear-gradient-2)"/><path d="M354.15,59.12c-1.06,3-3.55,5.86-7.1,8.44A20.95,20.95,0,0,1,328.74,33a8,8,0,0,0,2.84,5c1.94,1.78,5,3.61,9.84,5.35C352.87,47.48,356.2,53.39,354.15,59.12Z" style="opacity:0.2;mix-blend-mode:multiply;fill:url(#linear-gradient-3)"/><circle cx="344.53" cy="46.76" r="15.65" style="fill:#fff;opacity:0.30000000000000004;mix-blend-mode:soft-light"/><path d="M288.7,52.72s8.76-17,23.77-10.39,13.62,3.13,24,4.44,23.32,8.54,14.92,10-74.14,3.12-74.14,3.12S278.28,53.61,288.7,52.72Z" style="fill:#fff"/><path d="M34,271a27,27,0,0,1-5.4-.75c-28.52-7.06-.41-59.83-.41-59.83,1.72-3.71,4-10.52,6.78-15.59h0c4.62-8.5,10.5-12.08,17.05,12C62.48,245.37,71.2,272.63,34,271Z" style="fill:url(#linear-gradient-4)"/><path d="M34,271a27,27,0,0,1-5.4-.75c9.13-3.72,18-26.32,18-41.92,0-17.11-11.68-33.5-11.68-33.5h0c4.62-8.5,10.5-12.08,17.05,12C62.48,245.37,71.2,272.63,34,271Z" style="opacity:0.30000000000000004;mix-blend-mode:multiply;fill:url(#linear-gradient-5)"/><path d="M115.86,210.1c-12.34-7.59-15.31-21.61-16-25-.42-2-3.57-18,5.54-32,8.18-12.54,18.92-12.15,24.19-26.21A40.37,40.37,0,0,0,132,114.11c0-10.31-4.58-12.39-4.05-20.46.57-8.64,6.42-14.83,10.24-18.86,4.66-4.92,8.94-9.45,15.14-9.34S165.37,70,167.83,75.58c3.78,8.51-3.62,13.18-1.66,26.7,1.24,8.53,4.49,8.77,4.46,16.25,0,8.14-3.89,10.53-5.45,18.79-1.59,8.41,1.09,12.87,2.95,22.24,1.77,8.92,5.55,28-2.72,40.43C156.36,213.58,132.23,220.17,115.86,210.1Z" style="fill:url(#linear-gradient-6)"/><g style="opacity:0.7000000000000001;mix-blend-mode:soft-light"><g style="clip-path:url(#clip-path)"><g style="mix-blend-mode:soft-light"><path d="M126.13,220.9a.48.48,0,0,1-.12-.16c-7.55-22.15-7.47-39.15.25-50.52,3.1-4.57,7-7.73,10.76-10.79,5.7-4.63,11.09-9,13.48-17.78,2.07-7.6.95-15.81.29-20.72-.49-3.56-.89-6.43-1.25-9-.92-6.51-1.43-10.09-1.67-14.58-.6-11.57,4.4-23.87,14.86-36.57a.33.33,0,0,1,.47,0,.32.32,0,0,1,.05.47C152.9,73.81,148,86,148.54,97.36c.23,4.45.74,8,1.66,14.51.36,2.54.77,5.41,1.25,9,.67,5,1.79,13.26-.31,21-2.44,9-7.91,13.43-13.7,18.13-3.73,3-7.59,6.16-10.63,10.64-7.59,11.19-7.65,28-.17,49.93a.33.33,0,0,1-.21.42A.32.32,0,0,1,126.13,220.9Z" style="fill:#fff"/><path d="M143.74,100.87C135.83,95.23,133,89.48,132,85.37a15.67,15.67,0,0,1,.38-9.12.32.32,0,0,1,.43-.17.33.33,0,0,1,.18.43,15.31,15.31,0,0,0-.33,8.75c1.11,4.71,4.81,11.66,16.18,18.07a.33.33,0,0,1,.13.45.34.34,0,0,1-.46.13A52.44,52.44,0,0,1,143.74,100.87Z" style="fill:#fff"/><path d="M151.71,128.44a.34.34,0,0,1-.14-.28.34.34,0,0,1,.34-.33c14.57.48,16.41-25,16.43-25.31a.33.33,0,0,1,.35-.31.33.33,0,0,1,.31.36,55,55,0,0,1-2.76,13.08c-3.07,8.61-8,13.06-14.35,12.85A.28.28,0,0,1,151.71,128.44Z" style="fill:#fff"/><path d="M128.76,167.55l-.08-.07c-7.88-10.55-8.55-20.13-7.72-26.3a27.59,27.59,0,0,1,3.75-11,.33.33,0,0,1,.46-.1.35.35,0,0,1,.09.47,27.57,27.57,0,0,0-3.64,10.75c-.81,6-.14,15.42,7.6,25.78a.32.32,0,0,1-.07.46A.33.33,0,0,1,128.76,167.55Z" style="fill:#fff"/><path d="M121.07,199.82a.33.33,0,0,1,.28-.59c15.73,4.67,28.24-4.81,36-13.59a88.64,88.64,0,0,0,13.19-20.45.33.33,0,0,1,.61.27,89.17,89.17,0,0,1-13.3,20.62c-5,5.67-10.28,9.8-15.71,12.28a29.17,29.17,0,0,1-21,1.51A.31.31,0,0,1,121.07,199.82Z" style="fill:#fff"/></g></g></g><path d="M166.46,248.8c9.54-10.69,2.58-35.74-6.22-50-5.66-9.18-10.1-10.73-12.64-20-3.52-12.85,2.89-17.52-.27-31-2.87-12.27-8.83-11.47-12.57-24-4.4-14.73,3.1-19.39.27-33.77-3.18-16.15-17.31-34-30.21-32.32-8.7,1.12-16.22,11-18.07,20.43C83.88,92.67,96.22,97.57,96.81,116a31.53,31.53,0,0,1-1,9.46A65.15,65.15,0,0,1,89,141.19c-6.44,11.67-4.61,25.17-3.91,30.36,1.85,13.64,8,13.77,14,31.1,6.1,17.85,1,22,6.1,31.25C116,253.59,154.49,262.2,166.46,248.8Z" style="fill:url(#linear-gradient-7)"/><g style="opacity:0.7000000000000001;mix-blend-mode:soft-light"><g style="clip-path:url(#clip-path-2)"><g style="mix-blend-mode:soft-light"><path d="M163.28,267.45a.32.32,0,0,1-.16,0C145,256.59,134.14,244,130.74,230c-1.69-7-1.21-12.14-.7-17.61.56-6,1.14-12.21-1-21.53-2.22-9.5-5.78-13.5-9.23-17.38-3.23-3.63-6.58-7.39-8.62-15.61-3-12.08-1.2-20.5.72-29.41,1.55-7.26,3.16-14.76,2.4-24.9-1.27-16.91-9.68-33.79-25-50.17a.31.31,0,0,1,0-.44.33.33,0,0,1,.45,0c15.41,16.49,23.87,33.49,25.16,50.55.77,10.23-.85,17.78-2.42,25.08-1.9,8.84-3.69,17.19-.72,29.12,2,8.07,5.15,11.61,8.48,15.35,3.5,3.94,7.12,8,9.38,17.65,2.21,9.43,1.62,15.69,1.06,21.74-.51,5.41-1,10.52.69,17.4,3.35,13.84,14.15,26.29,32.09,37a.31.31,0,0,1,.1.43A.29.29,0,0,1,163.28,267.45Z" style="fill:#fff"/><path d="M114.57,103.85h-.07a45.31,45.31,0,0,1-26.4-18.6,48.16,48.16,0,0,1-6.54-13.55.31.31,0,1,1,.61-.15A47.6,47.6,0,0,0,88.64,84.9a44.68,44.68,0,0,0,26,18.33.31.31,0,0,1,.23.38A.33.33,0,0,1,114.57,103.85Z" style="fill:#fff"/><path d="M114.14,164.46a.33.33,0,0,1-.3-.22.32.32,0,0,1,.2-.4c13.64-4.67,20.18-18.13,23.25-28.6a89.44,89.44,0,0,0,3.45-21.89.31.31,0,0,1,.31-.31h0a.31.31,0,0,1,.32.31,90.09,90.09,0,0,1-3.47,22.06c-3.12,10.62-9.76,24.27-23.66,29Z" style="fill:#fff"/><path d="M130.84,200.23h0a51.72,51.72,0,0,1-41.39-23.44,64.81,64.81,0,0,1-9.37-21.48.32.32,0,0,1,.25-.37.31.31,0,0,1,.37.25A64.22,64.22,0,0,0,90,176.46c6.63,9.82,19.11,21.82,40.9,23.14a.32.32,0,0,1,0,.63Z" style="fill:#fff"/><path d="M139.92,247.93a.32.32,0,0,1-.3-.21.33.33,0,0,1,.2-.4c15.66-5.31,20.79-19.64,22.33-30.74a79.41,79.41,0,0,0-.42-23.1.32.32,0,0,1,.25-.37.31.31,0,0,1,.37.25,80.46,80.46,0,0,1,.42,23.31,45.78,45.78,0,0,1-6.21,18.27,30.69,30.69,0,0,1-16.54,13Z" style="fill:#fff"/></g></g></g><path d="M121.85,260.92c-14.46,1-25-8.7-27.56-11-1.48-1.36-13.37-12.6-14.07-29.25-.62-14.95,8.35-20.88,4.47-35.38a40.43,40.43,0,0,0-5.47-11.85C73.25,165,68.29,166,64,159.11c-4.56-7.37-3.39-15.8-2.62-21.3.93-6.71,1.79-12.88,6.9-16.4s12.47-3.26,17.69-.18c8,4.74,4.71,12.84,14.16,22.7,6,6.22,8.75,4.53,13.07,10.64,4.7,6.65,3,10.83,6.48,18.46s8.36,9.84,15.31,16.39c6.62,6.24,20.79,19.58,21.27,34.49C156.83,240.23,141,259.61,121.85,260.92Z" style="fill:url(#linear-gradient-8)"/><g style="opacity:0.7000000000000001;mix-blend-mode:soft-light"><g style="clip-path:url(#clip-path-3)"><g style="mix-blend-mode:soft-light"><path d="M136.47,263.74a.35.35,0,0,1-.19-.06c-19-13.64-28.82-27.52-29.14-41.26-.13-5.52,1.2-10.36,2.49-15,2-7.08,3.81-13.77.65-22.31-2.73-7.38-8.41-13.43-11.8-17-2.46-2.61-4.46-4.71-6.22-6.56-4.53-4.76-7-7.39-9.82-10.9-7.21-9.07-10.29-22-9.15-38.4a.34.34,0,0,1,.36-.31.33.33,0,0,1,.31.35c-1.13,16.24,1.9,29,9,37.94,2.77,3.49,5.26,6.11,9.78,10.86,1.76,1.85,3.76,3.95,6.22,6.57,3.43,3.64,9.17,9.75,11.94,17.26,3.24,8.74,1.36,15.53-.62,22.71-1.28,4.63-2.6,9.42-2.48,14.84.32,13.52,10,27.23,28.87,40.74a.35.35,0,0,1,.08.47A.34.34,0,0,1,136.47,263.74Z" style="fill:#fff"/><path d="M81.09,155.82c-9.71,0-15.38-3-18.54-5.82a15.61,15.61,0,0,1-5-7.64.33.33,0,0,1,.25-.4.34.34,0,0,1,.4.26A15.37,15.37,0,0,0,63,149.53c3.63,3.19,10.68,6.7,23.66,5.31a.33.33,0,1,1,.07.66A52.55,52.55,0,0,1,81.09,155.82Z" style="fill:#fff"/><path d="M103.59,173.62a.33.33,0,0,1-.28-.15.33.33,0,0,1,.1-.46c12.12-8.07-1.2-29.92-1.34-30.14a.35.35,0,0,1,.11-.46.33.33,0,0,1,.46.11A54.83,54.83,0,0,1,108,154.77c2.49,8.8,1,15.3-4.22,18.8A.32.32,0,0,1,103.59,173.62Z" style="fill:#fff"/><path d="M107.62,218.79h-.1C95,214.77,88.87,207.36,86,201.86a27.61,27.61,0,0,1-3.34-11.14.33.33,0,1,1,.66,0,27.86,27.86,0,0,0,3.29,10.87c2.85,5.39,8.84,12.64,21.15,16.57a.33.33,0,0,1-.1.65Z" style="fill:#fff"/><path d="M120.11,249.53a.34.34,0,0,1-.32-.23.33.33,0,0,1,.21-.42c15.51-5.33,20.19-20.32,21.39-31.95a88.73,88.73,0,0,0-1.14-24.31.34.34,0,0,1,.26-.4.33.33,0,0,1,.39.26A88.6,88.6,0,0,1,142.05,217c-.77,7.52-2.67,13.95-5.65,19.12a29.17,29.17,0,0,1-16.19,13.4Z" style="fill:#fff"/></g></g></g><path d="M63.87,269.68a19.62,19.62,0,0,1-3.48-.42c-18.37-4-.27-34-.27-34,1.11-2.1,2.59-6,4.37-8.85h0c3-4.82,6.76-6.85,11,6.84C82.21,255.15,87.82,270.62,63.87,269.68Z" style="fill:url(#linear-gradient-9)"/><path d="M63.87,269.68a19.62,19.62,0,0,1-3.48-.42C66.26,267.14,72,254.31,72,245.46c0-9.72-7.52-19-7.52-19h0c3-4.82,6.76-6.85,11,6.84C82.21,255.15,87.82,270.62,63.87,269.68Z" style="opacity:0.30000000000000004;mix-blend-mode:multiply;fill:url(#linear-gradient-10)"/><path d="M351.33,278.83a31.2,31.2,0,0,1-6-.81c-31.79-7.72-.46-65.38-.46-65.38,1.92-4,4.48-11.49,7.55-17h0c5.14-9.28,11.69-13.2,19,13.16C383.07,250.86,392.79,280.65,351.33,278.83Z" style="fill:url(#linear-gradient-11)"/><path d="M351.33,278.83a31.2,31.2,0,0,1-6-.81c10.16-4.07,20.11-28.76,20.11-45.8,0-18.7-13-36.61-13-36.61h0c5.14-9.28,11.69-13.2,19,13.16C383.07,250.86,392.79,280.65,351.33,278.83Z" style="opacity:0.30000000000000004;mix-blend-mode:multiply;fill:url(#linear-gradient-12)"/><path d="M286.52,122s6.24-12.09,16.94-7.4,9.7,2.22,17.12,3.16,16.62,6.08,10.64,7.12-52.81,2.23-52.81,2.23S279.1,122.59,286.52,122Z" style="fill:#fff"/><polygon points="178.35 267.76 113.88 270.8 113.88 188.61 178.35 188.61 178.35 267.76" style="fill:#fff"/><polygon points="142.68 201.1 142.68 264.27 127.31 265.64 118.91 266.39 118.91 201.46 142.68 201.1" style="fill:url(#linear-gradient-13)"/><polygon points="170.57 200.7 170.57 261.87 147.71 263.86 147.71 201.04 170.57 200.7" style="fill:url(#linear-gradient-14)"/><path d="M142.68,243.35v20.92l-15.38,1.37c-4.16.1-7,.33-8.39.5V213.79c4.11,1.73,11.93,6.55,16,20C136.34,238.53,138.57,241.39,142.68,243.35Z" style="opacity:0.30000000000000004;mix-blend-mode:multiply;fill:url(#linear-gradient-15)"/><path d="M170.57,259.52v2.35l-22.86,2V245.63C156.4,248.59,166.91,249.47,170.57,259.52Z" style="opacity:0.30000000000000004;mix-blend-mode:multiply;fill:url(#linear-gradient-16)"/><polygon points="194.34 257.88 121.44 260.54 32.06 269.78 32.81 266.39 12.83 266.29 12.83 271.77 12.81 271.77 86.44 297.59 191.61 285.31 320.6 312.75 380.9 277.77 380.9 272.44 194.34 257.88" style="fill:url(#linear-gradient-17)"/><polygon points="320.69 307.42 381.09 272.44 367.42 271.2 194.43 252.55 121.48 255.21 13.03 266.44 86.44 291.34 191.61 279.98 320.69 307.42" style="fill:#97a6b7"/><polygon points="191.61 279.98 191.61 285.31 320.55 312.75 320.55 307.28 191.61 279.98" style="opacity:0.5;mix-blend-mode:multiply;fill:url(#linear-gradient-18)"/><polygon points="86.44 291.34 86.44 297.59 12.72 271.77 12.9 266.44 86.44 291.34" style="fill:url(#linear-gradient-19)"/><rect x="105.19" y="201.41" width="8.69" height="69.5" style="fill:url(#linear-gradient-20)"/><polygon points="329.69 115.09 329.69 196.64 278.28 196.36 274.82 196.34 274.82 100.26 278.28 101.15 329.69 115.09" style="fill:url(#linear-gradient-21)"/><polygon points="272.99 274.76 209.9 268.17 209.9 188.15 272.99 188.15 272.99 274.76" style="fill:#97a6b7"/><polygon points="263.39 208.79 263.39 275.28 244.9 272.92 230.73 269.54 221.33 269.88 219.93 269.72 216.3 269.25 216.3 207.33 263.39 208.79" style="fill:#fff"/><polygon points="240.99 213.63 240.99 272.44 230.39 271.06 221.33 269.88 221.33 212.85 222.9 212.92 240.99 213.63" style="fill:url(#linear-gradient-22)"/><polygon points="266.14 214.63 266.14 275.71 244.65 272.97 244.65 213.79 263.18 214.52 266.14 214.63" style="fill:url(#linear-gradient-23)"/><polygon points="37.52 204.28 37.52 265.71 43.92 267.35 43.92 219.13 75.01 219.09 75.01 274.16 84.61 276.53 84.61 200.77 37.52 204.28" style="fill:url(#linear-gradient-24)"/><polygon points="50.78 266.83 43.92 267.49 43.92 217.98 50.78 217.91 50.78 266.83" style="fill:url(#linear-gradient-25)"/><polygon points="323.75 176.28 285.8 173.57 285.8 121.69 323.75 129.54 323.75 176.28" style="fill:#fff"/><polygon points="304.09 130.42 304.09 169.93 289 168.67 289 127.53 293.23 128.32 304.09 130.42" style="fill:url(#linear-gradient-26)"/><polygon points="320.55 133.63 320.55 171.35 306.83 170.2 306.83 131.01 320.55 133.63" style="fill:url(#linear-gradient-27)"/><path d="M300.3,141.12a17.75,17.75,0,0,0,3.79,7.49v21.32L289,168.67V127.53l4.17.8C295.68,130.17,298.59,133.84,300.3,141.12Z" style="opacity:0.30000000000000004;mix-blend-mode:multiply;fill:url(#linear-gradient-28)"/><path d="M320.55,164.22v7.13l-13.72-1.15V151.81C311.86,156.57,317.8,160.1,320.55,164.22Z" style="opacity:0.30000000000000004;mix-blend-mode:multiply;fill:url(#linear-gradient-29)"/><path d="M266.14,259.44v16.27L244.65,273v-.05l-14.28-1.86-9-1.18v-57l1.65.07c4.53,2.57,11.19,9,15,24.79a22.28,22.28,0,0,0,3.24,7.66,18.37,18.37,0,0,0,3.68,3.91c5.36,4.22,12.46,5.33,18.42,8.42A23.09,23.09,0,0,1,266.14,259.44Z" style="opacity:0.30000000000000004;mix-blend-mode:multiply;fill:url(#linear-gradient-30)"/><polygon points="274.82 200.44 105.19 202.08 105.19 130.85 274.82 99.59 274.82 200.44" style="fill:url(#linear-gradient-31)"/><polygon points="278.48 101.15 278.48 201.41 274.82 201.41 274.82 100.26 278.48 101.15" style="fill:url(#linear-gradient-32)"/><polygon points="171.49 182.04 114.79 187.05 114.79 143.51 171.49 135.07 171.49 182.04" style="fill:#fff"/><polygon points="131.71 145.47 131.71 181.11 118.45 182.42 118.45 147.44 122.56 146.82 131.71 145.47" style="fill:url(#linear-gradient-33)"/><polygon points="149.08 142.93 149.08 179.44 134.45 180.82 134.45 145.03 149.08 142.93" style="fill:url(#linear-gradient-34)"/><polygon points="167.83 140.28 167.83 177.69 152.74 179.14 152.74 142.48 167.83 140.28" style="fill:url(#linear-gradient-35)"/><path d="M124.94,149c5.24,5.38,4.48,9.76,6.77,12.15v20l-13.26,1.31v-35l4.11-.62A15.44,15.44,0,0,1,124.94,149Z" style="opacity:0.4;mix-blend-mode:multiply;fill:url(#linear-gradient-36)"/><path d="M141.77,163c2.5-.16,5-.27,7.31-.29v16.75l-14.63,1.38V162.69A24.6,24.6,0,0,0,141.77,163Z" style="opacity:0.4;mix-blend-mode:multiply;fill:url(#linear-gradient-37)"/><path d="M167.83,166.57v11.12l-15.09,1.45v-16.4C158.68,163,164.17,164,167.83,166.57Z" style="opacity:0.4;mix-blend-mode:multiply;fill:url(#linear-gradient-38)"/><path d="M84.61,200.7v75.83l125.29-8.36V201.74Zm80,51.36-58.53,4.12v-37.7l58.53-1.83Z" style="fill:url(#linear-gradient-39)"/><polygon points="274.09 101.23 293.55 46.77 336.33 111.22 274.09 101.23" style="fill:url(#linear-gradient-40)"/><polygon points="293.55 46.77 154.69 78.79 96.45 132.79 274.09 101.23 293.55 46.77" style="fill:url(#linear-gradient-41)"/><polygon points="179.74 54.39 179.62 60.81 214.55 107.42 233.72 108.41 231.63 66.59 179.74 54.39" style="fill:url(#linear-gradient-42)"/><polygon points="215.1 131.01 216.6 110.99 179.62 60.81 156.43 122.25 159.41 131.01 215.1 131.01" style="fill:url(#linear-gradient-43)"/><polygon points="179.74 54.33 153.88 122.69 156.43 122.25 181.76 65.66 179.74 54.33" style="fill:url(#linear-gradient-44)"/><polygon points="336.33 111.22 275.13 97.85 231.63 106.11 216.88 107.12 179.74 54.33 147.45 124.22 153.79 122.87 179.9 63.07 215.72 112.2 231.63 111.32 273.6 102.64 336.33 115.74 336.33 111.22" style="fill:#fff"/><polygon points="96.45 132.79 96.45 136.03 153.88 126.77 153.79 122.45 96.45 132.79" style="fill:#fff"/><polygon points="318.26 295.19 240.99 282.09 240.99 197.34 318.26 192.1 318.26 295.19" style="fill:url(#linear-gradient-45)"/><polygon points="367.19 271.95 318.26 295.19 318.26 191.95 367.19 195.6 367.19 271.95" style="fill:url(#linear-gradient-46)"/><polygon points="306.83 276.05 248.3 267.83 248.3 210.25 306.83 212.22 306.83 276.05" style="fill:#fff"/><polygon points="265.68 216.77 265.68 264.29 251.05 262.46 251.05 216.15 255.07 216.31 265.68 216.77" style="fill:url(#linear-gradient-47)"/><polygon points="283.51 217.57 283.51 266.65 268.42 264.69 268.42 216.9 283.51 217.57" style="fill:url(#linear-gradient-48)"/><polygon points="302.71 218.43 302.71 269.15 286.71 267.07 286.71 217.72 302.71 218.43" style="fill:url(#linear-gradient-49)"/><path d="M265.68,231v33.28l-14.63-1.83V216.15l4,.16C258.07,218.59,262.48,223,265.68,231Z" style="opacity:0.30000000000000004;mix-blend-mode:multiply;fill:url(#linear-gradient-50)"/><path d="M283.51,248v18.61l-15.09-2V238.05C271.17,243,277.11,245.64,283.51,248Z" style="opacity:0.30000000000000004;mix-blend-mode:multiply;fill:url(#linear-gradient-51)"/><path d="M302.71,259.65v9.5l-16-2.08V249.33C292.66,251.79,299.06,254.45,302.71,259.65Z" style="opacity:0.30000000000000004;mix-blend-mode:multiply;fill:url(#linear-gradient-52)"/><path d="M41.69,202.11,32.07,205v3.89l52.54-3.39L209.9,205s.53-4,0-3.93-32.28-2.75-32.28-2.75-112.8-.76-113.27-.52S41.69,202.11,41.69,202.11Z" style="fill:#fff"/><path d="M76.23,191.64c-.35.08-12.53,0-13.59.14-.58.11-30.92,13.22-30.57,13.22s52.27-3.59,52.27-3.59Z" style="fill:url(#linear-gradient-53)"/><path d="M84.34,201.41l125.56-.34s-22.88-10.82-24.08-11-123.18,1.69-123.18,1.69Z" style="fill:url(#linear-gradient-54)"/><polygon points="247.77 193.67 239.34 194.97 239.34 198.75 318.26 196.57 370.49 199.63 370.49 195.6 326.77 190.08 247.77 193.67" style="fill:#fff"/><path d="M370.49,195.6c-2.37-.17-53.41-3.42-53.41-3.42s2.88-2.82,4.16-4,18.51-5.73,18.51-5.73Z" style="fill:url(#linear-gradient-55)"/><polygon points="239.34 194.97 317.08 192.18 339.75 182.42 274.22 184.82 239.34 194.97" style="fill:url(#linear-gradient-56)"/><polygon points="260.26 174.46 197.05 180.04 197.05 131.5 260.26 122.08 260.26 174.46" style="fill:#fff"/><polygon points="215.91 133.68 215.91 173.42 201.13 174.88 201.13 135.88 205.71 135.19 215.91 133.68" style="fill:url(#linear-gradient-57)"/><polygon points="235.28 130.85 235.28 171.56 218.97 173.1 218.97 133.2 235.28 130.85" style="fill:url(#linear-gradient-58)"/><polygon points="256.19 127.9 256.19 169.6 239.36 171.22 239.36 130.35 256.19 127.9" style="fill:url(#linear-gradient-59)"/><path d="M206.41,140c2,6.68,7.61,10.12,9.5,11.17v22.27l-14.79,1.46v-39l4.59-.69A17.22,17.22,0,0,0,206.41,140Z" style="opacity:0.4;mix-blend-mode:multiply;fill:url(#linear-gradient-60)"/><path d="M227.13,153.21c2.79-.18,5.6-.31,8.15-.32v18.67L219,173.1V152.88A27,27,0,0,0,227.13,153.21Z" style="opacity:0.4;mix-blend-mode:multiply;fill:url(#linear-gradient-61)"/><path d="M256.19,157.21V169.6l-16.83,1.62V152.94C246,153.18,252.11,154.31,256.19,157.21Z" style="opacity:0.4;mix-blend-mode:multiply;fill:url(#linear-gradient-62)"/><path d="M353.29,273.8s-19.08,35.11,3.53,36.1,17.31-15.25,11-38.22S356.1,267.89,353.29,273.8Z" style="fill:url(#linear-gradient-63)"/><path d="M175.16,43.91s6.17-12,16.76-7.33,9.61,2.2,17,3.13,16.45,6,10.53,7S167.11,49,167.11,49,167.8,44.53,175.16,43.91Z" style="fill:#fff"/><polygon points="248.31 363.91 96.03 302.48 188.21 291.82 315.63 322.14 248.31 363.91" style="fill:#d8dee8"/><polygon points="96.04 302.46 96.04 306.21 248.27 367.95 248.31 363.91 97.29 302.41 96.04 302.46" style="fill:url(#linear-gradient-64)"/><polygon points="315.69 322.28 315.34 325.89 248.27 367.95 248.31 363.91 315.69 322.28" style="fill:url(#linear-gradient-65)"/><polygon id="_Clipping_Path_2" data-name="&lt;Clipping Path&gt;" points="248.79 354.77 111.89 304.01 188.1 294.56 303.9 323.38 248.79 354.77" style="fill:url(#linear-gradient)"/><g style="clip-path:url(#clip-path-4)"><g style="clip-path:url(#clip-path-5)"><path d="M172.08,292.79,111,305l143.73,73.55,94.52-60.84Zm128.07,22c10.15,2.19,13.44,3.63,8.56,8-5.45,4.86-35,9.69-44,5.4-7.84-3.75-31.93-9.88-28.4-12.64,3.27-2.56,30.41.7,46.87,2.05C301.4,319.06,300.15,314.78,300.15,314.78ZM250.52,326s-13.6,3.81-20.74,2.23c-6.7-1.48-7.5-5.34-15.92-8.33-7.46-2.65-2.32-9.7,6.49-6.49C230.73,317.23,250.52,326,250.52,326Zm40.41-13.25c7.32,2.17-11.41.29-23.15.65-11.4.36-18.52-1-13.66-2.38,4.7-1.37,1.73-3.48,1.73-3.48C258.2,306.31,284.25,310.8,290.93,312.78ZM247,305.59c8,.8,3.46,5.49-2.7,5-5.9-.51-19.64,1.08-31.4-.28-10.65-1.24,3.3-2.2,13.5-4A88.68,88.68,0,0,1,247,305.59Zm-11.52-1.72a2,2,0,0,1,.54,0c.11,0-.09,0-.54,0-1.87,0-7.28,1.16-12.78,1.35-6.07.2-9.31-.73-7.93-2.09S213,300.4,213,300.4,231.72,303.37,235.47,303.87Zm-84.95-2.32c1.92-1.14,5.41-3.79,5.41-3.79a38.09,38.09,0,0,0,5.41,1.14c2.06.18,8.65-.35,7.48.39s-7.94,2.13-6.73,2.77,4.67,4.69.78,4.26S148.5,302.76,150.52,301.55ZM144.63,303c-2.15.28-12.65-.05-12.23-.4s18.74-4.09,18.74-4.09a10.28,10.28,0,0,0-2.34,1.91A6.16,6.16,0,0,1,144.63,303Zm27.08-1.88c6.91.94,13.78,1.48,18.63,1.08s13.39,1.35,13.39,1.35-.81.64-5.85.75-25.48,1.71-27,.79S165.36,300.25,171.71,301.11Zm.16,11.21c-.6,1.14-10,.2-14.33-.49-4.14-.65,3-4.27,3-4.27C164.5,306.19,172.45,311.23,171.87,312.32Zm-.33-3.59c-5.15-2,6.9-3.13,18.36-3.25,12.07-.13,21.79-.13,21.79-.13s1.69,2.27-7.59,3.2S177.35,311,171.54,308.73ZM197,298.38c7-.29,11.16,1.93,12.81,3.28s-6.28,1.23-11,.46c-4.42-.72-13.75-.17-16.19-1.64-2.24-1.35,6.91-1.08,11.11-1.33S197,298.38,197,298.38Zm-3.79-.41c1.6.74-3,.55-8.28,1.08s-9.57-.21-8.63-.54a36.38,36.38,0,0,0,4.36-3C182.94,295.76,191.73,297.27,193.25,298Zm-21-3.14c7.21-.93,5.38,2.4,5.38,2.4-6.11,2.27-15,.65-15.47-.64S165,295.76,172.23,294.83Zm-43,13.12c-.93-1-6.67-3.75-.87-4.79a80.74,80.74,0,0,0,11.4,1.11c4.23-.11,9.68-.52,11.09.57s-2.8,2-10,2.89S130.24,309,129.24,308Zm24.09-1.86c2.58.36,6.29,3.47-1.24,4.46a38,38,0,0,1-15.19-1.38C135.66,308.87,153.33,306.09,153.33,306.09Zm1.21,12.78c-6.68-2-18.31-7.3-19.9-8.5s9.65,2,10.29,2l24.6,1.89C170.15,315.81,162,321.05,154.54,318.87Zm50.31-8s3.07,4.69-1.63,7.76c-5.15,3.37-13.53,1.12-24.34-.27C169,317.09,181.6,307.91,204.85,310.88ZM164.49,323c-4.48-2.18,7.91-6,7.91-6s1.62,7.36,4.59,8.27S169.43,325.36,164.49,323Zm15.07.19c-4.54-2,18.93-1.48,27.4-.5,9,1,4.32,5.19,4.32,5.19C191.94,332.56,184.5,325.32,179.56,323.15Zm14.68,16.69c-23.76-8-10.6-13.42-9.51-8.27,1.28,6.08,38.16-2.74,43.2-1,5.37,1.83,4.47,21.31,4.47,21.31S226.77,350.83,194.24,339.84Zm48.22,13.92c5.11-9.71-14.25-27.49,10.12-22.94,0,0,36.78,3.7,43.45,3.44C280.51,340.39,236.16,365.7,242.46,353.76Z" style="fill:#fff;opacity:0.2;mix-blend-mode:soft-light"/><g style="opacity:0.2"><path d="M252.34,379.46,110.07,305.14s.06-.07.23-.1l61.13-12.23a1.47,1.47,0,0,1,.35,0l176.87,25c.46.06.73.18.6.26L254,379.52A1.84,1.84,0,0,1,252.34,379.46ZM110.75,305.05l142,73.07,94.62-60.19-175.86-25Zm16.67,4.82a5.88,5.88,0,0,1-1.48-.94c-3.35-3.06-3.17-3.53-3.16-3.55s.07,0,.15-.07a1.45,1.45,0,0,1,.29,0c.78-.06,19.48-1.52,21.07-1.1h0c.63.2-1.47,1-4.23,2-3.54,1.33-8.21,3.08-6.91,3.64a4.47,4.47,0,0,0,1.36.18,10.27,10.27,0,0,1,2.62.26c.4.17,0,.37-.56.49a16.14,16.14,0,0,1-4.23.2A14.78,14.78,0,0,1,127.42,309.87Zm-4-4.49c.06.21.47,1,3.21,3.41a5.56,5.56,0,0,0,1.46.93,14.36,14.36,0,0,0,4.79,1.06,14.2,14.2,0,0,0,3.44-.13c.34-.07.26-.15.14-.21a8.68,8.68,0,0,0-2.38-.23,4.79,4.79,0,0,1-1.6-.22c-1.43-.62,3.22-2.36,7.09-3.81,2.3-.86,4.61-1.73,4.15-1.87h0C142.53,304,129,304.94,123.43,305.38Zm39.86,18.2a110.58,110.58,0,0,1-11.73-5.71c-1.56-1,0-1.83,1.59-2.33,4-1.25,12.32-1.93,15.63-1.7.11,0,.18,0,.19.06s4.53,9.4,4.68,9.73c.08.1,1.32.82,2.67,1.61,9,5.26,9.66,6,8.71,6.29a4,4,0,0,1-2.32-.27C179,330.09,170.5,326.72,163.29,323.58Zm4.86-9.52c-3.16-.17-10.93.47-14.5,1.6-1.94.62-2.38,1.29-1.25,2a110.93,110.93,0,0,0,11.76,5.64c7.23,3.11,15.7,6.44,19.41,7.59l.44.13c-1-1.07-6.22-4.13-8.64-5.56a22.4,22.4,0,0,1-2.74-1.7C172.49,323.46,168.46,314.75,168.15,314.06Zm29.63,23.69c-5.23-2.25-2.8-4.68,1.58-8.49,3.37-2.94,6.29-4.35,9.92-4.86a30.74,30.74,0,0,1,9.65.43,31.59,31.59,0,0,1,3.65.83c5.61,1.65,6.71,4.1,7.85,6.65.27.61.56,1.25.91,1.87,2.19,3.87,27.17,16.07,27.47,16.22s.36.32.19.45c-1,.78-2.74,1.24-5.12,1.35-11.84.54-33.94-7-46.24-11.15-2.95-1-5.43-1.84-7.06-2.32A25.22,25.22,0,0,1,197.78,337.75Zm24-11.79a30,30,0,0,0-3.42-.79,27.6,27.6,0,0,0-8.7-.43c-3.24.46-6,1.84-9.18,4.63-4.26,3.76-6.44,6-1.66,8a24.09,24.09,0,0,0,2.65.92c1.66.48,4.16,1.32,7.14,2.32,11.31,3.8,33.75,11.33,44.76,10.82a8.08,8.08,0,0,0,3.71-.84c-3.92-1.95-25-12.56-27.06-16.31a19,19,0,0,1-.89-1.9C228,329.9,227,327.53,221.75,326Zm-78.12-11.62c-2.4-1-2.67-2.66-1.46-2.95a1.81,1.81,0,0,1,.6-.05.94.94,0,0,1,.42.13l.05,0c1.51.6,17.56,1.32,17.73,1.33s.19,0,.18.07-.1.08-.23.11c-.51.12-12.85,3-16.86,1.5Zm-1.23-2.74c-.3.39-.23,1.62,2,2.56l.42.16c3.13,1.13,12.44-.73,15.06-1.3-3.18-.15-15.91-.78-17.33-1.35l-.08,0Zm-21-6.8c-.5-.21,5.18-1.45,16.72-3.91,4-.85,7.71-1.64,10-2.17a1.93,1.93,0,0,1,.33,0c.09,0,.12,0,.07,0-.93.47-1.05,2.83-1.06,3,.57.38.36.71-.65,1-2.09.6-7.06.86-12.25,1.14-4,.21-8.11.42-11.19.81A7,7,0,0,1,121.4,304.8Zm26.42-5.89c-2.35.53-5.77,1.26-9.46,2-4,.84-8.15,1.74-11.34,2.45-5,1.12-5.06,1.26-5,1.28a7.59,7.59,0,0,0,1.48-.13c3.18-.41,7.32-.62,11.38-.84,4.77-.25,9.78-.51,11.58-1,.81-.24,1-.53.45-.88h0C146.89,301.69,147,299.61,147.82,298.91Zm42.37,32-.11-.06-.91-.47c-3.62-1.87-12.17-6.28-7.37-9.22a11.28,11.28,0,0,1,4.75-1.28c6.6-.65,16.83,1,20.73,2.22a9.07,9.07,0,0,1,1.41.52c.1,0,.11.11,0,.17-2,1.22-13.44,7.94-17.41,8.23A2.71,2.71,0,0,1,190.19,330.89Zm16.29-8.55c-4.27-1.3-14.12-2.75-19.86-2.19a9.26,9.26,0,0,0-4,1.07c-4.47,2.77,4.28,7.21,7.5,8.85l.93.48a.25.25,0,0,0,.16,0c2.55-.18,11.56-5,16.32-7.84A10,10,0,0,0,206.48,322.34Zm-65.07-12.69c-2.71-1-1.45-2.23,3.57-3.63l.2,0c.24,0,5.84-.75,7.78-.16a1,1,0,0,1,.63.41c.44.95-1.26,4.35-4.45,5a4.08,4.08,0,0,1-2-.06c-.53-.16-1.27-.33-2-.51A30.17,30.17,0,0,1,141.41,309.65Zm3.87-3.54c-4.69,1.32-5.79,2.4-3.19,3.39a31,31,0,0,0,3.6,1c.79.18,1.55.35,2.09.52a2.42,2.42,0,0,0,1.14.08c2.26-.45,4.5-3.57,4-4.75a.83.83,0,0,0-.55-.36C150.74,305.47,146.05,306,145.28,306.11Zm31.53,12.72a2.55,2.55,0,0,1-.64-.31c-1.45-1-4.73-4-2.31-4.9a5.41,5.41,0,0,1,1.83-.28c2.91-.06,15.16,1.62,20.74,3.2,2.08.59,2.95,1.09,2.64,1.51a2.65,2.65,0,0,1-1.45.56l-.12,0C196.82,318.7,181,320.3,176.81,318.83Zm18.88-2.06c-5.36-1.54-17.49-3.24-20.24-3.19a2.74,2.74,0,0,0-1,.14c-1.68.62.32,3,2.59,4.63a2,2,0,0,0,.54.25c3.78,1.31,18.56-.13,19.69-.25a1.47,1.47,0,0,0,.81-.31C198.27,317.82,198,317.42,195.69,316.77Zm-37.3-5a1.36,1.36,0,0,1-.69-.42,12.5,12.5,0,0,0-1-1.24c-1-1.12-1.81-2,0-2.71a19.22,19.22,0,0,1,4.21-.94c7.72-1.08,20.25-1.07,20.8-1.07a.41.41,0,0,1,.19,0c4,1.81,2.79,3.8-4,5.33S161.29,312.78,158.39,311.79Zm22.83-6.2c-1.44,0-13.19,0-20.3,1a16.39,16.39,0,0,0-3.71.82c-1.6.66-.79,1.52.19,2.56a10.79,10.79,0,0,1,1.08,1.24,1.18,1.18,0,0,0,.61.36c2.69.91,12.13.41,18.37-1C181.21,309.78,186.47,308,181.22,305.59Zm77.9,40.54C252.46,343.85,238.8,333,240,331.47s11.35-1.39,28.28-.62c13.45.62,25.56.4,25.68.39a2.69,2.69,0,0,1,.9.15c.23.09.28.21.14.28s-6.47,3.45-13.82,7c-16.7,8.11-19.19,7.92-20.24,7.84A7.13,7.13,0,0,1,259.12,346.13Zm33.49-14.35c-4,0-13.77.05-24.29-.44-8.71-.41-25.9-1.21-27,.28s12.79,12,18.77,14a3,3,0,0,0,.78.2C263.86,346,280.15,338.31,292.61,331.78ZM147.46,304a1.79,1.79,0,0,1-.29-.11c-1.21-.65,5.8-2.47,6.09-2.55a1.39,1.39,0,0,1,.4,0c.12,0,13.37,1,21.34,1.85a15.5,15.5,0,0,1,1.54.23c1.48.33.52.69-.2.88-3.29.85-13.78,1.46-17.16.83a55.8,55.8,0,0,0-7.29-.67A25.59,25.59,0,0,1,147.46,304Zm5.95-2.55c-1.15.3-6.61,1.8-5.63,2.32a1.28,1.28,0,0,0,.26.1,25.35,25.35,0,0,0,4.28.39,60.18,60.18,0,0,1,7.42.68c3.36.62,13.44-.06,16.18-.77.92-.23.93-.45.05-.65a14.42,14.42,0,0,0-1.45-.22C167.09,302.46,155,301.55,153.41,301.43Zm60.08,19.7a67.31,67.31,0,0,1-9.72-3.23c-.61-.32-.3-.52.07-.63,3-.9,27.9,1.73,32.35,2.39,3.79.57,8.15-.39,12.3-1.3a56.14,56.14,0,0,1,8.43-1.4,15.71,15.71,0,0,1,4.07.24,15.31,15.31,0,0,1,5.6,2.53A18.23,18.23,0,0,0,271,322c1.46.46,4.29,1.14,8.53,2,7.65,1.63,17.39,3.44,17.49,3.46.32,0,.53.16.52.25s-.24.16-.56.16-33.75.11-45.52.49C242.68,328.66,222.51,323.68,213.49,321.13Zm46.85-3.68a12.17,12.17,0,0,0-3.08-.18,53.59,53.59,0,0,0-8,1.36c-4.45,1-9.13,2-13.57,1.33-6.84-1-29.17-3.1-31.19-2.5-.13,0-.06.14.18.27a71.59,71.59,0,0,0,9.6,3.14c11.74,3.28,29.71,7.3,36.9,7.07,10-.32,35.36-.46,43.12-.5-3.37-.65-9.95-1.92-15.47-3.11-4.33-.93-7.24-1.63-8.77-2.12a18.61,18.61,0,0,1-4.61-2.37A14.18,14.18,0,0,0,260.34,317.45Zm-71.68-3.72c-5.71-1.59-5.27-4.53.3-8.38,2.88-2,11.74-2.12,11.83-2.12s.25,0,.27,0a40.93,40.93,0,0,1,2.74,5.08c1,2.18-.09,5-5.09,6a22.21,22.21,0,0,1-8.74-.31A13.24,13.24,0,0,1,188.66,313.73Zm11.7-10.33c-1.41,0-8.29.26-10.7,2-5.8,4-5.87,7.06,1,8.49a19.91,19.91,0,0,0,7.7.31c3.91-.75,5.76-3.2,4.65-5.72A42.49,42.49,0,0,0,200.36,303.4Zm8.35,11.31c-3.46-.87-2.51-4.28-1.89-6.52a4.73,4.73,0,0,0,.32-2c-.47-1.29,2.53-1.62,2.66-1.63a1,1,0,0,1,.35,0l1.52.26c3.66.67,10.11,2,9.62,3.17-.58,1.38,4.56,3.62,16.72,7,2.41.67,3.21,1.16,2.37,1.5-3.08,1.24-27.49-1.23-30.94-1.68C209.19,314.81,208.94,314.76,208.71,314.71Zm1.07-9.93c-.57.09-2.2.42-1.84,1.37a4.5,4.5,0,0,1-.28,2c-.57,2.19-1.45,5.54,1.75,6.33a4.48,4.48,0,0,0,.55.1c5.73.73,27.3,2.64,29.52,1.76.22-.09.44-.38-2.24-1.13-12.3-3.45-17.46-5.75-16.82-7.19.48-1.09-6.48-2.5-9.32-3Zm-58.7-4.49c-.6-.15-.48-.46.32-.89,1.94-1,7.3-2.53,11.72-3.31,6.47-1.14,8.66-1.25,12.08-1,.07,0,.09,0,.06,0a.8.8,0,0,1-.23.05,29.82,29.82,0,0,0-4.42.84c-1,.31-1.24.63-.81,1s.74.49,1.23.78c1.73,1,3.85,2.28,1.84,3.13a7.82,7.82,0,0,1-2.05.5c-4.24.63-9.47,0-13.82-.51-1.92-.23-3.7-.44-5.1-.49A4.67,4.67,0,0,1,151.08,300.29Zm23.36-5.13c-2.85-.19-4.81-.12-11.13,1-4.3.76-9.51,2.23-11.38,3.23-.73.39-.85.67-.32.8a3.53,3.53,0,0,0,.69.08c1.44.06,3.23.27,5.18.49,4,.48,9.34,1.1,13.21.53a6.41,6.41,0,0,0,1.64-.4c1.87-.79-.27-2.08-1.86-3-.48-.29-.93-.56-1.23-.79-.45-.34-.13-.7.93-1A28.15,28.15,0,0,1,174.44,295.16Zm10.05,9.28a6.65,6.65,0,0,1-1.37-.45c-2.42-1.06-1.58-2.33-.93-3.3.36-.55.67-1,.19-1.24s.38-.52,2.19-.86c3.16-.6,9.21-1.23,11.67-.86l.42.09c.05,0,4.36,1.19-.64,3.13-1.4.54-2.62,1.13-3.72,1.67a16.43,16.43,0,0,1-5.51,1.94A7.28,7.28,0,0,1,184.49,304.44Zm11.26-6.59c-2.25-.35-7.91.25-10.9.82-.71.13-2.32.47-1.87.69s.22.72-.15,1.29c-.61,1-1.42,2.19.95,3.23a5.85,5.85,0,0,0,3,.52,16,16,0,0,0,4.93-1.8c1.12-.54,2.36-1.14,3.77-1.69,4.81-1.85.71-3,.67-3A2.88,2.88,0,0,0,195.75,297.85Zm82.35,22.3c-9.29-1.82-14.35-3.65-14.47-5.06-.07-.93,1.84-1.69,5.68-2.28l.25,0c.93,0,23.68-.31,35.1,1.42,4.2.64,6.45,1.48,6.58,2.51.2,1.59,1.88,3,3.29,4.14s2.63,2.17.94,2.66-5.29.42-12.34,0A211.76,211.76,0,0,1,278.1,320.15Zm-8.22-7.08c-3.44.55-5.15,1.22-5.07,2,.13,1.31,5,3,13.94,4.76a207.82,207.82,0,0,0,24.32,3.2c6.38.42,9.83.46,11.05.11s.26-1.2-1.08-2.33-3.08-2.59-3.25-4.22c-.09-.89-2-1.6-5.67-2.16C293.54,312.85,271.79,313.05,269.88,313.07ZM230.19,310a25.21,25.21,0,0,1-7.23-2.48,18.12,18.12,0,0,0-4.88-1.78c-3.66-.71-6.47-1.83-5-2.45a13.57,13.57,0,0,1,4.53-.42c3.11,0,14.12.17,20.67,1.16,2.63.39,4.28.89,4.86,1.46,0,0,0,.08-.14.1a1.85,1.85,0,0,1-.43,0,11.15,11.15,0,0,0-2.25.13c-.73.15-1,.45-.8.87a5.47,5.47,0,0,0,1.44,1.27c1.42,1.05,3,2.18.93,2.7a22.28,22.28,0,0,1-6.26.1A48.8,48.8,0,0,1,230.19,310Zm7.57-5.81c-6.38-1-17.24-1.12-20.32-1.15a14.13,14.13,0,0,0-3.67.3c-1.13.47,1.08,1.5,4.9,2.24a18.62,18.62,0,0,1,5.08,1.82,25,25,0,0,0,7.06,2.41,45,45,0,0,0,5.19.65,19.88,19.88,0,0,0,5.22,0c1.59-.41.12-1.51-1.13-2.45a5.37,5.37,0,0,1-1.45-1.31c-.24-.49.15-.85,1.14-1.06a12.29,12.29,0,0,1,2.33-.2A11.5,11.5,0,0,0,237.76,304.15Zm14.76,8.93c-4.06-.75-7.81-2.1-7.43-3.43a2.3,2.3,0,0,0-.57-1.82c-.42-.62-.71-1.05.32-1.27a15.22,15.22,0,0,1,3.66-.06c6.22.37,25.2,3,34.51,4.41,1.42.21,2.56.39,3.41.53.2,0,.32.09.3.14s-.17.1-.38.11c-7.39.4-26.52,1.49-28.4,1.81A18.44,18.44,0,0,1,252.52,313.08Zm29.94-1.95c-9.82-1.5-28.4-4.07-34.23-4.42a14.89,14.89,0,0,0-2.78,0c-.63.14-.34.57,0,1.07a2.39,2.39,0,0,1,.62,1.87c-.33,1.25,3.23,2.51,7.06,3.21a16.62,16.62,0,0,0,4.15.4c2.15-.36,22.19-1.49,27.42-1.78ZM177.08,298.77c-1.06-.2-1.36-.66-.83-1.24s.2-.89,0-1.25-.34-.69.47-.85a9.27,9.27,0,0,1,1.8-.1,84,84,0,0,1,9.09.85c1.74.26,3.81.65,3.44,1a1.76,1.76,0,0,1-.71.22l-.21,0a52.22,52.22,0,0,0-8.45,1,15.56,15.56,0,0,1-2.64.42A8.26,8.26,0,0,1,177.08,298.77Zm10.08-2.48a84,84,0,0,0-8.94-.86,7,7,0,0,0-1.2.05c-.51.1-.35.42-.18.74s.41.81,0,1.27-.22,1,.75,1.16a6.52,6.52,0,0,0,1.57.06,12.64,12.64,0,0,0,2.16-.36,53.7,53.7,0,0,1,8.87-1.05.69.69,0,0,0,.29-.11C190.72,297,189.49,296.64,187.16,296.29Zm14.21,6c-1.25-.22-1.88-.57-1.85-1,0-.6,1.41-1.26,2.38-1.74.53-.25,1-.48,1-.58-.25-.05-.4-.08-.2-.14a1.35,1.35,0,0,1,.48,0,.74.74,0,0,1,.37.08c.56.1,1.84.31,3.85.61h0c5.68.87,15.8,2.35,15.91,2.36s.17.06.08.1a1.53,1.53,0,0,1-.47.06,126.46,126.46,0,0,0-13.39.3A32.74,32.74,0,0,1,201.37,302.33Zm2.08-3.24a9.62,9.62,0,0,1-.94.5c-.94.46-2.25,1.11-2.28,1.67s.55.73,1.69.93a30.21,30.21,0,0,0,7.47,0,115.24,115.24,0,0,1,12.07-.36c-3-.44-10.12-1.5-14.57-2.18h0Z" style="fill:#fff"/></g></g></g><polygon points="188.1 294.1 188.01 296.34 115.78 305.45 110.42 303.46 188.1 294.1" style="fill:#f4f7fa"/><polygon points="188.01 296.34 299.43 325.93 303.9 323.38 188.1 294.1 188.01 296.34" style="fill:url(#linear-gradient-67)"/><path d="M315.25,353.34a13.69,13.69,0,0,0,8.46.41c6.35-2,9.79-9.6,10.31-15.54.45-5.1-1.72-10.08-6.07-20-4.1-9.38-6.19-11.55-4.93-14.74,1.8-4.54,7.87-4.72,9.18-10.34a6.37,6.37,0,0,0-.52-4.82c-2.08-3.12-7.83-2.62-11.07-1.58s-7.57,3.7-8.35,7.79c-.57,3,1.28,4.13.23,6.5s-3.23,1.91-6.38,4.87c-1.26,1.18-3.79,3.55-4.18,6.8-.51,4.19,3,6.05,1.86,9.05-.83,2.16-3,1.9-4.37,4.09-1.89,2.89-.52,6.86.66,10.15C301.47,339.81,305.22,350.26,315.25,353.34Z" style="fill:url(#linear-gradient-68)"/><path d="M329.76,288.74c.76,2.17-7.07,3.73-10.33,10.89-3.49,7.7.45,17.18,2.27,21.56,3.11,7.48,6,8.46,6.82,14.94.32,2.57,1,7.91-2.56,12.13-.33.39-4,4.7-9.18,4.32-5.81-.42-9-6.55-11.74-11.83-1.66-3.2-5-9.57-2.52-12.2,1.5-1.6,4.81-1.43,7-.51,3.09,1.31,4.27,4.32,4.84,4s.06-2.95-1.28-5.66c-2.67-5.43-6.12-5.38-7.79-9.84-.2-.54-1.74-4.85.51-8.11,1.3-1.87,3.89-3.45,5.66-2.75,2,.79,2.08,4.15,2.74,4.07s.93-3.2.78-6.33c-.22-4.6-1.23-5.38-.76-7.85a10.7,10.7,0,0,1,4.31-6.31C322.78,286.36,329.1,286.89,329.76,288.74Z" style="fill:#fff;opacity:0.16;mix-blend-mode:screen"/><path d="M307.83,356c6.41-.78,7.73.73,14.26.44s6.86-1.83,12.1-1.52c4.71.29,10.78,1.91,10.8,3.68,0,1.94-7.27,4.67-14.26,3.67-3.89-.55-3.62-1.68-7.35-2.16-6.75-.86-8.73,2.7-15.55,1.94-3.95-.43-8.07-2.16-8-3.45C299.93,357,306.68,356.18,307.83,356Z" style="fill:#d8dee8"/><path d="M322.45,356.6a58.32,58.32,0,0,1-.23-22.5c1.1-5.78,3.33-17.55,12.68-24.1.74-.52,8.05-5.55,11.34-3.05,1.69,1.29,2.08,4.4,1.34,6.85-1.91,6.35-10.54,5.64-13.4,12.86-1,2.41-1.14,5.34-.47,5.62.82.34,3.16-3.25,3.38-3.59,2.08-3.2,2.1-5,3.69-5.5a2.74,2.74,0,0,1,2.84.75c1.31,1.76-1.28,5.75-2,6.87-1.9,2.92-3.48,3.59-3.86,6.08-.17,1.07-.14,2.65.5,2.9.86.33,2.5-1.91,3.55-3.34,2.83-3.86,3.13-6.11,4.54-6.27s2.79,1.6,3.17,2.67C350.56,335.77,346.39,342,322.45,356.6Z" style="fill:url(#linear-gradient-69)"/><path d="M322.75,354.92a69.48,69.48,0,0,1,2.52-21.13c1.72-6.11,5-17.59,14.05-22.57.64-.35,5.39-3,6.72-1.56.88.93.1,3.48-1.2,5.17-2.22,2.87-4.78,1.73-8.4,4.56a14.14,14.14,0,0,0-4.68,6.84,15.17,15.17,0,0,0-.37,7.2C332,337.41,330.8,343.92,322.75,354.92Z" style="fill:#fff;opacity:0.28;mix-blend-mode:soft-light"/><path d="M326,352.64c5.1-4.57,6.27-8.3,6.37-10.93.07-2-.49-4.47,1.08-6.72,1-1.44,1.75-1.21,3.48-2.76,3.61-3.24,4.05-7.61,4.8-7.44.41.09.63,1.53.36,2.88-.56,2.79-2.74,3.09-4.92,6.48a17.44,17.44,0,0,0-2.28,5.76c-.67,2.9-.22,3.91-.6,5.52C333.77,347.52,332,350.21,326,352.64Z" style="fill:#fff;opacity:0.28;mix-blend-mode:soft-light"/><path d="M325.51,358.19c8.83.51,11.46,1,15.62-.38,3.91-1.33,7.92-4,7.57-5.16-.25-.87-2.71-.86-4.17-.85a21.06,21.06,0,0,0-9.46,2.39l5.89-4a14.59,14.59,0,0,0,5.75-3.73c1.28-1.38,4.24-5.11,3.13-6.9s-6.68-1.49-9.86,1.16c-1.52,1.28-1.52,2.25-3.57,4.48a21.65,21.65,0,0,1-5.12,4.08,29.32,29.32,0,0,0,4.31-7.37c2-5.05,3.56-13,1-14.49-1.71-1-5.1,1-6.8,3.37-1.38,1.91-1.24,3.51-2.19,9.64-.41,2.66-.81,4.81-1.08,6.14A38,38,0,0,1,323,332.4c-.2-4.58.56-8.17-1.19-9.12-1.56-.85-4.35.81-5.76,2.37-5.72,6.3,1.83,21.08,2.63,22.61a42.11,42.11,0,0,1-7.8-7.67c-3-3.84-4.26-6.71-5.78-6.45s-2.51,3.48-2.4,6c.32,6.95,9.4,11,10.37,11.46a10.45,10.45,0,0,1-3.58,0c-3.39-.65-4.45-2.7-7.89-3.4-1.31-.26-4-.54-4.33.27-.59,1.46,6.19,6.95,14.43,9C314.69,358.22,314,357.53,325.51,358.19Z" style="fill:url(#linear-gradient-70)"/><path d="M331.34,353.16c4-1.79,3.48-4.22,7.87-7.23,2.82-1.93,3.48-1.22,6.49-3.07a20.31,20.31,0,0,0,4.12-3.32l0,0c1.11,1.79-1.85,5.52-3.13,6.9a14.59,14.59,0,0,1-5.75,3.73l-5.89,4a21.06,21.06,0,0,1,9.46-2.39c1.27,0,3.3,0,4,.56a9.59,9.59,0,0,1-3.11,1.26c-2,.4-3.21-.05-4.92,1-1.37.82-1.25,1.53-2.46,2s-1.71,0-4.51-.48-4.11-.66-5.21,0a3.85,3.85,0,0,0-1.51,2.15l-.87-.06a6.63,6.63,0,0,1,1.39-2.75C328.51,354,329.84,353.83,331.34,353.16Z" style="fill:#fff;opacity:0.28;mix-blend-mode:soft-light"/><path d="M319.89,356.25c-.64-.15-.94.3-1.83.41-1.63.22-2.25-1.14-4.18-1.78-2.28-.76-2.86.66-5.13-.05-1.8-.55-1.56-1.48-3.91-2.84s-3.56-.85-5.4-2a7.35,7.35,0,0,1-1.91-1.84c.81-.44,2.92-.21,4,0,3.44.7,4.5,2.75,7.89,3.4a10.45,10.45,0,0,0,3.58,0c-1-.42-10.05-4.51-10.37-11.46-.1-2.32.75-5.26,2.08-5.88a34.3,34.3,0,0,0-.16,4.06c.06,2.52.11,3.8.9,4.84,1.38,1.82,3.06.88,5.36,2.77,2.08,1.72,1.36,3,3.53,4.78,1.88,1.49,3,.94,4.76,2.15a8.57,8.57,0,0,1,3.27,5.19l-1.06,0C321,357.13,320.57,356.41,319.89,356.25Z" style="fill:#fff;opacity:0.28;mix-blend-mode:soft-light"/><path d="M321.87,346.77c-1.1-3-3-2.69-3.81-5.33s.94-3.44.5-7.24c-.33-2.85-1.41-3.26-1.48-5.21-.05-1.43.46-3.39,2.79-5.81a2.58,2.58,0,0,1,1.91.1c1.75,1,1,4.54,1.19,9.12a38,38,0,0,0,3.54,14.17c.27-1.33.67-3.48,1.08-6.14,1-6.13.81-7.73,2.19-9.64,1.7-2.35,5.09-4.34,6.8-3.37a1.73,1.73,0,0,1,.28.19,9.49,9.49,0,0,0-2.3,2.18c-2.26,3-1,5.16-3,11.1-2,5.7-4,6.06-5.55,11a23,23,0,0,0-1.09,6.28l-1.63-.09a24,24,0,0,1-1-5.15C322,349.67,322.61,348.79,321.87,346.77Z" style="fill:#fff;opacity:0.28;mix-blend-mode:soft-light"/></g></g></svg>