<?xml version="1.0" encoding="utf-8"?>
<!-- Generator: Adobe Illustrator 22.1.0, SVG Export Plug-In . SVG Version: 6.00 Build 0)  -->
<svg version="1.1" xmlns="http://www.w3.org/2000/svg" xmlns:xlink="http://www.w3.org/1999/xlink" x="0px" y="0px"
	 viewBox="0 0 3710 3710" style="enable-background:new 0 0 3710 3710;" xml:space="preserve">
<style type="text/css">
	.st0{fill:#F4F7FA;}
	.st1{clip-path:url(#SVGID_3_);}
	.st2{fill:#FCFDFE;}
	.st3{clip-path:url(#SVGID_5_);}
	.st4{fill:url(#SVGID_6_);}
	.st5{fill:url(#SVGID_7_);}
	.st6{fill:url(#SVGID_8_);}
	.st7{fill:#D8DEE8;}
	.st8{fill:#FFFFFF;}
	.st9{opacity:0.48;fill:#FFFFFF;}
	.st10{fill:url(#SVGID_9_);}
	.st11{opacity:0.3;fill:url(#SVGID_10_);}
	.st12{fill:url(#SVGID_11_);}
	.st13{opacity:0.74;fill:#FFFFFF;}
	.st14{fill:url(#SVGID_12_);}
	.st15{opacity:0.5;}
	.st16{fill:url(#SVGID_13_);}
	.st17{fill:url(#SVGID_14_);}
	.st18{fill:url(#SVGID_15_);}
	.st19{fill:url(#SVGID_16_);}
	.st20{fill:url(#SVGID_17_);}
	.st21{fill:url(#SVGID_18_);}
	.st22{fill:url(#SVGID_19_);}
	.st23{opacity:0.3;fill:url(#SVGID_20_);}
	.st24{fill:url(#SVGID_21_);}
	.st25{opacity:0.4;fill:url(#SVGID_22_);}
	.st26{fill:url(#SVGID_23_);}
	.st27{fill:url(#SVGID_24_);}
	.st28{fill:url(#SVGID_25_);}
	.st29{fill:url(#SVGID_26_);}
	.st30{fill:url(#SVGID_27_);}
	.st31{fill:url(#SVGID_28_);}
	.st32{opacity:0.3;fill:url(#SVGID_29_);}
	.st33{fill:url(#SVGID_30_);}
	.st34{fill:url(#SVGID_31_);}
	.st35{fill:url(#SVGID_32_);}
	.st36{opacity:0.3;fill:url(#SVGID_33_);}
	.st37{fill:url(#SVGID_34_);}
	.st38{fill:url(#SVGID_35_);}
	.st39{fill:url(#SVGID_36_);}
	.st40{fill:url(#SVGID_37_);}
	.st41{fill:url(#SVGID_38_);}
	.st42{fill:url(#SVGID_39_);}
	.st43{fill:url(#SVGID_40_);}
	.st44{fill:url(#SVGID_41_);}
	.st45{fill:url(#SVGID_42_);}
	.st46{fill:url(#SVGID_43_);}
	.st47{opacity:0.3;fill:url(#SVGID_44_);}
</style>
<g id="Background">
	<g>
	</g>
</g>
<g id="Illustration">
	<g>
		<path class="st0" d="M3203,1602.2c-55.4-362.4-99.8-612.9-299.8-750.1c-337.3-231.5-713.9,144.3-1191.7-107.9
			c-235.2-124.2-244-268.1-443.3-287.2c-352.5-33.8-641.1,386.8-666.1,422.9C450.2,1099,399.4,1366.2,461,1621
			c40,165.5,67.1,336.8,59.6,506.8c-12.9,295.9-5.5,572.2,281.7,748.7c256.4,157.6,579.2,296.6,887.1,320.9
			c209.2,16.5,443.9-10.2,645.6-64.7C3362.8,2855.1,3279.1,2100.5,3203,1602.2z"/>
		<g>
			<g>
				<g>
					<g>
						<defs>
							<path id="SVGID_1_" d="M1877.9,2663.5c23,1.3,74.3-16.1,85.8-26.2c76.4-66.9,227.7-182.8,241.3-289.3
								c2.3-18.2-74.9-50-83.1-68.6c-44.3-32.2-61.7-40.7-88.8-92c-80-151.6,205.6-354.4-56.1-493.8
								c-191.7-102.1-376.9-64.2-295.6-376.3c81.3-312.1-61.1-935.4-436.4-777.6c-215.4,90.6-71.4,396-207.3,575.8
								c-129.1,170.9-78.4,341,100.6,491.8c179,150.7,55.7,217.6-36.2,385.7c-110.3,202,213.4,302.3,366.9,335.9
								C1592.4,2355.9,1888.8,2508.1,1877.9,2663.5z"/>
						</defs>
						<linearGradient id="SVGID_2_" gradientUnits="userSpaceOnUse" x1="1385.3408" y1="572.3737" x2="2035.5771" y2="4729.2524">
							<stop  offset="3.597120e-03" style="stop-color:#E38DDD"/>
							<stop  offset="1" style="stop-color:#9571F6"/>
						</linearGradient>
						<use xlink:href="#SVGID_1_"  style="overflow:visible;fill:url(#SVGID_2_);"/>
						<clipPath id="SVGID_3_">
							<use xlink:href="#SVGID_1_"  style="overflow:visible;"/>
						</clipPath>
						<g class="st1">
							<g>
								<path class="st2" d="M2079.8,2501.2l2.9-3.9c-606.2-450.6-879.3-1212.1-730.7-2036.9l-4.8-0.9
									c-70.5,390.9-44.8,782.5,74.3,1132.4C1546.8,1959.8,1774.4,2274.2,2079.8,2501.2z"/>
								<path class="st2" d="M1046.4,2071.7c204.8-27,527.8,31.9,720,131.4l2.3-4.4c-193-99.9-517.3-159-722.9-131.9L1046.4,2071.7z
									"/>
								<path class="st2" d="M1961.8,2411.4l3.9-3c-68.1-89.5-88.4-210-60.3-358.2c20.6-108.7,66.4-229.4,135.9-358.8l-4.3-2.3
									c-69.8,129.9-115.6,251.1-136.4,360.2C1872.2,2198.9,1892.7,2320.8,1961.8,2411.4z"/>
								<path class="st2" d="M1406.6,1541.6l4-2.8c-119.8-175.3-328.2-255.4-482-291.7l-1.1,4.8
									C1080.4,1288,1287.7,1367.6,1406.6,1541.6z"/>
								<path class="st2" d="M1314.1,1064.4l4.9,0.6c27.1-237.7,200.8-418.9,302-505.8l-3.2-3.7
									C1516,642.8,1341.4,825.1,1314.1,1064.4z"/>
							</g>
						</g>
					</g>
				</g>
			</g>
			<g>
				<g>
					<g>
						<defs>
							<path id="SVGID_4_" d="M1867.7,2795.8c21.9-7.3,63.1-42.4,70-56c46.3-90.4,144-254.1,117.2-358c-4.6-17.8-88.1-18.8-102.6-33
								c-53.1-13.6-72.4-15-116.6-52.7c-130.4-111.3,59.9-405.3-234.7-438c-215.8-24-373.9,79.7-413.8-240.4
								c-39.8-320-402.6-846.5-693-561.1c-166.7,163.8,80,394.4,20.3,611.6c-56.8,206.5,53.3,345.8,275.3,419.7
								c222,73.9,132.2,181.6,109,371.8c-27.8,228.5,310.1,202,465.1,176.4C1488.7,2615.5,1820.3,2647.3,1867.7,2795.8z"/>
						</defs>
						<use xlink:href="#SVGID_4_"  style="overflow:visible;fill:#FE8794;"/>
						<clipPath id="SVGID_5_">
							<use xlink:href="#SVGID_4_"  style="overflow:visible;"/>
						</clipPath>
						<g class="st3">
							<g>
								<path class="st2" d="M1995.3,2570.3l1.3-4.7C1266.7,2371,731.4,1764.5,564.6,943.2l-4.8,1
									c79.1,389.2,247.7,743.6,487.7,1024.6C1299.8,2264.3,1627.6,2472.3,1995.3,2570.3z"/>
								<path class="st2" d="M876.4,2553.3c180.3-100.8,502.2-165.5,717.6-144.2l0.5-4.9c-216.2-21.4-539.4,43.5-720.5,144.8
									L876.4,2553.3z"/>
								<path class="st2" d="M1852.4,2530.5l2.5-4.2c-96.4-58-159.8-162.4-188.4-310.5c-21-108.6-23.1-237.7-6.4-383.6l-4.9-0.6
									c-16.8,146.5-14.6,276,6.5,385.1C1690.6,2366.2,1754.8,2471.8,1852.4,2530.5z"/>
								<path class="st2" d="M1015,1927.6l2.7-4.1c-176.1-118.6-399.4-115.9-555.7-92.8l0.7,4.9
									C618.2,1812.6,840.2,1809.9,1015,1927.6z"/>
								<path class="st2" d="M752.6,1518.4l4.7-1.3c-62.7-230.8,31.7-463.5,93.6-581.6l-4.3-2.3C784.4,1052,689.5,1286,752.6,1518.4
									z"/>
							</g>
						</g>
					</g>
				</g>
			</g>
		</g>
		<g>
			<linearGradient id="SVGID_6_" gradientUnits="userSpaceOnUse" x1="1690.9181" y1="3132.9509" x2="1498.9279" y2="3213.5869">
				<stop  offset="0" style="stop-color:#40447E"/>
				<stop  offset="0.9964" style="stop-color:#3C3B6B"/>
			</linearGradient>
			<path class="st4" d="M3269.4,3027.7l-2732.8-24v71.1c0,19.3,11.9,35.7,28.1,38.6l772.8,139.9c9.2,1.7,18.5,2.1,27.7,1.3
				l1874.6-159.6c16.7-1.4,29.7-17.9,29.7-37.7V3027.7z"/>
			<g>
				<linearGradient id="SVGID_7_" gradientUnits="userSpaceOnUse" x1="1378.5383" y1="2279.4404" x2="1179.4762" y2="2363.0466">
					<stop  offset="0" style="stop-color:#40447E"/>
					<stop  offset="0.9964" style="stop-color:#3C3B6B"/>
				</linearGradient>
				<path class="st5" d="M2277.7,2912.5l-1712.8,130c-30.6,2.3-55.6-22.4-55.6-55.2V1672.1c0-32.8,24.9-59.4,55.6-59.4h1712.8
					c25.3,0,45.7,24.1,45.7,53.7v1188.9C2323.4,2885,2303,2910.6,2277.7,2912.5z"/>
				<linearGradient id="SVGID_8_" gradientUnits="userSpaceOnUse" x1="536.651" y1="2327.6355" x2="2350.7041" y2="2327.6355">
					<stop  offset="0" style="stop-color:#40447E"/>
					<stop  offset="0.9964" style="stop-color:#3C3B6B"/>
				</linearGradient>
				<path class="st6" d="M2305,2912.5l-1712.8,130c-30.7,2.3-55.6-22.4-55.6-55.2V1672.1c0-32.8,24.9-59.4,55.6-59.4H2305
					c25.3,0,45.7,24.1,45.7,53.7v1188.9C2350.7,2885,2330.3,2910.6,2305,2912.5z"/>
				<path class="st7" d="M2251.7,2828.7L656.4,2941.6c-24.9,1.8-45.2-18.5-45.2-45.3V1744.8c0-26.8,20.3-48.6,45.2-48.7l1595.3-7.1
					c20.8-0.1,37.7,19.6,37.7,44v1048.8C2289.4,2806.2,2272.5,2827.2,2251.7,2828.7z"/>
				<path class="st8" d="M1509.1,1648.6c0,12.2-8.8,22.2-19.7,22.2c-10.9,0-19.7-9.9-19.7-22.1c0-12.2,8.8-22.2,19.7-22.2
					C1500.3,1626.5,1509.1,1636.4,1509.1,1648.6z"/>
				<path class="st9" d="M1892.4,2551.8c-132-76.3-235.9,20.4-336.1-75c-60.7-57.8-30.9-101-105.7-187.4
					c-82.8-95.7-136.7-63.6-219.9-149.7c-105.2-108.9-52.6-193.7-143.2-271.9c-109.9-94.9-228.5-7.1-333.1-98.1
					c-45.1-39.3-69.9-96.3-82.8-157H569.2c-17.9,0-32.5,15.6-32.5,34.9v1363.3c0,19.3,14.6,33.8,32.5,32.4l1745.6-133.1
					c8.6-0.7,16.2-6,21-13.8c-127.8-5-206.3-51-256.5-98.6C1981.2,2704.7,1998.2,2612.9,1892.4,2551.8z"/>
			</g>
			<linearGradient id="SVGID_9_" gradientUnits="userSpaceOnUse" x1="536.651" y1="3048.1851" x2="3269.4478" y2="3048.1851">
				<stop  offset="0" style="stop-color:#40447E"/>
				<stop  offset="0.9964" style="stop-color:#3C3B6B"/>
			</linearGradient>
			<path class="st10" d="M2373.3,2906.6L536.7,3043.4l800.8,145c9.2,1.7,18.5,2.1,27.7,1.3l1904.3-162.1l-866.9-120.2
				C2392.8,2906.2,2383,2905.9,2373.3,2906.6z"/>
			<linearGradient id="SVGID_10_" gradientUnits="userSpaceOnUse" x1="804.6476" y1="3025.5881" x2="2806.9507" y2="3025.5881">
				<stop  offset="0" style="stop-color:#40447E"/>
				<stop  offset="0.9964" style="stop-color:#3C3B6B"/>
			</linearGradient>
			<polygon class="st11" points="804.6,3046.9 2333.7,2931.2 2807,2996.3 1291.1,3119.9 			"/>
		</g>
		<g>
			<g>
				<g>
					<linearGradient id="SVGID_11_" gradientUnits="userSpaceOnUse" x1="2194.8411" y1="762.6995" x2="574.3866" y2="4003.6013">
						<stop  offset="0" style="stop-color:#AA80F9"/>
						<stop  offset="0.9964" style="stop-color:#6165D7"/>
					</linearGradient>
					<path class="st12" d="M2390.8,1142.7l-1495.2-49.1c-50.1-1.6-91,37.9-91,88.4v1457.3c0,50.4,40.8,89.6,91,87.5l1495.2-63.8
						c43.2-1.8,78.2-41.1,78.2-87.7V1229.6C2469,1183,2434.1,1144.1,2390.8,1142.7z"/>
					<path class="st13" d="M895.6,2697.6c-34.1,1.4-61.8-25.2-61.8-59.5V1182.7c0-34.3,27.7-61.2,61.8-60.1l1495.2,47.1
						c29.5,0.9,53.3,27.4,53.3,59.2v1347.2c0,31.7-23.8,58.5-53.3,59.7L895.6,2697.6z"/>
					<linearGradient id="SVGID_12_" gradientUnits="userSpaceOnUse" x1="1493.9905" y1="661.4862" x2="1775.55" y2="1787.7281">
						<stop  offset="0" style="stop-color:#AA80F9"/>
						<stop  offset="0.9964" style="stop-color:#6165D7"/>
					</linearGradient>
					<path class="st14" d="M2390.8,1142.7l-1495.2-49.1c-50.1-1.6-91,37.9-91,88.4v65.5l1664.4,42.7v-60.5
						C2469,1183,2434.1,1144.1,2390.8,1142.7z"/>
					<path class="st8" d="M966.4,1177.7c0,16.4-13.2,29.3-29.5,28.9c-16.3-0.5-29.6-14.1-29.6-30.6s13.2-29.3,29.6-28.9
						C953.2,1147.7,966.4,1161.4,966.4,1177.7z"/>
					<path class="st8" d="M1069.3,1180.7c0,16.3-13.1,29.2-29.2,28.7c-16.2-0.4-29.3-14.1-29.3-30.4c0-16.4,13.1-29.2,29.3-28.7
						C1056.2,1150.8,1069.3,1164.4,1069.3,1180.7z"/>
					<path class="st8" d="M1171.3,1183.7c0,16.2-12.9,29-28.9,28.6c-16-0.4-29-14-29-30.3c0-16.3,13-29.1,29-28.6
						C1158.3,1153.9,1171.3,1167.5,1171.3,1183.7z"/>
					<g class="st15">
						<path class="st8" d="M1809.6,1702.9c-174.6-254.1-476.9-173.3-668.1-454c-34.5-50.6-57.9-102.2-73.9-149.7l-171.9-5.7
							c-50.1-1.6-91,37.9-91,88.4v1457.3c0,50.4,40.8,89.6,91,87.5l1440.5-61.5c-33-47.6-320.4-223.9-394.7-494.5
							C1873.5,1923.1,1915,1856.2,1809.6,1702.9z"/>
					</g>
				</g>
				<g>
					<polygon class="st8" points="2387.7,1679.4 916.2,1677.7 916.2,1629.6 2387.7,1635.6 					"/>
					<polygon class="st8" points="2387.7,1577.1 916.2,1564.6 916.2,1441.3 2387.7,1464.6 					"/>
					<g>
						<g>
							<path class="st8" d="M1143.9,1939.5l-195.2,1.2v-186.5l195.2,0.2V1939.5z M971.5,1915.1l143.1-0.7v-134.7l-143.1-0.1V1915.1z
								"/>
						</g>
						<polygon class="st8" points="2355.5,1804.1 1225.2,1804.8 1225.2,1754.5 2355.5,1755.7 						"/>
						<polygon class="st8" points="2355.5,1882.2 1225.2,1885.9 1225.2,1838.3 2355.5,1836.4 						"/>
					</g>
					<g>
						<g>
							<path class="st8" d="M1143.9,2214.3l-195.2,3.2V2031l195.2-1.8V2214.3z M971.5,2191.7l143.1-2.2v-134.7l-143.1,1.5V2191.7z"
								/>
						</g>
						<polygon class="st8" points="2355.5,2068.1 1225.2,2078.8 1225.2,2028.4 2355.5,2019.6 						"/>
						<polygon class="st8" points="2355.5,2146.2 1225.2,2159.8 1225.2,2112.3 2355.5,2100.4 						"/>
					</g>
					<g>
						<g>
							<path class="st8" d="M1143.9,2489.1l-195.2,5.3v-186.5l195.2-3.9V2489.1z M971.5,2471.2l143.1-3.8v-137.6l-143.1,3V2471.2z"
								/>
						</g>
						<polygon class="st8" points="2355.5,2332 1225.2,2352.7 1225.2,2302.4 2355.5,2283.5 						"/>
						<polygon class="st8" points="2355.5,2410.1 1225.2,2433.8 1225.2,2386.3 2355.5,2364.3 						"/>
					</g>
				</g>
			</g>
			<g>
				<linearGradient id="SVGID_13_" gradientUnits="userSpaceOnUse" x1="1041.1792" y1="2134.0967" x2="1041.1792" y2="1784.6056">
					<stop  offset="0" style="stop-color:#AA80F9"/>
					<stop  offset="0.9964" style="stop-color:#6165D7"/>
				</linearGradient>
				<path class="st16" d="M1016.5,1930.8c-5.6,0-10.9-2-14.9-5.8l-58.6-55.5c-8.3-7.8-8.3-20.5,0-28.4c8.3-7.9,21.6-7.9,29.9-0.1
					l40.7,38.6l93.9-129.3c6.6-9,19.6-11.3,29-5c9.4,6.3,11.8,18.7,5.2,27.7l-108,148.9c-3.5,4.9-9.2,8.1-15.4,8.6
					C1017.8,1930.8,1017.2,1930.8,1016.5,1930.8z"/>
			</g>
			<g>
				<linearGradient id="SVGID_14_" gradientUnits="userSpaceOnUse" x1="1046.2932" y1="2411.8159" x2="1046.2932" y2="2062.3247">
					<stop  offset="0" style="stop-color:#AA80F9"/>
					<stop  offset="0.9964" style="stop-color:#6165D7"/>
				</linearGradient>
				<path class="st17" d="M1021.7,2208.6c-5.6,0-10.9-2-14.9-5.8l-58.6-55.5c-8.3-7.8-8.3-20.5,0-28.4c8.3-7.9,21.6-7.9,29.9-0.1
					l40.7,38.6l93.9-129.3c6.6-9,19.6-11.3,29-5c9.4,6.3,11.8,18.7,5.2,27.7l-108,148.9c-3.5,4.9-9.2,8.1-15.4,8.6
					C1022.9,2208.5,1022.3,2208.6,1021.7,2208.6z"/>
			</g>
		</g>
		<g>
			<g>
				<linearGradient id="SVGID_15_" gradientUnits="userSpaceOnUse" x1="2258.4697" y1="1192.3374" x2="1861.0365" y2="1319.8857">
					<stop  offset="0" style="stop-color:#FCB148"/>
					<stop  offset="5.207239e-02" style="stop-color:#FDBA46"/>
					<stop  offset="0.1424" style="stop-color:#FFC244"/>
					<stop  offset="0.3183" style="stop-color:#FFC444"/>
					<stop  offset="0.4849" style="stop-color:#FDB946"/>
					<stop  offset="0.7754" style="stop-color:#F99C4D"/>
					<stop  offset="0.8658" style="stop-color:#F8924F"/>
					<stop  offset="1" style="stop-color:#F8924F"/>
				</linearGradient>
				<path class="st18" d="M2716,1177.9c0,184.4-144.2,329.4-328.4,323.8c-191.8-5.9-353-171.5-353-369.7
					c0-198.2,161.3-342.1,353-322.1C2571.8,829.1,2716,993.5,2716,1177.9z"/>
				<linearGradient id="SVGID_16_" gradientUnits="userSpaceOnUse" x1="2579.97" y1="796.7328" x2="2225.1663" y2="1579.4962">
					<stop  offset="0" style="stop-color:#FFDB44"/>
					<stop  offset="1" style="stop-color:#FEEF06"/>
				</linearGradient>
				<path class="st19" d="M2765.8,1162c0,184.4-144.2,329.4-328.4,323.8c-191.8-5.9-353-171.5-353-369.7
					c0-198.2,161.3-342.1,353-322.1C2621.6,813.2,2765.8,977.6,2765.8,1162z"/>
				<linearGradient id="SVGID_17_" gradientUnits="userSpaceOnUse" x1="2514.7036" y1="1623.2446" x2="2446.2437" y2="1249.2495">
					<stop  offset="0" style="stop-color:#FCB148"/>
					<stop  offset="5.207239e-02" style="stop-color:#FDBA46"/>
					<stop  offset="0.1424" style="stop-color:#FFC244"/>
					<stop  offset="0.3183" style="stop-color:#FFC444"/>
					<stop  offset="0.4849" style="stop-color:#FDB946"/>
					<stop  offset="0.7754" style="stop-color:#F99C4D"/>
					<stop  offset="0.8658" style="stop-color:#F8924F"/>
					<stop  offset="1" style="stop-color:#F8924F"/>
				</linearGradient>
				<path class="st20" d="M2751.3,1161c0,176.3-137.9,314.7-314,309c-182.9-5.9-336.4-164-336.4-352.8
					c0-188.8,153.5-326.2,336.4-307.5C2613.4,827.8,2751.3,984.8,2751.3,1161z"/>
				<linearGradient id="SVGID_18_" gradientUnits="userSpaceOnUse" x1="2369.5549" y1="1017.8924" x2="2651.6882" y2="1616.8074">
					<stop  offset="0" style="stop-color:#FCB148"/>
					<stop  offset="5.207239e-02" style="stop-color:#FDBA46"/>
					<stop  offset="0.1424" style="stop-color:#FFC244"/>
					<stop  offset="0.3183" style="stop-color:#FFC444"/>
					<stop  offset="0.4849" style="stop-color:#FDB946"/>
					<stop  offset="0.7754" style="stop-color:#F99C4D"/>
					<stop  offset="0.8658" style="stop-color:#F8924F"/>
					<stop  offset="1" style="stop-color:#F8924F"/>
				</linearGradient>
				<path class="st21" d="M2741,1160.3c0,170.4-133.5,304.1-303.6,298.4c-176.5-5.9-324.5-158.6-324.5-340.8s148-314.9,324.5-297
					C2607.5,838.2,2741,989.9,2741,1160.3z"/>
				<g>
					<linearGradient id="SVGID_19_" gradientUnits="userSpaceOnUse" x1="2358.3147" y1="889.0135" x2="2500.1809" y2="1420.7036">
						<stop  offset="0" style="stop-color:#FFDB44"/>
						<stop  offset="1" style="stop-color:#FEEF06"/>
					</linearGradient>
					<path class="st22" d="M2435.6,879L2435.6,879c9.1,0.9,16.4,9,16.4,18.2v31.4c18.1,2,36.2,5.2,54.4,9.4
						c13.4,3.1,26.7,6.9,39.9,11.2c7.9,2.6,13.3,10.6,12.5,18.8l-3.9,39.4c-1,10.4-11.3,16.6-21.1,12.2c-8.7-3.9-17.6-7.2-26.8-10
						c-16-4.8-32.8-8-50.5-9.4l-4.6-0.4v89.9c47.2,13.2,81.9,31,104.3,53.3c22.3,22.3,33.4,50,33.4,83.3c0,36-12.3,64.8-37,86.6
						c-24.8,21.9-59.6,34.2-104.6,36.8v34.6c0,9.2-7.3,16.4-16.4,16l-0.3,0c-9.1-0.4-16.5-8.1-16.5-17.4v-34.2l-7.3-0.3
						c-21.1-1-41.3-3.1-60.6-6.5c-14.3-2.5-28.2-5.7-41.9-9.6c-8.2-2.4-13.9-10.2-13.1-18.6l4.5-50.6c1-10.9,12-17.3,22.4-13.2
						c12.1,4.8,24.4,8.8,36.8,12.1c19.4,5.1,39,8.4,58.9,9.8l0.3-100c-45.3-11.2-79.3-27.8-101.6-49.8
						c-22.4-22.1-33.6-50.4-33.6-84.8c0-35.6,12.2-63.1,36.5-82.4c24.2-19.2,58.5-28.7,102.8-28.7v-32.1
						C2419.2,884.9,2426.5,878.1,2435.6,879z M2419.2,998.9c-14,1-24.9,4.9-32.8,11.5c-7.8,6.7-11.8,15.7-11.8,27
						c0,10.7,3.6,19.6,10.9,26.8c7.2,7.2,18.5,12.9,33.6,17.2V998.9z M2448.2,1180v91.7c15.2,0,26.9-3.6,35.1-10.9
						c8.1-7.3,12.2-17.6,12.2-30.9c0-12.1-3.8-22.2-11.3-30.2C2476.6,1191.7,2464.6,1185.1,2448.2,1180z"/>
				</g>
				<linearGradient id="SVGID_20_" gradientUnits="userSpaceOnUse" x1="2286.5522" y1="1056.6512" x2="2568.1165" y2="1654.3584">
					<stop  offset="0" style="stop-color:#FCB148"/>
					<stop  offset="5.207239e-02" style="stop-color:#FDBA46"/>
					<stop  offset="0.1424" style="stop-color:#FFC244"/>
					<stop  offset="0.3183" style="stop-color:#FFC444"/>
					<stop  offset="0.4849" style="stop-color:#FDB946"/>
					<stop  offset="0.7754" style="stop-color:#F99C4D"/>
					<stop  offset="0.8658" style="stop-color:#F8924F"/>
					<stop  offset="1" style="stop-color:#F8924F"/>
				</linearGradient>
				<path class="st23" d="M2382.4,1202.1c10.3-101.3,103.4-144.2,91.2-237.4c-7.5-57.4-51-105.8-99.6-143.6
					c-147.3,15.4-261.2,137.4-261.2,297c0,182.2,148,334.8,324.5,340.8c17.1,0.6,33.9-0.3,50.2-2.4
					C2417.4,1386.6,2373.6,1289.1,2382.4,1202.1z"/>
			</g>
			<g>
				<linearGradient id="SVGID_21_" gradientUnits="userSpaceOnUse" x1="2012.429" y1="1249.6697" x2="2482.0278" y2="606.083">
					<stop  offset="0" style="stop-color:#311944"/>
					<stop  offset="1" style="stop-color:#893976"/>
				</linearGradient>
				<path class="st24" d="M2700.2,949.9v1.4c-12.6-17.2-35.2-41.1-48.7-54.9c-0.3-0.6-0.7-1.2-0.9-1.8c-7.5-18.1-17.7-37.7-31-57.2
					c-13.2-19.6-29.9-38.9-49.5-56.6c-2.3-2.3-5-4.3-7.5-6.5c-1.3-1.1-2.6-2.2-3.9-3.2l-1.9-1.6c-0.7-0.5-1.4-1-2-1.5
					c-2.7-2-5.4-4.1-8.1-6.2l-2-1.5l-2.1-1.4c-1.4-1-2.8-1.9-4.2-2.9c-5.5-4-11.5-7.5-17.3-11.2c-3-1.8-6.1-3.4-9.1-5.1
					c-1.5-0.8-3-1.7-4.6-2.5c-1.6-0.8-3.1-1.6-4.7-2.3c-25-12.6-52.2-21.7-80.1-26.8c-3.5-0.6-7-1.2-10.5-1.7
					c-3.5-0.5-7.1-0.8-10.6-1.2l-5.3-0.6l-5.3-0.3l-5.3-0.3c-1.8-0.1-3.5-0.3-5.3-0.2c-3.5,0-7.1-0.1-10.6-0.1c-0.9,0-1.8-0.1-2.6,0
					l-2.4,0.1l-4.7,0.3l-4.7,0.2c-0.4,0-0.7,0-1.2,0.1l-4.8,0.4l-6.4,0.4l-4.8,0.4l-0.8,0.1l-0.3,0c0,0-1.7,0,1.1,0.1l-10.4,1.5
					c-1.7,0.3-3.4,0.4-5.1,0.8l-5.1,1l-5.1,1l-2.5,0.5c-0.8,0.2-1.7,0.4-2.5,0.6c-3.3,0.8-6.7,1.7-10,2.5c-1.7,0.4-3.3,0.9-4.9,1.4
					l-4.9,1.5l-4.9,1.5l-4.7,1.7c-3.2,1.2-6.3,2.2-9.4,3.5c-3.1,1.3-6.1,2.6-9.2,3.9c-24.2,10.8-45.9,24.7-64.5,40.5l-3.5,2.9
					l-3.3,3.1c-2.2,2.1-4.5,4-6.5,6.1c-0.1,0.1-0.2,0.2-0.3,0.3c-4.1,4.2-8.2,8.2-11.8,12.5c-1,1.1-1.9,2.1-2.9,3.2l-1.4,1.6
					l-1.3,1.7c-1.8,2.2-3.5,4.4-5.3,6.6c-0.4,0.5-0.9,1.1-1.3,1.6l-1.2,1.7c-0.8,1.1-1.6,2.3-2.4,3.4c-1.6,2.3-3.3,4.4-4.7,6.7
					c-12,18-21.2,36-27.4,53.1c-6.3,17.1-10,33.2-12.1,47.4c-0.2,1.8-0.5,3.5-0.7,5.3c-0.2,1.7-0.5,3.4-0.6,5.1
					c-0.3,3.3-0.5,6.5-0.8,9.6c-0.2,3.1-0.2,6.1-0.3,8.9c-0.1,1.4-0.1,2.8-0.2,4.1c0.1,1.3,0.1,2.7,0.1,3.9c0,2.5,0.1,4.9,0.1,7.2
					c0,0.6,0.1,1,0.1,1.4c0.1,0.4,0.1,0.8,0.2,1.2c0.1,0.8,0.2,0.7,0.3,1.4c0.1,0.6,0.1,0.9,0.2,0.9h118.4l-72,79.8l-167.3,183
					l-239.3-262.7h125.8c0.2,0,0.4-2.2,0.6-3.8c0.5-3.7,1-7.2,1.6-11.5c0.3-2.2,0.6-4.2,1-6.5c0.2-1.1,0.3-2.2,0.5-3.4
					c0.2-1.2,0.3-2.4,0.6-3.5c0.9-4.4,1.8-8.9,2.8-13.8c0.5-2.4,1-4.9,1.6-7.5c0.6-2.6,1.3-5.1,1.9-7.8c1.4-5.3,2.7-10.9,4.4-16.6
					c1.8-5.7,3.6-11.6,5.5-17.8c0.9-3.1,2.1-6.1,3.2-9.3c1.1-3.1,2.3-6.3,3.5-9.5c9.8-25.6,23.1-53.6,40.9-81.6
					c17.8-28.1,40.4-56.1,67.2-82c3.3-3.3,6.9-6.4,10.3-9.6c1.8-1.6,3.5-3.1,5.3-4.7l2.7-2.4l2.7-2.3c3.7-3,7.4-6,11.1-9.1l2.8-2.3
					l2.9-2.2c2-1.5,3.9-2.9,5.9-4.3c7.7-5.9,15.9-11.2,24.1-16.7c4.1-2.7,8.4-5.1,12.7-7.7c2.1-1.3,4.2-2.5,6.4-3.8
					c2.2-1.2,4.4-2.4,6.6-3.6c35-19.2,73.7-33.7,113.8-42.4c5-1,10.1-2,15.1-3c5-0.9,10.2-1.6,15.2-2.4l7.6-1.1l7.7-0.8l7.7-0.7
					c2.6-0.2,5.1-0.5,7.7-0.6c5.1-0.2,10.2-0.8,15.4-1.1c1.3-0.1,2.6-0.5,3.8-0.5h3.9l7.6,0.4l7.6,0.3c2.6,0,5.1,0.3,7.6,0.5
					l15.2,0.9c3.5,0.1,1.2,0.1,2.1,0.1l0.4,0.1l0.8,0.1l1.6,0.2l3.2,0.4l6.4,0.8l3.2,0.4l1.6,0.2l2,0.3l8.1,1.2l8.1,1.2l4,0.6
					c1.3,0.2,2.5,0.5,3.7,0.8c4.9,1,9.8,2.1,14.7,3.1c2.4,0.5,4.9,1.2,7.3,1.8l7.3,1.9l7.2,1.9l7.1,2.2c4.7,1.5,9.4,3,14.1,4.6
					c4.6,1.7,9.2,3.5,13.8,5.2c36.4,14.5,69.6,33.8,98.2,56.2c1.8,1.4,3.6,2.8,5.4,4.2c1.7,1.4,3.5,2.9,5.2,4.4
					c3.4,2.9,6.9,5.7,10.1,8.7c6.5,6.1,13,11.9,18.9,18.3c1.5,1.5,3,3.1,4.5,4.6l2.2,2.3l2.1,2.4c2.8,3.2,5.6,6.4,8.4,9.5l2.1,2.4
					l2,2.4c1.3,1.6,2.6,3.3,3.9,4.9c2.6,3.3,5.2,6.4,7.5,9.7c13,17.6,24.1,35.5,33.2,53.1c4.5,8.5,8.4,17.1,11.9,25.5
					c10.8,25.7,17.8,50.1,22.2,71.8c0.5,2.7,1,5.4,1.5,8.1c0.5,2.6,1,5.2,1.3,7.8c0.7,5.1,1.4,10,2,14.8c0.5,4.7,0.8,9.3,1.2,13.7
					c0.2,2.2,0.4,4.3,0.5,6.4c0.1,2.1,0.5,4.1,0.6,6C2699.6,942.7,2700.2,946.5,2700.2,949.9z"/>
				<linearGradient id="SVGID_22_" gradientUnits="userSpaceOnUse" x1="2391.4797" y1="933.2747" x2="2561.2937" y2="700.5442">
					<stop  offset="0" style="stop-color:#311944"/>
					<stop  offset="1" style="stop-color:#893976"/>
				</linearGradient>
				<path class="st25" d="M2700.2,949.9v1.4c-12.6-17.2-35.2-41.1-48.7-54.9c-0.3-0.6-0.7-1.2-0.9-1.8c-7.5-18.1-17.7-37.7-31-57.2
					c-13.2-19.6-29.9-38.9-49.5-56.6c-2.3-2.3-5-4.3-7.5-6.5c-1.3-1.1-2.6-2.2-3.9-3.2l-1.9-1.6c-0.7-0.5-1.4-1-2-1.5
					c-2.7-2-5.4-4.1-8.1-6.2l-2-1.5l-2.1-1.4c-1.4-1-2.8-1.9-4.2-2.9c-5.5-4-11.5-7.5-17.3-11.2c-3-1.8-6.1-3.4-9.1-5.1
					c-1.5-0.8-3-1.7-4.6-2.5c-1.6-0.8-3.1-1.6-4.7-2.3c-25-12.6-52.2-21.7-80.1-26.8c-3.5-0.6-7-1.2-10.5-1.7
					c-3.5-0.5-7.1-0.8-10.6-1.2l-5.3-0.6l-5.3-0.3l-5.3-0.3c-1.8-0.1-3.5-0.3-5.3-0.2c-3.5,0-7.1-0.1-10.6-0.1c-0.9,0-1.8-0.1-2.6,0
					l-2.4,0.1l-4.7,0.3l-4.7,0.2c-0.4,0-0.7,0-1.2,0.1l-4.8,0.4l-6.4,0.4l-4.8,0.4l-0.8,0.1l-0.3,0c0,0-1.7,0,1.1,0.1l-10.4,1.5
					c-1.7,0.3-3.4,0.4-5.1,0.8l-5.1,1l-5.1,1l-2.5,0.5c-0.8,0.2-1.7,0.4-2.5,0.6c-3.3,0.8-6.7,1.7-10,2.5c-1.7,0.4-3.3,0.9-4.9,1.4
					l-4.9,1.5l-4.9,1.5l-4.7,1.7c-3.2,1.2-6.3,2.2-9.4,3.5c-3.1,1.3-6.1,2.6-9.2,3.9c-24.2,10.8-45.9,24.7-64.5,40.5l-3.5,2.9
					l-3.3,3.1c-2.2,2.1-4.5,4-6.5,6.1c-0.1,0.1-0.2,0.2-0.3,0.3c53.2-65.8,139.3-108.6,236.5-108.6c99.6,0,187.5,44.9,240.3,113.4
					c4.5,8.5,8.4,17.1,11.9,25.5c10.8,25.7,17.8,50.1,22.2,71.8c0.5,2.7,1,5.4,1.5,8.1c0.5,2.6,1,5.2,1.3,7.8c0.7,5.1,1.4,10,2,14.8
					c0.5,4.7,0.8,9.3,1.2,13.7c0.2,2.2,0.4,4.3,0.5,6.4c0.1,2.1,0.5,4.1,0.6,6C2699.6,942.7,2700.2,946.5,2700.2,949.9z"/>
			</g>
		</g>
		<g>
			<linearGradient id="SVGID_23_" gradientUnits="userSpaceOnUse" x1="2252.1816" y1="1608.4276" x2="2388.4939" y2="1747.174">
				<stop  offset="0" style="stop-color:#FFC444"/>
				<stop  offset="0.9964" style="stop-color:#F36F56"/>
			</linearGradient>
			<path class="st26" d="M2307.5,1673.7c0,0,7.9-29.8,2.3-37.4c-5.6-7.6-40.1-38.1-36.8-28.1c3.3,9.9,8.3,16.6,8.3,16.6
				s-18.5,8.6-6.6,21.5c11.9,12.9,15.9,15.9,16.6,27.5C2291.9,1685.3,2299.6,1689.2,2307.5,1673.7z"/>
			<linearGradient id="SVGID_24_" gradientUnits="userSpaceOnUse" x1="2590.0618" y1="2926.3616" x2="2588.9133" y2="2618.5552">
				<stop  offset="0" style="stop-color:#AA80F9"/>
				<stop  offset="0.9964" style="stop-color:#6165D7"/>
			</linearGradient>
			<path class="st27" d="M2638.3,2960.1c0,0,4.2,25.8,3.7,34.9c-0.5,9.2-102.3,13.9-103.4,7s16.8-17.8,29.4-21.7
				c12.6-3.9,49.3-14.2,49.3-14.2L2638.3,2960.1z"/>
			
				<linearGradient id="SVGID_25_" gradientUnits="userSpaceOnUse" x1="-501.5154" y1="3009.5386" x2="-499.6139" y2="2849.8228" gradientTransform="matrix(0.9968 7.990000e-02 -7.990000e-02 0.9968 3360.9282 65.4365)">
				<stop  offset="0" style="stop-color:#FFC444"/>
				<stop  offset="0.9964" style="stop-color:#F36F56"/>
			</linearGradient>
			<path class="st28" d="M2613.6,2934.4l3.2,32.1c0,0,11.8,7.8,22.2,1.8l5.2-34.9L2613.6,2934.4z"/>
			<linearGradient id="SVGID_26_" gradientUnits="userSpaceOnUse" x1="2771.5334" y1="2925.6841" x2="2770.3848" y2="2617.8772">
				<stop  offset="0" style="stop-color:#AA80F9"/>
				<stop  offset="0.9964" style="stop-color:#6165D7"/>
			</linearGradient>
			<path class="st29" d="M2820,3001.9c0,0,4.2,25.8,3.7,34.9c-0.5,9.2-102.3,13.9-103.4,7c-1-6.9,16.8-17.8,29.4-21.7
				c12.6-3.9,49.3-14.2,49.3-14.2L2820,3001.9z"/>
			
				<linearGradient id="SVGID_27_" gradientUnits="userSpaceOnUse" x1="-316.8313" y1="3011.7336" x2="-314.9298" y2="2852.0159" gradientTransform="matrix(0.9968 7.990000e-02 -7.990000e-02 0.9968 3360.9282 65.4365)">
				<stop  offset="0" style="stop-color:#FFC444"/>
				<stop  offset="0.9964" style="stop-color:#F36F56"/>
			</linearGradient>
			<path class="st30" d="M2795.3,2976.2l3.2,32.1c0,0,11.8,7.8,22.2,1.8l5.2-34.9L2795.3,2976.2z"/>
			<linearGradient id="SVGID_28_" gradientUnits="userSpaceOnUse" x1="2626.1184" y1="2223.8457" x2="2738.9419" y2="2800.6538">
				<stop  offset="0" style="stop-color:#311944"/>
				<stop  offset="1" style="stop-color:#893976"/>
			</linearGradient>
			<path class="st31" d="M2632.1,2097.7c-11.8,23.9-23.5,47.7-35.3,71.6c-9.5,136.1-14.2,284.2-11.1,442.5
				c2.2,117.8,8.5,229.4,17.6,334.1c16-0.7,31.9-1.5,47.9-2.2c23.1-45.8,50.3-115.2,52.8-200.8c2.6-89.3-24.5-101.2-22.7-186.7
				c2.2-110.8,48.7-140.4,73.5-273.7c9.5-51,15.8-117.6,8.3-198.4C2719.3,2088.6,2675.7,2093.2,2632.1,2097.7z"/>
			
				<linearGradient id="SVGID_29_" gradientUnits="userSpaceOnUse" x1="-593.5934" y1="2495.877" x2="-423.545" y2="2495.877" gradientTransform="matrix(0.9968 7.990000e-02 -7.990000e-02 0.9968 3360.9282 65.4365)">
				<stop  offset="0" style="stop-color:#311944"/>
				<stop  offset="1" style="stop-color:#893976"/>
			</linearGradient>
			<path class="st32" d="M2762.9,2084.1c-23.5,2.5-47.1,4.9-70.6,7.4c-42.4,73.8-54.2,150.5-46.8,184.5
				c10.5,48,38.4,63.4,36.8,111.7c-1.5,47.7-29.6,60.1-47.5,116.4c-12.3,39-9.1,74.8-2.1,144.8c14.1,141.1,48.2,184.2,19.7,230.5
				c-8.1,13.1-22.7,28.8-51.3,40.7c0.7,8.7,1.4,17.3,2.1,25.9c16-0.7,31.9-1.5,47.9-2.2c23.1-45.8,50.3-115.2,52.8-200.8
				c2.6-89.3-24.5-101.2-22.7-186.7c2.2-110.8,48.7-140.4,73.5-273.7C2764.1,2231.5,2770.5,2164.9,2762.9,2084.1z"/>
			
				<linearGradient id="SVGID_30_" gradientUnits="userSpaceOnUse" x1="-497.5913" y1="2520.1677" x2="-239.4419" y2="2520.1677" gradientTransform="matrix(0.9968 7.990000e-02 -7.990000e-02 0.9968 3360.9282 65.4365)">
				<stop  offset="0" style="stop-color:#311944"/>
				<stop  offset="1" style="stop-color:#893976"/>
			</linearGradient>
			<path class="st33" d="M2695.4,2140.7c22.1,120.4,41.6,249.4,56.8,386.1c18.4,165.1,28.2,320.7,32,465.2c17.5,0.5,35,1,52.5,1.5
				c69-136.5,73.2-229.1,63.3-289.3c-3.8-23.2-14.2-68.7-16.6-136.8c-1.7-47.4,1.4-83.5,5.1-126.9c8.3-95.1,18.3-115.9,19.8-188.7
				c1.4-68.3,1.6-102.9-17.9-123C2839.2,2075.5,2705.5,2136,2695.4,2140.7z"/>
			<linearGradient id="SVGID_31_" gradientUnits="userSpaceOnUse" x1="2460.3169" y1="1688.4636" x2="2650.6958" y2="2911.123">
				<stop  offset="0" style="stop-color:#FFC444"/>
				<stop  offset="0.9964" style="stop-color:#F36F56"/>
			</linearGradient>
			<path class="st34" d="M2316.7,1669.1c-11.6-0.8-23.3-1.6-34.9-2.4c-27.5,111-7.8,218.7,54.2,258.3
				c96.9,61.9,276.9-54.7,315.9-181.6c17.1-55.7,13.2-136.1-21-151.8c-9.5-4.3-24.2-5-56.2,12.9c-95.4,53.6-97.9,154.8-146.4,163.3
				C2406.8,1771.6,2372,1757.9,2316.7,1669.1z"/>
			
				<linearGradient id="SVGID_32_" gradientUnits="userSpaceOnUse" x1="-257.2136" y1="2995.2122" x2="-66.8346" y2="4217.8711" gradientTransform="matrix(0.9968 7.990000e-02 -7.990000e-02 0.9968 3360.9282 65.4365)">
				<stop  offset="0" style="stop-color:#FFC444"/>
				<stop  offset="0.9964" style="stop-color:#F36F56"/>
			</linearGradient>
			<path class="st35" d="M2583.4,2193.7c-16.8-27.8,4.3-54.7,9.1-107.4c5.4-59.8-17.6-69.7-40.4-168.8
				c-15.1-65.9-29.7-129.1-12.3-203.2c8.3-35.5,22.4-95.7,72.2-124.7c25.7-15,60.8-13.5,129.9-9.9c85.5,4.5,128.3,6.7,160.1,23.5
				c4.7,2.5,101.7,55.2,108.3,141.2c6.8,87.5-88.5,99.3-101.2,216c-5.7,52.4,4.5,133,11.1,185.3c6.3,50.2,10.7,63,0.8,78.2
				c-23.9,36.6-97,26.2-243.1,5.3C2620.6,2221,2595.9,2214.5,2583.4,2193.7z"/>
			
				<linearGradient id="SVGID_33_" gradientUnits="userSpaceOnUse" x1="21.2231" y1="2550.8066" x2="-554.9072" y2="1723.6886" gradientTransform="matrix(0.9968 7.990000e-02 -7.990000e-02 0.9968 3360.9282 65.4365)">
				<stop  offset="0" style="stop-color:#FFC444"/>
				<stop  offset="0.9964" style="stop-color:#F36F56"/>
			</linearGradient>
			<path class="st36" d="M2805.8,1941.6c6.2,22.7,28.4,39.7,43.9,95.1c3.3,11.9,27.1,97-3.7,118c-17.8,12.1-33.8-10.8-77.1-13.8
				c-75-5.2-110.7,57.8-159.7,40.6c-8.5-3-19.7-9.4-30.9-24c-2.2,13.2-1.8,24.6,5.1,36.2c12.5,20.8,37.2,27.3,94.5,35.5
				c146.2,20.9,219.2,31.3,243.1-5.3c9.9-15.2,5.5-28-0.8-78.2c-6.6-52.3-16.8-132.9-11.1-185.3c12.7-116.7,108-128.5,101.2-216
				c-1.8-23.4-10.4-44.2-21.9-62.4C2867.6,1730.9,2786.4,1870.1,2805.8,1941.6z"/>
			<linearGradient id="SVGID_34_" gradientUnits="userSpaceOnUse" x1="2998.1248" y1="2007.8906" x2="2890.9426" y2="2152.6804">
				<stop  offset="0" style="stop-color:#FFC444"/>
				<stop  offset="0.9964" style="stop-color:#F36F56"/>
			</linearGradient>
			<path class="st37" d="M2958.5,2113.8l-24.2,15.4c-4.3-5-14.4-15.1-30.1-18.6c-17.7-3.9-38,1.7-38.5,7.3c-0.4,4.5,12,9.1,13.9,9.8
				c15.4,5.7,26.9,1,33.1,7.2c2.2,2.2,5,6.3,11.3,10.1c1.7,1,3.4,1.9,4.3,2.2c10.3,4,28-13.9,29.5-15.5L2958.5,2113.8z"/>
			
				<linearGradient id="SVGID_35_" gradientUnits="userSpaceOnUse" x1="-34.3031" y1="2960.5044" x2="156.0763" y2="4183.166" gradientTransform="matrix(0.9968 7.990000e-02 -7.990000e-02 0.9968 3360.9282 65.4365)">
				<stop  offset="0" style="stop-color:#FFC444"/>
				<stop  offset="0.9964" style="stop-color:#F36F56"/>
			</linearGradient>
			<path class="st38" d="M2887,1796.5c-17.5-41.9-29.6-106.1-2-201.4c182.1,71.8,275,241.9,238.8,376.8
				c-29.9,111.2-138.7,165.3-162.9,176.7c-5.6-12.9-11.3-25.7-16.9-38.6c28.1-31.3,59.8-77.6,55.3-130.5
				C2993,1906.3,2922.5,1881.3,2887,1796.5z"/>
			
				<linearGradient id="SVGID_36_" gradientUnits="userSpaceOnUse" x1="-2469.0298" y1="3299.2114" x2="-2469.0298" y2="3134.5132" gradientTransform="matrix(0.7795 0.6265 -0.6265 0.7795 6685.311 622.2045)">
				<stop  offset="0" style="stop-color:#FFC444"/>
				<stop  offset="0.9964" style="stop-color:#F36F56"/>
			</linearGradient>
			<path class="st39" d="M2746.4,1493.4c0,0,1.4,31.9,11.3,55.7c8.9,21.6,55.9,35.1,65.5,39.9c9.5,4.8-17.9,18.9-45.4,21.6
				c-27.5,2.8-106-3.5-120.2-13.9c-14.2-10.4,11.4-9.6,31-16.8c19.6-7.2,31-45.6,27.5-63C2712.8,1499.6,2746.4,1493.4,2746.4,1493.4
				z"/>
			
				<linearGradient id="SVGID_37_" gradientUnits="userSpaceOnUse" x1="-464.2354" y1="1576.64" x2="-533.1246" y2="1401.6741" gradientTransform="matrix(0.9968 7.990000e-02 -7.990000e-02 0.9968 3360.9282 65.4365)">
				<stop  offset="0" style="stop-color:#444B8C"/>
				<stop  offset="0.9964" style="stop-color:#3E4177"/>
			</linearGradient>
			<path class="st40" d="M2702.9,1481.9c-14.3-14-16.3-15.7-17.8-20.5c-6.2-19.4,8.8-46.1,28.6-52.6c1-0.3,14.3-4.6,19.4,1.2
				c4.3,4.9-2,11.6,1,21.1c2.8,8.8,10.5,9.5,24.6,21c11.7,9.5,18.9,15.4,20.6,23.8c3.5,17.2-17.3,42.1-35.7,41.4
				C2737,1517,2735.2,1513.6,2702.9,1481.9z"/>
			<g>
				
					<linearGradient id="SVGID_38_" gradientUnits="userSpaceOnUse" x1="-2585.4482" y1="3251.7471" x2="-2508.4458" y2="3102.02" gradientTransform="matrix(0.7795 0.6265 -0.6265 0.7795 6685.311 622.2045)">
					<stop  offset="0" style="stop-color:#FFC444"/>
					<stop  offset="0.9964" style="stop-color:#F36F56"/>
				</linearGradient>
				<path class="st41" d="M2741.8,1519.8c0,0-15.2,17.2-38.3,11.5c-20.7-5.1-15.4-52.6-0.3-60.1c5.1-2.5,14.2-2.3,21.1,1
					c4.1,2,5.2,4,11.9,7.1c6.2,2.8,8.2,2.4,9.8,4.4c2.1,2.5,3,7.9-3.6,20.9c4.7-3.3,9.8-4,12.9-1.8c0.5,0.4,1.8,1.6,2.3,3.2
					C2759.8,1511.9,2753.7,1517.9,2741.8,1519.8z"/>
			</g>
		</g>
		<g>
			<linearGradient id="SVGID_39_" gradientUnits="userSpaceOnUse" x1="1852.2135" y1="1639.7655" x2="1570.442" y2="1730.1945">
				<stop  offset="0" style="stop-color:#FCB148"/>
				<stop  offset="5.207239e-02" style="stop-color:#FDBA46"/>
				<stop  offset="0.1424" style="stop-color:#FFC244"/>
				<stop  offset="0.3183" style="stop-color:#FFC444"/>
				<stop  offset="0.4849" style="stop-color:#FDB946"/>
				<stop  offset="0.7754" style="stop-color:#F99C4D"/>
				<stop  offset="0.8658" style="stop-color:#F8924F"/>
				<stop  offset="1" style="stop-color:#F8924F"/>
			</linearGradient>
			<path class="st42" d="M2176.6,1629.5c0,130.7-102.2,233.5-232.9,229.5c-136-4.2-250.3-121.6-250.3-262.1
				c0-140.5,114.3-242.5,250.3-228.4C2074.4,1382.2,2176.6,1498.8,2176.6,1629.5z"/>
			<linearGradient id="SVGID_40_" gradientUnits="userSpaceOnUse" x1="2080.1504" y1="1359.2904" x2="1828.6021" y2="1914.2526">
				<stop  offset="0" style="stop-color:#FFDB44"/>
				<stop  offset="1" style="stop-color:#FEEF06"/>
			</linearGradient>
			<path class="st43" d="M2211.9,1618.3c0,130.7-102.2,233.5-232.9,229.5c-136-4.2-250.3-121.6-250.3-262.1
				c0-140.5,114.3-242.5,250.3-228.4C2109.7,1370.9,2211.9,1487.6,2211.9,1618.3z"/>
			<linearGradient id="SVGID_41_" gradientUnits="userSpaceOnUse" x1="2033.8778" y1="1945.2694" x2="1985.3411" y2="1680.115">
				<stop  offset="0" style="stop-color:#FCB148"/>
				<stop  offset="5.207239e-02" style="stop-color:#FDBA46"/>
				<stop  offset="0.1424" style="stop-color:#FFC244"/>
				<stop  offset="0.3183" style="stop-color:#FFC444"/>
				<stop  offset="0.4849" style="stop-color:#FDB946"/>
				<stop  offset="0.7754" style="stop-color:#F99C4D"/>
				<stop  offset="0.8658" style="stop-color:#F8924F"/>
				<stop  offset="1" style="stop-color:#F8924F"/>
			</linearGradient>
			<path class="st44" d="M2201.6,1617.6c0,125-97.8,223.1-222.6,219.1c-129.6-4.2-238.5-116.3-238.5-250.1
				c0-133.9,108.8-231.3,238.5-218C2103.8,1381.3,2201.6,1492.6,2201.6,1617.6z"/>
			<linearGradient id="SVGID_42_" gradientUnits="userSpaceOnUse" x1="1930.9706" y1="1516.0878" x2="2130.9968" y2="1940.7054">
				<stop  offset="0" style="stop-color:#FCB148"/>
				<stop  offset="5.207239e-02" style="stop-color:#FDBA46"/>
				<stop  offset="0.1424" style="stop-color:#FFC244"/>
				<stop  offset="0.3183" style="stop-color:#FFC444"/>
				<stop  offset="0.4849" style="stop-color:#FDB946"/>
				<stop  offset="0.7754" style="stop-color:#F99C4D"/>
				<stop  offset="0.8658" style="stop-color:#F8924F"/>
				<stop  offset="1" style="stop-color:#F8924F"/>
			</linearGradient>
			<path class="st45" d="M2194.3,1617.1c0,120.8-94.6,215.6-215.3,211.6c-125.1-4.2-230.1-112.4-230.1-241.6
				s104.9-223.2,230.1-210.6C2099.7,1388.7,2194.3,1496.2,2194.3,1617.1z"/>
			<g>
				<linearGradient id="SVGID_43_" gradientUnits="userSpaceOnUse" x1="1923.0015" y1="1424.7155" x2="2023.5817" y2="1801.6722">
					<stop  offset="0" style="stop-color:#FFDB44"/>
					<stop  offset="1" style="stop-color:#FEEF06"/>
				</linearGradient>
				<path class="st46" d="M1977.8,1417.6L1977.8,1417.6c6.4,0.6,11.6,6.4,11.6,12.9v22.2c12.8,1.4,25.7,3.7,38.6,6.7
					c9.5,2.2,18.9,4.9,28.3,8c5.6,1.8,9.4,7.5,8.9,13.4l-2.7,27.9c-0.7,7.4-8,11.7-14.9,8.7c-6.2-2.7-12.5-5.1-19-7.1
					c-11.3-3.4-23.2-5.7-35.8-6.7l-3.3-0.3v63.7c33.5,9.4,58.1,22,74,37.8c15.8,15.8,23.7,35.4,23.7,59c0,25.5-8.7,46-26.2,61.4
					c-17.6,15.5-42.2,24.2-74.1,26.1v24.6c0,6.5-5.2,11.6-11.6,11.3l-0.2,0c-6.4-0.3-11.7-5.8-11.7-12.3v-24.2l-5.2-0.2
					c-14.9-0.7-29.3-2.2-42.9-4.6c-10.1-1.8-20-4-29.7-6.8c-5.8-1.7-9.8-7.2-9.3-13.2l3.2-35.9c0.7-7.8,8.5-12.3,15.9-9.4
					c8.6,3.4,17.3,6.2,26.1,8.6c13.7,3.6,27.6,5.9,41.7,7l0.2-70.9c-32.1-8-56.2-19.7-72-35.3c-15.9-15.7-23.9-35.7-23.9-60.1
					c0-25.2,8.6-44.7,25.9-58.4c17.1-13.6,41.5-20.4,72.9-20.4v-22.7C1966.2,1421.8,1971.4,1417,1977.8,1417.6z M1966.2,1502.7
					c-9.9,0.7-17.7,3.5-23.2,8.2c-5.6,4.7-8.3,11.1-8.3,19.1c0,7.6,2.6,13.9,7.7,19c5.1,5.1,13.1,9.1,23.8,12.2V1502.7z
					 M1986.8,1631v65c10.8,0,19.1-2.6,24.9-7.7c5.8-5.2,8.7-12.5,8.7-21.9c0-8.6-2.7-15.7-8-21.4
					C2006.9,1639.3,1998.4,1634.6,1986.8,1631z"/>
			</g>
			<linearGradient id="SVGID_44_" gradientUnits="userSpaceOnUse" x1="1872.1234" y1="1543.5669" x2="2071.7463" y2="1967.3282">
				<stop  offset="0" style="stop-color:#FCB148"/>
				<stop  offset="5.207239e-02" style="stop-color:#FDBA46"/>
				<stop  offset="0.1424" style="stop-color:#FFC244"/>
				<stop  offset="0.3183" style="stop-color:#FFC444"/>
				<stop  offset="0.4849" style="stop-color:#FDB946"/>
				<stop  offset="0.7754" style="stop-color:#F99C4D"/>
				<stop  offset="0.8658" style="stop-color:#F8924F"/>
				<stop  offset="1" style="stop-color:#F8924F"/>
			</linearGradient>
			<path class="st47" d="M1940.1,1646.7c7.3-71.8,73.3-102.2,64.7-168.3c-5.3-40.7-36.2-75-70.6-101.8
				c-104.4,11-185.2,97.4-185.2,210.5c0,129.2,104.9,237.4,230.1,241.6c12.2,0.4,24-0.2,35.6-1.7
				C1964.9,1777.5,1933.8,1708.4,1940.1,1646.7z"/>
		</g>
	</g>
</g>
</svg>
