<?xml version="1.0" encoding="utf-8"?>
<!-- Generator: Adobe Illustrator 22.1.0, SVG Export Plug-In . SVG Version: 6.00 Build 0)  -->
<svg version="1.1" xmlns="http://www.w3.org/2000/svg" xmlns:xlink="http://www.w3.org/1999/xlink" x="0px" y="0px"
	 viewBox="0 0 500 500" style="enable-background:new 0 0 500 500;" xml:space="preserve">
<style type="text/css">
	.st0{fill:#EFF2C4;}
	.st1{fill:#E6E6E6;}
	.st2{fill:#FFFFFF;}
	.st3{fill:#66B0A9;}
	.st4{fill:#29211C;}
	.st5{fill:#FFBC82;}
	.st6{fill:#29201D;}
	.st7{fill:none;stroke:#29201D;stroke-width:0.5;stroke-miterlimit:10;}
	.st8{fill:#606060;}
	.st9{fill:#DE9066;}
	.st10{fill:none;stroke:#29201D;stroke-width:0.25;stroke-miterlimit:10;}
	.st11{fill:none;stroke:#FFFFFF;stroke-width:0.5;stroke-miterlimit:10;}
	.st12{opacity:0.35;fill:#6677B0;}
	.st13{opacity:0.35;}
	.st14{fill:#6677B0;}
	.st15{fill:#F9BE89;}
	.st16{fill:#DEE0B6;}
	.st17{fill:#856042;}
	.st18{fill:#C4966C;}
	.st19{fill:none;stroke:#120E0C;stroke-width:0.5;stroke-miterlimit:10;}
	.st20{fill:none;stroke:#856042;stroke-width:0.5;stroke-miterlimit:10;}
	.st21{fill:none;stroke:#120E0C;stroke-width:0.5;stroke-linejoin:round;stroke-miterlimit:10;}
</style>
<g id="BACKGROUND">
	<path class="st0" d="M113.9,97.7c33.9-45.3,87.6-49.9,105.6-51.5c13.2-1.1,103.2-8.8,152,69.2c37.6,60.1,34.2,144.6-6.4,200.6
		c-53.2,73.4-158,80.9-223.2,21.3C74.9,276.1,67.4,159.9,113.9,97.7z"/>
</g>
<g id="OBJECTS">
	<path class="st1" d="M113.9,464.7c0,5.3,37.2,9.6,83.2,9.6c45.9,0,83.2-4.3,83.2-9.6c0-5.3-37.2-9.6-83.2-9.6
		C151.1,455.1,113.9,459.4,113.9,464.7z"/>
	<path class="st1" d="M266.2,467.2c0,4,30.7,7.2,68.6,7.2c37.9,0,68.6-3.2,68.6-7.2c0-4-30.7-7.2-68.6-7.2
		C296.9,460,266.2,463.2,266.2,467.2z"/>
	<g>
		<g>
			
				<rect x="228.6" y="128.1" transform="matrix(0.6364 -0.7714 0.7714 0.6364 -34.7318 232.2934)" class="st2" width="0.8" height="49.8"/>
			<path class="st3" d="M209.7,134.9c0.9,0.9,1.1,2.2,0.5,2.7c-0.6,0.6-1.8,0.2-2.7-0.7c-0.9-0.9-1.1-2.2-0.5-2.7
				C207.7,133.6,208.9,133.9,209.7,134.9z"/>
		</g>
		<g>
			<path class="st2" d="M379.6,144.9L393.7,318c0,0,8.8,35.1-99.3,7.9l26.1-146.3L379.6,144.9z"/>
			<circle class="st4" cx="369.7" cy="60.6" r="9.6"/>
			<g>
				<path class="st3" d="M358,65.6c1.7,4.4,4.6,7.4,6.6,6.7c2-0.7,2.2-4.9,0.5-9.4c-1.7-4.4-4.6-7.4-6.6-6.7
					C356.6,57,356.3,61.2,358,65.6z"/>
				<polygon class="st5" points="381.4,454.9 380.8,439.9 369.3,443.6 369,450.7 370,459.9 				"/>
				<path class="st6" d="M381.3,453.3c0,0,4.2,9.7,2.7,15.8c0,0-17.5,1-31,3.2c-13.5,2.2-20.8-5.2-11.7-8.7
					c9.1-3.5,27.6-12.9,27.6-12.9S370.2,459.8,381.3,453.3z"/>
				<polygon class="st5" points="324.9,452.7 324.4,437.7 312.8,441.4 312.5,448.5 313.5,457.7 				"/>
				<g>
					<path class="st3" d="M317.6,239.4c0.2-12.5-0.1-17.9,2-30.5c0,0,0.5,19.3,48.9,1.3l5.3-1.4c0,0,10.3,19.2,9.1,42.6
						c-0.2,3.4-0.9,6.7-1.9,9.9l-5.8,17.8L317.6,239.4z"/>
					<path class="st7" d="M320.2,327c0,0,3.7,6.2,7.3,6.6"/>
					<path class="st7" d="M320.2,327"/>
					<g>
						<path class="st8" d="M342.1,247.5c-1.6-9.4-3.3-15.1-3.3-15.1l-20.8-6.8c-0.2,2.8-12.6,52.1-14,72.7c-0.4,6.5-2,13-1.6,19.6
							c0.4,6,1.2,8.5,3.7,13.4c2.7,5.5,3.1,14.5,3.8,20.7c0.9,7.8,0.7,17.7,1,25.5l28-1.7c1.9-17.3,2-29.4-2.8-45.9
							c-1.5-5.1,2.9-11.6,4.2-16.7c1.4-5.4,2.4-11,3.1-16.5c1.1-9.1,2.9-20.6,0.9-29.6"/>
						<path class="st8" d="M338.8,375.7c-0.9,7.9-1.1,11.3-3.6,18.9c-8.7,26.8-10.6,52.1-10.6,52.1s-7.6,1.7-12.1-0.4
							c0,0-0.9-35.7-1.6-60.9c-0.1-2.6-0.1-5.3-0.3-8"/>
						<path class="st7" d="M304.7,328.4c0,0,2.8,6.7,6.2,7.7"/>
					</g>
					<path class="st7" d="M343.6,330.7c0,0,3.7,6.2,7.3,6.6"/>
					<g>
						<path class="st8" d="M385.4,366.8c-0.7-17.4-2.7-19.1-10-34.7c-2.2-4.8,0-10.3,0.5-15.4c0.5-5.6,1.7-14.4,1.6-20
							c-0.2-9.1,1.4-39.7-1.9-48.4l-12.8-17.6l-30,5.4c0.1,1,0.2,2.1,0.3,3.1c1.7,20.6,3.5,41.2,5.2,61.8c0.5,6.5,0,13.2,1.3,19.6
							c1.3,5.9,4.5,11.3,6.6,17c2.1,5.7,3.9,11.7,5.5,17.7c2,7.6,3.7,15.4,5.2,23c0.5,2.6,1,5.3,1.4,7.9
							c4.4,24.9,9.2,35.5,10.8,60.7l12.1-0.7c0,0-1.9-27.7,2.7-55.4C385.3,382.8,385.7,374.8,385.4,366.8z"/>
					</g>
					<path class="st7" d="M343.6,330.7"/>
					<path class="st7" d="M343.6,330.7c0,0,3.7,6.2,7.3,6.6"/>
				</g>
				<path class="st5" d="M332.2,127.4c0,0-1.1-8.5,3.3-9.9c2.5-0.8,4.9-3.3,5.4-6c1.2-6.5,2.1-13.1,0.2-18.2l9.4-21.4
					c0,0,5.5,16.9,8.6,35.4c1,5.8,6,7.6,8,8.8c4.4,2.6-7.4,29.7-29.1,16.3c-0.1-0.1-0.2-0.1-0.3-0.2
					C333.4,129.4,335.9,133.7,332.2,127.4z"/>
				<path class="st9" d="M340.2,113.5l0.1-0.4c0.3-0.5,0.5-1.1,0.6-1.7c0.4-2.4,0.8-4.9,1.1-7.3l9.7-7
					C351.6,97.2,349.6,110.8,340.2,113.5z"/>
				<path class="st3" d="M333.3,121.8l1.9-4.3c0,0,1.4-1.7,6.1-2.4c12.6,0.4,22.6-1,22.6-1c6.9,1.8,12.4,12.6,13.1,14.8
					c7.5,23.7-2.3,31.2-5.2,45.9c0,0-2,22,2.1,34c0.3,0.9-30.3,22.7-48,11.3c-5-3.2-6.3-11.2-6.3-11.2c3.2-15.2,2.8-22.9-0.1-33
					c-5.5-18.6-2.1-18.8,1.9-28c0.7-1.7,3.8-8.4,4.9-10.7"/>
				<path class="st2" d="M325.8,138.2c0.3-0.7,1.5-15,9.4-20.7l0.2,0.6L325.8,138.2z"/>
				<g>
					<path class="st5" d="M322.9,81c0,0,2.4,30.6,15.7,27.5c16.5-3.8,18.9-28.5,17.7-41.8c-0.6-6.3-6.7-7.6-13-8.6
						C333.7,56.5,321.3,63.7,322.9,81z"/>
					<path class="st4" d="M321.8,66c2.9-6.5,13.9-13.6,23.8-13.6c9.8,0,16.6,6.5,18.1,15.5c2.4,14.7-8.3,14.3-8.3,14.3
						s-23.4,4.6-30.7-13c-3.5,5.9-0.4,10.8-1.2,15C323.4,84.3,318.9,72.5,321.8,66z"/>
					<path class="st5" d="M323.5,82.2c0,0-0.6,7-1.4,9.6c-0.8,2.6,0.3,4.4,4.8,3.8"/>
					<g>
						<path class="st10" d="M336.6,93.1c0,0-2.8,4.6-6.6,3.6"/>
					</g>
					<g>
						<g>
							<path class="st5" d="M358.8,88.9c-1.6,3-4.8,4.4-7.1,3.1c-2.3-1.3-2.8-4.7-1.2-7.7c1.6-3,4.8-4.4,7.1-3.1
								C359.9,82.5,360.4,85.9,358.8,88.9z"/>
						</g>
						<g>
							<path class="st7" d="M356.3,84.7c0,0-1.7,0.3-2.1,3.8"/>
							<path class="st7" d="M356.5,87.5c0,0-0.3-0.8-1.6-1.2"/>
						</g>
					</g>
				</g>
				<path class="st6" d="M328.9,85.3c0,0.7-0.4,1.2-0.8,1.1c-0.4,0-0.7-0.6-0.7-1.2c0-0.7,0.4-1.2,0.8-1.1
					C328.7,84.1,329,84.7,328.9,85.3z"/>
				<path class="st7" d="M319.5,161.5"/>
				<path class="st7" d="M346.8,128.8"/>
				<g>
					<path class="st3" d="M248.1,166.7c0,0-15-9.6-10.3-9.3c0,0,9.3,2.8,12.8,4.7c3.5,1.8,8.6,6.9,8.6,6.9L248.1,166.7z"/>
					<polygon class="st3" points="261.5,169.2 247.3,165.1 245.7,179.9 261.5,177.9 					"/>
					<path class="st3" d="M245.7,179.9c0,0-4.7-2.9-6.1-5.1c-1.5-2.3-9.1-15.9-8.1-16.5c1.9-1.1,7,3.6,9.9,6.2
						c0.8,0.7,2.2,2,5.9,0.5L245.7,179.9z"/>
					<line class="st7" x1="233" y1="162.6" x2="241.5" y2="168"/>
					<line class="st7" x1="236.1" y1="168.7" x2="241.9" y2="171.6"/>
					<line class="st7" x1="238.9" y1="173.5" x2="243.3" y2="175.4"/>
					<path class="st7" d="M246.3,165.3c0,0,1.9-0.7,3.2-1.3"/>
				</g>
				<path class="st6" d="M324.9,451.1c0,0,4.2,9.7,2.7,15.8c0,0-17.5,1-31,3.2c-13.5,2.2-20.8-5.2-11.7-8.7
					c9.1-3.5,27.6-12.9,27.6-12.9S313.7,457.6,324.9,451.1z"/>
				<g>
					<g>
						<path class="st11" d="M304.9,451.8c0,0,2.5,0.1,3.3,3.4"/>
						<path class="st11" d="M300.8,453.2c0,0,2.5,0.1,3.3,3.4"/>
						<path class="st11" d="M308.7,450.4c0,0,2.5,0.1,3.3,3.4"/>
					</g>
				</g>
				<path class="st7" d="M327.8,81.3c0,0,2.7-0.5,3.8,2.2"/>
				<g>
					<polygon class="st3" points="359,103.9 340.1,114.8 344.4,125 364.8,114.4 					"/>
				</g>
				<polygon class="st3" points="339.4,111.7 340.8,115.3 335.9,122.2 333.8,118.3 				"/>
				<path class="st6" d="M340.9,111.5l-1.4,0.2l0.7,1.8C340.2,113.5,340.4,113.3,340.9,111.5z"/>
				<polyline class="st7" points="333.8,118.4 335.9,122.2 340.5,116 344.2,125.2 364.9,114.8 				"/>
				<g>
					<g>
						<path class="st2" d="M323.4,84.3c0,0,2.2,6.2,5.3,8.1c3.2,1.9,7.6-0.7,10.1,1.6c0,0,1,13.1-6,13.3
							C316.3,107.7,323.4,84.3,323.4,84.3z"/>
						<path class="st1" d="M331.7,102.7c4.5-0.1,5.7-5.5,6-9.4c0.4,0.2,0.8,0.4,1.1,0.7c0,0,1,13.1-6,13.3
							c-7.8,0.2-10.3-5-10.8-10.4C323.4,100.3,326.2,102.8,331.7,102.7z"/>
					</g>
					<path class="st11" d="M352.8,81.3c0,0-7.8,9.9-17.7,13.5"/>
				</g>
				<polyline class="st10" points="339.1,315.8 335.3,250.1 326.8,242.2 				"/>
				<g>
					<path class="st11" d="M361.3,453.8c0,0,2.5,0.1,3.3,3.4"/>
					<path class="st11" d="M357.1,455.2c0,0,2.5,0.1,3.3,3.4"/>
					<path class="st11" d="M365,452.3c0,0,2.5,0.1,3.3,3.4"/>
				</g>
				<path class="st12" d="M393.7,318l-0.2-2.8c-12.4-30.5-48.1-78.9-64.5-119.7c-3-7.4-8-21.2-2-32.4c4-7.6,9.6-7.4,19.1-17.3
					c11.4-11.8,18.4-27.5,15.9-29.6c-2.7-2.2-18.2,10.4-28.8,22.8c-7.1,8.3-12.3,16.9-16.2,25.5c0.4,2.9,1.2,6.5,2.6,11.5
					c0.4,1.3,0.7,2.5,1,3.7l-26.1,146.3c3.6,0.9,7,1.7,10.3,2.5c0.4,0.9,0.8,1.8,1.3,2.8c0.1,0.2,0.2,0.4,0.3,0.6c0,0,0,0,0,0
					c2.5,5.5,2.8,14.1,3.5,20.1c0.9,7.8,0.7,17.7,1,25.5c0.1,2.7,0.2,5.4,0.3,8c0.6,25.2,1.6,60.9,1.6,60.9c0,0,0,0,0,0l-0.1,2.2
					c0,0-18.5,9.4-27.6,12.9c-6.7,2.5-4.5,7.2,2.5,8.6c0.3-2.6,1.1-5.8,3.6-8.2c1.7-1.7,3.5-2.3,5.4-3c11.2-4.2,16.8-6.2,19.2-8.3
					c5.6-4.8,1.7-14.8,0-30c-1.6-13.6,0-30.8,3-65.2c0.4-4.9,0.9-9.1,1-12.7c7.2,1.4,13.7,2.5,19.7,3.3c-0.5-3.6-1.1-7.4-2.1-11.3
					c2.9,0.4,5.6,0.7,8.1,0.9c0.3,0.7,0.6,1.4,0.8,2.1c0.3,0.7,0.5,1.5,0.8,2.3c0.4,1.1,0.8,2.2,1.1,3.3c0.2,0.8,0.5,1.5,0.7,2.3
					c1,3.2,2,6.5,2.9,9.8c2,7.6,3.7,15.4,5.2,23c0.5,2.6,1,5.3,1.4,7.9c4.4,24.9,9.2,35.5,10.8,60.7l0,0l-0.2,3.9
					c0,0-18.5,9.4-27.6,12.9c-4.9,1.9-5,4.8-2.1,6.8c1.8-1,4.1-3.3,8.9-6.1c12.7-7.4,21-5.7,23.8-12.1c1.3-2.9,0.7-5.7,0.3-7.6
					c-10.9-51.1-16.3-76.6-15.7-84.7c0.3-3.4,0.8-8.1,0.2-12.1c11.3,0.8,19.6,0.5,25.6-0.6c-1.3-3.4-3.1-7-5.6-12.4
					C396.7,330.4,393.7,318,393.7,318z"/>
			</g>
			<path class="st2" d="M379.7,146.3c0.6-5.1,4.2-28.1-13.8-31.5c-7.2-1.3-13.5,6.2-13.5,6.2l-31,45.2l2.9,26.9l-9.2,127
				c38.7,13.2,78.6-2.2,78.6-2.2L379.7,146.3z"/>
			<g>
				<g class="st13">
					<path class="st14" d="M341,110.5c0,0,0,0.1,0,0.1C341,110.5,341,110.5,341,110.5z"/>
				</g>
				<g>
					<path class="st2" d="M368.5,125.6c2,3.1,11.1,19.3-1,26.8c-10.2,6.2-48.4,36.9-57,38.5c-9.7,1.8-40.8-6.2-52.5-12.2l2.1-10.9
						c0,0,39.5,4.1,46.3,8.4C306.3,176.2,356.8,107,368.5,125.6z"/>
				</g>
			</g>
			<path class="st7" d="M306.2,176.1c0,0-0.9,1.1-5.2,1.7"/>
			<line class="st7" x1="363.3" y1="156.3" x2="318.7" y2="186.5"/>
			<line class="st7" x1="266.1" y1="168.4" x2="263.8" y2="181.3"/>
			<circle class="st7" cx="261.9" cy="170.7" r="0.9"/>
			<path class="st12" d="M348.5,274.7c-12.4,0.7-15.5-12.3-16.2-19.7l-0.2,0c0,0-0.9,25.5,16.4,24.6c15.1-0.8,16.6-13.6,16-21.3
				C364,265.6,360.7,274.1,348.5,274.7z"/>
			<path class="st7" d="M332.1,255l31.6-2.3c0,0,6.4,25.8-15.2,26.9C331.2,280.6,332.1,255,332.1,255z"/>
		</g>
	</g>
	<g>
		<path class="st15" d="M131.9,199c0,0,1.6,39.1,1.7,48.2c0.2,9.1-2.8,11-2.3,20.9c0.5,10,7.2,39,7.2,39l9.5-5.1
			c0,0,2.2-35.8,0.5-50c-1.6-13.5,6-56.6,6-56.6L131.9,199z"/>
		<rect x="134" y="345.7" class="st8" width="3.6" height="118.8"/>
		<rect x="246.5" y="345.7" class="st8" width="3.6" height="118.8"/>
		<path class="st2" d="M259.4,350.9H123.6c-2.8,0-5.1-2.3-5.1-5.1v-27.3c0-2.8,2.3-5.1,5.1-5.1h135.7c2.8,0,5.1,2.3,5.1,5.1v27.3
			C264.5,348.6,262.2,350.9,259.4,350.9z"/>
		<path class="st16" d="M260.4,329.6H118.5v10.4c0,6.1,2.7,11,6.1,11h133.7c3.4,0,6.1-4.9,6.1-11v-13.2
			C263.4,328.4,262,329.6,260.4,329.6z"/>
		<g>
			<path class="st15" d="M225,196.8c0,0,4,15,4.3,39.7c0.3,25.1-0.1,41.2-0.1,41.2l-10.9,3.9l-9.9-86.7L225,196.8z"/>
			<polygon class="st5" points="223.5,450.3 224.2,431.9 238.4,436.4 238.7,445.2 237.6,456.5 			"/>
			<path class="st6" d="M223.6,448.4c0,0-5.1,12-3.3,19.4c0,0,21.5,1.2,38.1,3.9c16.5,2.7,25.6-6.4,14.4-10.7
				c-11.2-4.3-34-15.8-34-15.8S237.3,456.3,223.6,448.4z"/>
			<g>
				<path class="st11" d="M248.3,449c0,0-3.1,0.2-4.1,4.2"/>
				<path class="st11" d="M253.4,450.7c0,0-3.1,0.2-4.1,4.2"/>
				<path class="st11" d="M243.6,447.2c0,0-3.1,0.2-4.1,4.2"/>
			</g>
			<polygon class="st5" points="191.7,451.7 192.4,433.3 206.5,437.8 206.9,446.6 205.7,457.9 			"/>
			<path class="st6" d="M191.7,449.8c0,0-5.1,12-3.3,19.4c0,0,21.5,1.2,38.1,3.9c16.5,2.7,25.6-6.4,14.4-10.7
				c-11.2-4.3-34-15.8-34-15.8S205.4,457.8,191.7,449.8z"/>
			<g>
				<path class="st11" d="M216.4,450.4c0,0-3.1,0.2-4.1,4.2"/>
				<path class="st11" d="M221.5,452.1c0,0-3.1,0.2-4.1,4.2"/>
				<path class="st11" d="M211.8,448.6c0,0-3.1,0.2-4.1,4.2"/>
			</g>
			<path class="st17" d="M261.9,329.5c1-6.8,5.2-16,2.9-22.4c-1.2-3.4-10.5-12.6-12.3-13.5l-45.6-32.7c0,0-32.6-29.1-43-12.5
				c-7.7-1.1-14.2,6.4-12.9,28c0.1,1.7-3.4,40.9,30.7,50.9c-0.2,18.7,0.4,43.7,3.7,66.2c6,41.3,4.3,54.2,4.3,54.2l24-3.3
				c0,0,6.6-71.7,6.2-117.6c2.5,0.5,5.1,0.9,7.8,1.3c-4.4,15-2.2,37.4-3.1,56.8c-2.2,43-5.8,59.5-5.8,59.5l22.2,2.4
				C240.9,446.8,256.8,365.6,261.9,329.5z"/>
			<path class="st12" d="M185.3,393.5c6,41.3,4.3,54.2,4.3,54.2l1.7-0.2c-0.3-8.9,2.1-22.1,0-49.1c-2.5-32.6-7.8-38.2-2.7-54.8
				c4.4-14.3,11.7-20.8,8-29.1c-4.5-10.2-18.6-7.4-25.7-20.3c-4.8-8.7-0.7-14.4-6.1-20.3c-3.5-3.9-9-5.5-14.1-5.9
				c-0.1,2.5-0.1,5.3,0.1,8.4c0.1,1.7-3.4,40.9,30.7,50.9C181.4,346,182,371,185.3,393.5z"/>
			<path class="st3" d="M219.8,328.2l-0.8,36C219.5,351.7,219.8,339.2,219.8,328.2z"/>
			<path class="st12" d="M206.8,260.9c0,0-5-4.4-11.7-8.9c-8.2-1.2-17.8-0.9-26.4,1.9c-6.5,2.1-12.9,5.8-17.6,9.7
				c-0.5,3.5-0.6,7.8-0.3,12.7c0,0.2,0,0.6,0,1.4c2.4,0.6,5.7,1.1,10.2,1.6c20.3,2.3,33.8,3.7,45.8-4.8c2.7-1.9,6.6-4.7,8.3-7.8
				L206.8,260.9z"/>
			<g>
				<path class="st3" d="M213.2,164.1c0,0,11.7,1.4,15.6,36.1c0,0-9.1,4.3-23,0.9L213.2,164.1z"/>
				<path class="st12" d="M216.8,268.1l3.5,2.5c1-1.4,1.6-3.7,2.1-6.2c2.6-12.2,0.4-19.7-0.3-35.3c-0.4-10.8-0.6-16.2-0.5-18.9
					c0.4-7.4,1.2-11.7-1.5-14.6c-2.3-2.4-5.1-12.1-8.2-11c-1.3,0.5-2.4,1.3-3.4,2.5l-2.8,13.8c1.2,0.3,2.3,0.5,3.4,0.7L216.8,268.1z
					"/>
				<path class="st3" d="M145.1,165.5c0,0-15.7,5.5-16.2,47.4c0,0,2,8.8,28.3,2.9C157.2,215.8,170.2,182.9,145.1,165.5z"/>
				<path class="st15" d="M210.7,163.6c0,0-7.4-0.1-12.8-1.6c-3.2-0.9-5.5-3.5-6.2-6.7c-1.7-7.8-3.1-16-1.1-22.2l-22.3-17.7
					c0,0,1.3,13.3,0.9,35.6c-0.1,7.3-10.9,10.3-13.3,11.8c-5.2,3.3,0.6,2.7-9.8,4.3c0,0,24,30.9,50,13.7c0.1-0.1,0.2-0.1,0.3-0.2
					C201.5,176.9,206.4,171.5,210.7,163.6z"/>
				<path class="st18" d="M175.1,140.2c0,0,1.7,11.9,15.9,12.1l-0.7-4.5L175.1,140.2z"/>
				<path class="st15" d="M195.3,113.6c0,0,12.1,29.3-1.5,34.2c-16.8,6-29.7-15.3-36.2-27.7c-3.1-5.9,1-11.3,6.5-15
					C179.7,94.9,183.4,100.6,195.3,113.6z"/>
				<path class="st17" d="M187.7,99.8c-6.3-4.1-15.1-4.9-23.8,0.7c-8.7,5.6-13.7,15.6-9.9,24.4c11.5,26.3,15.6,16.8,15.6,16.8
					s-6.7-6-1-9.6c6.7-4.3,0.4-9.2,2.7-13.7c0,0,16.4-8.3,12.8-15.4c6.3,7.9,8.2,6.3,11.7,12.1C195.9,115.1,194,103.9,187.7,99.8z"
					/>
				<path class="st3" d="M215.6,189.8c-0.1-2.9-2.3-25.7-2.3-25.7c-2.6-0.8-3.1-0.7-5.8-1c-2.8-0.3-6.6-0.8-9.6-1.5
					c-2.2-0.6,1.7,7.7-14.2,9.8c-15.4,1-23.1-11-23.1-11c-6.3,3.3-16.5,3.7-16.3,6.4c5.8,61.7,5.9,88.6,6.1,99.8
					c0.3,14.3,20.2,13.8,62.8,3.7C225.8,267.3,216.3,211.9,215.6,189.8z"/>
				<path class="st12" d="M181,276.6c-3.7-0.5-9.1-0.1-14.6-4.2c-7.7-5.8-9.4-15.9-10-19.2c-1.7-9.9,2.3-11.3,1.5-23.4
					c-0.6-8.8-3.3-15.5-5.7-21.8c-2.3-5.9-4-10.2-5.4-12.8c3.4,41.9,3.4,62,3.6,71.3C150.6,276.6,160.5,279.3,181,276.6z"/>
				<line class="st19" x1="148.7" y1="217" x2="146.6" y2="194.3"/>
				<line class="st19" x1="215.4" y1="184.8" x2="216" y2="202.7"/>
				<g>
					<path class="st19" d="M189.6,120.1c0,0,2.2,4.4,4,6c1.8,1.5,1.8,3.4-1.7,5.1"/>
					<path class="st20" d="M178.4,125.6c0,0,1.2-3.1,4.2-2.3"/>
					<path class="st19" d="M185.6,125.9c0,0-1.2,3.1-4.2,2.3"/>
					<path class="st19" d="M197.8,120.1c0,0-1.2,3.1-4.2,2.3"/>
					<path class="st20" d="M191.6,119.4c0,0,1.2-3.1,4.2-2.3"/>
				</g>
				<path class="st15" d="M168.1,141.1c3.2,1.7,6.8,1.1,8.1-1.3c1.3-2.4-0.2-5.7-3.4-7.5c-3.2-1.7-6.8-1.1-8.1,1.3
					C163.4,136,164.9,139.4,168.1,141.1z"/>
				<g>
					<path class="st19" d="M166.6,135.3c0,0,1.8-1.1,4.7,2.5"/>
					<path class="st19" d="M168.4,138.3c0,0-0.3-1,0.9-2.3"/>
				</g>
				<path class="st7" d="M202.2,185.2c0,0,21.2,58-1.7,71.7"/>
				<path class="st7" d="M161.2,173.7c0,0,15.4,30.6,28.1,25.3"/>
				<path class="st7" d="M167.2,197.8c0,0,10.9,49.4,29.3,45.9"/>
			</g>
			<path class="st7" d="M195.6,283.3c0,0,24.2,14.1,24.2,23.2s0,20.7,0,20.7"/>
			<path class="st7" d="M181.5,327.3c0,0,2,2.5,9.6,1.5"/>
			<path class="st7" d="M226.9,328.1c0,0,2.6,3.1,10.3,1.4"/>
			<path class="st12" d="M258.7,467.8c-18.8-3.8-33-14.9-33-14.9s0.8-24.5,1.9-36.4c1.1-11.9,15.7-93.5,13.4-95
				c-2.3-1.5-26-31.1-33.4-42.1l-0.8,0.9c-1.7,1.9-3.1,4.2-3.9,6.7l-0.3,1c0,0,15.7,10.2,16.8,16.5c1.1,6.4,0.3,22.2,0.3,22.2l0,0.3
				c2.5,0.5,5.1,0.9,7.8,1.2c-4.4,15-2.2,37.4-3.1,56.8c-2.2,43-5.8,59.5-5.8,59.5l5.1,0.5l-0.1,3.5c0,0,0,0,0,0c0,0-1,2.3-1.9,5.5
				c6.6,3.2,14.1,6.6,19.2,8.6c5.2,2,6,5,3.8,7.4c4.6,0.5,9.3,1.1,13.7,1.8c8.5,1.4,15-0.3,17.8-2.9
				C272,469.4,266.5,469.4,258.7,467.8z"/>
		</g>
		<path class="st15" d="M137.7,303.2l-6.9,9c0,0-6.8,3.6-6.5,6.5c0.4,4.6,0.4,6.2,1.7,6.2c1.3,0,1.7-6.7,1.7-6.7l6.6-5.5l13.7-1.5
			l0.1-9.6L137.7,303.2z"/>
		<path class="st7" d="M202.9,287.8c0,0-0.6-3.7,5-8.5"/>
		<path class="st15" d="M135.3,308.4c-1.1,0.2-9.7,9-9.7,9s0.7,10.3,3.2,10.1c2.5-0.2,0.8-9.2,0.8-9.2l11-9.2L135.3,308.4z"/>
		<path class="st15" d="M141.5,308.1c-1,0.3-8.1,8.4-8.1,8.4s1,12.6,3.5,12.1c2.5-0.5,1.4-11.6,1.4-11.6l7.7-5.5L141.5,308.1z"/>
		<path class="st15" d="M139.2,309.6c-1.1,0.2-10.2,8.2-10.2,8.2s0.7,11.8,3.2,11.6c2.5-0.2,2.5-11.6,2.5-11.6l9.9-7.5L139.2,309.6z
			"/>
		<polyline class="st7" points="134.3,323.4 133.8,316.3 138.3,311.9 		"/>
		<polyline class="st7" points="133.3,312 129.2,316.5 130,325.7 		"/>
		<polyline class="st7" points="129,313.9 126,317.7 126.5,324.4 		"/>
		<path class="st15" d="M147.8,305.8c0,0,0,3.8,2.8,4.8c2.8,1,3.6,1.5,3.6,1.5s2,1.3-1.6,1.9c-3.5,0.6-11-0.5-11-0.5L147.8,305.8z"
			/>
		<path class="st21" d="M146.2,250.2c0,0-2.2,1.1-3,4.7c0,0-0.9-5.2-2.2-6.2"/>
	</g>
	<path class="st12" d="M135.6,261.7c0.5-6.7,2-5.8,3.6-14.3c3.5-19.2-3.1-28.4-4.1-45.5c-0.9-15.1,3.2-26.2,6-33.5
		c-4.7,4.7-11.8,16.4-12.1,44.4c0,0,0.4,1.9,3.6,3.4c0.4,11.7,1,25.9,1.1,30.9c0.2,9.1-2.8,11-2.3,20.9c0.4,7.7,4.4,26.5,6.3,34.9
		c0.2-0.2,0.4-0.5,0.6-0.7C143.7,293.9,134.1,280.3,135.6,261.7z"/>
	<path class="st12" d="M171.9,129.5c-3.3-3-4.3-6-6.1-12.5c-1.6-5.6,0.2-10.7,1-13.3c0.8-2.3,1.8-4.4,3-6.1
		c-1.9,0.6-3.8,1.6-5.8,2.8c-8.7,5.6-13.7,15.6-9.9,24.4c9.4,21.6,13.8,19,15.1,17.4c0,2.7,0,5.6-0.1,8.6c-0.1,4.7-4.7,7.6-8.5,9.5
		c0,0,0,0,0,0c-2.3,1.2-5.2,2-7.8,2.7c6.9,1.7,15.3,0.6,21.2-4.6c4-3.6,14-5.5,16.2-9.9C182.7,145.1,176.5,137.1,171.9,129.5z"/>
	<path class="st12" d="M365.1,152.6l-45.6,31.1l-1,5.4c5.6-2.6,10.9-5.8,16.1-9.1c12.9-7.9,22.3-16.9,28.7-24.1L365.1,152.6z"/>
</g>
</svg>
