<?xml version="1.0" encoding="utf-8"?>
<!-- Generator: Adobe Illustrator 22.1.0, SVG Export Plug-In . SVG Version: 6.00 Build 0)  -->
<svg version="1.1" id="Layer_1" xmlns="http://www.w3.org/2000/svg" xmlns:xlink="http://www.w3.org/1999/xlink" x="0px" y="0px"
	 viewBox="0 0 2838.3 2000" style="enable-background:new 0 0 2838.3 2000;" xml:space="preserve">
<style type="text/css">
	.st0{opacity:0.5;fill:#B0CFF4;}
	.st1{fill:#55AD98;}
	.st2{fill:#9BC1F9;}
	.st3{fill:#13375B;}
	.st4{fill:#184655;}
	.st5{fill:#B75742;}
	.st6{fill:#466EB6;}
	.st7{fill:#346384;}
	.st8{fill:#F48C7F;}
	.st9{fill:#0E2E35;}
	.st10{fill:#F7A491;}
	.st11{fill:#F7CC7F;}
	.st12{fill:#F4E6D0;}
	.st13{fill:#F47458;}
	.st14{fill:#50BFA5;}
	.st15{fill:#FFFFFF;}
	.st16{fill:#325E9E;}
	.st17{opacity:0.5;fill:#13375B;}
	.st18{fill:#20414D;}
	.st19{fill:#F8A492;}
</style>
<g>
	<g>
		<path class="st0" d="M2433,1857c91.4-139.3,231.2-412.4,242.1-584.6c16.1-254.5-158.1-211.1-285.3-343.2
			c-55.5-57.6,104.5-245.7-132-396.3c-146.7-93.4-353.2,92.9-474.9-140.1C1658.3,154,1178.3,70.4,788.2,206.5
			c-594.6,207.4,15.4,410.4-371.4,574.5c-231.4,98.2-121.6,311.8-98.5,381.3c20.1,60.5,133.9,132.1-31.8,288.7
			c-138,130.4-29.9,339.6,10.2,406H2433z"/>
		<path class="st1" d="M178.4,1856.9h2453.8c5.4,0,9.7,6.5,9.7,14.6c0,8.1-4.3,14.6-9.7,14.6H178.4c-5.4,0-9.7-6.5-9.7-14.6
			C168.7,1863.4,173.1,1856.9,178.4,1856.9z"/>
		
			<rect x="1540.5" y="1471.9" transform="matrix(-0.8839 -0.4676 0.4676 -0.8839 2920.3184 3686.938)" class="st2" width="754.5" height="18.4"/>
		<g>
			<path class="st3" d="M1963.2,1849l-14-0.1c1.8-135.8,3.5-341.9,0.4-353.5c0,0,0.2,0.7,0.9,1.6l11.4-6.6c1.8,2.1,2.9,3.3,3.3,61
				c0.2,29.7,0.1,70.7-0.2,121.9C1964.4,1760.5,1963.2,1848.1,1963.2,1849z"/>
			<g>
				<path class="st4" d="M2079.9,1477.6l-7.5-6.4c27.6-32.6,42.7-94.6,43.8-179.5c0.8-64.7-6.8-120.2-6.9-120.7l9.8-1.4
					c0.1,0.6,7.9,56.7,7,122.1c-0.5,38.5-3.8,72.7-9.9,101.6C2108.5,1429.9,2096.3,1458.3,2079.9,1477.6z"/>
			</g>
			<path class="st5" d="M2008.2,1012.9c4.1,0,156-16.5,158.7,3.9c2.7,20.4,8.2,179.4-19,184.8c-27.2,5.4-159-19-159-19
				L2008.2,1012.9z"/>
			<path class="st6" d="M1813.6,1488.3c5.9-1.2-14.9,20.4,0,27.2c14.9,6.8,240.5,2.7,258.2-5.4c17.7-8.2,39.4-21.7,31.3-39.4
				c-8.2-17.7-147.2-40.8-147.2-40.8l-126,34C1829.9,1463.8,1806.8,1489.6,1813.6,1488.3z"/>
			<path class="st7" d="M2048.9,1833.5h-184.3c-2.9,0-5.3,2.4-5.3,5.3v10.1c0,0.5,0.4,0.9,0.9,0.9h193c0.5,0,0.9-0.4,0.9-0.9v-10.1
				C2054.3,1835.9,2051.9,1833.5,2048.9,1833.5z"/>
			<path class="st7" d="M1974.3,1819.8h-34c-2.3,0-4.2,1.9-4.2,4.2v13.5c0,2.3,1.9,4.2,4.2,4.2h34c2.3,0,4.2-1.9,4.2-4.2V1824
				C1978.5,1821.7,1976.6,1819.8,1974.3,1819.8z"/>
		</g>
		<path class="st8" d="M1868.5,1433.6c4.5-2.2,124.7-86.6,124.7-86.6l-147.2-14.4c0,0-230.1,31.5-263.6,59.5c-2.4,2-4.6,3.9-6.7,5.8
			c-16.5,14.9-19.3,39.7-6.8,58.1c22.7,33.3,8.5,29.9,47,84.6c45.6,64.8,152.5,193.2,152.5,193.2l0,0c12.9,15.9,30.5,38,30.7,40.9
			c0.3,4.6-1.7,54.6-7,59.1c-5.2,4.6-20.6,7.8-15.6,13c3.7,3.9,32.4,3.1,51.4,2c5.5-0.3,12.5-44.6,14.7-51.1
			c3.2-9.4,10.9-30.7,8-37.3c-1.4-3.2-8.2-9.8-17.7-16c-6.1-3.9-22.6-25.1-34.6-41.2c0,0-109.6-205.2-121-213.2
			c-11.3-8-55.7-58.7-55.7-58.7s74,28,77.4,28C1702.5,1459.4,1864,1435.8,1868.5,1433.6z"/>
		<path class="st9" d="M1832.4,1744.1c0,0-29.5,83-41,87c-3.1,1.1-17.8,3.8-20.5,10.3c-0.8,2,0,8.5,0,8.5h61.4
			c0,0,7.8-36.6,10.8-52.6c0,0,16.3-39.3,14.5-42.8C1855.8,1750.9,1832.4,1744.1,1832.4,1744.1z"/>
		<path class="st10" d="M2008.2,1348.3c0,0-127.3-12.3-171.1,0c-43.8,12.3-219.9,66.2-232.2,79.7c-12.3,13.5-171.6,334-171.7,334.1
			c-8.7,16.9-17.5,33-21,36.9c-4.8,5.4-10.4,10.7-16,14.1c-2.2,1.3-8.3,5.2-10,6c-25.7,12.4-32.2,16.3-40.2,22.2
			c-4.9,3.6-8.9,7.5-2.8,7.4l111.8-1.8c0,0,4.9-2,9.2-10.1c4.3-8-3.2-19.2-4.9-27.8c-1.2-5.9,3-16.6,8.8-27.7l0,0
			c0,0,153.6-180.6,156.9-194.1c3.4-13.5,33.7-96.5,33.7-96.5c74,0,299,3.9,336.8-31.4C2033.4,1424,2008.2,1348.3,2008.2,1348.3z"/>
		<path class="st9" d="M1508.4,1813.1c29.6,7.6,51.4,2.4,63.7-2.5c3.2,8.9,7.3,20.1,5.1,26.6c-2.7,7.9-6.6,9.7-10,9.8
			c-27,0.7-98.9,1.7-119.5,1.9c-2.9,0-4.5-3.3-2.6-5.5C1450.2,1837.3,1506.2,1814.5,1508.4,1813.1z"/>
		<path class="st5" d="M1846.1,1332.6c0,0-230.1,31.5-263.6,59.5c-0.4,0.3-0.8,0.7-1.2,1c4.2-0.7,6.7-1,6.7-1s53-3.4,95.9,62.3
			c8.3,3,14.4,5,15.3,5c3.4,0,164.9-23.6,169.4-25.8c4.5-2.2,124.7-86.6,124.7-86.6L1846.1,1332.6z"/>
		<path class="st5" d="M2008.2,1348.3c0,0-127.3-12.3-171.1,0c-32.4,9.1-137.3,41-194.7,62.4c20.3,13.9,42.7,38.1,60.7,80.2
			c95.3,0.1,260.5-1.7,292.4-31.5C2033.4,1424,2008.2,1348.3,2008.2,1348.3z"/>
		<path class="st8" d="M1630.5,1212.1l134.3-29.7c0,0,48.6-62.4,95.2-116.1c13.7,13.6,21.4,34.5,35.2,47.9l-102.5,113.4
			c-3.7,4.1-8.9,6.4-14.5,6.5l-142.4,0.5l-48.7,3.9v-31.2L1630.5,1212.1z"/>
		<path class="st11" d="M1882.4,1047.3c-23.5-6.2-117.6,135.1-117.6,135.1s12.7,5.9,35.4,36.9l36.2-40.1l0.1,0.1
			c0,0,72-68,85.7-91.7S1905.9,1053.5,1882.4,1047.3z"/>
		<path class="st4" d="M1830.7,883.6c0.6-1.1,0.9-1.8,0.9-1.8l-0.1-0.5c1.7-4.2,3.5-8.3,5.6-12.5c13.5-27.3,46.8-42.8,77.2-42.9
			c9.9,0,18.9,1.3,27.2,3.7c12.4,5.6,42.9,25,50.8,82.6c2.9,21-1.6,41-11,57.9c8.2,5.1,19,15.6,26.8,36.6
			c14.3,38.7,85.9,47.3,93.1,98.8c7.2,51.6-67.3,144.6-146.1,84.5c-60-45.8-50.2-133.1-42.1-172.1c-18.7,2.6-38.8-1-58.1-12.6
			c-24.6-14.8-34.5-34.9-37.2-54.5C1818.3,928.1,1822.2,905.5,1830.7,883.6z"/>
		<path class="st12" d="M1928.4,1030.2c0,0,47.7-9.4,69.5,8.8c21.8,18.2-4.7,179.9-4.6,206.7c0,26.8,15,102.6,15,102.6
			s-144.6,25.3-167.6-14.9c0,0-6.5-153.4-5.6-172.6c1-19.3,7.1-76.5,28.3-106.6C1869.3,1045.7,1928.4,1030.2,1928.4,1030.2z"/>
		<g>
			<path class="st5" d="M1902.7,1017.4c48.8,0,83.6-44.2,85-46.1c1.5-1.9,1.1-4.6-0.8-6c-1.9-1.5-4.6-1.1-6,0.8l0,0
				c-0.3,0.4-33.7,42.7-78.2,42.7c-2.4,0-4.3,1.9-4.3,4.3C1898.4,1015.5,1900.3,1017.4,1902.7,1017.4z"/>
		</g>
		<path class="st10" d="M1928.7,956.4c0,0,0.3,1.4,0.7,3.9c2.2,11.6,10.5,50.3,16.1,60.9c6.8,12.8-23.3,53.8-52.3,48.8
			c-8.6-1.5,7.3-37.6,6.5-41.4c-1.5-7.3-3.4-17.3-5.5-27.6c-1.1-5.8-2.3-11.6-3.4-17.2c-3.1-15.7-5.6-28.5-5.6-28.5L1928.7,956.4z"
			/>
		<path class="st13" d="M1929.4,960.3c-0.5-2.4-0.7-3.9-0.7-3.9l-43.4-1.1c0,0,2.5,12.8,5.6,28.5c1.1,5.5,2.2,11.3,3.4,17.1
			c6.7-1,13.7-4.2,20.7-10.4c7.7-6.7,12.7-14.7,15.7-23.3C1930.2,964.4,1929.7,962.1,1929.4,960.3z"/>
		<path class="st8" d="M1755,1717.4c0,0,43.9,52.6,44.2,57.2s-1.7,54.6-7,59.1c-5.2,4.6-20.6,7.8-15.6,13c3.7,3.9,32.4,3.1,51.4,2
			c5.5-0.3,12.5-44.6,14.7-51.1c3.2-9.4,10.9-30.7,8-37.3c-1.4-3.2-8.2-9.8-17.7-16c-10-6.5-48.4-59.8-48.4-59.8L1755,1717.4z"/>
		<path class="st4" d="M1832.4,1744.1c0,0-29.5,83-41,87c-3.1,1.1-17.8,3.8-20.5,10.3c-0.8,2,0,8.5,0,8.5h61.4
			c0,0,7.8-36.6,10.8-52.6c0,0,16.3-39.3,14.5-42.8C1855.8,1750.9,1832.4,1744.1,1832.4,1744.1z"/>
		<path class="st10" d="M1604.3,1742.7c0,0-35.8,50.5-32.7,66.4c1.7,8.6,9.2,19.7,4.9,27.8s-9.2,10.1-9.2,10.1l-111.8,1.8
			c-6.1,0.1-2.1-3.8,2.8-7.4c8-5.9,14.5-9.8,40.2-22.2c1.7-0.8,7.8-4.7,10-6c5.6-3.4,11.2-8.7,16-14.1c8-8.9,43.3-81.6,43.3-81.6
			L1604.3,1742.7z"/>
		<path class="st4" d="M1508.4,1813.1c29.6,7.6,51.4,2.4,63.7-2.5c3.2,8.9,7.3,20.1,5.1,26.6c-2.7,7.9-6.6,9.7-10,9.8
			c-27,0.7-98.9,1.7-119.5,1.9c-2.9,0-4.5-3.3-2.6-5.5C1450.2,1837.3,1506.2,1814.5,1508.4,1813.1z"/>
		<path class="st10" d="M1715.5,1212.1l134.3-29.7c0,0,48.6-62.4,95.2-116.1c13.7,13.6,21.4,34.5,35.2,47.9l-102.5,113.4
			c-3.7,4.1-9,6.4-14.5,6.5l-142.4,0.5l-48.7,3.9v-31.2L1715.5,1212.1z"/>
		<g>
			<path class="st14" d="M1439.6,1059.2h221.5c5.9,0,11.1,3.5,13.4,9l68.2,166.4h122.1c3.4,0,6.2,2.8,6.2,6.2l0,0
				c0,3.4-2.8,6.2-6.2,6.2h-347.6c-9.6,0-18.2-5.6-22.1-14.3l-68.7-153C1422.1,1070,1429.1,1059.2,1439.6,1059.2z"/>
			<path class="st15" d="M1558.8,1156.1c1.5,7.5,8,12.5,14.6,11.2c6.5-1.3,10.6-8.4,9.1-15.9c-1.5-7.5-8-12.5-14.6-11.2
				C1561.4,1141.5,1557.3,1148.6,1558.8,1156.1z"/>
		</g>
		<path class="st10" d="M1891.1,850.7c0,0,23.4-2.6,38.1,15.8c14.7,18.5,30.5,75.5-6,106.6c-36.5,31-72.5-4.1-77.8-41.3
			C1840.1,894.5,1838,849.3,1891.1,850.7z"/>
		<path class="st10" d="M1834.6,931.2c4.4,8.2,11.7,12.8,16.3,10.2c4.7-2.6,4.9-11.4,0.6-19.6c-4.4-8.2-11.7-12.8-16.3-10.2
			C1830.5,914.2,1830.3,923,1834.6,931.2z"/>
		<path class="st4" d="M1888.5,844.6c0,0,31.3,54.3,53.7,56.8c22.4,2.5,25.3,31.4,25.3,31.4s-8-66.5-30.2-79.3
			C1915.2,840.6,1888.5,844.6,1888.5,844.6z"/>
		<path class="st10" d="M1936.3,915c-1.8,9.6,1.8,18.5,8.2,19.7c6.3,1.3,12.9-5.5,14.8-15.2c1.8-9.6-1.8-18.5-8.2-19.7
			C1944.8,898.6,1938.1,905.4,1936.3,915z"/>
		<path class="st15" d="M1909.4,947.1l-33.3,7.1c0,0,3.5,12.5,18.2,9.8C1912.3,960.7,1909.4,947.1,1909.4,947.1z"/>
		<path class="st11" d="M1985.4,1031.4c-23.5-6.2-100.1,106.4-100.1,106.4c-20.9,25.8-35.5,44.5-35.5,44.5s12.7,5.9,35.4,36.9
			l36.2-40.1l0.1,0.1c0,0,72-68,85.7-91.7C2021,1063.8,2008.9,1037.6,1985.4,1031.4z"/>
		<polygon class="st16" points="1496.8,1856.9 962,1856.9 823.9,1268.1 1496.8,1268.1 		"/>
		<rect x="1488.8" y="1268.1" class="st6" width="770.6" height="588.8"/>
		<rect x="748.5" y="1246.8" class="st3" width="1525.9" height="21.3"/>
		<g>
			<path class="st2" d="M1621.7,424.9h-478.6c-16.5,0-29.9,13.4-29.9,29.9v197.5c0,16.5,13.4,29.9,29.9,29.9h376.8
				c15.3,21.3,42.9,59.4,45.3,59.4c2.3,0-2.1-36-5.2-59.4h61.7c16.5,0,29.9-13.4,29.9-29.9V454.8
				C1651.6,438.3,1638.2,424.9,1621.7,424.9z"/>
			<path class="st15" d="M1315.4,502h-135.3c-3,0-5.5-2.5-5.5-5.5v-2c0-3,2.5-5.5,5.5-5.5h135.3c3,0,5.5,2.5,5.5,5.5v2
				C1320.9,499.5,1318.4,502,1315.4,502z"/>
			<path class="st15" d="M1267.9,544.6h-87.8c-3,0-5.5-2.5-5.5-5.5v-2c0-3,2.5-5.5,5.5-5.5h87.8c3,0,5.5,2.5,5.5,5.5v2
				C1273.4,542.1,1270.9,544.6,1267.9,544.6z"/>
			<path class="st15" d="M1401.4,544.6h-110.6c-3,0-5.5-2.5-5.5-5.5v-2c0-3,2.5-5.5,5.5-5.5h110.6c3,0,5.5,2.5,5.5,5.5v2
				C1406.9,542.1,1404.5,544.6,1401.4,544.6z"/>
			<path class="st15" d="M1586.8,544.6h-159c-3,0-5.5-2.5-5.5-5.5v-2c0-3,2.5-5.5,5.5-5.5h159c3,0,5.5,2.5,5.5,5.5v2
				C1592.3,542.1,1589.9,544.6,1586.8,544.6z"/>
			<path class="st15" d="M1587.5,502h-234.4c-3,0-5.5-2.5-5.5-5.5v-2c0-3,2.5-5.5,5.5-5.5h234.4c3,0,5.5,2.5,5.5,5.5v2
				C1593,499.5,1590.6,502,1587.5,502z"/>
			<path class="st15" d="M1587.5,628h-407.5c-3,0-5.5-2.5-5.5-5.5v-2c0-3,2.5-5.5,5.5-5.5h407.5c3,0,5.5,2.5,5.5,5.5v2
				C1593,625.5,1590.6,628,1587.5,628z"/>
			<path class="st15" d="M1385.2,586.8h-205.2c-3,0-5.5-2.5-5.5-5.5v-2c0-3,2.5-5.5,5.5-5.5h205.2c3,0,5.5,2.5,5.5,5.5v2
				C1390.7,584.3,1388.3,586.8,1385.2,586.8z"/>
			<path class="st15" d="M1587.5,586.8H1407c-3,0-5.5-2.5-5.5-5.5v-2c0-3,2.5-5.5,5.5-5.5h180.6c3,0,5.5,2.5,5.5,5.5v2
				C1593,584.3,1590.6,586.8,1587.5,586.8z"/>
		</g>
		<rect x="1488.8" y="1459.4" class="st17" width="770.6" height="93.3"/>
		<rect x="1488.8" y="1582.5" class="st17" width="770.6" height="20.6"/>
		<g>
			<g>
				<path class="st4" d="M670.1,921c79.6,33.4,105.2-39.6,103.2-37.7c1.5-1.7,13.5-7,21.2-10.8c31.9-16,51.2-53.1,50.5-90.5
					c45.8-28.5,57.7-88.7,26.3-122c9.7-37-15.8-77.7-48.2-96.4c-24.5-43.7-86.4-25-119.7,9.3c-16.9,17.4-26.7,42.8-26.4,68.2
					c-39.2,16.6-59.8,60.8-50.8,105.3C573.1,790.8,588.9,886.9,670.1,921z"/>
				<g>
					<path class="st5" d="M588.3,1176.6l-13.6-3.5c0.3-1,26.1-105.8,53.6-210c16.2-61.2,29.8-110.4,40.4-146
						c20.9-70.2,25.6-72.1,29.7-73.9l5.3,13.3c1-0.4,1.5-1,1.5-1c-3.3,3.9-16.4,32.8-65,217.6
						C613.3,1075.1,588.6,1175.6,588.3,1176.6z"/>
				</g>
				<g>
					<path class="st10" d="M1047.6,1173.6c0,0-6.1-4.9-8-6.7c-2.2-2.1-8.5-8.9-8.5-8.9s-20.6-24.6-18.6-26c1.9-1.4,7.8,0.9,9.6,1.9
						c1.8,1.1,4,2.2,5.8,3.2c1.8,1.1,4.1,0.6,5.6-1.5c1.5-2.2-4.8-8-7.3-9.6c-8-4.9-32-13.8-34.5-14.9c-3-1.2-30.8-50.5-41.6-66.6
						l0,0c-17-26.9-33.1-55.4-34.9-58.3l-36.6-131.4l-53.2-5.3c0,0,38.6,146.4,41.3,153.5c1.3,3.4,45.5,62.7,45.6,62.7
						c23.6,27.8,44.5,52.3,48.4,57.1c0,0,7.7,17.5,12,29c4.3,11.5,12.8,20.3,14.5,23.3c0.2,0.4,5.5,11.2,16.3,21.1
						c9.3,8.5,4.4-3.9,4.4-3.9s-14.5-19-12.8-19.9c1.3-0.7,8.6,10.2,18.8,19.7c2.6,2.5,5.2,4.9,7.6,7.1c6.3,5.8,11.7,3.5,6-3.7
						c-2-2.5-5.4-6.6-8.3-9.2c-3.1-2.8-5-6.3-7.3-9.1c-4.4-5.4-7.7-9.3-7.4-9.4c0.4-0.1,0.3-1.8,3.2,0.7c3.5,3,9.4,11.1,14.8,15.2
						c3.1,2.3,9.2,7.5,9.2,7.5s10.9,7.3,11.4,6.8c3.1-2.8-3.2-10.3-7.8-12.9c-2.1-3.2-8.7-8.5-8.7-8.5s-11-13.8-9.1-15.4
						c1.6-1.3,34.2,26.4,37,23.4C1057.1,1182.4,1047.6,1173.6,1047.6,1173.6z"/>
					<path class="st13" d="M989.1,1134.5c0,0,16.4,6.2,23.2-2.2c0,0-2.1,6.3-8.7,7.4C997.1,1140.8,989.1,1134.5,989.1,1134.5z"/>
				</g>
				<path class="st10" d="M761,1210.7l30.2,278.9c0,0-14.7,59-13,75.7c1.8,16.8,32.8,236.5,32.8,236.5l-1.4,12.1l-0.8,35.8
					l115.9,0.9c0,0-24.4-11.3-58.6-33.7c-2.5-1.7-8.3-6.9-9.8-17.4c-9.1-67.7,8.9-293.7,8.9-293.7l14.2-294.1L761,1210.7z"/>
				<path class="st10" d="M695.1,1263.6c-6.5,1.7-16.5,241-21.9,251.6c-34.1,67.3-42.2,271.7-42.2,271.7l-14.1,28.6l3.2,27.6
					c0,0,25.5,15.1,43.3,4.9l-2.8-27.6l-2.1-36.9l86.1-254.7l47.1-259.8L695.1,1263.6z"/>
				<path class="st18" d="M915.6,1393.3l4.1-165.1c0.7-46.7-14.3-91.4-32.8-133.9l-39.1-68c-12.6,4.1-19.5-34.4-32.7-32.8
					c-10,1.2-16.8,3.5-26.1,4.1c-17.5,1.1-28.1,36.4-46.7,34.1c-0.1,1.1-11.7,5.6-12,6.4c-8.9,25-31.8,51.7-43.9,125.8
					c-13.8,84.1-13.8,228.7-12,238.6C806.6,1408.3,838.1,1413.1,915.6,1393.3z"/>
				<path class="st4" d="M808.3,1858.9h119.6c4.4-0.4,5.5-4.2,4-6.5c-3.2-4.7-17.1-8.2-32.8-15.8c-27.5,3-85.1-18-89.4-24.6
					C807.1,1825.3,805.8,1858.3,808.3,1858.9z"/>
				<path class="st4" d="M616.9,1815.5c0,0,10.6,31.2,22.1,30.3c11.5-0.9,21.5-25.5,21.5-25.5s4.3,20.7,2.3,32.1
					c-2,11.4-18.4,23.1-29.6,18C622.1,1865.3,606.9,1838.9,616.9,1815.5z"/>
				<path class="st5" d="M839.3,919.4c0,0,16.7-2.1,32.6-7.9c9.6-3.5,25.5-11,25.5-11s-9-77.8-31.5-124.9
					c-9.3-19.5-18.7-28.9-31.9-31.1C834,744.4,839.3,919.4,839.3,919.4z"/>
				<path class="st13" d="M868.3,831.3c-3.4-12.6-10.9-29.2-15.2-40.7c-7.3-19.4-9.5-37.6-15.9-45.4c-3.5-4.2-48.1-3.6-53.6-4.1
					c-2.3-0.2-11.2,0.3-19.8,0.9l0,0c-5.1,0.6-55.4,4.6-62.7,7.9c-36.2,36.3-53.8,85.2-81,138.6c0,0,20.4,12,36.7,19.6
					c7.1,3.3,20.6,8.5,20.6,8.5l31.4-54.1c0.3-0.3,2-2.1,2.4-0.9c0.7,1.8,23.7,170.3,23.7,170.3s93,7.8,114.8-2.9
					c0,0,4-112.5,12.1-145.5C864.6,871.4,873.7,851.7,868.3,831.3z"/>
				<path class="st10" d="M757.6,690.3c0,0,7,39.2,5.6,54.7c-1.4,15.5,5.3,65.4,35.4,65.5c30.1,0.2,9.6-51.8,6.8-67
					c-2.8-15.2-7.4-73.8-7.4-73.8L757.6,690.3z"/>
				<path class="st13" d="M760.5,709.1c14.9,12.5,31.4,16.5,42.1,13.2c-2.4-22.6-4.7-52.4-4.7-52.4l-40.4,20.5
					C757.6,690.3,759.1,698.7,760.5,709.1z"/>
				<path class="st10" d="M780.3,585.4c0,0-23.4,2.5-33.7,23.7c-10.3,21.2-5.2,84.9,33.5,103.2c30.6,14.5,59.3-20.8,59.6-58.4
					C840,622.3,831.8,572.5,780.3,585.4z"/>
				<path class="st4" d="M789.3,569.9c-4.1,45.4-35,68.8-48.8,74c-19-20.6-11.6-46.7,4-58.9C760,572.8,789.3,569.9,789.3,569.9z"/>
				<path class="st10" d="M752.7,658c3.9,9,2.2,18.4-3.7,21c-5.9,2.6-13.8-2.6-17.7-11.6c-3.9-9-2.2-18.4,3.7-21
					C740.9,643.8,748.8,649,752.7,658z"/>
				<path class="st15" d="M783.5,683.4l34-0.3c0,0-0.7,12.9-15.6,13.5C783.7,697.3,783.5,683.4,783.5,683.4z"/>
				<path class="st5" d="M722.5,1176v53.5c0,27.8-19.6,50.4-43.8,50.4h-45v-124.8h70.7c4.8,0,9.2,2.2,12.5,5.7
					C720.3,1164.6,722.5,1170,722.5,1176z"/>
				<path class="st13" d="M716.9,1160.8h-0.3c-9.3,0-16.8,8.7-16.8,19.4v39.4c0,33.3-23.5,60.3-52.4,60.3h-27.4
					c-28.9,0-52.4-27-52.4-60.3v-39.2c0-14,9.8-25.3,22-25.3h114.9C709.2,1155.1,713.6,1157.3,716.9,1160.8z"/>
				<g>
					<path class="st5" d="M722.6,1174.9l-14-0.1c0-1,0.4-100.4-0.9-201.7c-0.8-59.5-2-108-3.7-144.1c-2.8-61.8-6.2-72.9-7.2-74.7
						c-0.2-3.3,1.5-11,1.5-11c2.5-1,5.3-0.7,7.6,0.8c3.6,2.5,5.9,7.3,8.1,26.4c1.4,11.9,2.6,28.7,3.7,50
						c1.8,35.8,3.1,84.8,3.9,145.8C723.1,1070.1,722.6,1173.8,722.6,1174.9z"/>
				</g>
				<path class="st19" d="M793,1079.7c1.8,0.4,14.1,1.1,14.1,1.1s18.1-11,20.7-5.8c0.8,1.6-18.8,12.7-18.8,12.7s-18.9,0.6-23.4,0.5
					c-8.4-0.2-26.1-2.6-52.4-22.2c-22.7-11.6-137.1-78.3-138.8-91c-1-7.5,16.4-46.6,33.3-82.1c7.4,4.2,19,10.5,29,15.1
					c4.7,2.2,12.3,5.3,16.9,7.1c-10.9,21.1-21.3,42.8-19.9,47.3c1.2,3.9,98.8,78.5,98.8,78.5l19.5-2.7c0,0,34.4,4.1,35.2,8.2
					c0.8,4.1-14.5,3-16.5,3.6c-1.1,0.3-3.4,1.1-5.3,2.4c5.7,2.7,14.6,7,19.6,7.2c11.5,0.4,24.9-1.3,26.4,0.4
					c1.7,1.9-15.9,7.3-28.2,8c-5.1,0.3-8.1-1.3-10.3-0.9c-3,0.6,2.3,3,10.7,2.5c4.8-0.3,13.2-3,18.5-3.7c8.7-1.2,13.6-0.6,14.3,0.2
					c1.2,1.2-24.7,9.6-24.7,9.6s-16.9,2.2-20.7,2C790.8,1077.9,788.5,1078.8,793,1079.7z"/>
			</g>
		</g>
	</g>
</g>
</svg>
