<svg xmlns="http://www.w3.org/2000/svg" xmlns:xlink="http://www.w3.org/1999/xlink" viewBox="0 0 400 400"><defs><linearGradient id="linear-gradient" x1="410.56" y1="436.23" x2="136.25" y2="140.16" gradientUnits="userSpaceOnUse"><stop offset="0" stop-color="#dae3fe"/><stop offset="1" stop-color="#e9effd"/></linearGradient><linearGradient id="linear-gradient-2" x1="327.36" y1="55.27" x2="234.95" y2="188.75" gradientTransform="translate(332.16 -253.9) rotate(80.17)" gradientUnits="userSpaceOnUse"><stop offset="0" stop-color="#ff928e"/><stop offset="1" stop-color="#fe7062"/></linearGradient><linearGradient id="linear-gradient-3" x1="349.45" y1="57.52" x2="350.73" y2="57.52" gradientUnits="userSpaceOnUse"><stop offset="0" stop-color="#febbba"/><stop offset="1" stop-color="#ff928e"/></linearGradient><linearGradient id="linear-gradient-4" x1="283.34" y1="54.43" x2="284.77" y2="54.43" xlink:href="#linear-gradient-3"/><linearGradient id="linear-gradient-5" x1="347.98" y1="54.33" x2="349.41" y2="54.33" xlink:href="#linear-gradient-3"/><linearGradient id="linear-gradient-6" x1="284.96" y1="51.38" x2="286.53" y2="51.38" xlink:href="#linear-gradient-3"/><linearGradient id="linear-gradient-7" x1="346.21" y1="51.3" x2="347.78" y2="51.3" xlink:href="#linear-gradient-3"/><linearGradient id="linear-gradient-8" x1="286.87" y1="48.51" x2="288.58" y2="48.51" xlink:href="#linear-gradient-3"/><linearGradient id="linear-gradient-9" x1="344.15" y1="48.44" x2="345.87" y2="48.44" xlink:href="#linear-gradient-3"/><linearGradient id="linear-gradient-10" x1="289.05" y1="45.84" x2="290.89" y2="45.84" xlink:href="#linear-gradient-3"/><linearGradient id="linear-gradient-11" x1="341.84" y1="45.78" x2="343.68" y2="45.78" xlink:href="#linear-gradient-3"/><linearGradient id="linear-gradient-12" x1="291.49" y1="43.41" x2="293.44" y2="43.41" xlink:href="#linear-gradient-3"/><linearGradient id="linear-gradient-13" x1="339.28" y1="43.35" x2="341.24" y2="43.35" xlink:href="#linear-gradient-3"/><linearGradient id="linear-gradient-14" x1="294.14" y1="41.23" x2="296.2" y2="41.23" xlink:href="#linear-gradient-3"/><linearGradient id="linear-gradient-15" x1="336.51" y1="41.17" x2="338.58" y2="41.17" xlink:href="#linear-gradient-3"/><linearGradient id="linear-gradient-16" x1="297" y1="39.31" x2="299.16" y2="39.31" xlink:href="#linear-gradient-3"/><linearGradient id="linear-gradient-17" x1="333.55" y1="39.26" x2="335.71" y2="39.26" xlink:href="#linear-gradient-3"/><linearGradient id="linear-gradient-18" x1="300.04" y1="37.69" x2="302.27" y2="37.69" xlink:href="#linear-gradient-3"/><linearGradient id="linear-gradient-19" x1="330.42" y1="37.65" x2="332.66" y2="37.65" xlink:href="#linear-gradient-3"/><linearGradient id="linear-gradient-20" x1="303.23" y1="36.37" x2="305.52" y2="36.37" xlink:href="#linear-gradient-3"/><linearGradient id="linear-gradient-21" x1="327.15" y1="36.33" x2="329.46" y2="36.33" xlink:href="#linear-gradient-3"/><linearGradient id="linear-gradient-22" x1="306.54" y1="35.37" x2="308.88" y2="35.37" xlink:href="#linear-gradient-3"/><linearGradient id="linear-gradient-23" x1="323.79" y1="35.35" x2="326.14" y2="35.35" xlink:href="#linear-gradient-3"/><linearGradient id="linear-gradient-24" x1="309.94" y1="34.7" x2="312.32" y2="34.7" xlink:href="#linear-gradient-3"/><linearGradient id="linear-gradient-25" x1="320.35" y1="34.69" x2="322.73" y2="34.69" xlink:href="#linear-gradient-3"/><linearGradient id="linear-gradient-26" x1="313.4" y1="34.36" x2="315.79" y2="34.36" xlink:href="#linear-gradient-3"/><linearGradient id="linear-gradient-27" x1="316.88" y1="34.36" x2="319.27" y2="34.36" xlink:href="#linear-gradient-3"/><linearGradient id="linear-gradient-28" x1="342.4" y1="138.14" x2="382.95" y2="19.87" gradientUnits="userSpaceOnUse"><stop offset="0" stop-color="#e1473d"/><stop offset="1" stop-color="#e9605a"/></linearGradient><linearGradient id="linear-gradient-29" x1="348.7" y1="304.65" x2="327.75" y2="198.54" xlink:href="#linear-gradient-28"/><linearGradient id="linear-gradient-30" x1="72.55" y1="184.71" x2="115.13" y2="-26.16" xlink:href="#linear-gradient-28"/><linearGradient id="linear-gradient-31" x1="97" y1="345.85" x2="94.29" y2="205.27" xlink:href="#linear-gradient-28"/><linearGradient id="linear-gradient-32" x1="398.72" y1="137.26" x2="288.23" y2="217.86" xlink:href="#linear-gradient-28"/><linearGradient id="linear-gradient-33" x1="177.84" y1="276.18" x2="193.32" y2="276.18" xlink:href="#linear-gradient-3"/><linearGradient id="linear-gradient-34" x1="197.39" y1="276.18" x2="212.87" y2="276.18" xlink:href="#linear-gradient-3"/><linearGradient id="linear-gradient-35" x1="177.84" y1="316.55" x2="193.32" y2="316.55" xlink:href="#linear-gradient-3"/><linearGradient id="linear-gradient-36" x1="197.39" y1="316.55" x2="212.87" y2="316.55" xlink:href="#linear-gradient-3"/><linearGradient id="linear-gradient-37" x1="255.49" y1="114.45" x2="329.84" y2="-1.8" xlink:href="#linear-gradient-28"/><linearGradient id="linear-gradient-38" x1="256.2" y1="55.52" x2="260.98" y2="172.54" xlink:href="#linear-gradient-28"/><linearGradient id="linear-gradient-39" x1="331.28" y1="-50.02" x2="308.3" y2="-10.82" gradientTransform="matrix(1, 0, 0, 1, 0, 0)" xlink:href="#linear-gradient-2"/><linearGradient id="linear-gradient-40" x1="1747.67" y1="281.88" x2="1765.56" y2="281.88" gradientTransform="matrix(-1, 0.02, 0.02, 1, 2055.51, -29.31)" xlink:href="#linear-gradient-3"/><linearGradient id="linear-gradient-41" x1="1765.66" y1="373.94" x2="1779.08" y2="373.94" gradientTransform="matrix(-1, 0.02, 0.02, 1, 2055.51, -29.31)" gradientUnits="userSpaceOnUse"><stop offset="0" stop-color="#09005d"/><stop offset="1" stop-color="#1a0f91"/></linearGradient><linearGradient id="linear-gradient-42" x1="1769.39" y1="358.66" x2="1766.83" y2="381.03" gradientTransform="matrix(-1, 0.02, 0.02, 1, 2055.51, -29.31)" xlink:href="#linear-gradient-3"/><linearGradient id="linear-gradient-43" x1="1786.09" y1="374.3" x2="1805.4" y2="374.3" xlink:href="#linear-gradient-41"/><linearGradient id="linear-gradient-44" x1="1790.27" y1="361.06" x2="1787.7" y2="383.42" gradientTransform="matrix(-1, 0.02, 0.02, 1, 2055.51, -29.31)" xlink:href="#linear-gradient-3"/><linearGradient id="linear-gradient-45" x1="1820.72" y1="258.77" x2="1738.75" y2="385.97" xlink:href="#linear-gradient-41"/><linearGradient id="linear-gradient-46" x1="331.32" y1="271.94" x2="248.86" y2="246.05" gradientUnits="userSpaceOnUse"><stop offset="0" stop-color="#4f52ff"/><stop offset="1" stop-color="#4042e2"/></linearGradient><linearGradient id="linear-gradient-47" x1="1775.05" y1="215.67" x2="1765.27" y2="257.96" gradientTransform="matrix(-1, 0.02, 0.02, 1, 2055.51, -29.31)" xlink:href="#linear-gradient-3"/><linearGradient id="linear-gradient-48" x1="-627.19" y1="231.17" x2="-644.55" y2="254.14" gradientTransform="matrix(-0.7, -0.72, -0.72, 0.7, 14.19, -404.12)" xlink:href="#linear-gradient-3"/><linearGradient id="linear-gradient-49" x1="-640.45" y1="236.69" x2="-619.71" y2="236.69" gradientTransform="matrix(-0.7, -0.72, -0.72, 0.7, 14.19, -404.12)" xlink:href="#linear-gradient-41"/><linearGradient id="linear-gradient-50" x1="-652.35" y1="249.35" x2="-638.55" y2="235.19" gradientTransform="matrix(-0.7, -0.72, -0.72, 0.7, 14.19, -404.12)" xlink:href="#linear-gradient-3"/><linearGradient id="linear-gradient-51" x1="1774.75" y1="292.93" x2="1767.87" y2="305.16" xlink:href="#linear-gradient-41"/><linearGradient id="linear-gradient-52" x1="333.43" y1="265.21" x2="250.97" y2="239.32" xlink:href="#linear-gradient-46"/><linearGradient id="linear-gradient-53" x1="1084.16" y1="214.63" x2="1024.28" y2="291.25" gradientTransform="matrix(-1, 0.02, 0.02, 1, 1287.84, -16.94)" xlink:href="#linear-gradient-3"/><linearGradient id="linear-gradient-54" x1="1092.18" y1="220.9" x2="1032.29" y2="297.52" gradientTransform="matrix(-1, 0.02, 0.02, 1, 1287.84, -16.94)" xlink:href="#linear-gradient-3"/><linearGradient id="linear-gradient-55" x1="549.68" y1="-209.06" x2="437.93" y2="28.85" gradientTransform="matrix(1, 0, 0, 1, 0, 0)" xlink:href="#linear-gradient-41"/><linearGradient id="linear-gradient-56" x1="374.44" y1="222.93" x2="353.11" y2="236.44" gradientTransform="matrix(1, 0, 0, 1, 0, 0)" xlink:href="#linear-gradient-2"/><linearGradient id="linear-gradient-57" x1="-9184.26" y1="1682.46" x2="-9182.3" y2="1668.59" gradientTransform="translate(9615.82 1043.3) rotate(15.3)" xlink:href="#linear-gradient-3"/><linearGradient id="linear-gradient-58" x1="-9193.22" y1="1652.73" x2="-9174.94" y2="1673.74" gradientTransform="translate(9615.82 1043.3) rotate(15.3)" xlink:href="#linear-gradient-3"/><linearGradient id="linear-gradient-59" x1="317.17" y1="207.39" x2="398.43" y2="296.26" gradientTransform="matrix(1, 0, 0, 1, 0, 0)" xlink:href="#linear-gradient-41"/><linearGradient id="linear-gradient-60" x1="-8095.25" y1="-653.89" x2="-8207" y2="-415.98" gradientTransform="translate(9615.82 1043.3) rotate(15.3)" xlink:href="#linear-gradient-3"/><linearGradient id="linear-gradient-61" x1="5560.92" y1="414.89" x2="5604.52" y2="337.93" gradientTransform="matrix(-1, 0.01, 0.01, 1, 5905.71, -50.52)" xlink:href="#linear-gradient-3"/><linearGradient id="linear-gradient-62" x1="5570.43" y1="387.68" x2="5583.17" y2="387.68" gradientTransform="matrix(-1, 0.01, 0.01, 1, 5905.71, -50.52)" xlink:href="#linear-gradient-41"/><linearGradient id="linear-gradient-63" x1="340.12" y1="340.49" x2="396.9" y2="314.35" xlink:href="#linear-gradient-3"/><linearGradient id="linear-gradient-64" x1="5582.24" y1="389.98" x2="5597.43" y2="389.98" gradientTransform="matrix(-1, 0.01, 0.01, 1, 5905.71, -50.52)" xlink:href="#linear-gradient-41"/><linearGradient id="linear-gradient-65" x1="360.32" y1="243.5" x2="299.92" y2="329.79" xlink:href="#linear-gradient-46"/><linearGradient id="linear-gradient-66" x1="5629.25" y1="493.08" x2="5701.57" y2="410.36" gradientTransform="matrix(-0.99, -0.11, -0.11, 0.99, 5991.13, 403.5)" xlink:href="#linear-gradient-3"/><linearGradient id="linear-gradient-67" x1="2415.49" y1="1346.37" x2="2426.3" y2="1370.97" gradientTransform="translate(-2414.33 -499.14) rotate(-12.16)" xlink:href="#linear-gradient-3"/><linearGradient id="linear-gradient-68" x1="2415.77" y1="1348.23" x2="2427.55" y2="1375.03" gradientTransform="translate(-2414.33 -499.14) rotate(-12.16)" xlink:href="#linear-gradient-3"/><linearGradient id="linear-gradient-69" x1="223.53" y1="301.55" x2="226.38" y2="301.55" xlink:href="#linear-gradient-3"/><linearGradient id="linear-gradient-70" x1="-7184.16" y1="286.47" x2="-7196.55" y2="297.4" gradientTransform="matrix(-1, 0, 0, 1, -6950.82, 0)" xlink:href="#linear-gradient-41"/><linearGradient id="linear-gradient-71" x1="-7771.92" y1="-816.82" x2="-7761.86" y2="-816.82" gradientTransform="matrix(-0.98, -0.18, -0.18, 0.98, -7524.24, -272.32)" xlink:href="#linear-gradient-41"/><linearGradient id="linear-gradient-72" x1="-7232.3" y1="-1174.87" x2="-7286.61" y2="-1136.98" gradientTransform="matrix(-0.98, -0.18, -0.18, 0.98, -7524.24, -272.32)" xlink:href="#linear-gradient-41"/><linearGradient id="linear-gradient-73" x1="241.51" y1="323.78" x2="240.91" y2="340.6" gradientTransform="matrix(1, 0, 0, 1, 0, 0)" xlink:href="#linear-gradient-2"/><linearGradient id="linear-gradient-74" x1="255.93" y1="324.29" x2="255.32" y2="341.11" gradientTransform="matrix(1, 0, 0, 1, 0, 0)" xlink:href="#linear-gradient-2"/><linearGradient id="linear-gradient-75" x1="-7201.15" y1="322.81" x2="-7200.37" y2="314.93" gradientTransform="matrix(-1, 0, 0, 1, -6950.82, 0)" xlink:href="#linear-gradient-3"/><linearGradient id="linear-gradient-76" x1="-7210.3" y1="366.39" x2="-7202.35" y2="366.39" gradientTransform="matrix(-1, 0, 0, 1, -6950.82, 0)" xlink:href="#linear-gradient-3"/><linearGradient id="linear-gradient-77" x1="-7200.99" y1="365.61" x2="-7191.65" y2="365.61" gradientTransform="matrix(-1, 0, 0, 1, -6950.82, 0)" xlink:href="#linear-gradient-3"/><linearGradient id="linear-gradient-78" x1="-7231.01" y1="354.68" x2="-7205" y2="318.95" gradientTransform="matrix(-1, 0, 0, 1, -6950.82, 0)" xlink:href="#linear-gradient-3"/><linearGradient id="linear-gradient-79" x1="277.86" y1="299.71" x2="265.84" y2="309.02" gradientTransform="matrix(1, 0, 0, 1, 0, 0)" xlink:href="#linear-gradient-2"/><linearGradient id="linear-gradient-80" x1="257.23" y1="330.48" x2="247.62" y2="360.52" gradientTransform="matrix(1, 0, 0, 1, 0, 0)" xlink:href="#linear-gradient-2"/><linearGradient id="linear-gradient-81" x1="282.84" y1="269.31" x2="268.12" y2="294.84" xlink:href="#linear-gradient-28"/><linearGradient id="linear-gradient-82" x1="-7759.89" y1="-900.82" x2="-7758.86" y2="-916.17" gradientTransform="matrix(-0.99, -0.17, -0.19, 1.03, -7568.84, -101.09)" xlink:href="#linear-gradient-3"/><linearGradient id="linear-gradient-83" x1="-7744.75" y1="-799.98" x2="-7743.72" y2="-815.35" gradientTransform="matrix(-0.98, -0.18, -0.18, 0.98, -7524.24, -272.32)" xlink:href="#linear-gradient-3"/><linearGradient id="linear-gradient-84" x1="-7759.25" y1="-800.96" x2="-7758.21" y2="-816.32" gradientTransform="matrix(-0.98, -0.18, -0.18, 0.98, -7524.24, -272.32)" xlink:href="#linear-gradient-3"/><linearGradient id="linear-gradient-85" x1="-7233.33" y1="-1176.33" x2="-7287.63" y2="-1138.44" gradientTransform="matrix(-0.98, -0.18, -0.18, 0.98, -7524.24, -272.32)" xlink:href="#linear-gradient-41"/><linearGradient id="linear-gradient-86" x1="1452.58" y1="1120.54" x2="1466.3" y2="1151.76" gradientTransform="translate(-1324.94 -499.14) rotate(-12.16)" xlink:href="#linear-gradient-3"/><linearGradient id="linear-gradient-87" x1="1451.44" y1="1123.84" x2="1465" y2="1154.68" gradientTransform="translate(-1324.94 -499.14) rotate(-12.16)" xlink:href="#linear-gradient-3"/><linearGradient id="linear-gradient-88" x1="321.77" y1="283.98" x2="325.05" y2="283.98" xlink:href="#linear-gradient-3"/><linearGradient id="linear-gradient-89" x1="1373.92" y1="-1848.19" x2="1383.9" y2="-1848.19" gradientTransform="matrix(0.49, 0.87, 0.87, -0.49, 1309.58, -1750.06)" xlink:href="#linear-gradient-46"/><linearGradient id="linear-gradient-90" x1="-2066.17" y1="325.18" x2="-2066.77" y2="385.22" gradientTransform="matrix(-1, 0, 0, 1, -1695.55, 0)" xlink:href="#linear-gradient-3"/><linearGradient id="linear-gradient-91" x1="389.11" y1="280.25" x2="366.71" y2="316.68" xlink:href="#linear-gradient-3"/><linearGradient id="linear-gradient-92" x1="387.29" y1="279.13" x2="364.89" y2="315.56" xlink:href="#linear-gradient-3"/><linearGradient id="linear-gradient-93" x1="-2060.34" y1="379.19" x2="-2050.36" y2="379.19" gradientTransform="matrix(-1, 0, 0, 1, -1699.87, -3.73)" xlink:href="#linear-gradient-46"/><linearGradient id="linear-gradient-94" x1="-1898.87" y1="413.39" x2="-1899.47" y2="473.44" gradientTransform="matrix(-1, 0.07, 0.07, 1, -1570.2, 61.99)" xlink:href="#linear-gradient-3"/><linearGradient id="linear-gradient-95" x1="-1914.33" y1="410.98" x2="-1894.1" y2="410.98" gradientTransform="matrix(-1, 0.07, 0.07, 1, -1570.2, 61.99)" xlink:href="#linear-gradient-41"/><linearGradient id="linear-gradient-96" x1="-1914.54" y1="397.93" x2="-1908.94" y2="405.57" gradientTransform="matrix(-1, 0.07, 0.07, 1, -1570.2, 61.99)" xlink:href="#linear-gradient-41"/><linearGradient id="linear-gradient-97" x1="432.55" y1="265.22" x2="392.29" y2="292.25" gradientTransform="matrix(1, 0, 0, 1, 0, 0)" xlink:href="#linear-gradient-2"/><linearGradient id="linear-gradient-98" x1="-2739.57" y1="-197.73" x2="-2742.51" y2="-221.28" gradientTransform="matrix(-0.94, -0.34, -0.34, 0.94, -2300.14, -444.38)" xlink:href="#linear-gradient-3"/><linearGradient id="linear-gradient-99" x1="-2062.4" y1="302.45" x2="-2037.6" y2="306.33" gradientTransform="matrix(-1, 0, 0, 1, -1695.55, 0)" xlink:href="#linear-gradient-3"/><linearGradient id="linear-gradient-100" x1="-2839.73" y1="-433.02" x2="-2847.27" y2="-447.42" gradientTransform="matrix(-0.9, -0.43, -0.43, 0.9, -2395.72, -544.99)" xlink:href="#linear-gradient-41"/><linearGradient id="linear-gradient-101" x1="-2746.99" y1="-198.88" x2="-2749.33" y2="-217.57" gradientTransform="matrix(-0.94, -0.34, -0.34, 0.94, -2300.14, -444.38)" xlink:href="#linear-gradient-3"/><linearGradient id="linear-gradient-102" x1="-2746.4" y1="-207.5" x2="-2753.25" y2="-220.59" gradientTransform="matrix(-0.94, -0.34, -0.34, 0.94, -2300.14, -444.38)" xlink:href="#linear-gradient-41"/><linearGradient id="linear-gradient-103" x1="-2753.9" y1="-198.24" x2="-2756.2" y2="-216.64" gradientTransform="matrix(-0.94, -0.34, -0.34, 0.94, -2300.14, -444.38)" xlink:href="#linear-gradient-3"/></defs><title>item2</title><g id="Illustration"><path d="M372.77,267.35C335,355.25,235.22,393,157.06,386.57c-21.34-1.76-64.28-5.29-97.8-36.84C-5.13,289.14,4.79,162.49,66.42,87.92c7.94-9.6,62.88-73.93,148.5-73.07,62.68.63,106.67,35.86,112,40.25A172.11,172.11,0,0,1,362,94.73C393.61,143.85,396.38,212.42,372.77,267.35Z" style="fill:url(#linear-gradient)"/><path d="M100.37,179.37s22.36-23.54,17.11-40S94.8,99.77,125.3,64.5c17.85-20.64,25.36-29.94,28.52-34.1a3.07,3.07,0,0,1,4.89,0c8.71,11.49,35.44,50.5,21.51,80.25C163.71,145.91,100.37,179.37,100.37,179.37Z" style="fill:#7d97f4"/><path d="M158,47.37a175.24,175.24,0,0,1-.9,34.95c-.39,2.89-.75,5.79-1.27,8.67l-.36,2.16-.18,1.08-.22,1.07-.86,4.3-.22,1.07-.25,1.07-.51,2.13L152.7,106l-.25,1.07-.29,1.06c-.79,2.81-1.49,5.64-2.43,8.44-.22.7-.48,1.39-.72,2.09s-.49,1.38-.75,2.07l-.81,2-.4,1-.44,1-.88,2-.93,2c-.31.66-.63,1.33-1,2l-1,2a122,122,0,0,1-9.32,14.91A139.44,139.44,0,0,1,122.3,161.2q-3,3.18-6.24,6.18c-2.15,2-4.34,3.9-6.69,5.71a.8.8,0,0,1-1.11-.15.78.78,0,0,1,.13-1.08l0,0c1.08-.89,2.17-1.86,3.23-2.84s2.11-2,3.14-3q3.07-3,6-6.25a142.67,142.67,0,0,0,10.82-13.47,132.7,132.7,0,0,0,9-14.7,109.07,109.07,0,0,0,6.74-15.83c.91-2.71,1.64-5.52,2.44-8.29l.3-1,.26-1,.51-2.1.52-2.1.26-1.06.23-1c1.29-5.64,2.28-11.33,3.15-17s1.42-11.48,1.77-17.25a167.3,167.3,0,0,0,.33-17.34v0a.46.46,0,0,1,.43-.47A.46.46,0,0,1,158,47.37Z" style="fill:#fff;opacity:0.5"/><path d="M132.8,259.41c2.9,2.57-20-51.28-11.89-123.66,3.83-34.11,15.06-75.07.8-96-11.87-17.41-66.87-23.67-85-25.28a2.69,2.69,0,0,0-2.46,4.2C40.62,27.92,53.79,49.19,53.85,67c.07,23.45,16.94,43,34.44,51.86s26.79,15.34,27.64,47.46S124.56,252.1,132.8,259.41Z" style="fill:#91b3fa"/><path d="M58.4,30.5a87.3,87.3,0,0,1,29.89,17,68.44,68.44,0,0,1,11.59,13,59.14,59.14,0,0,1,7.61,15.68l.63,2.09c.2.7.34,1.42.52,2.13s.34,1.43.48,2.13l.41,2.11c.55,2.81,1.09,5.63,1.6,8.45q1.53,8.46,2.82,17c1.7,11.34,3.07,22.73,3.75,34.2a.47.47,0,0,1-.93.08h0c-.62-5.67-1.36-11.35-2.2-17s-1.7-11.31-2.65-17l-1.46-8.45-1.55-8.43q-.78-4.22-1.62-8.42l-.41-2.1c-.14-.71-.32-1.38-.47-2.06s-.3-1.38-.49-2.05l-.6-2A58.52,58.52,0,0,0,98.09,61.7,64.94,64.94,0,0,0,93,55l-.69-.8-.72-.78c-.48-.51-1-1-1.45-1.54-1-1-2-2-3-3A87.47,87.47,0,0,0,73.44,38.77a90.65,90.65,0,0,0-15.26-7.56h0a.37.37,0,0,1-.21-.48A.38.38,0,0,1,58.4,30.5Z" style="fill:#fff;opacity:0.5"/><path d="M89.62,250.55c1.23,1.75-.13-23.19,7.66-40.57s18.74-48.26,13-73-21-34.51-49.17-29.08c-23.5,4.53-37.35,5.8-44.13,3.89a2.61,2.61,0,0,0-3.29,2.59c.24,9.27,2.87,31.64,22.19,40,24.64,10.69,61.5,9.94,63.71,27.39s-2.62,24.11-5.48,30.39S81.47,239,89.62,250.55Z" style="fill:#7d97f4"/><path d="M57.26,132.24a53.05,53.05,0,0,1,5.94-1.34c2-.35,4-.62,6-.78a50.75,50.75,0,0,1,12.24.41,35,35,0,0,1,6,1.55,26.3,26.3,0,0,1,5.6,2.83c.43.31.87.6,1.28.94s.83.67,1.21,1L97.81,139l2.06,2.31,1.88,2.46A35.21,35.21,0,0,1,107,155a43.93,43.93,0,0,1,1.35,12.21l0,1.53c0,.52-.07,1-.1,1.53-.09,1-.15,2-.27,3l-.42,3c-.12,1-.37,2-.55,3a109.29,109.29,0,0,1-3.08,11.73.39.39,0,0,1-.48.25.37.37,0,0,1-.25-.45h0c.94-3.91,1.91-7.8,2.48-11.75.35-2,.53-4,.76-5.93.08-1,.11-2,.17-3,0-.5.08-1,.06-1.49v-1.48A44.38,44.38,0,0,0,105,155.55,34.15,34.15,0,0,0,100,145l-1.79-2.32-2-2.19-2.12-2c-.35-.33-.72-.62-1.09-.93s-.76-.57-1.15-.86a23.34,23.34,0,0,0-5.12-2.62,32.59,32.59,0,0,0-5.63-1.57,54.62,54.62,0,0,0-11.8-.8A76.55,76.55,0,0,0,57.46,133h0a.39.39,0,0,1-.46-.31A.39.39,0,0,1,57.26,132.24Z" style="fill:#fff;opacity:0.5"/><circle cx="316.91" cy="70.37" r="28.79" transform="translate(193.48 370.62) rotate(-80.17)" style="fill:url(#linear-gradient-2)"/><path d="M316.4,106.76h-.86a.32.32,0,0,1-.32-.33.32.32,0,0,1,.33-.32h0c.58,0,1.16,0,1.73,0h0a.33.33,0,0,1,.33.32.32.32,0,0,1-.32.33Z" style="fill:#fff"/><path d="M313.81,106.67h0c-.58,0-1.17-.1-1.75-.17a.32.32,0,0,1-.28-.36.33.33,0,0,1,.36-.29c.57.07,1.15.13,1.72.17a.33.33,0,0,1,.3.35A.32.32,0,0,1,313.81,106.67Z" style="fill:#fff"/><path d="M319,106.67a.34.34,0,0,1-.33-.31A.32.32,0,0,1,319,106c.57,0,1.15-.1,1.71-.17a.33.33,0,1,1,.08.65c-.58.07-1.17.13-1.75.17Z" style="fill:#fff"/><path d="M310.35,106.26h-.06c-.57-.09-1.16-.21-1.72-.33a.33.33,0,0,1,.14-.64c.55.12,1.12.23,1.69.33a.33.33,0,0,1,.27.38A.34.34,0,0,1,310.35,106.26Z" style="fill:#fff"/><path d="M322.49,106.25a.33.33,0,0,1-.06-.65c.57-.1,1.14-.21,1.7-.33a.33.33,0,1,1,.14.64c-.57.12-1.15.24-1.73.34Z" style="fill:#fff"/><path d="M306.94,105.51h-.08c-.57-.15-1.13-.32-1.69-.5a.33.33,0,0,1-.21-.41.33.33,0,0,1,.41-.21c.55.17,1.11.34,1.66.49a.33.33,0,0,1,.23.4A.32.32,0,0,1,306.94,105.51Z" style="fill:#fff"/><path d="M325.89,105.5a.34.34,0,0,1-.32-.24.33.33,0,0,1,.23-.4c.56-.15,1.11-.32,1.66-.5a.33.33,0,0,1,.2.63c-.55.18-1.12.34-1.69.5Z" style="fill:#fff"/><path d="M303.63,104.44l-.12,0c-.55-.21-1.1-.44-1.63-.67a.32.32,0,0,1-.17-.43.33.33,0,0,1,.43-.17c.52.23,1.06.45,1.6.65a.33.33,0,0,1,.19.43A.32.32,0,0,1,303.63,104.44Z" style="fill:#fff"/><path d="M329.2,104.42a.32.32,0,0,1-.3-.21.32.32,0,0,1,.19-.42c.53-.2,1.07-.42,1.59-.65a.33.33,0,1,1,.26.6c-.53.23-1.08.45-1.62.66A.25.25,0,0,1,329.2,104.42Z" style="fill:#fff"/><path d="M300.43,103a.4.4,0,0,1-.15,0c-.52-.26-1-.54-1.56-.82a.33.33,0,0,1,.32-.57c.5.28,1,.55,1.53.8a.33.33,0,0,1,.15.44A.32.32,0,0,1,300.43,103Z" style="fill:#fff"/><path d="M332.39,103a.33.33,0,0,1-.15-.62c.52-.25,1-.52,1.53-.8a.32.32,0,0,1,.44.13.33.33,0,0,1-.12.44c-.51.28-1,.56-1.56.82A.32.32,0,0,1,332.39,103Z" style="fill:#fff"/><path d="M297.38,101.35a.34.34,0,0,1-.17,0c-.5-.31-1-.64-1.48-1a.33.33,0,0,1-.08-.45.34.34,0,0,1,.46-.09c.47.33.95.65,1.44.95a.34.34,0,0,1,.11.45A.34.34,0,0,1,297.38,101.35Z" style="fill:#fff"/><path d="M335.43,101.34a.33.33,0,0,1-.28-.16.33.33,0,0,1,.1-.45c.49-.3,1-.62,1.45-.94a.31.31,0,0,1,.45.08.32.32,0,0,1-.08.45c-.48.34-1,.66-1.47,1A.34.34,0,0,1,335.43,101.34Z" style="fill:#fff"/><path d="M294.51,99.36a.36.36,0,0,1-.2-.06l-1.37-1.1a.33.33,0,0,1,0-.47.33.33,0,0,1,.46,0q.66.55,1.35,1.08a.33.33,0,0,1,.06.46A.34.34,0,0,1,294.51,99.36Z" style="fill:#fff"/><path d="M338.29,99.36a.33.33,0,0,1-.2-.59q.69-.52,1.35-1.08a.32.32,0,0,1,.46,0,.33.33,0,0,1,0,.46c-.45.38-.91.75-1.37,1.1A.31.31,0,0,1,338.29,99.36Z" style="fill:#fff"/><path d="M291.85,97.12a.35.35,0,0,1-.23-.09c-.42-.4-.85-.81-1.26-1.23a.33.33,0,0,1,.47-.46c.4.41.82.82,1.24,1.21a.33.33,0,0,1,0,.46A.35.35,0,0,1,291.85,97.12Z" style="fill:#fff"/><path d="M341,97.11a.33.33,0,0,1-.24-.1.33.33,0,0,1,0-.46c.42-.4.83-.8,1.23-1.21a.34.34,0,0,1,.47,0,.33.33,0,0,1,0,.47c-.4.41-.83.82-1.26,1.22A.31.31,0,0,1,341,97.11Z" style="fill:#fff"/><path d="M289.41,94.62a.29.29,0,0,1-.24-.11c-.39-.43-.77-.88-1.14-1.34a.33.33,0,0,1,.51-.41c.36.45.73.89,1.12,1.32a.33.33,0,0,1,0,.46A.3.3,0,0,1,289.41,94.62Z" style="fill:#fff"/><path d="M343.38,94.62a.34.34,0,0,1-.21-.08.32.32,0,0,1,0-.46c.38-.44.76-.88,1.11-1.32a.33.33,0,0,1,.51.41c-.36.45-.74.9-1.13,1.34A.34.34,0,0,1,343.38,94.62Z" style="fill:#fff"/><path d="M287.23,91.91a.34.34,0,0,1-.27-.13c-.34-.48-.68-1-1-1.45a.33.33,0,0,1,.55-.36c.31.48.64,1,1,1.42a.32.32,0,0,1-.07.46A.35.35,0,0,1,287.23,91.91Z" style="fill:#fff"/><path d="M345.57,91.9a.33.33,0,0,1-.19-.06.32.32,0,0,1-.07-.46c.33-.46.66-.94,1-1.42a.32.32,0,1,1,.54.36c-.31.49-.65,1-1,1.45A.3.3,0,0,1,345.57,91.9Z" style="fill:#fff"/><path d="M285.32,89a.33.33,0,0,1-.29-.16c-.29-.5-.58-1-.85-1.53a.33.33,0,0,1,.14-.44.32.32,0,0,1,.44.13c.26.51.55,1,.84,1.51a.33.33,0,0,1-.12.45A.32.32,0,0,1,285.32,89Z" style="fill:#fff"/><path d="M347.48,89a.33.33,0,0,1-.16,0,.32.32,0,0,1-.12-.44c.29-.5.58-1,.84-1.51a.33.33,0,0,1,.45-.14.32.32,0,0,1,.13.44c-.27.52-.56,1-.85,1.54A.35.35,0,0,1,347.48,89Z" style="fill:#fff"/><path d="M283.7,85.93a.32.32,0,0,1-.3-.19c-.25-.53-.48-1.07-.7-1.61a.33.33,0,0,1,.18-.43.34.34,0,0,1,.42.18c.22.53.45,1.06.69,1.58a.33.33,0,0,1-.16.44A.31.31,0,0,1,283.7,85.93Z" style="fill:#fff"/><path d="M349.11,85.9a.32.32,0,0,1-.14,0,.33.33,0,0,1-.16-.43c.24-.53.48-1.06.69-1.59a.33.33,0,0,1,.61.25c-.22.54-.46,1.08-.71,1.61A.31.31,0,0,1,349.11,85.9Z" style="fill:#fff"/><path d="M282.38,82.7a.33.33,0,0,1-.31-.21c-.19-.55-.38-1.12-.54-1.68a.31.31,0,0,1,.22-.4.32.32,0,0,1,.4.22c.17.55.35,1.1.54,1.64a.33.33,0,0,1-.2.42Z" style="fill:#fff"/><path d="M350.42,82.67l-.1,0a.33.33,0,0,1-.2-.42c.19-.54.37-1.09.53-1.64a.33.33,0,0,1,.63.19c-.17.56-.35,1.12-.55,1.67A.32.32,0,0,1,350.42,82.67Z" style="fill:#fff"/><path d="M281.38,79.37a.33.33,0,0,1-.32-.25c-.14-.57-.26-1.15-.38-1.72a.33.33,0,0,1,.65-.12c.11.56.23,1.12.37,1.68a.34.34,0,0,1-.24.4Z" style="fill:#fff"/><path d="M351.42,79.33h-.08a.33.33,0,0,1-.24-.4c.14-.55.26-1.12.37-1.68a.34.34,0,0,1,.39-.26.32.32,0,0,1,.25.38c-.11.57-.23,1.15-.37,1.72A.33.33,0,0,1,351.42,79.33Z" style="fill:#fff"/><path d="M280.71,76a.32.32,0,0,1-.32-.28c-.09-.58-.16-1.17-.21-1.75a.31.31,0,0,1,.29-.35.33.33,0,0,1,.36.29c.05.57.12,1.15.21,1.71a.33.33,0,0,1-.28.37Z" style="fill:#fff"/><path d="M352.09,75.91h0a.34.34,0,0,1-.28-.37c.08-.57.15-1.15.21-1.72a.31.31,0,0,1,.35-.29.32.32,0,0,1,.3.35c-.06.58-.13,1.17-.21,1.75A.33.33,0,0,1,352.09,75.91Z" style="fill:#fff"/><path d="M280.38,72.48a.33.33,0,0,1-.33-.31c0-.58,0-1.17,0-1.76a.32.32,0,0,1,.32-.32h0a.32.32,0,0,1,.33.32c0,.58,0,1.16,0,1.73a.32.32,0,0,1-.31.34Z" style="fill:#fff"/><path d="M352.42,72.44h0a.32.32,0,0,1-.31-.34c0-.57,0-1.15,0-1.73V70.3a.33.33,0,0,1,.33-.33.32.32,0,0,1,.32.33v.07c0,.59,0,1.18,0,1.76A.32.32,0,0,1,352.42,72.44Z" style="fill:#fff"/><path d="M280.37,69h0a.32.32,0,0,1-.31-.34c0-.59.06-1.18.12-1.76a.33.33,0,0,1,.36-.29.31.31,0,0,1,.29.35c-.05.57-.09,1.15-.12,1.73A.33.33,0,0,1,280.37,69Z" style="fill:#fff"/><path d="M352.41,68.88a.32.32,0,0,1-.32-.31c0-.57-.07-1.15-.13-1.72a.33.33,0,0,1,.65-.07c.06.58.1,1.17.13,1.76a.32.32,0,0,1-.31.34Z" style="fill:#fff"/><path d="M280.7,65.53h-.05a.33.33,0,0,1-.27-.37c.08-.58.18-1.16.29-1.74a.32.32,0,0,1,.38-.26.33.33,0,0,1,.26.39c-.11.56-.2,1.13-.29,1.7A.32.32,0,0,1,280.7,65.53Z" style="fill:#fff"/><path d="M352.07,65.41a.32.32,0,0,1-.32-.28c-.08-.56-.18-1.14-.29-1.7a.32.32,0,0,1,.26-.38.32.32,0,0,1,.38.26c.11.57.21,1.15.3,1.73a.33.33,0,0,1-.28.37Z" style="fill:#fff"/><path d="M281.36,62.11h-.08a.33.33,0,0,1-.24-.4c.14-.56.3-1.13.46-1.69a.33.33,0,0,1,.63.18c-.16.55-.31,1.11-.45,1.67A.33.33,0,0,1,281.36,62.11Z" style="fill:#fff"/><path d="M351.4,62a.33.33,0,0,1-.32-.25c-.13-.56-.29-1.12-.45-1.67a.32.32,0,0,1,.22-.4.31.31,0,0,1,.4.21c.17.56.33,1.13.47,1.7a.34.34,0,0,1-.24.4Z" style="fill:#fff"/><path d="M282.35,58.77l-.1,0a.34.34,0,0,1-.21-.42c.2-.55.41-1.1.63-1.64a.32.32,0,0,1,.42-.18.31.31,0,0,1,.18.42c-.21.53-.42,1.08-.61,1.62A.33.33,0,0,1,282.35,58.77Z" style="fill:#fff"/><path d="M350.4,58.66a.32.32,0,0,1-.31-.22c-.19-.54-.4-1.08-.61-1.61a.33.33,0,0,1,.17-.43.33.33,0,0,1,.43.18c.22.54.43,1.09.63,1.64a.33.33,0,0,1-.2.42Z" style="fill:url(#linear-gradient-3)"/><path d="M283.67,55.53a.22.22,0,0,1-.14,0,.32.32,0,0,1-.16-.43c.25-.53.51-1.06.78-1.58a.33.33,0,0,1,.44-.14.34.34,0,0,1,.14.45c-.27.5-.52,1-.77,1.55A.32.32,0,0,1,283.67,55.53Z" style="fill:url(#linear-gradient-4)"/><path d="M349.08,55.44a.34.34,0,0,1-.3-.19c-.24-.52-.5-1-.76-1.54a.32.32,0,0,1,.57-.31c.28.52.54,1.05.79,1.57a.34.34,0,0,1-.16.44A.35.35,0,0,1,349.08,55.44Z" style="fill:url(#linear-gradient-5)"/><path d="M285.29,52.45a.34.34,0,0,1-.17-.05A.32.32,0,0,1,285,52c.29-.5.6-1,.92-1.49a.34.34,0,0,1,.46-.1.33.33,0,0,1,.09.46c-.31.48-.62,1-.91,1.46A.32.32,0,0,1,285.29,52.45Z" style="fill:url(#linear-gradient-6)"/><path d="M347.46,52.36a.32.32,0,0,1-.29-.16c-.29-.49-.6-1-.91-1.46a.32.32,0,0,1,.09-.45.34.34,0,0,1,.46.09c.32.49.63,1,.93,1.49a.33.33,0,0,1-.12.45A.32.32,0,0,1,347.46,52.36Z" style="fill:url(#linear-gradient-7)"/><path d="M287.2,49.53a.31.31,0,0,1-.19-.06.33.33,0,0,1-.08-.46c.35-.47.71-.94,1.07-1.4a.33.33,0,0,1,.51.41c-.36.45-.71.91-1.05,1.37A.31.31,0,0,1,287.2,49.53Z" style="fill:url(#linear-gradient-8)"/><path d="M345.54,49.46a.31.31,0,0,1-.26-.14c-.34-.46-.69-.92-1-1.37a.32.32,0,0,1,0-.46.33.33,0,0,1,.46,0c.37.46.73.93,1.07,1.4a.31.31,0,0,1-.07.45A.28.28,0,0,1,345.54,49.46Z" style="fill:url(#linear-gradient-9)"/><path d="M289.38,46.81a.37.37,0,0,1-.22-.08.33.33,0,0,1,0-.46c.38-.44.78-.87,1.19-1.29a.33.33,0,0,1,.46,0,.32.32,0,0,1,0,.46c-.4.41-.8.84-1.17,1.27A.36.36,0,0,1,289.38,46.81Z" style="fill:url(#linear-gradient-10)"/><path d="M343.35,46.75a.32.32,0,0,1-.24-.11c-.38-.43-.78-.86-1.18-1.27a.33.33,0,1,1,.47-.45c.41.41.81.85,1.2,1.28a.32.32,0,0,1,0,.46A.31.31,0,0,1,343.35,46.75Z" style="fill:url(#linear-gradient-11)"/><path d="M291.81,44.31a.33.33,0,0,1-.24-.1.33.33,0,0,1,0-.46c.43-.4.87-.79,1.31-1.17a.33.33,0,0,1,.43.5c-.44.37-.88.76-1.3,1.15A.3.3,0,0,1,291.81,44.31Z" style="fill:url(#linear-gradient-12)"/><path d="M340.92,44.26a.35.35,0,0,1-.23-.09c-.42-.39-.85-.78-1.29-1.14a.33.33,0,0,1,.42-.5c.45.37.89.76,1.32,1.16a.33.33,0,0,1,0,.46A.35.35,0,0,1,340.92,44.26Z" style="fill:url(#linear-gradient-13)"/><path d="M294.47,42.07a.35.35,0,0,1-.26-.13.33.33,0,0,1,.06-.46c.46-.36.94-.7,1.42-1a.34.34,0,0,1,.46.09.32.32,0,0,1-.09.45c-.47.33-.94.67-1.39,1A.37.37,0,0,1,294.47,42.07Z" style="fill:url(#linear-gradient-14)"/><path d="M338.25,42a.36.36,0,0,1-.2-.06c-.45-.35-.92-.69-1.4-1a.33.33,0,0,1,.38-.54c.48.33,1,.68,1.42,1a.32.32,0,0,1,.06.45A.3.3,0,0,1,338.25,42Z" style="fill:url(#linear-gradient-15)"/><path d="M297.33,40.08a.32.32,0,0,1-.17-.6c.49-.31,1-.61,1.51-.89a.31.31,0,0,1,.44.12.33.33,0,0,1-.12.45c-.5.27-1,.57-1.49.87A.26.26,0,0,1,297.33,40.08Z" style="fill:url(#linear-gradient-16)"/><path d="M335.38,40a.26.26,0,0,1-.17-.05c-.49-.3-1-.59-1.49-.87a.33.33,0,0,1-.13-.45.33.33,0,0,1,.44-.12c.52.28,1,.58,1.52.89a.33.33,0,0,1,.11.45A.32.32,0,0,1,335.38,40Z" style="fill:url(#linear-gradient-17)"/><path d="M300.37,38.39a.33.33,0,0,1-.15-.62q.79-.39,1.59-.75a.33.33,0,0,1,.43.17.32.32,0,0,1-.17.43c-.52.23-1,.48-1.56.73A.33.33,0,0,1,300.37,38.39Z" style="fill:url(#linear-gradient-18)"/><path d="M332.33,38.34a.32.32,0,0,1-.14,0c-.52-.26-1.05-.5-1.57-.73a.32.32,0,0,1-.17-.43.32.32,0,0,1,.43-.17c.53.23,1.07.48,1.59.74a.33.33,0,0,1-.14.62Z" style="fill:url(#linear-gradient-19)"/><path d="M303.55,37a.32.32,0,0,1-.3-.21.32.32,0,0,1,.19-.42c.54-.21,1.1-.41,1.65-.59a.34.34,0,0,1,.42.21.33.33,0,0,1-.21.41c-.55.18-1.1.38-1.63.58Z" style="fill:url(#linear-gradient-20)"/><path d="M329.13,37l-.12,0c-.53-.2-1.08-.4-1.63-.57a.33.33,0,0,1,.2-.63c.56.18,1.12.38,1.66.59a.32.32,0,0,1,.19.42A.31.31,0,0,1,329.13,37Z" style="fill:url(#linear-gradient-21)"/><path d="M306.86,35.91a.33.33,0,0,1-.31-.24.32.32,0,0,1,.23-.4c.56-.16,1.14-.3,1.71-.42a.31.31,0,0,1,.38.24.32.32,0,0,1-.24.39c-.56.13-1.13.27-1.68.42Z" style="fill:url(#linear-gradient-22)"/><path d="M325.81,35.88h-.09c-.55-.15-1.11-.29-1.67-.41a.33.33,0,0,1,.14-.64c.57.12,1.14.26,1.7.42a.33.33,0,0,1,.24.4A.34.34,0,0,1,325.81,35.88Z" style="fill:url(#linear-gradient-23)"/><path d="M310.27,35.16a.34.34,0,0,1-.33-.28.32.32,0,0,1,.27-.37c.57-.1,1.16-.19,1.74-.26a.33.33,0,0,1,.36.29.31.31,0,0,1-.28.36c-.57.07-1.15.15-1.71.25Z" style="fill:url(#linear-gradient-24)"/><path d="M322.41,35.14h-.06c-.56-.09-1.14-.18-1.71-.24a.33.33,0,0,1-.28-.37.32.32,0,0,1,.36-.28c.58.07,1.16.15,1.74.25a.32.32,0,0,1,.27.37A.34.34,0,0,1,322.41,35.14Z" style="fill:url(#linear-gradient-25)"/><path d="M313.72,34.73a.32.32,0,0,1-.32-.3.32.32,0,0,1,.3-.35c.58,0,1.17-.07,1.76-.08a.32.32,0,0,1,.33.31.34.34,0,0,1-.32.34c-.57,0-1.15,0-1.72.08Z" style="fill:url(#linear-gradient-26)"/><path d="M319,34.73h0c-.57,0-1.15-.07-1.72-.08a.34.34,0,0,1-.32-.34.32.32,0,0,1,.33-.32c.59,0,1.18,0,1.76.08a.33.33,0,0,1,0,.66Z" style="fill:url(#linear-gradient-27)"/><rect x="299.19" y="189.95" width="78.94" height="152.23" style="fill:#91b3fa"/><path d="M383.3,203.11H294.07l-16.33-68.6H364.2l22.62,62.84A4,4,0,0,1,383.3,203.11Z" style="fill:url(#linear-gradient-28)"/><path d="M364.2,135.45l-97.36.41-2.7-8.46,94.08.53c3.3,0,6,2,6,4.56Z" style="fill:url(#linear-gradient-29)"/><g style="opacity:0.89"><rect x="316.34" y="231.3" width="45.11" height="69.54" rx="0.15" ry="0.15" style="fill:#fff;opacity:0.71"/><rect x="319.63" y="235.06" width="17.51" height="62.02" rx="0.08" ry="0.08" style="fill:#7d97f4"/><rect x="340.64" y="235.06" width="17.51" height="62.02" rx="0.08" ry="0.08" style="fill:#7d97f4"/></g><path d="M22.74,190h77.58a1.36,1.36,0,0,1,1.36,1.36V342.18a0,0,0,0,1,0,0H22.74a0,0,0,0,1,0,0V190A0,0,0,0,1,22.74,190Z" transform="translate(124.41 532.14) rotate(180)" style="fill:#91b3fa"/><path d="M18,203.11h89.26l31.86-72.89-102,4.29L14.51,197.35A4,4,0,0,0,18,203.11Z" style="fill:url(#linear-gradient-30)"/><path d="M37.14,135.45l103.36-1.71,8.09-7-105,1.23c-3.56,0-6.44,2-6.44,4.56Z" style="fill:url(#linear-gradient-31)"/><g style="opacity:0.89"><rect x="39.42" y="231.3" width="45.11" height="69.54" rx="0.15" ry="0.15" transform="translate(123.94 532.14) rotate(180)" style="fill:#fff;opacity:0.71"/><rect x="63.72" y="235.06" width="17.51" height="62.02" rx="0.08" ry="0.08" transform="translate(144.96 532.14) rotate(180)" style="fill:#7d97f4"/><rect x="42.71" y="235.06" width="17.51" height="62.02" rx="0.08" ry="0.08" transform="translate(102.93 532.14) rotate(180)" style="fill:#91b3fa"/></g><path d="M200.43,94.74s-107,80.79-109.67,80.79V343.37a5.54,5.54,0,0,0,5.54,5.53H305.19a4.9,4.9,0,0,0,4.91-4.9V175.53Z" style="fill:#bdd0fb"/><path d="M229.53,342.18h-68v-10.1a1.43,1.43,0,0,1,1.42-1.43H228.1a1.43,1.43,0,0,1,1.43,1.43Z" style="fill:#7d97f4"/><path d="M161.95,339.8h67.16a.42.42,0,0,1,.42.42v11.11a0,0,0,0,1,0,0h-68a0,0,0,0,1,0,0V340.22A.42.42,0,0,1,161.95,339.8Z" style="fill:#91b3fa"/><path d="M172.79,240.1h45.47a.47.47,0,0,1,.47.47v90.07a0,0,0,0,1,0,0H172.32a0,0,0,0,1,0,0V240.57a.47.47,0,0,1,.47-.47Z" style="fill:url(#linear-gradient-32)"/><path d="M215.46,234H175.6a3.28,3.28,0,0,1-3.28-3.28v-2.86a3.27,3.27,0,0,1,3.05-3.27l39.86-2.77a3.28,3.28,0,0,1,3.5,3.27v5.63A3.27,3.27,0,0,1,215.46,234Z" style="fill:#bdd0fb;opacity:0.9"/><path d="M255.59,193.78h-.44c-11.46,0-21.5,8.12-21.5,19.58V234h21.94Z" style="fill:#7d97f4;opacity:0.9"/><path d="M233.65,240.1v60.74c0,2,2.4,5.21,4.45,5.21h17.49v-66Z" style="fill:#7d97f4;opacity:0.9"/><path d="M261.58,193.78h-1.11V234h21.94V213.36C282.41,201.9,273.05,193.78,261.58,193.78Z" style="fill:#7d97f4;opacity:0.9"/><path d="M260.47,306.05h18.17c2,0,3.77-3.17,3.77-5.21V240.1H260.47Z" style="fill:#7d97f4;opacity:0.9"/><path d="M134.75,193.78h-.44c-11.47,0-21.5,8.12-21.5,19.58V234h21.94Z" style="fill:#7d97f4;opacity:0.9"/><path d="M112.81,240.1v60.74c0,2,2.4,5.21,4.44,5.21h17.5v-66Z" style="fill:#7d97f4"/><path d="M140.74,193.78h-1.12V234h21.94V213.36C161.56,201.9,152.2,193.78,140.74,193.78Z" style="fill:#7d97f4;opacity:0.9"/><path d="M139.62,306.05h18.17c2.05,0,3.77-3.17,3.77-5.21V240.1H139.62Z" style="fill:#7d97f4;opacity:0.9"/><path d="M189.08,306.31h-7a4.24,4.24,0,0,1-4.24-4.24V250.28a4.24,4.24,0,0,1,4.24-4.23h7a4.24,4.24,0,0,1,4.24,4.23v51.79A4.24,4.24,0,0,1,189.08,306.31Zm-7-59.75a3.73,3.73,0,0,0-3.73,3.72v51.79a3.73,3.73,0,0,0,3.73,3.73h7a3.73,3.73,0,0,0,3.73-3.73V250.28a3.73,3.73,0,0,0-3.73-3.72Z" style="fill:url(#linear-gradient-33)"/><path d="M208.63,306.31h-7a4.24,4.24,0,0,1-4.24-4.24V250.28a4.24,4.24,0,0,1,4.24-4.23h7a4.24,4.24,0,0,1,4.24,4.23v51.79A4.24,4.24,0,0,1,208.63,306.31Zm-7-59.75a3.73,3.73,0,0,0-3.73,3.72v51.79a3.73,3.73,0,0,0,3.73,3.73h7a3.73,3.73,0,0,0,3.73-3.73V250.28a3.73,3.73,0,0,0-3.73-3.72Z" style="fill:url(#linear-gradient-34)"/><path d="M189.08,323.77h-7a4.24,4.24,0,0,1-4.24-4.24v-6a4.24,4.24,0,0,1,4.24-4.23h7a4.24,4.24,0,0,1,4.24,4.23v6A4.24,4.24,0,0,1,189.08,323.77Zm-7-13.92a3.73,3.73,0,0,0-3.73,3.72v6a3.73,3.73,0,0,0,3.73,3.73h7a3.73,3.73,0,0,0,3.73-3.73v-6a3.73,3.73,0,0,0-3.73-3.72Z" style="fill:url(#linear-gradient-35)"/><path d="M208.63,323.77h-7a4.24,4.24,0,0,1-4.24-4.24v-6a4.24,4.24,0,0,1,4.24-4.23h7a4.24,4.24,0,0,1,4.24,4.23v6A4.24,4.24,0,0,1,208.63,323.77Zm-7-13.92a3.73,3.73,0,0,0-3.73,3.72v6a3.73,3.73,0,0,0,3.73,3.73h7a3.73,3.73,0,0,0,3.73-3.73v-6a3.73,3.73,0,0,0-3.73-3.72Z" style="fill:url(#linear-gradient-36)"/><path d="M284.31,309.85H231.49a5.5,5.5,0,0,1-5.49-5.5V212.91a26.26,26.26,0,0,1,26.23-26.23h11.34a26.26,26.26,0,0,1,26.23,26.23v91.44A5.5,5.5,0,0,1,284.31,309.85ZM252.23,187.19a25.75,25.75,0,0,0-25.72,25.72v91.44a5,5,0,0,0,5,5h52.82a5,5,0,0,0,5-5V212.91a25.75,25.75,0,0,0-25.72-25.72Z" style="fill:#fff"/><path d="M163.49,309.85H110.67a5.5,5.5,0,0,1-5.49-5.5V212.91a26.26,26.26,0,0,1,26.22-26.23h11.35A26.26,26.26,0,0,1,169,212.91v91.44A5.51,5.51,0,0,1,163.49,309.85ZM131.4,187.19a25.74,25.74,0,0,0-25.71,25.72v91.44a5,5,0,0,0,5,5h52.82a5,5,0,0,0,5-5V212.91a25.75,25.75,0,0,0-25.72-25.72Z" style="fill:#fff"/><rect x="248.45" y="96.5" width="18.14" height="29.54" style="fill:url(#linear-gradient-37)"/><path d="M244.06,92.22h27.28a1.24,1.24,0,0,1,1.24,1.24v7.84a0,0,0,0,1,0,0H243.25a0,0,0,0,1,0,0V93A.81.81,0,0,1,244.06,92.22Z" style="fill:url(#linear-gradient-38)"/><path d="M84,184,200.43,94.74l110.48,85.69a6.85,6.85,0,0,0,10.92-4l1.55-7.58L200.43,75.15l-119,90.9a5.93,5.93,0,0,0-1.89,7Z" style="fill:url(#linear-gradient-39)"/><path d="M56.7,222.7c-3.27.88-6.55,2.38-7.8,4.17-5.68,8,3,19.2,6,26.6,5.14,12.72,6.84,26.58,3.06,39.88-4.1,14.41-6.68,28.59-4.77,43.36,1,7.6,3.48,15.67,9.26,21.73,10.93,11.45,39.18,5,44.78-7.87,4.47-10.3,2.95-21.48-.05-31.75-5-17.27-13.38-33.65-18.54-50.89-4-13.17-1.82-39.46-20.28-45.18A23.37,23.37,0,0,0,56.7,222.7Z" style="fill:#7d97f4"/><path d="M81.13,385.55a1.33,1.33,0,0,1-.28,0,.86.86,0,0,1-.59-1.06C93,339.83,86.46,299.78,78.7,274c-8.42-27.92-20-45.5-20.14-45.68A.86.86,0,0,1,60,227.4c.12.18,11.83,17.93,20.33,46.08,7.85,26,14.49,66.4,1.59,111.45A.85.85,0,0,1,81.13,385.55Z" style="fill:#91b3fa"/><path d="M88.63,335.43c-.88-10.36,3.63-21.9,6.2-32.62a52.44,52.44,0,0,0,1.65-17.18c-.53-5.81-2.82-12.2,0-17.76,5.78-11.21,17.36-5.17,23.62,4,7.26,10.6,8.34,27.21,10.52,40.09,1.31,7.76,3.53,15.78,4,23.63.74,13-2.77,21.77-9.34,27.42a18.72,18.72,0,0,1-22.37,1.51C96.61,360.41,90.06,352.15,88.63,335.43Z" style="fill:#91b3fa"/><path d="M113,385.27a.81.81,0,0,1-.41,0,.87.87,0,0,1-.64-1c.15-.61,14.29-61.75-2.48-112.59a.86.86,0,0,1,1.63-.54C128,322.42,113.79,384,113.64,384.64A.85.85,0,0,1,113,385.27Z" style="fill:#7d97f4;opacity:0.9"/><path d="M306,271.56a27.67,27.67,0,0,0,6.51,4.61,53.51,53.51,0,0,1-11.6,10.65l-1.4,3.3-4.76-5.52S303,280.3,306,271.56Z" style="fill:url(#linear-gradient-40)"/><path d="M282.71,378a1,1,0,0,1,0-.3c1.41-6,8.85-9.87,8.85-9.87l3,.19c1.79,5.25,1.62,8.49,1.37,9.94l0,.12A70.25,70.25,0,0,1,282.71,378Z" style="fill:url(#linear-gradient-41)"/><path d="M295.91,378.09a1.29,1.29,0,0,1-.93,1c-3.47.79-9,.28-11.36,0a1.09,1.09,0,0,1-.91-1.07A70.25,70.25,0,0,0,295.91,378.09Z" style="fill:#7d97f4"/><path d="M295.69,363.58l-1.16,6.08a1,1,0,0,1-.84.83,7.89,7.89,0,0,1-1.95,0,1.25,1.25,0,0,1-1-1.45l.79-5.39Z" style="fill:url(#linear-gradient-42)"/><path d="M269.84,378.45a18.1,18.1,0,0,0,5.85-.93c0,.32,0,.65,0,1a.65.65,0,0,1-.61.67l-18,.17a.82.82,0,0,1-.68-1.19C258.75,378.33,264.77,378.67,269.84,378.45Z" style="fill:#7d97f4"/><path d="M256.38,378.17a.83.83,0,0,1,.07-.13c1.55-2.25,5.54-6.75,13.52-8.8l3.84-.18s1.76,2.95,1.88,8.46a18.1,18.1,0,0,1-5.85.93C264.77,378.67,258.75,378.33,256.38,378.17Z" style="fill:url(#linear-gradient-43)"/><path d="M274.43,363.23c0,.28-.5,4.64-.68,6.34a.82.82,0,0,1-.69.76,8.6,8.6,0,0,1-2.64,0,1.13,1.13,0,0,1-.88-1.12l-.11-6.84Z" style="fill:url(#linear-gradient-44)"/><path d="M276.23,283.73a342.23,342.23,0,0,0-7.82,79.69,1.71,1.71,0,0,0,1.39,1.65,19.89,19.89,0,0,0,4.3.43,1.59,1.59,0,0,0,1.5-1.35c1.17-7.64,7.94-50.7,12.08-57.73,0,0,3.41,38.19,2.83,58a.94.94,0,0,0,.85,1,15.69,15.69,0,0,0,3.45-.06,1.25,1.25,0,0,0,1.1-1.09c.82-6.46,5.53-44.94,4.86-72.59,0-1.56-4.26-8.27-4.26-8.27Z" style="fill:url(#linear-gradient-45)"/><path d="M262.65,241.31l4.35-7.46c11.4-8.51,28.82-4.57,35.55-3.84a9,9,0,0,1,5.72,3c5.86,6.57,18.78,24.6,4.21,43.21a27.67,27.67,0,0,1-6.51-4.61c1.57-4.66,1.61-10.58-2-17.79a16.37,16.37,0,0,1-.41,1.71A105.5,105.5,0,0,0,299.1,286a1,1,0,0,1-.58.9c-6.21,2.6-18.27,1.3-22.32.77a1.36,1.36,0,0,1-1.16-1.53c1.75-14.39-8.8-37.85-11.59-43.72A3.8,3.8,0,0,0,262.65,241.31Z" style="fill:url(#linear-gradient-46)"/><path d="M291.55,218.09,293,230.38s-6.89,2.2-12-1.27l3.36-11.24Z" style="fill:url(#linear-gradient-47)"/><path d="M283.29,204.2c-.16.16-6.81,13.75-6.81,13.75l7.84,3.63,8.22-12S286,201.53,283.29,204.2Z" style="fill:url(#linear-gradient-48)"/><path d="M289.1,210a1.23,1.23,0,0,1-.07,1.09l-3.78,6.53a1.39,1.39,0,0,1-.21.27c-.46.44-2,1.71-3.27,0a10.83,10.83,0,0,0-3.12-3.27,1.24,1.24,0,0,0-1.66.58,46.15,46.15,0,0,0-2.56,6.35,1.24,1.24,0,0,0,.75,1.5,34.15,34.15,0,0,0,7.49,2.05,1.23,1.23,0,0,0,1.16-.51c1.17-1.65,4.44-6.26,5.57-7.42s3-.7,3.9-.47a1.23,1.23,0,0,0,1-.14,2.74,2.74,0,0,0,1-4.18,1.24,1.24,0,0,1,.36-1.69,2.75,2.75,0,0,0,1-3.92,3.87,3.87,0,0,0-4.23-2,1.28,1.28,0,0,1-1.36-.73.85.85,0,0,0-.65-.5,1.2,1.2,0,0,1-1-1.4,3.18,3.18,0,0,0-1.83-3.61c-3.39-1.79-6.28,1.26-7,3.82s3.08,4.28,5.44,4.54C287.72,207.15,288.7,209,289.1,210Z" style="fill:url(#linear-gradient-49)"/><path d="M287.61,219.43s1.79-4.2,3.71-4.07,3.44,2,1.11,4.19C289.53,222.26,287.61,219.43,287.61,219.43Z" style="fill:url(#linear-gradient-50)"/><path d="M288,305.51a.35.35,0,0,0,.34-.27c.72-3,6.42-6.32,6.48-6.36a.34.34,0,0,0,.12-.47.34.34,0,0,0-.47-.13c-.25.14-6,3.53-6.81,6.8a.34.34,0,0,0,.25.42Z" style="fill:url(#linear-gradient-51)"/><path d="M239.31,245.56c13.07,1.75,21.44-6.62,27.69-11.71,8.26-6.72,14.81-3.62,14.81-3.62l-8.64,17.16c-13.11,12.77-26.81,10.2-35.48,6.27A16.6,16.6,0,0,1,239.31,245.56Z" style="fill:url(#linear-gradient-52)"/><path d="M220.86,238.08l4.36,2.25a37.82,37.82,0,0,0,14.09,5.23,16.6,16.6,0,0,0-1.62,8.1,39.87,39.87,0,0,1-9-5.56C218.79,242.42,220.86,238.08,220.86,238.08Z" style="fill:url(#linear-gradient-53)"/><path d="M208.22,244.37a3.23,3.23,0,0,1,1.83-2.07l8.72-3.67s.12-1.12-1.88-1.86a2.63,2.63,0,0,1-1.57-3s2.73,1.19,6.74,3.09a9.31,9.31,0,0,1,4.29,4.53l-2.21,3A40.11,40.11,0,0,1,207.76,246Z" style="fill:url(#linear-gradient-54)"/><path d="M307.87,241c1.33-2.21,3.66-3.65,5.06-5.81a10.52,10.52,0,0,0,.67-9.36c-1-2.51-2.67-4.68-3.65-7.19a12.2,12.2,0,0,1-.75-8.21c.53-3,1.69-6.17,4.56-7.88a17.07,17.07,0,0,1,11.93-1.75,22.13,22.13,0,0,1,11.37,5.56,16,16,0,0,1,5,11.44c0,2.9-1,5.89,0,8.63a6.77,6.77,0,0,0,4.79,4.35c2.44.57,5-.26,7.48-.23a10.89,10.89,0,0,1,6.84,2.56,9,9,0,0,1,3.21,5.6,6.78,6.78,0,0,1-2.15,6c-1.15,1-2.76,1.63-3.19,3.07-.47,1.62.92,3.24,2.47,3.9s3.29.71,4.87,1.29c3.53,1.32,5.67,5.29,5.39,9.05a12.73,12.73,0,0,1-5.77,9.27,22.11,22.11,0,0,1-10.64,3.37,90.52,90.52,0,0,1-11.29-.17c-4.3-.21-8.69-.26-12.77-1.64s-7.69-4.07-11-6.88a12,12,0,0,1-3.88-4.73c-.51-1.41-.51-3-1.1-4.35-1.27-3-4.78-4.2-6.81-6.69A8.18,8.18,0,0,1,307.87,241Z" style="fill:url(#linear-gradient-55)"/><path d="M354.54,246.33h0a5.3,5.3,0,0,0,3.25-8.45c-1.64-2.13-4.53-2.68-7.35-3.07l-5.1-.69c-2.88-.39-5.83-1-7.49-3.08s-1.41-5.37-1.07-8.37c0-.34.08-.68.11-1a21.93,21.93,0,0,0-1.33-11.07,12.52,12.52,0,0,0-8.1-7.35.13.13,0,0,0-.16.09.14.14,0,0,0,.1.16,12.25,12.25,0,0,1,7.92,7.2,21.7,21.7,0,0,1,1.31,11c0,.33-.07.67-.11,1-.34,3.05-.7,6.21,1.13,8.56s4.72,2.78,7.65,3.18l5.11.69c2.76.38,5.59.91,7.17,3a5.06,5.06,0,0,1-3.09,8,.13.13,0,0,0-.1.15A.14.14,0,0,0,354.54,246.33Z" style="fill:#bdd0fb"/><path d="M352.93,244.76a.26.26,0,0,0,.18-.07,8,8,0,0,0,1.75-2.09,2.79,2.79,0,0,0,0-2.78,3.71,3.71,0,0,0-1.69-1.19,21.22,21.22,0,0,0-4.87-1.41c-1.09-.18-2.2-.27-3.28-.36a33,33,0,0,1-4.2-.54c-1.65-.36-4.6-1.36-5.89-3.94-1-2.09-.65-4.42-.24-6.89a15.34,15.34,0,0,0,.2-6,.26.26,0,0,0-.5.12,15.13,15.13,0,0,1-.21,5.83c-.41,2.44-.82,5,.29,7.2,1.38,2.78,4.5,3.83,6.23,4.22a33,33,0,0,0,4.28.55c1.06.09,2.17.18,3.24.35a20.61,20.61,0,0,1,4.74,1.38,3.2,3.2,0,0,1,1.47,1,2.27,2.27,0,0,1,0,2.26,7.24,7.24,0,0,1-1.64,1.94.27.27,0,0,0,0,.37A.27.27,0,0,0,352.93,244.76Z" style="fill:#bdd0fb"/><path d="M311.58,236a16.68,16.68,0,0,1,16.38,3.9,4.19,4.19,0,0,1,1.28,4.15c-1.71,6.72-6.19,26.55-1.85,35,0,0-7.27,8.28-15.45,1.83,0,0-3.88-15.74-8.74-22.59-3.36-4.74,4.94-18.07,7-21.29A2.5,2.5,0,0,1,311.58,236Z" style="fill:url(#linear-gradient-56)"/><path d="M318.11,222.6s3.78,10.16,4.12,14.66a7.71,7.71,0,0,1-7.77-1.13s-.56-10.19-1.16-12Z" style="fill:url(#linear-gradient-57)"/><path d="M312.87,208.76s-9.23,13.37-3.52,17.11,12.28-5.75,12.28-5.75,2.07-7.27-.26-9.69S312.87,208.76,312.87,208.76Z" style="fill:url(#linear-gradient-58)"/><path d="M317.19,205.53s-4.32,1.1-4.9,3.07,6.22,3.68,8.11,3.74l1.66,7.9s4.39-7.53,2.53-11.8S317.19,205.53,317.19,205.53Z" style="fill:url(#linear-gradient-59)"/><path d="M319.78,219.18s3.61-4.32,5.11-1.57-3.23,4.92-4.9,3.58Z" style="fill:url(#linear-gradient-60)"/><path d="M303,314.22c0,.72-1.13,6.42-1.76,9.47a5,5,0,0,0,.59,3.57l24.38,39.56a5.46,5.46,0,0,1,.64,1.54,34.27,34.27,0,0,1,1,10.64l-1.19,2.57,5.29-1.29L333,366l-1.52-.89a7.13,7.13,0,0,1-2.94-3.34c-2.23-5.18-7.77-18.36-9.25-24.8-1.68-7.32-9.94-13.16-9.94-13.16l1.38-3.41Z" style="fill:url(#linear-gradient-61)"/><path d="M337.86,375.27s-2.94-4.5-3.31-6.26-1.36-4.87-3.11-3.9c0,0-.69,8.61-.35,12s-3.75,3.31-3.75,3.31a3.85,3.85,0,0,0-1.93,1,1,1,0,0,0,.67,1.6,23,23,0,0,0,5.68-.41,1.75,1.75,0,0,0,1.38-1.63l.43-9.9,3.69,4.51Z" style="fill:url(#linear-gradient-62)"/><path d="M317.32,320.35s1.41,35.71,1.61,40.79-.54,16.33-5.57,19.77l2.24,1.6a29.58,29.58,0,0,0,5.35-7c3-5.13,3.86-6.08,3.86-6.08l-1-2a4.51,4.51,0,0,1-.41-2.91c1-5.33,4.39-23.09,5.33-26.91,1.11-4.52,1.09-10.53-3.1-15.49S317.32,320.35,317.32,320.35Z" style="fill:url(#linear-gradient-63)"/><path d="M323,384a.3.3,0,0,0,.31-.27c.15-1.19.78-6,1.34-7.23.64-1.42,2.7-7.42-.13-7.88,0,0-6.84,10.36-8.17,11.76a2.63,2.63,0,0,1-3,.53,5.09,5.09,0,0,0-2.28,1.69.93.93,0,0,0,.76,1.48l4.72,0a3.33,3.33,0,0,0,3.08-2.15c.8-2.09,2.18-5.15,3.82-6.53l-.73,8.29a.31.31,0,0,0,.31.34Z" style="fill:url(#linear-gradient-64)"/><path d="M310.76,277.07s1.12,3.37-.43,9l-9.57,35.57a1.09,1.09,0,0,0,.71,1.32,67.56,67.56,0,0,0,26.66,2.8,1.54,1.54,0,0,0,1.39-1.22c.83-4,3.67-17.88,4.26-20.72,2.22-10.82,4.72-22.49-7.19-29.33C321.2,276.89,316.15,278.34,310.76,277.07Z" style="fill:url(#linear-gradient-65)"/><path d="M329,241.21s11.69,9.4,14.77,22.45-16.63,14.76-16.63,14.76-2.72-2.94-5.88-1.82-.33-5.22,3.38-5.26,2.05,2.92,7.27.46,8.14-9.64-5.11-20.31a5.93,5.93,0,0,1-1.77-2.32C322.34,242.82,324.29,238.59,329,241.21Z" style="fill:url(#linear-gradient-66)"/><path d="M226,300.46s6.63,17.86,16.71,15.67c0,0,1,6.08-.66,6.79,0,0-15.12.44-16.62-20.32Z" style="fill:url(#linear-gradient-67)"/><path d="M226.31,304.65c0,.31,1.12.52,1.48-.8-.1-.57-.28-3.08-.71-3.47a46.8,46.8,0,0,0-6.52-4.41.86.86,0,0,0,.15,1.18l2.08,1.41a8.45,8.45,0,0,0-.57,2.17,2.4,2.4,0,0,0,.62,1.71c.41.47,1,1.08,1.47,1.55A2.41,2.41,0,0,0,226.31,304.65Z" style="fill:url(#linear-gradient-68)"/><path d="M226.38,301.73l-.76-1.2-1.84-1c-.28.23-.4.54.06,1a18,18,0,0,1,1.49,3Z" style="fill:url(#linear-gradient-69)"/><path d="M242.63,293s3.2-2.89-.91-6c-3.87-3-6.7,1-5.41,3.55a.31.31,0,0,1-.21.44c-.34.07-.63.41-.1,1.6a.29.29,0,0,1,0,.31c-.47.63-2.05,3.18,2.72,3.57a.29.29,0,0,0,.23-.08Z" style="fill-rule:evenodd;fill:url(#linear-gradient-70)"/><path d="M259.44,297.25s.31-3.69,2.28-4.9,5.81-2.22,7.41,1.79c.77,1.91.52,2.82,0,3.25a1.2,1.2,0,0,0-.19,1.51,1.35,1.35,0,0,1-.62,2,1.27,1.27,0,0,0-.54.8c-.26,1.34-1.63,4.54-8.94,1Z" style="fill-rule:evenodd;fill:url(#linear-gradient-71)"/><path d="M251,290.61c1.44-.61,4.48-1.24,6.86,2.91a1.9,1.9,0,0,0,.69.69c1.41.77,5.5,3.61,1.78,8.71a1.8,1.8,0,0,0-.32.8c-.13.86-.54,2.78-1.78,3.25a1.79,1.79,0,0,0-.89.74c-.83,1.37-3.2,4.26-7.19,1.25a1.68,1.68,0,0,0-.69-.32l-5.52-1.22a1.75,1.75,0,0,0-.88,0,1.87,1.87,0,0,1-2.54-1.22,1.89,1.89,0,0,0-.56-.83,4.72,4.72,0,0,1-1.4-5.91,1.75,1.75,0,0,0,.17-1.08c-.17-1.12-.27-3.6,2.06-4.67a1.68,1.68,0,0,0,.81-.77c.78-1.49,3.3-5.31,7.75-2.51A1.79,1.79,0,0,0,251,290.61Z" style="fill-rule:evenodd;fill:url(#linear-gradient-72)"/><path d="M243.5,378.25l.8.93-.55,2a1.44,1.44,0,0,1-1.12,1c-1.79.32-5.86.92-7.95,0,0,0-.65-4.36,6.56-3.06Z" style="fill-rule:evenodd;fill:url(#linear-gradient-73)"/><path d="M256.06,380.56l.43,1.05-.18,3.78a1.17,1.17,0,0,1-1,1.07,14,14,0,0,1-3,.16,1.14,1.14,0,0,1-1-1.57l1.27-2.72a1.68,1.68,0,0,1,1-.87Z" style="fill-rule:evenodd;fill:url(#linear-gradient-74)"/><path d="M252.4,306.94l.82,8.13s-4.41,1.49-7.32-.2l.78-8.16Z" style="fill-rule:evenodd;fill:url(#linear-gradient-75)"/><path d="M259.49,351.43S257.39,374.8,256,382a2.32,2.32,0,0,1-2.59-.22l-1.88-31.19Z" style="fill-rule:evenodd;fill:url(#linear-gradient-76)"/><path d="M250.17,352.83,244.43,379a2.61,2.61,0,0,1-3.6,0l1-27.52Z" style="fill-rule:evenodd;fill:url(#linear-gradient-77)"/><path d="M257.44,315.68l1.43.16c2.79,3,7.89,23.48,9.73,27.84l7.49-1.22a.37.37,0,0,1,.42.51c-.33.81-1.58,3.15-6.44,3.15-2.27,0,1.27,1.77-.09,2.37,0,0-3-1.07-3-3,0,0-8.55-19.5-10.31-21.55S257.44,315.68,257.44,315.68Z" style="fill-rule:evenodd;fill:url(#linear-gradient-78)"/><path d="M258.87,315.84a28.9,28.9,0,0,0-17.11.1s-1.07,7.19-.52,10.62l16.38.59Z" style="fill-rule:evenodd;fill:url(#linear-gradient-79)"/><path d="M241.46,328.8s-5.23,16.81-6,28a1,1,0,0,0,1,1.11,23.47,23.47,0,0,1,5.62,1.22,17.44,17.44,0,0,0,10.9,0,90.34,90.34,0,0,1,11.25-1.57,1,1,0,0,0,.93-1.22c-.74-4.14-3.57-18.84-7.85-28.83Z" style="fill-rule:evenodd;fill:url(#linear-gradient-80)"/><path d="M241.19,326.17l.27,2.63s5,0,16.17-.35l.05-1.91S245.36,326.78,241.19,326.17Z" style="fill-rule:evenodd;fill:url(#linear-gradient-81)"/><path d="M241.22,299.06c-1.26,4.89-.89,10.5,4.86,11.76,4,.87,8.15-3.18,9.42-8.06s-.9-8.61-4.84-9.63S242.49,294.18,241.22,299.06Z" style="fill-rule:evenodd;fill:url(#linear-gradient-82)"/><path d="M241.66,300.57s-.19-2.95-1.67-2,.57,4.45,1.48,4.66S241.66,300.57,241.66,300.57Z" style="fill-rule:evenodd;fill:url(#linear-gradient-83)"/><path d="M254.26,304s.44-2.26,2-1.22-1.45,4.73-3.33,3.91Z" style="fill-rule:evenodd;fill:url(#linear-gradient-84)"/><path d="M256.62,302.19s-4.57,4.94-6.94-5.32c0,0-2.37,3.06-3.45.35,0,0-4.72,1.62-5.24-.37s6.38-7.36,11.92-3.5S256.62,302.19,256.62,302.19Z" style="fill-rule:evenodd;fill:url(#linear-gradient-85)"/><path d="M322.7,282.23s13.17,18.85,24.37,21.42c0,0-.89,5.38-2.84,6.21,0,0-10.73-2.56-22.19-25.18Z" style="fill:url(#linear-gradient-86)"/><path d="M325,287.54c0,.36,1.3.6,1.72-.91-.12-.66-.32-3.55-.83-4a53.34,53.34,0,0,0-7.49-5.08,1,1,0,0,0,.16,1.36l2.4,1.62a9.65,9.65,0,0,0-.66,2.51,2.86,2.86,0,0,0,.71,2c.48.54,1.12,1.25,1.7,1.78A2.76,2.76,0,0,0,325,287.54Z" style="fill:url(#linear-gradient-87)"/><path d="M325.05,284.18l-.88-1.38-2.11-1.13c-.33.27-.47.63.07,1.19a20.58,20.58,0,0,1,1.71,3.43Z" style="fill:url(#linear-gradient-88)"/><path d="M378.41,357.92a13.75,13.75,0,0,1,2.39-1.78.5.5,0,0,1,.64.14c.9,1.16,3.9,5.19,4.57,8a.5.5,0,0,1-.27.57c-.77.41-2.81.84-5.72-3.2l-1.75-2.47A.92.92,0,0,1,378.41,357.92Z" style="fill-rule:evenodd;fill:url(#linear-gradient-89)"/><path d="M360.69,348.87s1,13.19,6.35,17.59c4.71,3.85,12-3.16,13.78-5a1.11,1.11,0,0,0,.31-1,2.76,2.76,0,0,0-1.34-2,1.37,1.37,0,0,0-1.61.17c-1.46,1.35-5.28,4.62-7.23,3.84-2.44-1-3.91-13.68-3.91-13.68Z" style="fill-rule:evenodd;fill:url(#linear-gradient-90)"/><path d="M373.39,308.81s7.33-3.42,11.36-22.16l-2-1S375,300.93,371,304.42,373.39,308.81,373.39,308.81Z" style="fill-rule:evenodd;fill:url(#linear-gradient-91)"/><path d="M383.2,287.88l1.55-1.23a15.13,15.13,0,0,0,2.85-3.8c.75-1.74-1.43-3.32-2.26-3.69s-1.27.41-1.1,2.17a7.75,7.75,0,0,0-1.61,5.35Z" style="fill-rule:evenodd;fill:url(#linear-gradient-92)"/><path d="M358.13,382.8a16.09,16.09,0,0,1,.55,3.76.51.51,0,0,1-.44.49c-1.46.2-6.44.8-9.18,0a.52.52,0,0,1-.37-.5c0-.86.63-2.87,5.63-3.39Z" style="fill-rule:evenodd;fill:url(#linear-gradient-93)"/><path d="M349.53,349.74c-.61.4,4,33,5.15,33.22,0,0,1.29,1.2,3.27-.17a197.91,197.91,0,0,1-1.22-32.4Z" style="fill-rule:evenodd;fill:url(#linear-gradient-94)"/><path d="M365.81,330s-15.13.69-18.74,2c0,0,.45,12.3,1.93,19.86a.75.75,0,0,0,.57.6,15.16,15.16,0,0,0,7.29-.54.76.76,0,0,0,.54-.78l-.4-4.9a.6.6,0,0,1,.56-.64l.4-.06a.6.6,0,0,1,.64.59l.77,5a.75.75,0,0,0,.51.71,13.25,13.25,0,0,0,8-.09.75.75,0,0,0,.54-.71C368.46,344.9,367.37,337.68,365.81,330Z" style="fill-rule:evenodd;fill:url(#linear-gradient-95)"/><path d="M360.14,331s1.91,5.32,6.53,5.69l-1-6.07A35.45,35.45,0,0,0,360.14,331Z" style="fill-rule:evenodd;fill:url(#linear-gradient-96)"/><path d="M372.9,302a28,28,0,0,1-15.14,3.91c-6.93-.4-11.14-2.17-13.48-4.16a2.47,2.47,0,0,0-2.95-.24,21.54,21.54,0,0,0-3.77,3.14,1.15,1.15,0,0,0-.16,1.38,19.57,19.57,0,0,0,6.45,6.86A4.44,4.44,0,0,1,345,316l-.42,16a.9.9,0,0,0,.73.91c3,.58,14.56,2.58,21.72,1.32V317a3.52,3.52,0,0,1,1.83-3.07,18.92,18.92,0,0,0,6-5.55Z" style="fill-rule:evenodd;fill:url(#linear-gradient-97)"/><path d="M347.53,295.66s.58-1.65-.9-1.94-.07,4.07-.07,4.07Z" style="fill-rule:evenodd;fill:url(#linear-gradient-98)"/><path d="M359.4,300.11l.58,6.44s-3.39,2-6.32.25l.52-5.62Z" style="fill-rule:evenodd;fill:url(#linear-gradient-99)"/><path d="M346.78,295.64a4.77,4.77,0,0,1-1.58-1.58c-.53-1-1.08-2.12-.63-3.12.31-.67,1-1.19,1-1.93,0-.54-.4-1-.53-1.52a2.12,2.12,0,0,1,1-2.19,5.34,5.34,0,0,1,2.45-.69,2.78,2.78,0,0,0,1.15-.27,4.39,4.39,0,0,0,1-1,3.35,3.35,0,0,1,4.83,0c.61.71.94,1.71,1.78,2.14a5.85,5.85,0,0,0,1.5.35,6.34,6.34,0,0,1,3,1.78,8,8,0,0,1,2.62,4.31,15.32,15.32,0,0,1,.18,2.87,8,8,0,0,1-.55,3.59c-.54,1.08-1.54,1.89-2,3a6,6,0,0,1-.44,1.08,1,1,0,0,1-1,.53c-.46-.09-.69-.59-.94-1-1.23-2-5.32-2.89-7.37-3.87A45,45,0,0,1,346.78,295.64Z" style="fill-rule:evenodd;fill:url(#linear-gradient-100)"/><path d="M349.6,290.2s-7.09,10.68.23,14c6.92,3.08,9.83-4,9.83-4s3-3.15,2-5.57S351.33,288.88,349.6,290.2Z" style="fill-rule:evenodd;fill:url(#linear-gradient-101)"/><path d="M360.4,298a1.92,1.92,0,0,1-1.13-.83,13.12,13.12,0,0,1-1-2.42,4.78,4.78,0,0,0-3.12-2.59,15.86,15.86,0,0,0-3.78-.24c-1.72,0-5.61-1.29-2.45-3,2.26-1.22,4.87-.07,7.12.55a12,12,0,0,1,6.06,3.63,3.6,3.6,0,0,1,.75,2.86C362.63,297.17,361.49,298.23,360.4,298Z" style="fill-rule:evenodd;fill:url(#linear-gradient-102)"/><path d="M358.75,301.1l1.23-3.38s2.38-1.1,2.07.75A3.35,3.35,0,0,1,358.75,301.1Z" style="fill-rule:evenodd;fill:url(#linear-gradient-103)"/></g></svg>