<?xml version="1.0" encoding="UTF-8"?>
<svg width="821px" height="600px" viewBox="0 0 821 600" version="1.1" xmlns="http://www.w3.org/2000/svg" xmlns:xlink="http://www.w3.org/1999/xlink">
    <!-- Generator: Sketch 59.1 (86144) - https://sketch.com -->
    <title>team</title>
    <desc>Created with Sketch.</desc>
    <defs>
        <polygon id="path-1" points="0 531 797 531 797 0 0 0"></polygon>
    </defs>
    <g id="team" stroke="none" stroke-width="1" fill="none" fill-rule="evenodd">
        <g id="Group-232" transform="translate(14.000000, 35.000000)">
            <path d="M49.5847431,473 L775.154148,473 C783.79975,446.186451 819.643837,325.03729 775.183794,285.578405 C725.075842,241.105134 659.756043,270.753981 633.808205,230.913515 C607.858989,191.073048 646.335366,95.6409917 564.909513,64.1387459 C483.484349,32.6371902 471.852085,103.053204 440.534873,78.0364708 C409.216972,53.020428 387.686389,-14.9943103 302.737488,2.98834243 C264.005328,11.187179 146.678854,60.3663979 189.099528,154.938687 C236.401451,260.393307 182.835948,260.562362 135.412683,253.15015 C87.9887284,245.737939 -76.6513898,328.198279 42.3552547,465.3242 C44.7917426,468.131898 43.9368346,470.684288 49.5847431,473" id="Fill-1" fill="#F1F0FE"></path>
            <polygon id="Fill-3" fill="#FFFFFF" points="605 474 559.103149 139 492.563194 139 466.312588 287.467138 440.615563 139 374.076297 139 353.988842 376.208842 325.831383 139 259.292117 139 228 474"></polygon>
            <path d="M296,23.440205 L296,101.328841 C296,102.167097 295.988388,102.990149 295.968579,103.790396 C295.791667,111.259368 294.824454,117 293.663934,117 L293.33265,117 C292.256831,117 291.346995,112.057542 291.080601,105.385361 C291.05806,104.835278 291.038934,104.274137 291.026639,103.700558 C291.026639,103.661168 291.023224,103.622468 291.023224,103.579623 C291.007514,102.845717 291,102.093153 291,101.328841 L291,23 C292.684426,23.1084964 294.349727,23.2570742 296,23.440205" id="Fill-5" fill="#302E4C"></path>
            <path d="M293.001026,104 C274.775619,104 260,119.670403 260,139 L326,139 C326,119.670403 311.225748,104 293.001026,104" id="Fill-7" fill="#302E4C"></path>
            <path d="M296,104.317882 C295.028194,104.109401 294.037471,104 293.030633,104 C280.863793,104 271,119.670461 271,139 L276.939436,139 C276.939436,121.27019 285.23797,106.622179 296,104.317882" id="Fill-9" fill="#FFFFFF"></path>
            <path d="M410,23.440205 L410,101.328841 C410,102.167097 409.988388,102.990149 409.969262,103.790396 C409.791667,111.259368 408.824454,117 407.664617,117 L407.33265,117 C406.256831,117 405.346995,112.057542 405.080601,105.385361 C405.05806,104.835278 405.038251,104.274137 405.026639,103.700558 C405.026639,103.661168 405.023224,103.622468 405.023224,103.579623 C405.006831,102.845717 405,102.093153 405,101.328841 L405,23 C406.684426,23.1084964 408.349727,23.2570742 410,23.440205" id="Fill-11" fill="#302E4C"></path>
            <path d="M406,104 C387.774405,104 373,119.670403 373,139 L439,139 C439,119.670403 424.224911,104 406,104" id="Fill-13" fill="#302E4C"></path>
            <path d="M409,104.317882 C408.028222,104.109401 407.037526,104 406.030015,104 C393.863517,104 384,119.670461 384,139 L389.93997,139 C389.93997,121.27019 398.238271,106.622179 409,104.317882" id="Fill-15" fill="#FFFFFF"></path>
            <path d="M529,23.440205 L529,101.328841 C529,102.167097 528.987705,102.990149 528.969262,103.790396 C528.790984,111.259368 527.82377,117 526.663934,117 L526.33265,117 C525.256148,117 524.346995,112.057542 524.080601,105.385361 C524.05806,104.835278 524.037568,104.274137 524.026639,103.700558 C524.026639,103.661168 524.023224,103.622468 524.023224,103.579623 C524.006831,102.845717 524,102.093153 524,101.328841 L524,23 C525.684426,23.1084964 527.349727,23.2570742 529,23.440205" id="Fill-17" fill="#302E4C"></path>
            <path d="M526.000342,104 C507.774252,104 493,119.670403 493,139 L559,139 C559,119.670403 544.225064,104 526.000342,104" id="Fill-19" fill="#302E4C"></path>
            <path d="M529,104.317882 C528.028222,104.109401 527.036825,104 526.030015,104 C513.863517,104 504,119.670461 504,139 L509.93997,139 C509.93997,121.27019 518.237571,106.622179 529,104.317882" id="Fill-21" fill="#FFFFFF"></path>
            <mask id="mask-2" fill="white">
                <use xlink:href="#path-1"></use>
            </mask>
            <g id="Clip-24"></g>
            <polygon id="Fill-23" fill="#302E4C" mask="url(#mask-2)" points="291 25 529 25 529 19 291 19"></polygon>
            <path d="M290.30123,386 L316.847183,464.570348 C316.847183,464.570348 318.828038,474 308.526344,474 L245.924807,474 C245.924807,474 238,473.607327 238,462.606983 C238,451.605952 239.981549,386.393361 239.981549,386.393361 L244.339291,386.393361 L244.339291,460.642931 C244.339291,460.642931 242.259254,469.284486 257.019259,469.284486 C271.282664,469.284486 303.711534,469.628333 305.356698,469.284486 C309.122126,468.500516 312.886167,468.500516 308.92307,458.285518 C304.960666,448.07052 284.75331,386.393361 284.75331,386.393361 L290.30123,386 Z" id="Fill-25" fill="#5B5959" mask="url(#mask-2)"></path>
            <path d="M283.301143,402 L309.847052,480.571723 C309.847052,480.571723 311.828598,490 301.52692,490 L238.9241,490 C238.9241,490 231,489.608702 231,478.606983 C231,467.607327 232.980852,402.393361 232.980852,402.393361 L237.33928,402.393361 L237.33928,476.642931 C237.33928,476.642931 235.259941,485.286549 250.018534,485.286549 C264.282609,485.286549 296.711426,485.629021 298.35728,485.286549 C302.121315,484.501203 305.885349,484.501203 301.922952,474.286205 C297.960555,464.071208 277.753926,402.393361 277.753926,402.393361 L283.301143,402 Z" id="Fill-26" fill="#5B5959" mask="url(#mask-2)"></path>
            <path d="M217.31915,403 L297.461937,403 C297.461937,403 305,402.604191 305,395.079656 L305,360.629001 C305,360.629001 301.032343,350.332415 273.260825,349.144987 C245.488613,347.956173 229.222816,353.896778 229.222816,373.696945 C229.222816,373.696945 213.154255,372.706382 213.154255,382.408908 C213.154255,392.11074 211.765957,403 217.31915,403" id="Fill-27" fill="#D68F54" mask="url(#mask-2)"></path>
            <path d="M428.10378,243.929463 L427.097755,206.095793 C426.380458,197.250227 429.845886,194.042342 429.845886,194.042342 C444.568914,188.506455 452,195.978507 452,195.978507 L452,234.632102 C445.598593,240.619087 436.521411,244.584148 428.10378,243.929463" id="Fill-28" fill="#370900" mask="url(#mask-2)"></path>
            <path d="M467.420277,239.635511 C475.076176,243.409052 470.820528,252.480678 470.820528,252.480678 L460.472505,290.450635 C460.472505,290.450635 450.80646,294.435128 433.841675,292.441494 C431.486067,289.039894 426.644098,274.795782 425.020703,263.919962 C423.684964,254.960751 419.535295,246.135467 424.055888,241.139237 C425.78939,239.224016 438.98988,237.312958 439.056633,237 L454.94443,237 L467.420277,239.635511 Z" id="Fill-29" fill="#FD6062" mask="url(#mask-2)"></path>
            <path d="M432.51342,206.092903 L433.529092,243.761053 C431.714839,244.00648 429.901995,244.06435 428.118755,243.927692 L427.098855,206.092903 C426.372871,197.246379 429.88367,194.038398 429.88367,194.038398 C435.197443,192.065222 439.567439,191.749374 443,192.153771 C440.700818,192.40617 438.133798,192.985573 435.296825,194.038398 C435.296825,194.038398 431.789552,197.246379 432.51342,206.092903" id="Fill-30" fill="#370900" mask="url(#mask-2)"></path>
            <path d="M443.4425,290.5 L443.5575,290.5 L443.4425,290.5 Z" id="Fill-31" fill="#6A3F2C" mask="url(#mask-2)"></path>
            <path d="M426.20902,241.148468 C421.249224,243.658096 420.461096,249.452384 421.27975,254.715361 C422.135174,260.223451 431.950701,271.788351 434.358794,266.764917 C439.093113,256.890743 441.307643,249.401551 439.202036,244.244419 C437.09296,239.085197 434.155518,237.127771 426.20902,241.148468" id="Fill-32" fill="#FD6062" mask="url(#mask-2)"></path>
            <path d="M421.184688,248.516474 L432.402323,248 L438,256.590754 C438,256.590754 429.304729,288.342591 424.575971,294.345488 C419.542045,300.744142 418.660973,293.907205 418,291.215778 C418,291.215778 419.432671,255.710073 421.184688,248.516474" id="Fill-33" fill="#FD6062" mask="url(#mask-2)"></path>
            <path d="M417.908951,342.479859 L417.192761,346.895587 L420,352.754103 C420,352.754103 418.813131,353.726025 417.499299,351.805306 L415,346.975884 L415.350028,342 L417.908951,342.479859 Z" id="Fill-34" fill="#C98168" mask="url(#mask-2)"></path>
            <path d="M416.426346,344.652125 L415.368421,349.345215 L418,355.776845 C418,355.776845 416.661525,356.752964 415.374471,354.622185 L413,349.30868 L413.705535,344 L416.426346,344.652125 Z" id="Fill-35" fill="#C98168" mask="url(#mask-2)"></path>
            <path d="M411.188578,345.058427 L412.072627,339.497935 L413.044584,332.597581 L417.44356,332 L418.95644,339.27532 L419.322253,343.095941 L419.764632,348.314164 L420,349.999773 C420,349.999773 418.622529,350.433872 417.551319,347.752758 L416.429067,342.831587 L414.521308,346.700209 L416.136274,353.492038 C416.136274,353.492038 415.722962,357.036479 414.639701,355.698009 L411,346.167326 L411.188578,345.058427 Z" id="Fill-36" fill="#FD6062" mask="url(#mask-2)"></path>
            <path d="M428,287.480925 C428,287.480925 422.473992,313.8453 417.484576,332.859156 C417.484576,332.859156 413.819122,337.25033 413.221381,333.454769 C412.022465,325.877517 415.994347,284.80864 417.915362,281.66763 C419.834315,278.528007 428,287.480925 428,287.480925" id="Fill-37" fill="#FD6062" mask="url(#mask-2)"></path>
            <path d="M437.023102,498.750539 C431.906175,499.605607 427,497.988164 427,497.988164 L432.309206,494.922545 C432.309206,494.922545 438.072764,488.043038 439.149111,485.6115 C439.83885,484.055181 440.032496,479 440.032496,479 L446.59459,479.380851 L446.60896,482.991216 L448.998411,488.47158 C448.998411,488.47158 449.219428,491.05828 444.448738,491.578844 C444.448738,491.578844 441.091738,495.265782 437.023102,498.750539" id="Fill-38" fill="#FD6062" mask="url(#mask-2)"></path>
            <path d="M432.053515,495.501329 C433.831528,496.34939 436.966482,496.574601 438.591503,494.900297 C445.13914,488.170003 446.454732,483 446.454732,483 C449.772311,486.718799 448.89502,489.826009 448.89502,489.826009 L448.648304,491.109008 L446.760715,501 L446.080522,500.959884 L444.199136,492.786831 L439.604557,500.365186 C428.619468,501.837504 426,498.794338 426,498.794338 L432.053515,495.501329 Z" id="Fill-39" fill="#C93132" mask="url(#mask-2)"></path>
            <path d="M433,406.049598 C433,406.049598 439.743088,476.570726 440.462918,479.862371 C440.462918,479.862371 447.100431,482.13631 447.03736,480.254382 C446.890652,475.713419 453.435616,446.653468 453.864771,439.532286 C454.548952,428.095531 452.703446,420.482781 446.804958,405.110017 C446.804958,405.110017 435.951986,397.522847 433,406.049598" id="Fill-40" fill="#FD6062" mask="url(#mask-2)"></path>
            <path d="M457.762971,333.44071 C457.762971,333.44071 460.329889,375.445224 448.569156,401.631703 C448.569156,401.631703 443.375933,415.416494 432.50391,407.601685 C432.50391,407.601685 418.6807,340.937351 426.282243,318.176192 C426.282243,318.176192 458.637707,310.700947 457.762971,333.44071" id="Fill-41" fill="#FD6062" mask="url(#mask-2)"></path>
            <path d="M440.256079,290.150051 C438.993523,289.921313 433.785826,292.622633 433.785826,292.622633 C433.785826,292.622633 427.28119,313.628523 427.002685,316.822563 C426.721429,320.013838 448.58028,336.550699 473,327.135123 C473,327.135123 461.694077,297.554667 461.002973,290.268912 C460.310493,282.983848 440.256079,290.150051 440.256079,290.150051" id="Fill-42" fill="#E69575" mask="url(#mask-2)"></path>
            <path d="M433.790801,292.32622 C433.790801,292.32622 427.645878,311.04867 427.104994,316.243393 C425.186824,334.635966 449.883778,342.348826 473.95309,333.043263 C473.95309,333.043263 475.514738,307.758086 460.617399,290 C460.617399,290 456.66041,293.636853 433.790801,292.32622" id="Fill-43" fill="#24365F" mask="url(#mask-2)"></path>
            <path d="M457.073807,346.822592 L475,337 C475,337 472.091069,393.611769 469.819491,409.514515 C469.819491,409.514515 459.791462,412.300963 456.684274,410.241263 C447.387142,388.470883 442,341.202316 442,341.202316 L457.073807,346.822592 Z" id="Fill-44" fill="#FD6062" mask="url(#mask-2)"></path>
            <path d="M468.865403,321.244467 C468.865403,321.244467 477.552871,323.723304 475.755026,339.636088 C474.000189,355.176733 445.083087,356.653443 442.384205,340.717662 C439.475221,323.572776 453.550584,314.485332 468.865403,321.244467" id="Fill-45" fill="#F6A382" mask="url(#mask-2)"></path>
            <path d="M455.928511,238 L439.100084,238 C439.865353,235.474755 441.449678,228.943198 439,224.497195 L456,213 C456,213 452.977732,232.29453 455.928511,238" id="Fill-46" fill="#FD6062" mask="url(#mask-2)"></path>
            <path d="M440.309892,230.899889 C440.356187,229.026357 440.048458,226.999077 439,225.153437 L456,214 C456,214 454.768402,221.627468 454.643132,228.585525 C448.503524,230.535931 445.977012,231.291739 440.309892,230.899889" id="Fill-47" fill="#AB2A41" mask="url(#mask-2)"></path>
            <path d="M436.466025,226.660345 L435.416445,224.146667 L432.787244,216.729045 C432.416145,215.547354 432.187885,213.920979 432.542879,212.731705 C432.969993,211.304576 433.240965,208.99704 432.575788,206.465437 C430.798714,199.684162 433.702388,195.952944 433.702388,195.952944 C437.442085,189.448132 447.026941,189 447.026941,189 C458.909809,189.01241 460.461423,200.264666 460.461423,200.264666 C462.753834,207.687804 456.987097,214.232603 456.975193,214.243634 C456.244899,215.070955 456.228794,216.357439 455.908109,217.352293 C455.564317,218.41609 455.014671,219.420596 454.315884,220.295488 C452.747466,222.259686 450.665111,224.170798 448.488931,225.402127 C446.426881,226.571408 442.376301,227.864786 439.461424,227.980611 C438.253602,228.028182 437.064685,228.101952 436.466025,226.660345" id="Fill-48" fill="#FD6062" mask="url(#mask-2)"></path>
            <path d="M455.187881,218.338897 C454.974975,213.082412 454.853513,213.411367 454.853513,213.411367 C454.649682,211.881454 451.728327,215.344318 451.686443,213.342042 C451.502157,204.173439 447.859014,199.986058 446.485943,199.346498 C442.759731,197.616766 438.905078,197.255867 435.897863,197.930089 C431.186698,198.986959 431.689296,205.140594 431.689296,205.140594 C426.462269,182.781843 452.678378,188.71255 452.678378,188.71255 C465.431122,191.306809 464.736559,202.918788 464.736559,202.918788 C466.924958,215.238971 454.759974,223 454.759974,223 L455.187881,218.338897 Z" id="Fill-49" fill="#1E0400" mask="url(#mask-2)"></path>
            <path d="M453.609548,216.608418 C454.096712,216.889426 454.706055,217.036713 455.456907,216.99214 C457.482894,216.883612 459.068113,215.225986 458.997745,213.295749 C458.926604,211.371327 457.233899,209.896517 455.210232,210.005691 C454.249821,210.058662 453.39071,210.45918 452.756623,211.070293 C451.835649,211.963059 451.900604,213.534122 452.19445,214.603892 C452.431073,215.459837 452.884213,216.185936 453.609548,216.608418" id="Fill-50" fill="#F79F7D" mask="url(#mask-2)"></path>
            <path d="M455.031582,211.64479 C455.074484,210.75795 457.00983,211.510694 456.74944,212.021162 C456.601071,212.315273 456.279308,212.541773 456.032623,212.754186 C455.690601,213.044353 455.527931,213.304658 455.502905,213.745825 C455.498734,213.79597 455.495755,213.95035 455.554149,213.983593 C455.806197,214.131775 456.560553,213.232539 456.726797,213.041536 C457.052731,212.666854 457.067032,212.055531 456.875166,211.620563 C456.676745,211.158549 456.33651,210.952333 455.806197,211.00924 C455.382542,211.052624 454.952929,211.101079 455.004172,211.598025 C455.00596,211.608167 455.029199,211.689301 455.031582,211.64479" id="Fill-51" fill="#E98A6F" mask="url(#mask-2)"></path>
            <path d="M455.878005,213.086327 C455.679244,212.88765 455.507818,213.072407 455.323294,213.234386 C455.151869,213.390671 455.062455,213.60137 455.027145,213.837379 C454.947412,214.359381 455.041952,215.045262 455.32899,215.479315 C455.558506,215.828582 455.929832,216.030423 456.321091,215.996256 C456.865551,215.948168 457.002804,215.406551 456.999957,214.894672 C456.999957,214.759267 456.993123,214.434044 456.871246,214.356218 C456.733992,214.271432 456.65312,214.502379 456.572248,214.602983 C456.455497,214.737122 456.278946,214.798497 456.119481,214.821908 C455.811372,214.86873 455.499276,214.710547 455.294819,214.468211 C455.2578,214.42392 455.22249,214.372036 455.203126,214.315723 C455.219642,214.650438 455.237867,214.723202 455.261217,214.538444 C455.280011,214.452393 455.313043,214.372036 455.353479,214.294843 C455.467952,214.057569 455.673548,213.88863 455.803968,213.658949 C455.867185,213.554548 455.975963,213.187564 455.878005,213.086327" id="Fill-52" fill="#E98A6F" mask="url(#mask-2)"></path>
            <path d="M454.001541,217.05129 C454.028326,217.602733 454.499242,218.027829 455.051759,217.998576 C455.602407,217.971813 456.027852,217.501282 455.998575,216.949839 C455.971167,216.398397 455.50212,215.9733 454.94898,216.001308 C454.397709,216.028694 453.971018,216.499847 454.001541,217.05129" id="Fill-53" fill="#FFFFFF" mask="url(#mask-2)"></path>
            <path d="M430.011383,246 C430.011383,246 423.25155,255.084121 422.073275,259.763698 C421.298386,262.83881 426.825189,269.76504 431.287386,270.986881 C433.724336,271.654624 433.782557,246.611929 430.011383,246" id="Fill-54" fill="#4FA5C9" mask="url(#mask-2)"></path>
            <path d="M430.011383,246 C430.011383,246 423.25155,255.084121 422.073275,259.763698 C421.298386,262.83881 426.825189,269.76504 431.287386,270.986881 C433.724336,271.654624 433.782557,246.611929 430.011383,246" id="Fill-55" fill="#24365F" mask="url(#mask-2)"></path>
            <path d="M436.512073,238.633864 L432.673331,239.139723 C432.673331,239.139723 426.52553,251.558249 425,264.632543 C426.631431,275.360994 430.108863,291.528626 434.076347,292.690938 C447.526479,296.624178 461.567027,290.440242 461.567027,290.440242 L468,265.039147 C450.722893,258.389739 459.454543,238.859755 459.454543,238.859755 L455.826219,238 C455.826219,238 443.967372,248.540209 436.512073,238.633864" id="Fill-56" fill="#24365F" mask="url(#mask-2)"></path>
            <path d="M459.865771,499.515203 C454.903331,500.704048 450,499.332304 450,499.332304 L455.021548,495.857217 C455.021548,495.857217 460.261396,488.427627 461.170863,485.861494 C461.755233,484.216786 461.643732,479 461.643732,479 L468.097994,479 L468.327711,482.714795 L470.992974,488.214244 C470.992974,488.214244 471.363747,490.863513 466.718344,491.686559 C466.718344,491.686559 463.646038,495.682632 459.865771,499.515203" id="Fill-57" fill="#FD6062" mask="url(#mask-2)"></path>
            <path d="M455.750623,495.963923 C457.543799,496.68285 460.629037,496.715652 462.129671,494.999658 C468.16471,488.087844 469.165584,483 469.165584,483 C472.628012,486.410803 471.945413,489.473761 471.945413,489.473761 L471.777472,490.731883 L470.49015,500.429881 L469.819064,500.429881 L467.509876,492.618041 L463.433922,500.234431 C452.743261,502.307839 450,499.512771 450,499.512771 L455.750623,495.963923 Z" id="Fill-58" fill="#C93132" mask="url(#mask-2)"></path>
            <path d="M470.126221,403 L456,407.311476 C456,407.311476 461.436942,475.838546 462.065058,479.160617 C462.065058,479.160617 468.550881,481.049229 468.53405,479.160617 C468.498369,474.600055 474.197868,446.581013 474.695379,439.439394 C475.554411,427.164108 478.789917,418.93109 470.126221,403" id="Fill-59" fill="#FD6062" mask="url(#mask-2)"></path>
            <polygon id="Fill-60" fill="#AB2A41" mask="url(#mask-2)" points="432.520195 405.53524 447.896936 408 447.378134 404.891947 448 403.285868 432 402"></polygon>
            <polygon id="Fill-61" fill="#AB2A41" mask="url(#mask-2)" points="454.86571 406.883601 474 411 472.12476 406.443794 470.042168 403.202935 454 403"></polygon>
            <path d="M458.027327,248.512962 C457.685376,254.118341 460.563003,259.623398 466.074204,259.96856 C471.583336,260.316529 485.909423,257.754471 482.474747,253.356458 C475.726733,244.711267 471.639868,240.372886 466.130046,240.025619 C460.620225,239.676949 458.36721,242.906882 458.027327,248.512962" id="Fill-62" fill="#FD6062" mask="url(#mask-2)"></path>
            <path d="M462,255.738778 L465.506609,246.367723 L475.773945,245 C475.773945,245 500.643071,266.715421 503.973763,273.629223 C507.523834,280.996881 500.940405,278.830124 498.209899,278.263486 C498.209899,278.263486 465.300338,261.214454 462,255.738778" id="Fill-63" fill="#FD6062" mask="url(#mask-2)"></path>
            <path d="M504,279.011117 C504,279.011117 491.447077,296.205719 479.753895,306 C479.753895,306 474.71567,305.511409 476.312832,302.835725 C479.02626,298.292779 490.200102,277.014562 492.944285,272.453923 C494.489722,269.891881 504,279.011117 504,279.011117" id="Fill-64" fill="#FD6062" mask="url(#mask-2)"></path>
            <path d="M476.530936,302.051208 L473.757234,301.990696 L467.212229,299 C467.242524,302.711852 466.867014,306.489911 466.867014,306.489911 C463.54449,310.059383 461.542944,312.855019 461.542944,312.855019 C460.240284,314.068098 461.690894,314.740845 461.690894,314.740845 C464.131356,314.008298 468.741745,310.379739 468.741745,310.379739 C466.436551,312.787388 462.04245,316.224447 462.04245,316.224447 C461.149821,317.416169 462.637066,317.773543 462.637066,317.773543 C466.149106,317.685268 470.20715,312.419335 470.20715,312.419335 C468.736109,314.455372 464.551251,317.981418 464.551251,317.981418 C464.370189,319.044287 464.961987,318.981639 464.961987,318.981639 C467.756824,319.342573 471.648601,314.262447 471.648601,314.262447 L470.144448,316.126916 C467.856162,318.491851 469.963386,318.740305 469.963386,318.740305 L471.349884,317.689539 C475.526288,314.417642 477.114984,310.251597 477.114984,310.251597 L480,305.361548 L476.530936,302.051208 Z" id="Fill-65" fill="#FD6062" mask="url(#mask-2)"></path>
            <path d="M458,240.476561 C458,241.300856 465.475976,239.445676 471.914279,243.981712 C478.352582,248.517748 503.065338,270.784745 502.442456,276.351667 C502.097261,279.431887 480.076469,306 480.076469,306 C480.076469,306 503.273429,283.361276 504.93468,276.97006 C506.595931,270.578844 476.067057,244.806006 470.667819,241.300856 C465.26858,237.795705 459.869342,238.002297 459.869342,238.002297 L458,240.476561 Z" id="Fill-66" fill="#AB2A41" mask="url(#mask-2)"></path>
            <path d="M438.044759,198 L447,187.774307 C436.361706,184.000155 430,195.249493 430,195.249493 L432.014449,198 C432.014449,198 435.847116,188.91623 438.044759,198" id="Fill-67" fill="#370900" mask="url(#mask-2)"></path>
            <path d="M427.50317,400.682657 C425.994637,382.79056 420.437499,340.128065 427.50317,314 C427.50317,314 470.597926,316.351368 474.626628,326.04458 C474.626628,326.04458 481.426692,373.779959 479.727362,401.297968 C479.727362,401.297968 447.424311,407.769037 427.50317,400.682657" id="Fill-68" fill="#24365F" mask="url(#mask-2)"></path>
            <path d="M470,231.024818 C470,237.066806 458.027567,242.201951 450.129566,244 C450.475534,236.8887 450.485872,231.532622 450.485872,231.532622 C451.249483,217.907559 450.829083,212.857388 449.575465,203.432077 C448.595451,196.073333 443.186768,193.108082 438,198.697329 C438.2102,198.469598 438.259132,197.687838 438.361819,197.380572 C438.516885,196.909477 438.702963,196.449258 438.917988,196.001275 C440.733287,192.244067 444.423156,189.576565 448.425913,188.437914 C449.860786,188.030039 451.26051,187.909036 452.73949,188.066748 C457.67264,188.596985 463.775327,192.022455 466.252929,196.289507 C468.679531,200.470905 469.223294,205.741329 469.619573,210.457043 C469.842178,213.126585 470.022743,215.853909 469.973811,218.533647 C469.973811,218.535007 469.876637,223.628685 470,231.024818" id="Fill-69" fill="#370900" mask="url(#mask-2)"></path>
            <path d="M367.327945,191 C367.327945,191 377.573813,191.009329 375.791862,180 C375.791862,180 369.620638,185.502665 363.01486,183.225769 C363.01486,183.225769 362.513995,190.614853 367.327945,191" id="Fill-70" fill="#953221" mask="url(#mask-2)"></path>
            <path d="M384.68976,245 L387.859653,245.69234 C387.859653,245.69234 396.527094,283.158689 393.266593,292.052913 C390.004033,300.948516 384.763894,292.141869 383.126093,291.337816 C381.491038,290.532385 367,249.303679 367,249.303679 L384.68976,245 Z" id="Fill-71" fill="#E69376" mask="url(#mask-2)"></path>
            <path d="M395.848627,287.195842 L390.103066,243.937226 C386.682035,232.554931 374.052185,236.758763 374.052185,236.758763 C364.579624,240.237963 366.088007,247.61935 366.088007,247.61935 L379.059129,292.066036 C379.059129,292.066036 381.515876,298.814654 390.516331,297.917946 C390.516331,297.917946 397.068347,296.367217 395.848627,287.195842" id="Fill-72" fill="#001940" mask="url(#mask-2)"></path>
            <path d="M380.260981,478.204711 C380.260981,478.204711 381.954447,484.939709 384.036215,486.765874 C386.116601,488.592745 394.058135,491.278697 394.058135,491.278697 L398.456587,491.925302 C398.456587,491.925302 401.514637,494.165125 393.121927,496.520716 C384.729217,498.87913 370,491.767181 370,491.767181 L373.321985,478 L380.260981,478.204711 Z" id="Fill-73" fill="#2B070C" mask="url(#mask-2)"></path>
            <path d="M336.204048,492.836321 C334.787187,490.566869 331.819375,478.203721 331.819375,478.203721 L325.264824,478 L321.161542,491.611958 C321.161542,491.611958 320.503643,493.890238 321.843221,494.744508 C321.843221,494.744508 330.017419,497.660434 337,494.604619 C337,494.604619 336.926019,493.995493 336.204048,492.836321" id="Fill-74" fill="#2B070C" mask="url(#mask-2)"></path>
            <path d="M378.575055,302 L387.252698,248.758274 C387.252698,248.758274 390.242249,240.755379 384.262461,236.755307 L361.472436,226 L345.398974,226 L318,242.257383 L335.959906,302 L378.575055,302 Z" id="Fill-75" fill="#FD6062" mask="url(#mask-2)"></path>
            <path d="M336.143765,302 C336.143765,302 331.194047,313.440278 330,339.743158 C330,339.743158 367.250274,351.571053 378.933894,339.743158 L379,302 L336.143765,302 Z" id="Fill-76" fill="#00264F" mask="url(#mask-2)"></path>
            <path d="M359.999568,338.884839 C360.061748,347.722544 353.397675,354.938166 345.114893,354.999587 C336.830084,355.062404 330.063278,347.950083 330.000422,339.113076 C329.938918,330.276767 336.602316,323.063937 344.885773,323.000422 C353.169907,322.936907 359.936037,330.051322 359.999568,338.884839" id="Fill-77" fill="#00264F" mask="url(#mask-2)"></path>
            <path d="M329.091408,342.012178 L325,416.158471 C325,416.158471 332.244476,425.556047 345.072381,414.954288 L359,346.751197 C359,346.751197 352.238953,323.829776 329.091408,342.012178" id="Fill-78" fill="#00264F" mask="url(#mask-2)"></path>
            <path d="M328.091704,407.219015 C328.091704,407.219015 321,420.474088 322.152918,442.144457 L321,482.657641 L332.701277,483 L345,414.879472 C345,414.879472 338.485454,392.010845 328.091704,407.219015" id="Fill-79" fill="#00264F" mask="url(#mask-2)"></path>
            <path d="M378.852643,339.734598 C379.748085,348.529709 376.611249,356.053313 368.105943,356.921233 C359.602033,357.79055 351.982406,351.364589 351.086267,342.570875 C350.191522,333.775066 356.358496,325.943535 364.861709,325.075615 C373.36562,324.206298 377.956504,330.940186 378.852643,339.734598" id="Fill-80" fill="#00264F" mask="url(#mask-2)"></path>
            <path d="M355,350.806333 L363.669191,418.839569 C363.669191,418.839569 379.009869,420.871978 381.997764,410.468998 C381.997764,410.468998 382.19109,362.445741 378.982845,339.358845 C378.982845,339.358845 358.200623,329.27481 355,350.806333" id="Fill-81" fill="#00264F" mask="url(#mask-2)"></path>
            <path d="M364.31526,412.303611 C364.31526,412.303611 361.512093,422.513238 364.090362,438.964694 L370.456163,485 L383,484.12649 L381.869906,409.957652 C381.869906,409.957652 374.968133,399.650507 364.31526,412.303611" id="Fill-82" fill="#00264F" mask="url(#mask-2)"></path>
            <path d="M319.81483,249 L316.628898,249.839611 C316.628898,249.839611 311.65686,287.425276 315.388333,296.140712 C319.116314,304.855461 322.624262,296.210909 324.249709,295.333447 C325.876554,294.454608 338,252.475439 338,252.475439 L319.81483,249 Z" id="Fill-83" fill="#F6A382" mask="url(#mask-2)"></path>
            <path d="M328.583554,295.600254 L339,251.179379 C336.849557,239.167559 325.316441,240.012868 325.316441,240.012868 C315.190482,240.925167 314.693101,248.494969 314.693101,248.494969 L314.022959,293.672064 C314.022959,293.672064 313.354908,301.3938 319.225958,300.984267 C319.225958,300.984267 327.626408,299.681773 328.583554,295.600254" id="Fill-84" fill="#001940" mask="url(#mask-2)"></path>
            <path d="M345,214 L345,231 L363,231 C363,231 358.573437,224.260712 360.787058,214 L345,214 Z" id="Fill-85" fill="#FD6062" mask="url(#mask-2)"></path>
            <path d="M354.119241,228.611879 C355.741192,229.66597 359.181572,231.912685 361.148374,230.599358 C361.675474,230.244794 361.920732,229.781186 362,229.26477 C360.844173,226.540045 359.254743,221.104311 360.76626,214 L345,214 L345,215.560219 C346.968835,220.596811 349.49187,225.590883 354.119241,228.611879" id="Fill-86" fill="#AB2A41" mask="url(#mask-2)"></path>
            <path d="M344.427055,214 C344.427055,214 341.423828,212.65801 338.024249,205.006612 C338.024249,205.006612 330.641869,195.957764 335.874906,185.685378 C335.874906,185.685378 338.965251,176.998046 353.946808,179.429376 C353.946808,179.429376 355.294137,202.711535 344.427055,214" id="Fill-87" fill="#F79F7D" mask="url(#mask-2)"></path>
            <path d="M364.489273,219.418045 L365.529107,216.674278 L368.396779,206.455821 C368.757227,205.171534 368.778674,203.451008 368.546908,202.130426 C368.294387,200.694677 368.134572,199.194016 368.504706,197.677999 C370.314557,190.331738 366.582086,186.1599 366.582086,186.1599 C362.469795,179.229636 352.346807,179 352.346807,179 C339.811377,179.32875 338.476128,191.527381 338.476128,191.527381 C336.257401,199.608617 342.512317,206.529109 342.525462,206.545163 C343.025661,207.09587 342.699805,209.765652 342.836789,210.529942 C343.423468,213.789518 346.454415,215.856243 349.148436,217.294784 C352.110198,218.874317 355.696692,220.563434 359.040349,220.950814 C360.30849,221.100182 363.894291,220.99339 364.489273,219.418045" id="Fill-88" fill="#FD6062" mask="url(#mask-2)"></path>
            <path d="M333.010069,301.104305 C333.04773,302.890244 330.364254,321.584779 331.492012,321.822997 C331.49886,321.825074 362.157856,328.970215 378.50932,321.822997 L378.575055,302.56131 L387.252698,248.926359 C387.252698,248.926359 390.242249,240.864358 384.262461,236.834742 L361.472436,226 L363.011035,230.672941 L359.715407,240.150398 L345.398974,226 L318,242.376762 C319.531752,247.508826 321.052547,252.642275 322.584299,257.773647 C325.410884,267.233098 328.157354,276.720942 331.068162,286.154771 C331.068162,286.154771 333.475689,296.385659 333.010069,301.104305" id="Fill-89" fill="#FFFFFF" mask="url(#mask-2)"></path>
            <polygon id="Fill-90" fill="#A4C5C7" mask="url(#mask-2)" points="357 229 356.827586 238 354 234.759163"></polygon>
            <path d="M361,242.998876 C361,243.551433 360.552432,244 359.999157,244 C359.44813,244 359,243.551433 359,242.998876 C359,242.448004 359.44813,242 359.999157,242 C360.552432,242 361,242.448004 361,242.998876" id="Fill-91" fill="#CEE9E5" mask="url(#mask-2)"></path>
            <path d="M361,266.001125 C361,266.552306 360.552432,267 359.999157,267 C359.44813,267 359,266.552306 359,266.001125 C359,265.446569 359.44813,265 359.999157,265 C360.552432,265 361,265.446569 361,266.001125" id="Fill-92" fill="#CEE9E5" mask="url(#mask-2)"></path>
            <path d="M361,287.998033 C361,288.551559 360.552432,289 359.999157,289 C359.44813,289 359,288.551559 359,287.998033 C359,287.446755 359.44813,287 359.999157,287 C360.552432,287 361,287.446755 361,287.998033" id="Fill-93" fill="#CEE9E5" mask="url(#mask-2)"></path>
            <path d="M361,310.000843 C361,310.550997 360.552432,311 359.999157,311 C359.44813,311 359,310.550997 359,310.000843 C359,309.447879 359.44813,309 359.999157,309 C360.552432,309 361,309.447879 361,310.000843" id="Fill-94" fill="#CEE9E5" mask="url(#mask-2)"></path>
            <line x1="357.5" y1="239" x2="357.5" y2="323" id="Stroke-95" stroke="#CEE9E5" stroke-width="0.963" mask="url(#mask-2)"></line>
            <path d="M379.310362,322.750716 C379.310362,322.750716 363.567765,330.169349 331.35439,322.587319 C330.823052,322.460617 331.046737,321.077975 331.046737,321.077975 L331.35439,317.956817 C331.493419,316.95705 332.048846,317.004131 332.048846,317.004131 C332.05504,317.0069 362.87331,324.151359 379.310362,317.004131 C379.310362,317.004131 379.973158,316.887814 380,317.889659 L380,321.779335 C380,321.779335 380,322.556162 379.310362,322.750716" id="Fill-96" fill="#471F08" mask="url(#mask-2)"></path>
            <path d="M362,326.009838 C362,326.555422 361.610142,327 361.129523,327 L354.867039,327 C354.388483,327 354,326.555422 354,326.009838 L354,320.989397 C354,320.444578 354.388483,320 354.867039,320 L361.129523,320 C361.610142,320 362,320.444578 362,320.989397 L362,326.009838 Z" id="Stroke-97" stroke="#BBBDBF" stroke-width="1.576" mask="url(#mask-2)"></path>
            <line x1="354" y1="322.5" x2="357" y2="322.5" id="Stroke-98" stroke="#BBBDBF" stroke-width="1.576" mask="url(#mask-2)"></line>
            <path d="M358,229.879202 C358,229.879202 347.546401,225.930602 345.087107,222 L342,227.724917 L353.016638,238 L358,230.073032" id="Fill-99" fill="#BEE4E5" mask="url(#mask-2)"></path>
            <path d="M366.507762,186.872196 C366.045266,183.599631 355.145473,185.346824 352.292131,185.858248 C350.575788,186.166335 348.561376,186.678443 347.626588,188.330473 C347.28234,188.9398 345.903948,193.205089 347.6007,195.340472 C346.101961,199.930278 345.749316,203.481491 345.749316,203.481491 L344.883098,203.528731 C343.17795,207.830306 342.844197,213 342.844197,213 C342.844197,213 336.485401,210.316907 332.069649,198.958094 C327.59932,184.494451 338.586575,178.121849 338.586575,178.121849 C348.663531,173.842868 358.720196,175.013597 358.720196,175.013597 C358.720196,175.013597 368.856626,175.919372 371.146716,170 C371.146716,170 377.567085,183.586623 366.507762,186.872196" id="Fill-100" fill="#953221" mask="url(#mask-2)"></path>
            <path d="M344.760213,207.384763 C344.309696,207.749486 343.717207,207.97626 342.968689,207.998467 C340.938202,208.059029 339.167061,206.318185 339.011032,204.108316 C338.855003,201.90383 340.372421,200.063394 342.400799,200.001485 C343.361573,199.973222 344.267526,200.350058 344.966846,200.987986 C345.985955,201.920653 346.105437,203.718022 345.936757,204.968981 C345.799704,205.96894 345.436339,206.83768 344.760213,207.384763" id="Fill-101" fill="#FD6062" mask="url(#mask-2)"></path>
            <path d="M342.977543,201.75822 C342.837216,200.571626 340.923156,201.82322 341.244786,202.477369 C341.430579,202.855613 341.784764,203.116305 342.063734,203.372847 C342.447668,203.726198 342.640197,204.051889 342.71429,204.641038 C342.724954,204.709495 342.742355,204.915559 342.688469,204.968803 C342.443739,205.199761 341.569222,204.08024 341.377254,203.8479 C341.001739,203.385985 340.920911,202.561731 341.071342,201.95322 C341.230753,201.308753 341.556873,200.987902 342.112006,201.000349 C342.55151,201.005881 343.001679,201.016253 343,201.690455 C343,201.70705 342.98484,201.819763 342.977543,201.75822" id="Fill-102" fill="#AB2A41" mask="url(#mask-2)"></path>
            <path d="M341.993829,203.104791 C342.17514,202.889565 342.367585,203.049996 342.571692,203.192915 C342.758835,203.324537 342.870697,203.522251 342.927953,203.752165 C343.055719,204.2521 343.020199,204.931674 342.767848,205.385852 C342.56321,205.754166 342.203238,205.991424 341.799264,205.999897 C341.241546,206.00837 341.054934,205.492618 341.009341,204.992118 C340.998208,204.858237 340.975411,204.540764 341.095755,204.452075 C341.222461,204.357737 341.329551,204.571268 341.422327,204.662217 C341.551684,204.781975 341.735646,204.820389 341.901583,204.827732 C342.220203,204.841855 342.522388,204.654873 342.712182,204.393325 C342.744521,204.347003 342.773149,204.291643 342.789584,204.235718 C342.802307,204.564489 342.790644,204.640186 342.750883,204.460548 C342.721194,204.376378 342.683554,204.302376 342.63425,204.234024 C342.496941,204.011454 342.271097,203.86684 342.119474,203.658392 C342.044723,203.560664 341.902643,203.215511 341.993829,203.104791" id="Fill-103" fill="#AB2A41" mask="url(#mask-2)"></path>
            <path d="M340.824392,228 L353,271.261046 L351.193394,349.863836 C351.193394,349.863836 330.300107,351.439393 322.03391,343.871599 L329.837682,295.21408 L318,241.644449 L340.824392,228 Z" id="Fill-104" fill="#001940" mask="url(#mask-2)"></path>
            <path d="M367.934406,229 L381.754125,235.575817 C381.754125,235.575817 389.619937,237.678698 388.012819,245.930054 L383.466248,291.639061 L391,344.305661 C391,344.305661 384.53607,352.162814 371.66753,347.54697 L366,270.695169 L367.934406,229 Z" id="Fill-105" fill="#001940" mask="url(#mask-2)"></path>
            <path d="M367,229.42293 C367,229.42293 365.983561,225.940177 361,223 L361.651274,235 C361.651274,235 364.418246,228.861023 367,229.42293" id="Fill-106" fill="#BEE4E5" mask="url(#mask-2)"></path>
            <path d="M367,235 L366.591934,229.040865 C365.221996,228.686893 363.996441,230.703184 363,232.355532 L367,235 Z" id="Fill-107" fill="#A4C5C7" mask="url(#mask-2)"></path>
            <polygon id="Fill-108" fill="#D73633" mask="url(#mask-2)" points="357 232.745072 356.615875 232 354 236.166667 356.249468 237"></polygon>
            <path d="M362,233.154686 L362.757778,232 C362.757778,232 365.64612,234.411962 362.614276,237 C362.614276,237 362.614276,234.866705 362,233.154686" id="Fill-109" fill="#D73633" mask="url(#mask-2)"></path>
            <path d="M356.723906,232 C356.723906,232 358.774249,233.922545 362.320753,232.345781 C363.095691,233.386584 363.094381,234.71231 362.87035,236.000692 L361.032902,240 L358.46637,240 L356.030195,236.000692 C356.030195,236.000692 355.779307,235.117566 356.723906,232" id="Fill-110" fill="#D73633" mask="url(#mask-2)"></path>
            <polygon id="Fill-111" fill="#A52724" mask="url(#mask-2)" points="359.108879 241 357 298.125035 361.404502 307 365 298.171284 361.721301 241"></polygon>
            <path d="M344,276.597861 L338.357285,271.89064 C338.357285,271.89064 329.86166,270.576367 325.619048,271.140882 C325.619048,271.140882 324.217558,273.20052 334.931574,273.516824 C334.931574,273.516824 327.417893,276.050186 325.003946,277.936296 C325.003946,277.936296 324.617686,280.284415 331.488526,276.873895 L334.616741,276.631541 L327.34716,280.463068 C327.34716,280.463068 327.630093,281.92451 334.249899,280.025221 L340.889121,280.794016 L344,276.597861 Z" id="Fill-112" fill="#FD6062" mask="url(#mask-2)"></path>
            <path d="M379.192222,277.294422 L342.969866,273 C341.158611,275.191381 339.41298,279.174216 340.18943,283.341264 L386.457969,297.888609 C386.457969,297.888609 398.68291,300.038901 395.458295,285.444304 C395.458295,285.444304 390.294626,278.003197 379.192222,277.294422" id="Fill-113" fill="#00143B" mask="url(#mask-2)"></path>
            <path d="M379.662918,277.150702 C379.662918,277.150702 373.191355,280.718378 370.764948,281 L367,274.355553 L372.14401,270.944489 L375.669958,270.114372 C375.669958,270.114372 381.472593,268.583361 383,276.724406 L379.662918,277.150702 Z" id="Fill-114" fill="#FD6062" mask="url(#mask-2)"></path>
            <path d="M315.318502,289.668468 C313.163871,302.984893 322.646698,299.621036 322.646698,299.621036 L371,281.84889 C369.636852,274.197505 366.571641,273 366.571641,273 L325.215106,281.057272 C325.215106,281.057272 317.435022,283.555839 315.318502,289.668468" id="Fill-115" fill="#002952" mask="url(#mask-2)"></path>
            <path d="M766.777786,353.126028 C766.777786,353.126028 762.940382,348.725452 766.541352,345.928844 C766.541352,345.928844 769.172459,344.363502 771.316222,344.491576 C771.316222,344.491576 768.277731,349.500669 769.26138,349.99941 C770.243651,350.497473 772.237143,344.176474 772.237143,344.176474 C772.237143,344.176474 778.223135,343.605904 780.148386,344.516648 C780.148386,344.516648 775.031617,348.632616 776.109702,348.877921 C777.187098,349.123225 782.714008,345.081798 782.714008,345.081798 C782.714008,345.081798 788.284344,346.014904 787.988629,349.355655 C787.690846,352.695728 785.77111,353.728447 784.927391,353.639676 C784.083672,353.550228 779.148882,351.698246 779.04135,352.377916 C778.933817,353.056909 781.904755,355.278881 783.984411,355.382559 C783.984411,355.382559 780.057397,359.640153 777.446969,358.412275 C774.836542,357.182363 774.613894,355.234157 772.987116,354.504341 C771.359648,353.773171 769.970683,353.775882 770.642074,354.520605 C771.314154,355.265328 774.258898,355.989722 775.188781,357.607919 C776.120731,359.226117 776.955489,360.316435 774.254073,359.917307 C771.554034,359.518856 767.163801,357.575393 766.970794,355.351388 L766.777786,353.126028 Z" id="Fill-116" fill="#82B378" mask="url(#mask-2)"></path>
            <path d="M785,349.026309 C785,349.026309 769.758442,348.441625 766.392413,352.784894 C766.392413,352.784894 765.64811,355.006694 763.357571,357.029217 L763,358 C763,358 765.641861,355.224653 766.586821,355.057205 C766.586821,355.057205 765.109323,349.674651 785,349.026309" id="Fill-117" fill="#82B378" mask="url(#mask-2)"></path>
            <path d="M763.210244,357.374072 C763.210244,357.374072 760.208325,359.732545 760,363.947875 L760.544703,364 C760.544703,364 761.503508,359.642511 763.237001,357.937289 C764.96922,356.232744 763.210244,357.374072 763.210244,357.374072" id="Fill-118" fill="#82B378" mask="url(#mask-2)"></path>
            <path d="M753.047524,347.255378 C753.047524,347.255378 759.058982,343.957368 756.254495,339.479977 C756.254495,339.479977 754.009954,336.730083 751.605235,336.023652 C751.605235,336.023652 752.888702,342.699495 751.605235,342.857145 C750.322447,343.01413 750.723573,335.316555 750.723573,335.316555 C750.723573,335.316555 744.392436,332.33185 741.907627,332.567327 C741.907627,332.567327 745.834724,339.087515 744.552615,338.9292 C743.269826,338.772215 738.862872,332.1742 738.862872,332.1742 C738.862872,332.1742 732.370198,330.996149 731.329036,334.767109 C730.286516,338.537404 731.969751,340.421886 732.930824,340.658028 C733.893255,340.893505 740.064213,340.814348 739.904713,341.600602 C739.743855,342.386191 735.57649,343.642069 733.251861,342.935637 C733.251861,342.935637 735.81608,349.140526 739.182551,348.825891 C742.549022,348.512587 743.590184,346.470455 745.675224,346.312805 C747.758228,346.156485 749.280606,346.705932 748.239443,347.255378 C747.197602,347.80549 743.671631,347.435645 741.987717,348.837865 C740.304481,350.240084 738.942961,351.104831 742.068485,351.73277 C745.194009,352.361374 750.803662,351.968247 751.926272,349.612145 L753.047524,347.255378 Z" id="Fill-119" fill="#A8D29F" mask="url(#mask-2)"></path>
            <path d="M734,335 C734,335 750.535307,340.569061 752.424352,346.792816 C752.424352,346.792816 752.346336,349.577347 754,352.771061 L754,354 C754,354 752.267654,349.823551 751.322798,349.25 C751.322798,349.25 755.023538,343.844612 734,335" id="Fill-120" fill="#82B378" mask="url(#mask-2)"></path>
            <path d="M754.677258,352.788243 C754.677258,352.788243 756.861798,356.943084 755.616102,362 L755.053824,361.810428 C755.053824,361.810428 755.599531,356.240595 754.45669,353.439225 C753.313278,350.638571 754.677258,352.788243 754.677258,352.788243" id="Fill-121" fill="#82B378" mask="url(#mask-2)"></path>
            <path d="M763.319991,342.594977 C763.319991,342.594977 755.227881,338.141683 759.003968,332.097684 C759.003968,332.097684 762.02456,328.386266 765.262097,327.431161 C765.262097,327.431161 763.536243,336.445385 765.262097,336.656571 C766.987952,336.8698 766.448016,326.477419 766.448016,326.477419 C766.448016,326.477419 774.971936,322.44786 778.316213,322.766001 C778.316213,322.766001 773.02983,331.567676 774.755684,331.354447 C776.481539,331.143261 782.415291,322.235311 782.415291,322.235311 C782.415291,322.235311 791.154076,320.644606 792.557633,325.734863 C793.959803,330.82512 791.694706,333.370249 790.399275,333.68839 C789.103844,334.006531 780.797562,333.899575 781.01312,334.960954 C781.229372,336.02097 786.83944,337.717949 789.967465,336.762845 C789.967465,336.762845 786.515062,345.140105 781.984174,344.71569 C777.452592,344.291956 776.050422,341.534961 773.244695,341.323094 C770.439661,341.111227 768.390122,341.853102 769.792986,342.594977 C771.195156,343.338214 775.942989,342.838181 778.208087,344.73204 C780.473184,346.624537 782.307858,347.790827 778.099961,348.638976 C773.892064,349.487806 766.33989,348.957798 764.830287,345.777069 L763.319991,342.594977 Z" id="Fill-122" fill="#A8D29F" mask="url(#mask-2)"></path>
            <path d="M788,327 C788,327 765.677214,334.328099 763.126565,342.517432 C763.126565,342.517432 763.232415,346.181828 761,350.384149 L761,352 C761,352 763.339631,346.505137 764.614614,345.751212 C764.614614,345.751212 759.617801,338.639113 788,327" id="Fill-123" fill="#82B378" mask="url(#mask-2)"></path>
            <path d="M760.984345,350.025333 C760.984345,350.025333 757.706921,355.425714 759.576112,362 L760.419361,361.753791 C760.419361,361.753791 759.600818,354.512835 761.315273,350.871193 C763.029727,347.229551 760.984345,350.025333 760.984345,350.025333" id="Fill-124" fill="#82B378" mask="url(#mask-2)"></path>
            <path d="M763.00035,376 C771.837346,376 779,368.836876 779,360 L747,360 C747,368.836876 754.164054,376 763.00035,376" id="Fill-125" fill="#F1A34F" mask="url(#mask-2)"></path>
            <path d="M767,375.878247 C766.348141,375.959416 765.684378,376 765.010114,376 C756.167652,376 749,368.836176 749,360 L752.977672,360 C752.977672,368.163737 759.095768,374.898627 767,375.878247" id="Fill-126" fill="#FFB973" mask="url(#mask-2)"></path>
            <polygon id="Fill-127" fill="#D86713" mask="url(#mask-2)" points="746 360.85 779 360.85 779 360.15 746 360.15"></polygon>
            <path d="M557.69878,415 L531.152832,493.570422 C531.152832,493.570422 529.171977,503 539.472976,503 L602.074501,503 C602.074501,503 610,502.60733 610,491.606385 C610,480.606127 608.018452,415.393358 608.018452,415.393358 L603.66071,415.393358 L603.66071,489.643035 C603.66071,489.643035 605.740746,498.283835 590.980744,498.283835 C576.717343,498.283835 544.287784,498.627679 542.642621,498.283835 C538.877194,497.499871 535.113847,497.499871 539.07625,487.284953 C543.038653,477.070722 563.246005,415.393358 563.246005,415.393358 L557.69878,415 Z" id="Fill-128" fill="#5B5959" mask="url(#mask-2)"></path>
            <path d="M565.698475,431 L539.153065,509.571109 C539.153065,509.571109 537.170811,519 547.473257,519 L610.075842,519 C610.075842,519 618,518.608018 618,507.606385 C618,496.607502 616.019827,431.393358 616.019827,431.393358 L611.661367,431.393358 L611.661367,505.643035 C611.661367,505.643035 613.740722,514.285898 598.981327,514.285898 C584.717148,514.285898 552.288094,514.629055 550.642921,514.285898 C546.878165,513.500559 543.114103,513.500559 547.076529,503.286328 C551.038955,493.07141 571.246426,431.393358 571.246426,431.393358 L565.698475,431 Z" id="Fill-129" fill="#5B5959" mask="url(#mask-2)"></path>
            <path d="M630.68085,431 L550.538063,431 C550.538063,431 543,430.604883 543,423.080326 L543,388.62888 C543,388.62888 546.968352,378.332265 574.739175,377.144834 C602.511387,375.956709 618.777879,381.897331 618.777879,401.697555 C618.777879,401.697555 634.845745,400.706989 634.845745,410.408849 C634.845745,420.110709 636.234043,431 630.68085,431" id="Fill-130" fill="#D68F54" mask="url(#mask-2)"></path>
            <polygon id="Fill-131" fill="#7A7A8C" mask="url(#mask-2)" points="60.6145634 384 37 521 42.7998612 521 66 384"></polygon>
            <polygon id="Fill-132" fill="#7A7A8C" mask="url(#mask-2)" points="211.385437 384 235 521 229.200139 521 206 384"></polygon>
            <polygon id="Fill-133" fill="#7A7A8C" mask="url(#mask-2)" points="60 410 213 410 213 406 60 406"></polygon>
            <polygon id="Fill-134" fill="#7A7A8C" mask="url(#mask-2)" points="47 493 227 493 227 489 47 489"></polygon>
            <path d="M231.855703,385 L42.1436101,385 C40.4148649,385 39,382.551054 39,379.556519 L39,379.443481 C39,376.450252 40.4148649,374 42.1436101,374 L231.855703,374 C233.585135,374 235,376.450252 235,379.443481 L235,379.556519 C235,382.551054 233.585135,385 231.855703,385" id="Fill-135" fill="#E0B594" mask="url(#mask-2)"></path>
            <path d="M110,367.078418 C110,368.693068 111.213537,370 112.708075,370 L172.289859,370 C173.786463,370 175,368.693068 175,367.078418 L175,325.923675 C175,324.309025 173.786463,323 172.289859,323 L112.708075,323 C111.213537,323 110,324.309025 110,325.923675 L110,367.078418 Z" id="Fill-136" fill="#9292A8" mask="url(#mask-2)"></path>
            <path d="M140,347.5 C140,345.566561 141.567213,344 143.5,344 C145.432787,344 147,345.566561 147,347.5 C147,349.432787 145.432787,351 143.5,351 C141.567213,351 140,349.432787 140,347.5" id="Fill-137" fill="#FFFFFF" mask="url(#mask-2)"></path>
            <path d="M92,372.5 C92,373.880967 92.8984893,375 94.0079044,375 L172.992096,375 C174.10288,375 175,373.880967 175,372.5 C175,371.119033 174.10288,370 172.992096,370 L94.0079044,370 C92.8984893,370 92,371.119033 92,372.5" id="Fill-138" fill="#7A7A8C" mask="url(#mask-2)"></path>
            <path d="M111.716595,323 C110.216974,323 109,324.301693 109,325.906606 L109,366.831529 C109,367.247849 109.085002,367.641965 109.232199,368 L171,323 L111.716595,323 Z" id="Fill-139" fill="#FFFFFF" mask="url(#mask-2)"></path>
            <polygon id="Fill-140" fill="#7A7A8C" mask="url(#mask-2)" points="612.614563 384 589 521 594.799861 521 618 384"></polygon>
            <polygon id="Fill-141" fill="#7A7A8C" mask="url(#mask-2)" points="762.385308 384 786 521 780.199584 521 757 384"></polygon>
            <polygon id="Fill-142" fill="#7A7A8C" mask="url(#mask-2)" points="610 410 763 410 763 406 610 406"></polygon>
            <polygon id="Fill-143" fill="#7A7A8C" mask="url(#mask-2)" points="597 493 777 493 777 489 597 489"></polygon>
            <path d="M781.857055,385 L592.143632,385 C590.414875,385 589,382.551054 589,379.556519 L589,379.443481 C589,376.450252 590.414875,374 592.143632,374 L781.857055,374 C783.585812,374 785,376.450252 785,379.443481 L785,379.556519 C785,382.551054 783.585812,385 781.857055,385" id="Fill-144" fill="#E0B594" mask="url(#mask-2)"></path>
            <path d="M661,367.078418 C661,368.693068 662.213524,370 663.708046,370 L723.289887,370 C724.785787,370 726,368.693068 726,367.078418 L726,325.923675 C726,324.309025 724.785787,323 723.289887,323 L663.708046,323 C662.213524,323 661,324.309025 661,325.923675 L661,367.078418 Z" id="Fill-145" fill="#9292A8" mask="url(#mask-2)"></path>
            <path d="M691,347.5 C691,345.566561 692.567067,344 694.500326,344 C696.432933,344 698,345.566561 698,347.5 C698,349.432787 696.432933,351 694.500326,351 C692.567067,351 691,349.432787 691,347.5" id="Fill-146" fill="#FFFFFF" mask="url(#mask-2)"></path>
            <path d="M643,372.5 C643,373.880967 643.898489,375 645.007904,375 L723.992096,375 C725.103565,375 726,373.880967 726,372.5 C726,371.119033 725.103565,370 723.992096,370 L645.007904,370 C643.898489,370 643,371.119033 643,372.5" id="Fill-147" fill="#7A7A8C" mask="url(#mask-2)"></path>
            <path d="M662.717286,323 C661.217665,323 660,324.301693 660,325.906606 L660,366.831529 C660,367.247849 660.085002,367.641965 660.23289,368 L722,323 L662.717286,323 Z" id="Fill-148" fill="#FFFFFF" mask="url(#mask-2)"></path>
            <path d="M288.38158,216.230789 C289.592661,219.023361 288.2813,222.749987 289.549182,225.232121 C290.835999,227.745778 294.145257,227.817048 295.414542,230.140879 C299.725203,238.03409 295.038665,239.778848 295.673308,245.819711 C296.386492,252.568482 303.624222,255.9134 297.662088,263.08911 C292.752549,268.998396 282.581438,268.248 280.158576,260.586417 C280.319866,260.360956 280.324775,260.364382 280.171199,260.596011 C268.504995,268.398764 258.935567,248.235371 273.025334,243.933098 C267.770774,240.435359 265.345808,232.803244 271.153664,228.262489 C265.479749,224.577665 265.692933,217.083295 271.183117,213.514971 C272.067409,212.938639 268.236412,205.782118 275.632628,205.026924 C280.965729,204.482801 286.683824,212.321875 288.38158,216.230789" id="Fill-149" fill="#F7CC7F" mask="url(#mask-2)"></path>
            <path d="M287.343787,254.010957 C292.961589,253.752023 297.725925,258.113951 297.983679,263.760904 C298.240747,269.403037 295.439729,284.025893 291.091502,280.441455 C282.547232,273.393781 278.27304,269.139972 278.011859,263.495084 C277.754105,257.851574 281.724613,254.269201 287.343787,254.010957" id="Fill-150" fill="#E69376" mask="url(#mask-2)"></path>
            <path d="M295.097248,259 L285.54971,262.403287 L284,272.805862 C284,272.805862 305.589879,298.407051 312.537227,301.901912 C319.940571,305.626392 317.8538,298.907977 317.323494,296.127943 C317.323494,296.127943 300.589463,262.442923 295.097248,259" id="Fill-151" fill="#E69376" mask="url(#mask-2)"></path>
            <path d="M317.853303,304 C317.853303,304 336.125691,294.444797 347.826888,283.899729 C347.826888,283.899729 348.887094,280.271851 345.760008,281.131876 C342.767099,281.957694 313.13417,290.258462 311.269598,292.758256 C309.40155,295.258051 317.853303,304 317.853303,304" id="Fill-152" fill="#E69376" mask="url(#mask-2)"></path>
            <path d="M360.47309,281.314374 L357.566811,282.648194 C357.566811,282.648194 363.488355,281.354361 364.29613,278.911736 C364.29613,278.911736 364.588895,278.443408 363.605177,278.193316 C363.605177,278.193316 358.90028,280.318753 356.563859,280.762682 C356.563859,280.762682 361.710396,279.561702 364.799031,277.650435 C364.799031,277.650435 365.642422,276.225119 363.873722,276.178354 C364.703579,275.285752 363.464136,275.070226 363.464136,275.070226 C363.464136,275.070226 362.261734,275.033627 359.729425,275.458579 C359.729425,275.458579 355.825892,276.08889 351.152338,276.32136 C351.152338,276.32136 353.150405,272.960377 351.197214,272 L347.811541,276.623638 L345,281.273031 L345.912486,284.259215 L351.868223,285 C351.868223,285 357.009061,284.536416 359.46444,283.426933 C359.46444,283.426933 366.25502,279.792138 360.47309,281.314374" id="Fill-153" fill="#FD6062" mask="url(#mask-2)"></path>
            <path d="M290.052528,254.21821 C290.052528,254.21821 297.952243,255.4863 299.12196,263.185318 C299.12196,263.185318 322.581657,295.110653 318.529621,304.34989 C316.7489,305.086846 307.947127,310.428571 279.642051,271.347092 C279.642051,271.347092 271.895775,251.729687 290.052528,254.21821" id="Fill-154" fill="#4C9EBF" mask="url(#mask-2)"></path>
            <path d="M311.165154,290.283436 C311.165154,290.283436 322.963062,284.96031 344.524947,280 C344.524947,280 348.305393,283.655002 347.980157,286.132059 C347.980157,286.132059 322.289211,304.247347 318.46682,303.997438 C318.46682,303.997438 309.69987,298.01615 311.165154,290.283436" id="Fill-155" fill="#4C9EBF" mask="url(#mask-2)"></path>
            <path d="M316.358293,303.189648 C306.961512,301.72348 294.223233,281 294.223233,281 L291,284.769946 C310.672498,307.98942 317.379286,303.977451 318.919524,303.341176 C318.948915,303.273129 318.972708,303.199469 319,303.127915 C318.043387,303.278039 317.151854,303.313817 316.358293,303.189648" id="Fill-156" fill="#3C8AA5" mask="url(#mask-2)"></path>
            <path d="M273.578519,517.204112 C278.569058,519.376411 284,518.969838 284,518.969838 L279.392971,514.489946 C279.392971,514.489946 275.326788,506.003001 274.868122,503.251561 C274.573817,501.485834 275.706083,496.276321 275.706083,496.276321 L268.912488,495 L267.948798,498.681243 L264.069453,503.671939 C264.069453,503.671939 263.164062,506.254952 267.891201,507.997209 C267.891201,507.997209 270.346083,512.613085 273.578519,517.204112" id="Fill-157" fill="#FD6062" mask="url(#mask-2)"></path>
            <path d="M279.838531,513.678021 C277.877173,514.054534 274.733804,513.48908 273.541539,511.46686 C268.736246,503.324585 268.700013,498 268.700013,498 C264.523667,500.766347 264.628264,503.986564 264.628264,503.986564 L264.556482,505.287247 L264,515.316881 L264.680904,515.448319 L268.532522,508.020735 L271.207598,516.490234 C281.673416,520.65995 285,518.37554 285,518.37554 L279.838531,513.678021 Z" id="Fill-158" fill="#231F20" mask="url(#mask-2)"></path>
            <path d="M303,421.753062 C303,421.753062 277.8533,496.906126 276.330309,500 C276.330309,500 268.497685,498.882325 269.025529,497.026694 C270.295482,492.541443 272.252447,459.335484 273.591781,452.134692 C275.748729,440.573375 277.719979,433.402379 287.338835,419.596012 C287.338835,419.596012 302.203474,412.509552 303,421.753062" id="Fill-159" fill="#000714" mask="url(#mask-2)"></path>
            <path d="M289.1937,334 C289.1937,334 293.504044,348.486978 295.477414,357.671108 C298.969647,373.914629 301,415.891016 301,415.891016 C301,415.891016 287.719608,423.546996 285.791689,420.114886 C276.48585,403.550231 275.50968,408.15683 262,351.725301 L289.1937,334 Z" id="Fill-160" fill="#F6A382" mask="url(#mask-2)"></path>
            <path d="M262.605272,352.612695 C262.605272,352.612695 268.59387,395.305359 285.70206,419.25221 C285.70206,419.25221 290.97506,432.354827 303,422.043802 C303,422.043802 303.255061,352.342986 291.005689,331.007691 C291.005689,331.007691 257.096292,329.950928 262.605272,352.612695" id="Fill-161" fill="#000714" mask="url(#mask-2)"></path>
            <path d="M277.91095,305.94721 C279.20117,305.688737 284.593383,308.353422 284.593383,308.353422 C284.593383,308.353422 291.651729,329.701225 291.995972,332.960743 C292.342968,336.216124 270.221952,353.520031 245,344.34803 C245,344.34803 256.054312,313.909558 256.629885,306.45106 C257.205458,298.991873 277.91095,305.94721 277.91095,305.94721" id="Fill-162" fill="#E69575" mask="url(#mask-2)"></path>
            <path d="M284.400654,307.883642 C284.400654,307.883642 291.185456,326.939141 291.849872,332.248828 C294.203388,351.044303 268.480997,359.399212 243.098782,350.318827 C243.098782,350.318827 240.989832,324.456965 256.261008,306 C256.261008,306 260.475442,309.651263 284.400654,307.883642" id="Fill-163" fill="#08101B" mask="url(#mask-2)"></path>
            <path d="M261.611094,364.533622 L243,355 C243,355 247.037364,411.760878 249.668479,427.675953 C249.668479,427.675953 260.027663,430.291728 263.18332,428.170036 C272.338648,406.154672 277,358.621002 277,358.621002 L261.611094,364.533622 Z" id="Fill-164" fill="#08101B" mask="url(#mask-2)"></path>
            <path d="M249.87698,337.499447 C249.87698,337.499447 241.238917,340.211293 243.325034,356.574866 C245.361645,372.553735 274.284683,373.545275 276.692586,357.076592 C279.285449,339.358498 265.055301,330.254544 249.87698,337.499447" id="Fill-165" fill="#08101B" mask="url(#mask-2)"></path>
            <path d="M260.527809,253 L278,252.688569 C277.159646,250.177276 275.396144,243.674196 277.863391,239.18412 L260,228 C260,228 263.489057,247.240246 260.527809,253" id="Fill-166" fill="#FD6062" mask="url(#mask-2)"></path>
            <path d="M276.736086,244.845974 C276.649878,242.948623 276.93631,240.889065 278,238.997772 L260,228 C260,228 261.435634,235.710555 261.696342,242.760167 C268.154262,244.625211 270.812792,245.345384 276.736086,244.845974" id="Fill-167" fill="#AB2A41" mask="url(#mask-2)"></path>
            <path d="M248.627886,254.199101 C240.735808,258.177328 245.328871,267.316927 245.328871,267.316927 L256.79302,305.717834 C256.79302,305.717834 266.919127,309.588002 284.520395,307.248557 C286.908061,303.747992 291.677807,289.182724 293.165297,278.098749 C294.386715,268.970163 298.53772,259.922792 293.746326,254.92936 C291.908961,253.015956 278.147233,251.316606 278.071113,251 L261.550195,251.293205 L248.627886,254.199101 Z" id="Fill-168" fill="#FD6062" mask="url(#mask-2)"></path>
            <path d="M280.977064,240.576728 L281.979789,237.970221 L284.473606,230.285768 C284.824492,229.063903 285.0249,227.385569 284.645287,226.167167 C284.192487,224.704946 283.880589,222.334638 284.49823,219.716355 C286.154847,212.702405 283.178818,208.914899 283.178818,208.914899 C279.320447,202.28815 269.715899,202 269.715899,202 C257.821361,202.229966 256.475958,213.84115 256.475958,213.84115 C254.315927,221.52491 260.207793,228.157201 260.218736,228.168976 C260.96565,229.007797 261.004638,230.330099 261.344579,231.349013 C261.70846,232.437886 262.27617,233.462341 262.990936,234.348955 C264.599674,236.343145 266.715931,238.271531 268.918369,239.500323 C271.003846,240.664697 275.079042,241.926045 277.999667,241.991155 C279.211693,242.018862 280.402514,242.071505 280.977064,240.576728" id="Fill-169" fill="#FD6062" mask="url(#mask-2)"></path>
            <path d="M261.078855,232.101421 C261.19436,226.568449 261.320799,226.911119 261.320799,226.911119 C261.500549,225.298266 264.491359,228.886881 264.496827,226.779913 C264.511863,217.131409 268.089079,212.656457 269.456678,211.960648 C273.161018,210.070728 277.022553,209.62058 280.049586,210.275213 C284.79825,211.300432 284.405261,217.783948 284.405261,217.783948 C289.236623,194.16064 263.045163,200.884933 263.045163,200.884933 C250.300046,203.848925 251.212462,216.053149 251.212462,216.053149 C249.244788,229.057868 261.592132,237 261.592132,237 L261.078855,232.101421 Z" id="Fill-170" fill="#F7CC7F" mask="url(#mask-2)"></path>
            <path d="M262.461412,230.583509 C261.980531,230.87236 261.373579,231.027506 260.624703,230.995972 C258.596246,230.916507 256.972423,229.282421 257.000355,227.351916 C257.029042,225.423304 258.691365,223.923552 260.720577,224.003018 C261.683094,224.040858 262.549737,224.429986 263.19519,225.031022 C264.138079,225.908926 264.105618,227.482467 263.833848,228.557142 C263.616432,229.418017 263.179337,230.149603 262.461412,230.583509" id="Fill-171" fill="#F79F7D" mask="url(#mask-2)"></path>
            <path d="M260.971089,225.839112 C260.910186,224.655714 258.976506,225.704685 259.248228,226.381228 C259.404,226.770552 259.73077,227.065851 259.98551,227.34352 C260.333947,227.724763 260.502017,228.068544 260.534811,228.656938 C260.541252,228.724518 260.54828,228.930199 260.490304,228.976477 C260.238493,229.180689 259.460219,227.995087 259.291563,227.743128 C258.956009,227.250963 258.929657,226.434852 259.112953,225.849396 C259.305618,225.226478 259.642929,224.944401 260.177589,225.009044 C260.605669,225.056791 261.041362,225.111884 260.996856,225.776673 C260.995685,225.791365 260.974603,225.898613 260.971089,225.839112" id="Fill-172" fill="#E98A6F" mask="url(#mask-2)"></path>
            <path d="M261.097407,227.089869 C261.294598,226.887436 261.470562,227.068333 261.657698,227.22708 C261.833103,227.378442 261.925274,227.586412 261.966612,227.82084 C262.054314,228.338919 261.971639,229.023127 261.690097,229.463064 C261.463858,229.815013 261.094614,230.024213 260.70079,229.997755 C260.153348,229.960222 260.006432,229.423069 260.000287,228.913605 C259.998611,228.77824 260.000287,228.455209 260.121507,228.375221 C260.256692,228.287234 260.34216,228.514893 260.425952,228.614571 C260.544378,228.744398 260.723135,228.802236 260.885133,228.823772 C261.195165,228.864381 261.505196,228.700097 261.707973,228.452748 C261.743724,228.409062 261.7778,228.357377 261.796793,228.302001 C261.785621,228.635491 261.768303,228.706865 261.74149,228.524738 C261.720821,228.437981 261.687304,228.358608 261.644291,228.282927 C261.525306,228.05096 261.316943,227.8836 261.181199,227.659017 C261.116958,227.554417 261.001325,227.192008 261.097407,227.089869" id="Fill-173" fill="#E98A6F" mask="url(#mask-2)"></path>
            <path d="M261.999447,231.032437 C261.979414,231.584516 261.518069,232.019377 260.966276,231.999334 C260.414483,231.982328 259.983489,231.520137 260.000486,230.968666 C260.019911,230.415979 260.479435,229.982333 261.032442,230.000554 C261.584236,230.019382 262.017658,230.48218 261.999447,231.032437" id="Fill-174" fill="#FFFFFF" mask="url(#mask-2)"></path>
            <path d="M283,252 L290.359633,253.21285 C290.359633,253.21285 295.726494,254.314379 295.986917,258.994674 C295.986917,258.994674 296.440644,267.864628 292.004057,284 C292.004057,284 283.767845,259.517609 283,252" id="Fill-175" fill="#4FA5C9" mask="url(#mask-2)"></path>
            <path d="M281.161083,252.294183 L284.514051,252.751497 C284.514051,252.751497 291.228134,265.243682 293,278.573367 C291.554673,289.565289 288.563546,306.222446 284.596874,307.481084 C271.151737,311.743662 256.928608,305.681177 256.928608,305.681177 L250,279.847021 C267.241411,272.737492 258.109173,252.945344 258.109173,252.945344 L261.741159,252 L277.36413,267.320025 L281.161083,252.294183" id="Fill-176" fill="#4FA5C9" mask="url(#mask-2)"></path>
            <path d="M287.726499,261 C287.726499,261 294.650962,270.31612 295.914442,275.155211 C296.745945,278.336724 291.351313,285.633204 286.913248,286.984631 C284.489044,287.721711 283.967833,261.705033 287.726499,261" id="Fill-177" fill="#4FA5C9" mask="url(#mask-2)"></path>
            <polygon id="Fill-178" fill="#4691B0" mask="url(#mask-2)" points="274 256 273.96668 265 271 261.819939"></polygon>
            <path d="M273.997243,255.724489 C273.997243,255.724489 264.05226,251.918907 261.530347,248 L257,252.77462 L269.187067,264 L274,255.919925" id="Fill-179" fill="#79CFE1" mask="url(#mask-2)"></path>
            <path d="M283,255.860564 C283,255.860564 281.935865,252.102401 277,249 L277.877105,262 C277.877105,262 280.460408,255.296875 283,255.860564" id="Fill-180" fill="#79CFE1" mask="url(#mask-2)"></path>
            <path d="M284,262 L283.495765,256.035042 C282.136156,255.70674 280.958958,257.750818 280,259.424254 L284,262 Z" id="Fill-181" fill="#4691B0" mask="url(#mask-2)"></path>
            <path d="M261.760138,520.590308 C266.934522,521.692147 272,520.222575 272,520.222575 L266.725559,516.823258 C266.725559,516.823258 261.149585,509.450932 260.158542,506.888359 C259.522125,505.246138 259.542544,500 259.542544,500 L252.84348,500.119632 L252.672634,503.857454 L250.005124,509.436658 C250.005124,509.436658 249.666155,512.107988 254.50225,512.847531 C254.50225,512.847531 257.764658,516.807624 261.760138,520.590308" id="Fill-182" fill="#FD6062" mask="url(#mask-2)"></path>
            <path d="M266.974657,516.885082 C265.129451,517.645015 261.930136,517.734856 260.345204,516.0245 C253.960957,509.135119 252.83356,504 252.83356,504 C249.305477,507.517982 250.069861,510.608375 250.069861,510.608375 L250.266436,511.879658 L251.78219,521.677049 L252.473971,521.66489 L254.726026,513.709576 L259.08904,521.349434 C270.207534,523.252981 273,520.373342 273,520.373342 L266.974657,516.885082 Z" id="Fill-183" fill="#231F20" mask="url(#mask-2)"></path>
            <path d="M248.594255,422 L263,426.116361 C263,426.116361 259.307774,497.234099 258.731384,500.622626 C258.731384,500.622626 251.074397,501.834535 251.057738,499.914761 C251.010427,495.276453 245.237868,466.391692 244.605505,459.139516 C243.518694,446.672686 240.089675,438.361466 248.594255,422" id="Fill-184" fill="#08101B" mask="url(#mask-2)"></path>
            <path d="M252.310336,254.000506 C246.673396,253.94505 242.056356,258.451427 242.000688,264.070362 C241.945019,269.684506 245.276875,284.113538 249.503549,280.39588 C257.81051,273.086539 261.943029,268.706823 261.999385,263.089257 C262.057802,257.47169 257.949338,254.055963 252.310336,254.000506" id="Fill-185" fill="#E69376" mask="url(#mask-2)"></path>
            <path d="M245.068905,260 L255.021924,263.072853 L257,273.472434 C257,273.472434 235.706802,299.999339 228.681223,303.767194 C221.196274,307.780464 223.09918,300.951443 223.542542,298.137754 C223.542542,298.137754 239.539063,263.662676 245.068905,260" id="Fill-186" fill="#E69376" mask="url(#mask-2)"></path>
            <path d="M224.583673,305 C224.583673,305 206.167428,296.08989 194.21731,285.948193 C194.21731,285.948193 193.040399,282.3528 196.164374,283.102948 C199.154829,283.820207 228.764115,291.062777 230.69948,293.500059 C232.635533,295.936641 224.583673,305 224.583673,305" id="Fill-187" fill="#E69376" mask="url(#mask-2)"></path>
            <path d="M181.654779,283.615112 L184.58596,284.847211 C184.58596,284.847211 178.664918,283.757278 177.771283,281.345883 C177.771283,281.345883 177.463035,280.889601 178.42949,280.606624 C178.42949,280.606624 183.176222,282.567151 185.510703,282.930011 C185.510703,282.930011 180.361694,281.907775 177.226193,280.104984 C177.226193,280.104984 176.336093,278.711087 178.087307,278.604124 C177.230435,277.741655 178.453528,277.483727 178.453528,277.483727 C178.453528,277.483727 179.645513,277.405874 182.173003,277.744363 C182.173003,277.744363 186.068519,278.239233 190.71203,278.312347 C190.71203,278.312347 188.604492,275.024944 190.504175,274 L194.036297,278.499193 L197,283.045097 L196.206757,286.056293 L190.327427,287 C190.327427,287 185.208819,286.712285 182.733646,285.688694 C182.733646,285.688694 175.863823,282.292298 181.654779,283.615112" id="Fill-188" fill="#FD6062" mask="url(#mask-2)"></path>
            <path d="M261.162788,271.208447 C234.350724,311.117919 225.387981,306.11909 223.587473,305.449874 C219.21932,296.399298 240.643583,262.961893 240.643583,262.961893 C244.051099,255.229802 250.177218,254.536514 250.177218,254.536514 L257.221432,253 L261.862681,258.713438 C261.862681,258.713438 264.838597,264.775584 261.162788,271.208447" id="Fill-189" fill="#4FA5C9" mask="url(#mask-2)"></path>
            <path d="M231.760381,291.056038 C231.760381,291.056038 219.525758,286.172523 197.336722,282 C197.336722,282 193.611279,285.780276 194.033332,288.238864 C194.033332,288.238864 220.919727,305.380969 224.810901,304.99353 C224.810901,304.99353 233.54129,298.71551 231.760381,291.056038" id="Fill-190" fill="#4FA5C9" mask="url(#mask-2)"></path>
            <path d="M246.149594,216.762057 C245.036485,219.621692 246.492415,223.332647 245.309472,225.881076 C244.1096,228.462009 240.786497,228.65219 239.595089,231.040175 C235.553192,239.153653 240.329403,240.746335 239.916043,246.86049 C239.448368,253.692492 232.294985,257.321842 238.555341,264.347484 C243.708232,270.133835 253.906087,269.015569 256.057534,261.202923 C255.886123,260.982313 255.882597,260.985771 256.046248,261.213988 C268.062605,268.669093 276.934323,247.994661 262.612039,244.156458 C267.764929,240.442736 269.921313,232.659136 263.912782,228.284276 C269.481854,224.368616 268.988785,216.818074 263.338593,213.413484 C262.427226,212.862996 266.016262,205.510242 258.551095,205.011622 C253.171069,204.651315 247.712743,212.759261 246.149594,216.762057" id="Fill-191" fill="#F7CC7F" mask="url(#mask-2)"></path>
            <path d="M290.123906,293 C290.123906,293 289.082908,322.017684 301,337.033901 C301,337.033901 269.286723,351.629721 239,338.566379 C241.639675,329.684908 241.004886,329.706998 250.036512,309.195949 C250.036512,309.195949 254.55921,298.80616 253.174655,293.666835 L290.123906,293 Z" id="Fill-192" fill="#4FA5C9" mask="url(#mask-2)"></path>
            <path d="M548.061629,245.545654 L548.074786,247.720289 C548.074786,247.720289 547.478578,254.522482 555.897506,255.515085 C564.31782,256.511133 571.222339,256.380255 570.994519,251.131373 C570.234891,247.067967 568.876977,240.760355 568.820887,237.397488 C568.799421,236.147263 568.885286,234.821266 569.12003,233.324439 L552.806365,233 L548,233.780444 L548.061629,245.545654 Z" id="Fill-193" fill="#FD6062" mask="url(#mask-2)"></path>
            <path d="M548,233.789704 L548.061279,245.694514 C549.785344,246.505128 551.728361,247 553.909607,247 C561.364262,247 566.183246,241.465797 568.701869,237.448969 C568.681213,236.184606 568.76659,234.842179 569,233.328288 L552.778361,233 L548,233.789704 Z" id="Fill-194" fill="#AB2A41" mask="url(#mask-2)"></path>
            <path d="M570.388041,230.555203 C568.534453,240.702348 555.653649,240.369903 550.088138,239.731223 C548.521544,239.554655 547.536402,239.350499 547.536402,239.350499 C545.770337,238.872523 544.785195,236.043986 544.327226,232.338816 C543.418072,225.008483 544.566048,214.247489 545.783228,211.49482 C547.61714,207.353748 551.070566,202.873334 564.041607,206.106046 C577.014684,209.339449 572.768123,217.554691 570.388041,230.555203" id="Fill-195" fill="#FD6062" mask="url(#mask-2)"></path>
            <path d="M581,531 L562,531 C562.141976,530.059101 562.625116,527.192997 563.515112,524.55327 C563.823785,523.63374 564.182609,522.740253 564.591583,521.96563 C566.439384,518.477157 578.176735,520.694848 578.176735,520.694848 C578.176735,520.694848 579.266627,521.579654 580.117774,524.951934 C580.494963,526.43774 580.827652,528.409689 581,531" id="Fill-196" fill="#2B070C" mask="url(#mask-2)"></path>
            <path d="M524.991283,525.117657 C524.940231,527.653114 524.622884,530.053448 523.706716,531 L487,531 C487.465672,529.666096 488.787492,527.660736 492.554955,527.045408 C496.837762,526.349699 503.51309,524.279896 507.410941,520.140983 C508.798299,518.671264 509.832437,516.936842 510.286382,514.910694 C512.013164,507.18791 524.565623,517.276381 524.565623,517.276381 C524.565623,517.276381 525.071999,521.343229 524.991283,525.117657" id="Fill-197" fill="#2B070C" mask="url(#mask-2)"></path>
            <path d="M549.61352,441.669281 C549.104138,444.485971 548.780361,446.796057 548.69512,448.453218 C547.532684,471.224166 529.603953,523.291177 526.397115,524.505922 C521.434594,526.385325 513.621321,522.38978 509.53183,521.082549 C507.838015,520.538675 506.694827,518.823537 507.072223,517.083553 C515.951005,476.101092 519.214899,417.088639 520.402082,382.150224 C521.001516,364.552985 524.010375,352.395182 524.010375,352.395182 C524.010375,352.395182 567.738167,340.681174 567.997327,355.500374 C568.227614,368.612028 553.513282,420.037846 549.61352,441.669281" id="Fill-198" fill="#2B478B" mask="url(#mask-2)"></path>
            <path d="M549.844488,442 L521,382.906216 C521.591905,365.434712 524.562967,353.363778 524.562967,353.363778 C524.562967,353.363778 567.741457,341.733469 567.99736,356.446783 C568.224755,369.464752 553.695262,420.523125 549.844488,442" id="Fill-199" fill="#233862" mask="url(#mask-2)"></path>
            <path d="M540,355.357419 L563.091754,523.745354 C563.091754,523.745354 573.23268,526.204954 581.119913,524.236583 C581.119913,524.236583 587.880301,434.680895 587.315848,413.029508 C586.753455,391.378811 592.169319,355.095568 586.081193,351.093882 C579.992381,347.092196 540,355.357419 540,355.357419" id="Fill-200" fill="#2B478B" mask="url(#mask-2)"></path>
            <path d="M541.132733,202.418304 C541.132733,202.418304 547.000755,201.970491 553.921618,198.983916 C559.537237,196.56005 566.623348,199.228933 568.924259,200.432561 C568.862205,200.064343 568.714388,199.562543 568.362279,199.057975 C568.362279,199.057975 569.396295,199.785412 569.548295,200.80147 C569.653579,200.879682 569.702386,200.932976 569.674496,200.950972 C569.674496,200.950972 570.845172,200.738486 571.596106,201.074172 C571.596106,201.074172 571.07108,201.000114 570.882823,201.335801 C570.862603,201.370407 570.834016,201.400862 570.798457,201.428547 C579.559352,205.630516 580.368855,219.375681 577.549192,222.556054 C574.15709,226.382884 570.089357,235 570.089357,235 C570.089357,235 568.605618,232.964423 569.222681,229.597172 C569.839743,226.229922 566.91131,226.229922 563.210329,224.698913 C559.50865,223.168596 562.592569,218.882879 559.355256,216.281133 C556.117246,213.679387 544.244541,215.209703 544.398633,213.219115 C539.992038,211.626506 541.132733,202.866117 541.132733,202.418304" id="Fill-201" fill="#233862" mask="url(#mask-2)"></path>
            <path d="M573,254 L567.73294,368.988358 C567.73294,368.988358 523.771833,369.719317 525.026348,359.597329 C526.281544,349.475341 540.87243,257.521203 540.87243,257.521203 L573,254 Z" id="Fill-202" fill="#E9F3FE" mask="url(#mask-2)"></path>
            <path d="M588.472291,319.289549 C585.831634,327.253024 590.81008,353.977483 592.584711,363.031344 C592.974801,364.945561 593.235089,366.07738 593.235089,366.07738 C587.087749,376.130472 564.58001,376 564.58001,376 C560.251255,356.76318 558,326.123277 558,326.123277 L575.269692,250 L597,270.195267 C597,270.195267 595.355169,282.511997 593.321623,295.047633 C591.720059,304.970211 589.900787,315.068189 588.472291,319.289549" id="Fill-203" fill="#22407A" mask="url(#mask-2)"></path>
            <path d="M553,232.128377 C553,232.128377 552.529902,233.347298 548.863292,232.902244 C548.863292,232.902244 545.783922,232.529118 546.01208,231.169552 C546.01208,231.169552 549.107529,230.403391 553,232.128377" id="Fill-204" fill="#FFFFFF" mask="url(#mask-2)"></path>
            <path d="M509.487935,302.03954 C509.445356,301.995272 509.445356,301.908117 509.445356,301.865231 C509.445356,300.208604 515.720362,296.54604 522.516627,292.2312 C522.603846,292.144046 522.646426,292.099085 522.646426,292.099085 C522.65192,292.095626 522.656041,292.09286 522.660161,292.090093 C522.53929,295.616392 522.551652,299.075596 522.761116,302.296162 C523.145707,308.269013 522.715103,315.407382 521.998116,322.677174 C518.762062,317.588319 510.120449,303.914746 509.487935,302.03954 M527.127593,255.678877 C527.127593,255.678877 527.122785,255.698936 527.117291,255.727988 C526.067222,256.752399 496.442075,285.721589 490.702061,297.068275 C484.859032,308.579587 517.40844,331.509522 517.40844,331.509522 C517.40844,331.509522 519.503772,332.343716 520.956975,332.017232 C519.42342,344.743865 517.700317,356.486897 518.720855,361.498973 C520.565517,370.5582 528.885721,373.600999 528.885721,372.904454 C528.885721,372.682418 531.928794,339.983569 533.581159,322.922037 C537.124886,286.339279 546,250 546,250 C536.312439,251.014036 527.127593,255.678877 527.127593,255.678877" id="Fill-205" fill="#22407A" mask="url(#mask-2)"></path>
            <path d="M573.999579,249.744332 C574.052585,248.592076 569.077371,247 569.077371,247 C569.077371,247 563.382609,255.663365 554,255.812395 C554,255.812395 556.67412,261.522786 559.824625,263 C559.824625,263 573.690823,256.588805 573.999579,249.744332" id="Fill-206" fill="#D9E9F9" mask="url(#mask-2)"></path>
            <path d="M553,255.905731 C553,255.905731 547.546256,252.61745 547.528082,249.051879 C547.528082,249.051879 544.005903,248.60378 542.46763,250.341459 C542.46763,250.341459 541.174347,256.450697 542.889274,260 C542.889274,260 550.742025,258.782885 553,255.905731" id="Fill-207" fill="#D9E9F9" mask="url(#mask-2)"></path>
            <path d="M556.713234,254.68346 L549.868991,253 C549.868991,253 548.97562,253.080099 549.000511,254.22289 C549.025401,255.367753 550.927851,258.711195 551.770095,258.978422 C552.613012,259.244958 558.331123,256.998044 556.713234,254.68346" id="Fill-208" fill="#BA4C43" mask="url(#mask-2)"></path>
            <path d="M573.999371,248.37031 C574.053851,247.269106 570.549254,245 570.549254,245 C570.549254,245 563.764874,252.987726 554,253.130848 C554,253.130848 556.782575,258.586846 560.062359,260 C560.062359,260 573.676634,254.912228 573.999371,248.37031" id="Fill-209" fill="#E9F3FE" mask="url(#mask-2)"></path>
            <path d="M553,254.150209 C553,254.150209 547.462732,251.353268 547.444486,248 C547.444486,248 544.102565,249.401947 542.556042,251.035466 C542.556042,251.035466 541.127752,254.662726 542.849436,258 C542.849436,258 550.733128,256.855355 553,254.150209" id="Fill-210" fill="#E9F3FE" mask="url(#mask-2)"></path>
            <path d="M539.426811,332.695675 C539.668121,335.363655 540.905967,337.849414 542.899037,339.664741 L546.032594,342.520442 C546.819113,343.236946 548.055568,343.137928 548.717606,342.307966 L552.598739,337.433402 C553.639781,336.125542 554.130746,334.471807 553.970105,332.816697 C553.607791,329.127596 552.930453,322.022381 552.390113,315.164022 C551.949218,309.606648 551.595249,304.207427 551.568823,300.924024 C551.483982,290.438451 553.587624,257 553.587624,257 L551.044478,257.131336 C551.044478,257.131336 544.731466,270.110233 541.424749,287.771846 C540.608328,292.119003 539.980364,296.747398 539.667426,301.53876 C539.667426,301.53876 538.341958,320.637507 539.426811,332.695675" id="Fill-211" fill="#C65447" mask="url(#mask-2)"></path>
            <path d="M539.426811,333.551666 C539.668121,336.256932 540.905967,338.777432 542.899037,340.618129 L546.032594,343.51374 C546.819113,344.240257 548.055568,344.139856 548.717606,343.298295 L552.598739,338.355606 C553.639781,337.029467 554.130746,335.35262 553.970105,333.674379 C553.607791,329.933721 552.930453,322.729206 552.390113,315.774998 C545.363601,307.860699 542.515861,296.92459 541.424749,288 C540.608328,292.407911 539.980364,297.10099 539.667426,301.959314 C539.667426,301.959314 538.341958,321.324978 539.426811,333.551666" id="Fill-212" fill="#BA4C43" mask="url(#mask-2)"></path>
            <path d="M515,332.925592 C515,329.978096 517.619778,327.610629 520.563072,328.053485 C521.381006,328.176733 522.118763,328.510267 522.630059,329.183602 C524.655552,331.853269 526.583287,339.623434 522.99296,339.985517 C521.531511,340.133832 519.654414,339.119302 518.208437,338.030268 C516.739955,336.925914 515,335.195575 515,333.369144 L515,332.925592 Z" id="Fill-213" fill="#FD6062" mask="url(#mask-2)"></path>
            <path d="M593.251908,363 C586.786354,356.338006 575.615217,343.235048 576.010199,332.480538 C576.538469,317.418698 594,295 594,295 C592.372621,304.924955 590.524721,315.025353 589.073199,319.247725 C586.389977,327.213107 591.448671,353.944661 593.251908,363" id="Fill-214" fill="#233862" mask="url(#mask-2)"></path>
            <path d="M592.348819,336 C592.348819,336 587.885991,338.335466 585.176537,337.167733 C582.467753,336 579.279923,335.122622 576.252222,338.731723 C573.22385,342.339421 572.586687,344.841806 573.22385,346.176458 C573.861014,347.51111 580.920737,347.009651 582.091886,346.176458 C583.263705,345.341862 585.116237,343.289037 586.292076,343.64602 C589.534845,344.633508 592.26574,342.043456 593.794665,339.981513 C594.716576,338.736633 592.22822,338.134181 592.348819,336" id="Fill-215" fill="#FD6062" mask="url(#mask-2)"></path>
            <path d="M576,250 C576,250 594.053895,252.022591 598.311158,259.977978 C602.569101,267.934053 624.706048,300.175683 623.982667,313.574918 C623.257245,326.974153 593.782372,342 593.782372,342 C593.782372,342 587.254253,339.208177 587.15694,336.204247 C587.058947,333.200317 607.533411,315.250425 606.292164,311.900788 C605.050916,308.550463 582.506344,282.05638 580.330757,273.320054 C578.155852,264.583728 576,250 576,250" id="Fill-216" fill="#22407A" mask="url(#mask-2)"></path>
            <path d="M521.971577,292.239254 C521.971577,292.239254 521.929946,292.284189 521.844669,292.371296 C515.199798,296.68375 509.063902,300.344289 509.063902,302 C508.174875,299.080556 516.809313,286.87945 519.601958,284.39692 C522.436906,281.869454 521.971577,292.239254 521.971577,292.239254" id="Fill-217" fill="#233862" mask="url(#mask-2)"></path>
            <path d="M569.946938,246 C569.946938,246 556.023277,304.109984 558.238923,326 C558.238923,326 563.359451,302.607478 575.675818,283.448289 C575.675818,283.448289 571.181616,279.507053 571.425648,278.054837 C571.425648,278.054837 574.762598,277.069011 578,277.733117 C578,277.733117 577.642593,252.684463 575.623279,250.038372 C573.604655,247.391592 569.946938,246 569.946938,246" id="Fill-218" fill="#233862" mask="url(#mask-2)"></path>
            <path d="M547.995793,248 C548.278941,247.834872 534.178978,304.835674 533,323 C533,323 534.396358,290.586508 534.259976,281.244737 C534.259976,281.244737 540.049636,278.191492 540.049636,277.12065 C540.049636,276.049118 533.872291,273.152396 533.872291,273.152396 C533.872291,273.152396 537.78514,253.191152 539.919484,250.992236 C542.054521,248.791942 547.995793,248 547.995793,248" id="Fill-219" fill="#233862" mask="url(#mask-2)"></path>
            <path d="M424.32125,336 L402,358.33306 L416.555412,380 L425,371.75294 C424.174568,360.405052 423.657722,347.78015 424.32125,336" id="Fill-220" fill="#FFFFFF" mask="url(#mask-2)"></path>
            <path d="M416,342.313112 C416,342.313112 416.426765,349.660278 417.281566,349.948011 C418.135095,350.236388 418.88559,349.312038 418.98926,347.499385 C419.092295,345.686088 418.420029,339 418.420029,339" id="Fill-221" fill="#FD6062" mask="url(#mask-2)"></path>
            <path d="M273,234.794488 C273,234.794488 276.316658,235.588977 278.658329,234.794488 L281,234 C281,234 279.633971,238.372017 277.2923,237.97444 C274.950629,237.576862 273,234.794488 273,234.794488" id="Fill-222" fill="#FFFFFF" mask="url(#mask-2)"></path>
            <path d="M357,210.794488 C357,210.794488 360.316658,211.588977 362.658329,210.794488 L365,210 C365,210 363.634625,214.372017 361.2923,213.97444 C358.951283,213.576862 357,210.794488 357,210.794488" id="Fill-223" fill="#FFFFFF" mask="url(#mask-2)"></path>
            <path d="M443,219 C443,219 439.795314,220.237037 437.398308,219.643143 L435,219.04925 C435,219.04925 436.790433,223.625126 439.068337,222.927664 C441.346892,222.231649 443,219 443,219" id="Fill-224" fill="#FFFFFF" mask="url(#mask-2)"></path>
            <path d="M459,256 C459.625567,256.606292 469,261.457981 469,261.457981 L468.427494,263.883149 C468.427494,263.883149 466.104657,264.914184 461.916987,260.851012 C460.041681,259.031459 459,256 459,256" id="Fill-225" fill="#AB2A41" mask="url(#mask-2)"></path>
            <path d="M426.079096,271 C425.973576,276.07184 425.716573,284.55201 425.133298,289.212452 C424.379767,295.226992 419.305732,324.012438 418,331 C419.106344,326.008097 422.921904,310.192365 424.408898,302.938118 C426.147069,294.45588 427.601048,287.42077 427.601048,287.42077 L429,284.110292 C427.865172,280.218895 426.869527,275.49919 426.079096,271" id="Fill-226" fill="#AB2A41" mask="url(#mask-2)"></path>
            <path d="M417.737205,330 C417.448205,331.101526 417.275205,331.81074 417.263205,331.979515 C417.253205,332.134823 417.426205,331.400473 417.737205,330" id="Fill-227" fill="#AB2A41" mask="url(#mask-2)"></path>
            <polygon id="Fill-228" fill="#001426" mask="url(#mask-2)" points="332 252 332.674529 271.31644 338 272"></polygon>
            <path d="M380.943326,272.988431 C381.260489,273.622265 380.143013,248 380.143013,248 L379,270.550453 C379,270.550453 380.485712,272.074104 380.943326,272.988431" id="Fill-229" fill="#001426" mask="url(#mask-2)"></path>
            <path d="M341,232.106058 C341,232.106058 319.369291,241.780326 318.448704,246.079543 C317.528117,250.379447 317.835208,285.543696 317.835208,285.543696 L314.920587,288 L314,286.465153 C314,286.465153 314.15286,248.997604 314.459951,247.308381 C314.766356,245.619158 316.60753,242.855473 319.675696,240.858869 C322.743862,238.862951 340.400213,229 340.400213,229 L341,232.106058 Z" id="Fill-230" fill="#001426" mask="url(#mask-2)"></path>
            <path d="M225,305.723112 C225,305.723112 235.308718,306.429362 244.361458,288.95296 C249.707618,278.63276 249.189182,276 249.189182,276 L251,285.869578 C251,285.869578 243.117617,294.613291 241.343878,296.560473 C230.480319,308.485409 225,305.723112 225,305.723112" id="Fill-231" fill="#3C8AA5" mask="url(#mask-2)"></path>
        </g>
    </g>
</svg>