<svg xmlns="http://www.w3.org/2000/svg" xmlns:xlink="http://www.w3.org/1999/xlink" viewBox="0 0 400 400"><defs><linearGradient id="linear-gradient" x1="3906" y1="-4139.44" x2="3900" y2="-3870.87" gradientTransform="matrix(0.79, 0.32, -0.35, 0.86, -4402.23, 2330.2)" gradientUnits="userSpaceOnUse"><stop offset="0" stop-color="#aa80f9"/><stop offset="1" stop-color="#6165d7"/></linearGradient><linearGradient id="linear-gradient-2" x1="3891.62" y1="-3967.65" x2="3778.23" y2="-4167.66" gradientTransform="matrix(0.79, 0.32, -0.35, 0.86, -4402.23, 2330.2)" gradientUnits="userSpaceOnUse"><stop offset="0" stop-color="#e38ddd"/><stop offset="1" stop-color="#9571f6"/></linearGradient><linearGradient id="linear-gradient-3" x1="2632.86" y1="171.02" x2="2429.83" y2="187.61" gradientTransform="matrix(-1, 0, 0, 1, 2687.73, -2.36)" gradientUnits="userSpaceOnUse"><stop offset="0.45" stop-color="#d8dee8"/><stop offset="1" stop-color="#fff"/></linearGradient><linearGradient id="linear-gradient-4" x1="2317.47" y1="208.21" x2="2613.44" y2="195.75" gradientTransform="matrix(-1, 0, 0, 1, 2687.73, -2.36)" gradientUnits="userSpaceOnUse"><stop offset="0" stop-color="#d8dee8"/><stop offset="1" stop-color="#fff"/></linearGradient><linearGradient id="linear-gradient-5" x1="2320.87" y1="175.46" x2="2499.32" y2="176.82" gradientTransform="matrix(-1, 0, 0, 1, 2687.73, -2.36)" xlink:href="#linear-gradient-2"/><linearGradient id="linear-gradient-6" x1="2526.08" y1="90.77" x2="2441.6" y2="-55.9" gradientTransform="matrix(-1, 0, 0, 1, 2687.73, -2.36)" gradientUnits="userSpaceOnUse"><stop offset="0" stop-color="#ff9085"/><stop offset="1" stop-color="#fb6fbb"/></linearGradient><linearGradient id="linear-gradient-7" x1="2297.6" y1="87.73" x2="2487.9" y2="87.73" xlink:href="#linear-gradient-6"/><linearGradient id="linear-gradient-8" x1="2460.63" y1="116.65" x2="2460.63" y2="234.36" gradientTransform="matrix(-1, 0, 0, 1, 2687.73, -2.36)" xlink:href="#linear-gradient-2"/><linearGradient id="linear-gradient-9" x1="226.25" y1="108.04" x2="226.25" y2="216.41" gradientTransform="matrix(1, 0, 0, 1, 0, 0)" xlink:href="#linear-gradient-2"/><linearGradient id="linear-gradient-10" x1="2459.24" y1="511.24" x2="2459.24" y2="629.01" gradientTransform="matrix(-1, -0.1, 0, 1, 2687.73, -84.47)" xlink:href="#linear-gradient-2"/><linearGradient id="linear-gradient-11" x1="225.79" y1="193.27" x2="225.79" y2="311.77" gradientTransform="matrix(1, 0, 0, 1, 0, 0)" xlink:href="#linear-gradient-2"/><linearGradient id="linear-gradient-12" x1="2546.71" y1="129.73" x2="2546.71" y2="227.5" gradientTransform="matrix(-1, 0, 0, 1, 2687.73, -2.36)" xlink:href="#linear-gradient-2"/><linearGradient id="linear-gradient-13" x1="140.16" y1="118.27" x2="140.16" y2="211.01" gradientTransform="matrix(1, 0, 0, 1, 0, 0)" xlink:href="#linear-gradient-2"/><linearGradient id="linear-gradient-14" x1="2420.82" y1="115.42" x2="2408.7" y2="92.23" gradientTransform="matrix(-1, 0, 0, 1, 2687.73, -2.36)" gradientUnits="userSpaceOnUse"><stop offset="0" stop-color="#ffc444"/><stop offset="0.86" stop-color="#f57a54"/><stop offset="1" stop-color="#f36f56"/></linearGradient><linearGradient id="linear-gradient-15" x1="2362.07" y1="128.97" x2="2360.2" y2="119.31" xlink:href="#linear-gradient-14"/><linearGradient id="linear-gradient-16" x1="2587.89" y1="153.77" x2="2575.07" y2="132.63" gradientTransform="matrix(-1, 0, 0, 1, 2687.73, -2.36)" gradientUnits="userSpaceOnUse"><stop offset="0" stop-color="#ffc444"/><stop offset="1" stop-color="#f36f56"/></linearGradient><linearGradient id="linear-gradient-17" x1="2479.31" y1="250.13" x2="2604.98" y2="227.19" xlink:href="#linear-gradient-4"/><linearGradient id="linear-gradient-18" x1="2496.76" y1="252.94" x2="2450.16" y2="257.74" gradientTransform="matrix(-1, 0, 0, 1, 2687.73, -2.36)" gradientUnits="userSpaceOnUse"><stop offset="0" stop-color="#d8dee8"/><stop offset="0.47" stop-color="#ebeef3"/><stop offset="1" stop-color="#fff"/></linearGradient><linearGradient id="linear-gradient-19" x1="2595.47" y1="187.6" x2="2630" y2="187.6" xlink:href="#linear-gradient-16"/><linearGradient id="linear-gradient-20" x1="2430.15" y1="224.3" x2="2547.62" y2="181.5" xlink:href="#linear-gradient-6"/><linearGradient id="linear-gradient-21" x1="2511.55" y1="163.33" x2="2584.33" y2="163.78" gradientTransform="matrix(-1, 0.04, 0, 1, 2687.54, 24.55)" xlink:href="#linear-gradient-4"/><linearGradient id="linear-gradient-22" x1="2511.52" y1="168" x2="2584.3" y2="168.46" gradientTransform="matrix(-1, 0.04, 0, 1, 2687.54, 24.55)" xlink:href="#linear-gradient-4"/><linearGradient id="linear-gradient-23" x1="2515.46" y1="128.69" x2="2624.42" y2="110.58" gradientTransform="matrix(-1.01, 0.07, 0, 0.99, 2700.39, -15.46)" xlink:href="#linear-gradient-4"/><linearGradient id="linear-gradient-24" x1="2497.94" y1="112.62" x2="2570.72" y2="113.08" gradientTransform="matrix(-1.01, 0.07, 0, 0.99, 2700.39, -15.46)" xlink:href="#linear-gradient-4"/><linearGradient id="linear-gradient-25" x1="94.58" y1="240.49" x2="99.46" y2="240.49" gradientUnits="userSpaceOnUse"><stop offset="0" stop-color="#444b8c"/><stop offset="1" stop-color="#26264f"/></linearGradient><linearGradient id="linear-gradient-26" x1="93.9" y1="240.61" x2="95.15" y2="240.61" xlink:href="#linear-gradient-25"/><linearGradient id="linear-gradient-27" x1="123.54" y1="319.99" x2="123.54" y2="227.31" xlink:href="#linear-gradient-25"/><linearGradient id="linear-gradient-28" x1="123.07" y1="275.42" x2="123.07" y2="272.38" xlink:href="#linear-gradient-25"/><linearGradient id="linear-gradient-29" x1="109.84" y1="221.06" x2="135.63" y2="221.06" gradientUnits="userSpaceOnUse"><stop offset="0" stop-color="#311944"/><stop offset="1" stop-color="#893976"/></linearGradient><linearGradient id="linear-gradient-30" x1="109.84" y1="261.17" x2="135.63" y2="261.17" xlink:href="#linear-gradient-29"/><linearGradient id="linear-gradient-31" x1="88.14" y1="229.87" x2="80.99" y2="244.49" gradientTransform="matrix(1, 0, 0, 1, 0, 0)" xlink:href="#linear-gradient-6"/><linearGradient id="linear-gradient-32" x1="-716.03" y1="449.23" x2="-707.29" y2="449.23" gradientTransform="matrix(-1, 0.09, 0.09, 1, -697.31, -19.12)" gradientUnits="userSpaceOnUse"><stop offset="0" stop-color="#fcb148"/><stop offset="0.05" stop-color="#fdba46"/><stop offset="0.14" stop-color="#ffc244"/><stop offset="0.32" stop-color="#ffc444"/><stop offset="0.48" stop-color="#fdb946"/><stop offset="0.78" stop-color="#f99c4d"/><stop offset="0.87" stop-color="#f8924f"/><stop offset="1" stop-color="#f8924f"/></linearGradient><linearGradient id="linear-gradient-33" x1="-1175.86" y1="397.33" x2="-1172.03" y2="389.4" gradientTransform="matrix(-1, 0.07, 0.07, 1, -1149.44, 49.77)" xlink:href="#linear-gradient-29"/><linearGradient id="linear-gradient-34" x1="-957.16" y1="473.65" x2="-947.89" y2="473.65" gradientTransform="matrix(-0.98, 0.21, 0.21, 0.98, -949.93, 104.05)" xlink:href="#linear-gradient-32"/><linearGradient id="linear-gradient-35" x1="-1105.53" y1="435.13" x2="-1101.61" y2="427.03" gradientTransform="matrix(-0.99, 0.15, 0.15, 0.99, -1076.39, 93.92)" xlink:href="#linear-gradient-29"/><linearGradient id="linear-gradient-36" x1="425.45" y1="259.44" x2="400.7" y2="203.65" gradientTransform="translate(-326.98 65.54) rotate(3.04)" xlink:href="#linear-gradient-25"/><linearGradient id="linear-gradient-37" x1="421.61" y1="261.14" x2="396.86" y2="205.35" gradientTransform="translate(-326.98 65.54) rotate(3.04)" xlink:href="#linear-gradient-29"/><linearGradient id="linear-gradient-38" x1="92.35" y1="384.42" x2="67.6" y2="328.63" gradientTransform="translate(-48.71 -26.77) rotate(-3.99)" xlink:href="#linear-gradient-25"/><linearGradient id="linear-gradient-39" x1="38.67" y1="291.59" x2="61.32" y2="236.39" gradientTransform="matrix(1, 0, 0, 1, 1.2, -1.04)" xlink:href="#linear-gradient-6"/><linearGradient id="linear-gradient-40" x1="644.2" y1="-485.21" x2="645.08" y2="-508.75" gradientTransform="matrix(0.89, 0.45, -0.45, 0.89, -742.12, 381.28)" xlink:href="#linear-gradient-29"/><linearGradient id="linear-gradient-41" x1="-1652.3" y1="-20.69" x2="-1658.3" y2="-35.91" gradientTransform="matrix(-1, -0.05, -0.05, 1, -1599.22, 167.86)" xlink:href="#linear-gradient-25"/><linearGradient id="linear-gradient-42" x1="30.35" y1="238.24" x2="66.59" y2="215.32" xlink:href="#linear-gradient-29"/><linearGradient id="linear-gradient-43" x1="-1654.14" y1="-19.96" x2="-1660.13" y2="-35.2" gradientTransform="matrix(-1, -0.05, -0.05, 1, -1599.22, 167.86)" xlink:href="#linear-gradient-25"/><linearGradient id="linear-gradient-44" x1="55.06" y1="223.93" x2="63.21" y2="220.37" xlink:href="#linear-gradient-29"/><linearGradient id="linear-gradient-45" x1="44.26" y1="288.8" x2="78.59" y2="209.47" gradientTransform="matrix(1, 0, 0, 1, 1.2, -1.04)" xlink:href="#linear-gradient-6"/><linearGradient id="linear-gradient-46" x1="38.78" y1="299.18" x2="44.45" y2="286.06" xlink:href="#linear-gradient-29"/><linearGradient id="linear-gradient-47" x1="23.41" y1="283.9" x2="46.06" y2="228.71" gradientTransform="matrix(1, 0, 0, 1, 0, 0)" xlink:href="#linear-gradient-6"/><linearGradient id="linear-gradient-48" x1="77.1" y1="250.67" x2="88.95" y2="266.51" gradientTransform="matrix(1, 0, 0, 1, 0, 0)" xlink:href="#linear-gradient-6"/><linearGradient id="linear-gradient-49" x1="69.14" y1="240.34" x2="73.02" y2="252.17" xlink:href="#linear-gradient-29"/><linearGradient id="linear-gradient-50" x1="-239.08" y1="352.44" x2="-237.16" y2="386.99" gradientTransform="translate(390.25)" xlink:href="#linear-gradient-25"/><linearGradient id="linear-gradient-51" x1="-237.07" y1="363.52" x2="-234.19" y2="363.52" gradientTransform="translate(390.25)" xlink:href="#linear-gradient-16"/><linearGradient id="linear-gradient-52" x1="-204.35" y1="350.52" x2="-202.43" y2="385.05" gradientTransform="translate(390.25)" xlink:href="#linear-gradient-25"/><linearGradient id="linear-gradient-53" x1="-207.89" y1="361.75" x2="-202.18" y2="361.75" gradientTransform="translate(390.25)" xlink:href="#linear-gradient-16"/><linearGradient id="linear-gradient-54" x1="-250.26" y1="339.16" x2="-230.89" y2="313.16" gradientTransform="translate(390.25)" xlink:href="#linear-gradient"/><linearGradient id="linear-gradient-55" x1="-279.51" y1="215.33" x2="-286.37" y2="275.82" gradientTransform="translate(390.25)" xlink:href="#linear-gradient-16"/><linearGradient id="linear-gradient-56" x1="-235.88" y1="342.38" x2="-190.51" y2="300.08" gradientTransform="translate(390.25)" xlink:href="#linear-gradient"/><linearGradient id="linear-gradient-57" x1="-280.71" y1="246.43" x2="-244.33" y2="246.43" gradientTransform="translate(390.25)" xlink:href="#linear-gradient-2"/><linearGradient id="linear-gradient-58" x1="-211.7" y1="225.43" x2="-210.84" y2="252.9" gradientTransform="translate(390.25)" xlink:href="#linear-gradient-25"/><linearGradient id="linear-gradient-59" x1="-247.79" y1="341" x2="-228.42" y2="315" gradientTransform="translate(390.25)" xlink:href="#linear-gradient"/><linearGradient id="linear-gradient-60" x1="-280.71" y1="250.91" x2="-244.33" y2="250.91" gradientTransform="translate(390.25)" xlink:href="#linear-gradient"/><linearGradient id="linear-gradient-61" x1="-255.71" y1="268.56" x2="-183.02" y2="268.56" gradientTransform="translate(390.25)" xlink:href="#linear-gradient-2"/><linearGradient id="linear-gradient-62" x1="-218.68" y1="226.34" x2="-207.59" y2="294.14" gradientTransform="translate(390.25)" xlink:href="#linear-gradient"/><linearGradient id="linear-gradient-63" x1="-235.62" y1="220.31" x2="-242.49" y2="280.8" gradientTransform="translate(390.25)" xlink:href="#linear-gradient-16"/><linearGradient id="linear-gradient-64" x1="-236.64" y1="220.19" x2="-243.5" y2="280.68" gradientTransform="translate(390.25)" xlink:href="#linear-gradient-16"/><linearGradient id="linear-gradient-65" x1="-238.84" y1="247.51" x2="-236.92" y2="276" gradientTransform="translate(390.25)" gradientUnits="userSpaceOnUse"><stop offset="0" stop-color="#311944"/><stop offset="0.23" stop-color="#45204f"/><stop offset="1" stop-color="#893976"/></linearGradient><linearGradient id="linear-gradient-66" x1="-244.83" y1="247.06" x2="-232.9" y2="247.06" gradientTransform="translate(390.25)" xlink:href="#linear-gradient-29"/><linearGradient id="linear-gradient-67" x1="-230.84" y1="220.85" x2="-237.7" y2="281.34" gradientTransform="translate(390.25)" xlink:href="#linear-gradient-16"/><linearGradient id="linear-gradient-68" x1="-197.57" y1="236.75" x2="-168.58" y2="236.75" gradientTransform="matrix(1, 0.01, -0.01, 1, 358.29, 11.92)" xlink:href="#linear-gradient-2"/><linearGradient id="linear-gradient-69" x1="103.38" y1="298.86" x2="79.71" y2="274.08" gradientUnits="userSpaceOnUse"><stop offset="0" stop-color="#311944"/><stop offset="1" stop-color="#a03976"/></linearGradient><linearGradient id="linear-gradient-70" x1="116.99" y1="285.86" x2="93.32" y2="261.08" xlink:href="#linear-gradient-69"/><linearGradient id="linear-gradient-71" x1="85.26" y1="338.75" x2="71.09" y2="345.95" gradientTransform="matrix(1, 0, 0, 1, 0, 0)" xlink:href="#linear-gradient-2"/><linearGradient id="linear-gradient-72" x1="-10168.02" y1="52.04" x2="-10167.7" y2="56.21" gradientTransform="matrix(-0.31, -0.95, -0.95, 0.31, -2999.27, -9347.77)" xlink:href="#linear-gradient-69"/><linearGradient id="linear-gradient-73" x1="88.32" y1="358.59" x2="102.13" y2="376.63" gradientTransform="matrix(1, 0, 0, 1, 0, 0)" xlink:href="#linear-gradient-2"/><linearGradient id="linear-gradient-74" x1="-7268.22" y1="1466.26" x2="-7269.89" y2="1473.96" gradientTransform="matrix(-0.41, 0.91, 0.91, 0.41, -4256.81, 6374.68)" xlink:href="#linear-gradient-69"/><linearGradient id="linear-gradient-75" x1="101" y1="318.32" x2="94.75" y2="350.65" gradientTransform="matrix(1, 0, 0, 1, 0, 0)" xlink:href="#linear-gradient-2"/><linearGradient id="linear-gradient-76" x1="-9142.53" y1="2399.1" x2="-9122.66" y2="2414.82" gradientTransform="matrix(-0.95, 0.31, 0.31, 0.95, -9323.14, 849.39)" xlink:href="#linear-gradient-2"/><linearGradient id="linear-gradient-77" x1="87.26" y1="316.8" x2="92.45" y2="333.07" gradientTransform="matrix(1, 0, 0, 1, 0, 0)" xlink:href="#linear-gradient-2"/><linearGradient id="linear-gradient-78" x1="80.36" y1="312.45" x2="115.75" y2="208.19" gradientTransform="matrix(1, 0, 0, 1, 0, 0)" xlink:href="#linear-gradient-16"/><linearGradient id="linear-gradient-79" x1="96.52" y1="317.94" x2="131.91" y2="213.67" gradientTransform="matrix(1, 0, 0, 1, 0, 0)" xlink:href="#linear-gradient-16"/><linearGradient id="linear-gradient-80" x1="94.25" y1="317.8" x2="128.14" y2="217.98" gradientTransform="matrix(1, 0, 0, 1, 0, 0)" xlink:href="#linear-gradient-16"/><linearGradient id="linear-gradient-81" x1="-11504.07" y1="-721.31" x2="-11511.22" y2="-739.47" gradientTransform="matrix(-0.98, 0.18, 0.18, 0.98, -11102.01, 3054.78)" gradientUnits="userSpaceOnUse"><stop offset="0" stop-color="#311944"/><stop offset="1" stop-color="#6b3976"/></linearGradient><linearGradient id="linear-gradient-82" x1="-8883.46" y1="837.3" x2="-8885.26" y2="852.61" gradientTransform="matrix(-0.99, 0.11, 0.11, 0.99, -8828.27, 435.6)" xlink:href="#linear-gradient-69"/><linearGradient id="linear-gradient-83" x1="-9707.61" y1="4057.02" x2="-9710.46" y2="4064.16" gradientTransform="matrix(-0.78, 0.63, 0.63, 0.78, -10025.37, 3191.08)" xlink:href="#linear-gradient-69"/><linearGradient id="linear-gradient-84" x1="115.61" y1="365.5" x2="44.81" y2="210.42" gradientTransform="matrix(1, 0, 0, 1, 0, 0)" xlink:href="#linear-gradient-16"/><linearGradient id="linear-gradient-85" x1="261.79" y1="289.68" x2="364.86" y2="289.68" xlink:href="#linear-gradient-29"/><linearGradient id="linear-gradient-86" x1="338.74" y1="305.35" x2="363.36" y2="305.35" xlink:href="#linear-gradient-25"/><linearGradient id="linear-gradient-87" x1="231.2" y1="298.86" x2="342.65" y2="298.86" gradientUnits="userSpaceOnUse"><stop offset="0" stop-color="#40447e"/><stop offset="1" stop-color="#3c3b6b"/></linearGradient><linearGradient id="linear-gradient-88" x1="341.91" y1="255.84" x2="348.23" y2="255.84" gradientTransform="matrix(1, 0, 0, 1, 0, 0)" xlink:href="#linear-gradient-6"/><linearGradient id="linear-gradient-89" x1="230.12" y1="297.5" x2="341.77" y2="297.5" gradientTransform="matrix(1, 0, 0, 1, 0, 0)" xlink:href="#linear-gradient-32"/><linearGradient id="linear-gradient-90" x1="230.12" y1="297.5" x2="321.31" y2="297.5" gradientTransform="matrix(1, 0, 0, 1, 0, 0)" xlink:href="#linear-gradient-32"/></defs><title>item2-01</title><g style="isolation:isolate"><g id="Illustration"><g id="Open_House" data-name="Open House"><g id="Open_house-2" data-name="Open house"><path d="M275.83,22.6C288.7,36.75,281.33,62,301,74.12c21,12.95,40.59-9,59.94,1.42,29.35,15.84,34.92,93.81,5.91,146.51-9,16.38-17.57,23.54-19.17,40.73-3.43,36.9,31.43,53.08,28.17,71.57C368.48,376,165.7,441.65,63.69,335.9,16.05,286.5-2.3,207.3,23,141,69.35,19.68,242.44-14.14,275.83,22.6Z" style="fill:#f4f7fa"/><path d="M99.61,236.75c11.78.86,28.43-60,34.89-103.73,5.31-35.93,5.15-69.87-1.51-71.09C127.9,61,120.87,79.6,116.64,78.26c-5.67-1.8,5.51-35.64-4.25-41.72C106.38,32.8,93.13,40,85.21,50c-14.29,17.9-8.68,41.35-.62,97.74C94.91,220,93.55,236.3,99.61,236.75Z" style="fill:url(#linear-gradient)"/><path d="M109.28,196.58c5.69-16.4,12.47-24.44,11-39-1.24-12.7-7.14-13.88-8.74-28.68-1.82-16.76,5.3-19.33,3.3-32.76C112.12,77.51,97.34,75.32,95.39,59c-.61-5.16,0-12.12,4.6-21.08A45.74,45.74,0,0,0,85.21,50c-14.29,17.9-8.68,41.35-.62,97.74,10.32,72.26,9,88.61,15,89.06a4.62,4.62,0,0,0,2.85-.9A127,127,0,0,1,109.28,196.58Z" style="fill:#fff;opacity:0.30000000000000004;mix-blend-mode:soft-light"/><path d="M109.54,280.38c23.66-49,.43-99.89-.4-128.21-1.86-63.72-16.47-76.93-23.7-81.66-9.63-6.3-25.31-10.1-33.81-2.76-15.91,13.71.35,60.31-8,63.72-4.3,1.77-9.3-10.45-16.16-9.09-9.38,1.87-13.61,27.41-14.36,33.77C7.33,205.35,87.47,264.63,109.54,280.38Z" style="fill:url(#linear-gradient-2)"/><path d="M86.1,218.62c-7.6-21.14-12.82-23.63-14-38.71-2.23-27.8,14-37.72,8.38-58.8-4-15-13.53-14.5-21.19-33a72.93,72.93,0,0,1-5.21-22,14,14,0,0,0-2.43,1.7c-15.91,13.71.35,60.31-8,63.72-4.3,1.77-9.3-10.45-16.16-9.09-9.38,1.87-13.61,27.41-14.36,33.77C7.33,205.35,80.33,261.64,102.4,277.4c.22-.92-5.62-7.28-5.41-8.19A202.12,202.12,0,0,0,86.1,218.62Z" style="fill:#fff;opacity:0.5;mix-blend-mode:soft-light"/><polygon points="266.08 298.91 267.11 80.32 211.98 45.64 149.29 62.12 122.73 94.27 121.91 272.82 266.08 298.91" style="fill:url(#linear-gradient-3)"/><polygon points="366.26 111.66 267.22 81.4 266.19 298.91 367.03 267.12 366.26 111.66" style="fill:url(#linear-gradient-4)"/><polygon points="329.47 195.32 351.02 193.13 351.63 127.37 330.13 122.81 329.47 195.32" style="fill:#fff"/><polygon points="334.17 196.26 347.36 193.97 347.96 131.16 333.29 128.31 334.17 196.26" style="fill:url(#linear-gradient-5)"/><polygon points="147.16 58.24 199.7 28.85 214.74 42.65 150.17 59.97 109.04 111.85 108.32 109.36 147.16 58.24" style="fill:url(#linear-gradient-6)"/><polygon points="199.63 29.19 303.25 67.96 389.5 119.06 288.95 88.98 214.03 42.34 199.63 29.19" style="fill:url(#linear-gradient-7)"/><polygon points="125.7 125.45 156.39 121.21 156.13 175.29 125.47 175.88 125.7 125.45" style="fill:#fff"/><polygon points="198.9 116.72 255.41 110.1 255.11 173.65 198.63 174.76 198.9 116.72" style="fill:#fff"/><polygon points="203.03 120.59 202.66 170.98 249.8 169.36 250.05 115.78 203.03 120.59" style="fill:url(#linear-gradient-8)"/><g style="opacity:0.30000000000000004;mix-blend-mode:multiply"><path d="M209.18,120l-6.15.63L202.66,171l47.14-1.62,0-6.52c-7.64-2.88-15.8-4.67-23.56-7.92C213.33,149.26,211.53,133.52,209.18,120Z" style="fill:url(#linear-gradient-9)"/></g><polygon points="198.43 201.59 254.94 201.47 255.11 266.87 198.63 260.03 198.43 201.59" style="fill:#fff"/><polygon points="202.56 206.3 202.19 256.61 249.33 262.09 249.58 206.66 202.56 206.3" style="fill:url(#linear-gradient-10)"/><g style="opacity:0.30000000000000004;mix-blend-mode:multiply"><path d="M222.51,232.43c-5.72-8-7.79-17-9.84-26.05l-10.11-.08-.37,50.31,47.14,5.48.06-14.51C239.24,244.18,229,241.66,222.51,232.43Z" style="fill:url(#linear-gradient-11)"/></g><polygon points="128.46 129.27 128.14 172.13 152.15 171.37 152.37 126.21 128.46 129.27" style="fill:url(#linear-gradient-12)"/><g style="opacity:0.30000000000000004;mix-blend-mode:multiply"><path d="M142.65,157.27c-6.9-7.94-8.73-18.4-7.92-28.8l-6.27.8-.32,42.86,24-.76,0-6A42.59,42.59,0,0,1,142.65,157.27Z" style="fill:url(#linear-gradient-13)"/></g><polygon points="266.98 96.15 267.06 80.66 271.91 85.06 282.55 90.76 267.36 96.24 266.98 96.15" style="fill:url(#linear-gradient-14)"/><polygon points="282.55 90.76 283.54 91.34 385.62 120.27 366.97 120.65 267.36 96.24 282.55 90.76" style="fill:url(#linear-gradient-15)"/><polygon points="122.6 111.06 109.8 111.69 122.72 96.26 122.6 111.06" style="fill:url(#linear-gradient-16)"/><polygon points="180.61 83.57 190.83 81.9 190.93 61.78 180.7 63.56 180.61 83.57" style="fill:#ca84e5"/><path d="M178.82,85.66l.11-23.59,13.78-2.4-.11,23.74Zm3.65-20.6-.08,16.42,6.68-1.09.07-16.5Z" style="fill:#fff"/><polygon points="385.54 120.28 389.74 119.04 280.86 84.69 214.79 42.64 150.17 59.97 147.87 62.84 212.47 46.01 272.91 85.37 366.25 114.92 385.54 120.28" style="fill:#fff"/><polygon points="150.17 59.97 109.04 111.85 110.32 111.83 151.81 61.14 150.17 59.97" style="fill:#fff"/><rect x="232.07" y="116.55" width="2.82" height="55.43" transform="translate(466.97 288.53) rotate(180)" style="fill:#fff"/><rect x="232.07" y="205.33" width="2.82" height="55.43" transform="translate(466.97 466.1) rotate(180)" style="fill:#fff"/><polygon points="92.35 274.45 92.75 190.84 121.5 158.26 158.58 194.91 158.15 287.51 144.74 286.21 140.37 283.74 110.75 272.75 92.35 274.45" style="fill:url(#linear-gradient-17)"/><polygon points="158.17 287.39 158.67 195.39 179.33 185.76 190.58 195.29 189.71 285.01 158.17 287.39" style="fill:url(#linear-gradient-18)"/><polygon points="198.82 193.92 198.8 196.5 158.63 196.31 120.61 159.99 91.68 192.29 86.83 192.26 86.83 191.29 120.09 155.95 198.82 193.92" style="fill:#fff"/><polygon points="119.77 154.9 86.84 191.3 89.58 191.31 121.54 155.15 119.77 154.9" style="fill:url(#linear-gradient-19)"/><polygon points="198.82 193.92 159.28 193.74 119.93 154.98 158.66 155.17 198.82 193.92" style="fill:url(#linear-gradient-20)"/><path d="M123,282.22,83.89,274.8v2.66l39,7.54Z" style="fill:#97a6b7"/><path d="M115.11,286.56l-38.92-7.42s.06,3,0,3.12l38.92,7.36Z" style="fill:#97a6b7"/><polygon points="122.9 285.02 83.86 277.46 76.19 279.14 115.11 286.52 122.9 285.02 122.9 285.02" style="fill:url(#linear-gradient-21)"/><polygon points="68.73 283.65 106.38 291.75 115.11 289.61 76.15 282.29 68.74 283.68 68.73 283.65" style="fill:url(#linear-gradient-22)"/><path d="M106.35,294.79l38.56-8.56.25-9.07-22.25,5.07s0,2.93,0,2.79l-7.79,1.5v3.09l-8.74,2.15Z" style="fill:url(#linear-gradient-23)"/><polygon points="68.73 283.65 106.38 291.75 106.37 294.8 68.73 286.25 68.73 283.65" style="fill:#97a6b7"/><polygon points="104.39 270.84 83.89 274.8 122.89 282.28 144.98 277.1 104.39 270.84" style="fill:url(#linear-gradient-24)"/><polygon points="91.08 274.72 133.66 274.71 112.23 271.07 91.73 274.18 91.08 274.72" style="fill:#97a6b7"/><polygon points="111.39 271.2 90.61 274.77 89.83 274.46 89.97 211.92 112.14 211.14 111.39 271.2" style="fill:#97a6b7"/><polygon points="112.64 271.51 90.61 274.77 91.22 211.76 112.78 210.71 112.64 271.51" style="fill:#d8dee8"/><path d="M112.78,210.71l-21.56,1,0,2.46c16.94,14,17.61,37.63,17.62,57.86l3.82-.57Z" style="fill:#d8dee8;opacity:0.30000000000000004;mix-blend-mode:multiply"/><path d="M94.5,247.57h0a.74.74,0,0,1-1-.71V238a.74.74,0,0,1,1-.71h0A.74.74,0,0,1,95,238v8.87A.74.74,0,0,1,94.5,247.57Z" style="fill:#97a6b7"/><g style="mix-blend-mode:multiply"><path d="M99.46,240.65H97l-1.94.24a.41.41,0,0,1-.46-.4h0a.41.41,0,0,1,.41-.41h4.47Z" style="fill:url(#linear-gradient-25)"/><path d="M95.15,240.87h-.09l-.24-.73-.64.16h0a.4.4,0,0,0,.14.78h0Z" style="fill:url(#linear-gradient-26)"/></g><polygon points="112.29 271.56 133.85 274.77 133.85 211.72 112.29 210.66 112.29 271.56" style="fill:#97a6b7"/><polygon points="113.23 271.46 133.85 274.55 133.84 214.31 113.23 213.29 113.23 271.46" style="fill:url(#linear-gradient-27)"/><polygon points="112.29 271.56 113.33 271.23 133.85 274.09 133.85 274.77 112.29 271.56" style="fill:url(#linear-gradient-28)"/><rect x="111.92" y="218.81" width="1.96" height="4.5" style="fill:url(#linear-gradient-29)"/><rect x="111.92" y="258.92" width="1.96" height="4.5" style="fill:url(#linear-gradient-30)"/><path d="M78.67,232.06c5.18,5.7,17.58,19.33,13.08,29.19-.62,1.36-1.28,2.81-2.74,3.35-4.25,1.57-8.07-7.37-17.63-9.12-4.89-.9-6.57,1-8.21-.61-5-4.83,4.18-26.19,11.25-25.85C75.7,229.08,76.66,229.84,78.67,232.06Z" style="fill:url(#linear-gradient-31)"/><path d="M48.07,362.65a3.18,3.18,0,0,0-.5,2,1.39,1.39,0,0,0,0,.52c.27.72,1.69.71,3.92.8,3.52.14,4.57.35,4.82-.18s-.45-1.27-.52-1.35a3.25,3.25,0,0,0-1.79-.84c-1.68-.44-2.82-.67-3.16-.74C48.73,362.46,48.37,362.38,48.07,362.65Z" style="fill:url(#linear-gradient-32)"/><path d="M50.54,359.14l.14,4a2.17,2.17,0,0,1-2.24.16l-.69-4Z" style="fill:url(#linear-gradient-33)"/><path d="M77.73,362.09a2,2,0,0,0-.34,2.36c.46.59,1.22.21,3.3.38,2.23.18,2.78.74,4.32.4.62-.13,1.73-.49,1.73-.92s-.54-.5-2.35-1.22a23.71,23.71,0,0,0-3.1-1.18C79.91,361.61,78.52,361.3,77.73,362.09Z" style="fill:url(#linear-gradient-34)"/><path d="M79.35,358.53l.92,3.78a2.16,2.16,0,0,1-2.22.33l-1.47-3.7Z" style="fill:url(#linear-gradient-35)"/><path d="M73.74,276.45a349.64,349.64,0,0,0,6.63,83.22L76,360.6a36.49,36.49,0,0,1-9.54-16.77c-1.12-4.74-.53-7.11-1.09-12.89-.9-9.21-3.45-14.15-6-21.67a121,121,0,0,1-5.76-29.71Z" style="fill:url(#linear-gradient-36)"/><path d="M71.75,335c-1.59-6.31-4.67-8-4.78-14-.08-4.21,1.44-4.56,1.34-8.6-.15-6.12-3.74-9.33-5.55-13.18-1.9-4.07-2.63-10.6,2.5-21.47l-11.58,1.79a121,121,0,0,0,5.76,29.71c2.5,7.52,5,12.46,6,21.67.56,5.78,0,8.15,1.09,12.89A36.49,36.49,0,0,0,76,360.6l1.11-.24c-3.73-4.44-5-8.41-5.37-11.63C71.21,343.5,73.36,341.34,71.75,335Z" style="opacity:0.30000000000000004;mix-blend-mode:multiply;fill:url(#linear-gradient-37)"/><path d="M59.26,275.67q-2.58,23.81-4.72,48.51-1.6,18.54-2.86,36.62l-4.41.31a50.67,50.67,0,0,1-3.93-12c-1.23-6.33-.67-10-1-16.53-.38-7.3-1.41-8.95-2.89-18.21-3-18.8-4.53-28.2.25-33.75C41.24,278.8,46,274.34,59.26,275.67Z" style="fill:url(#linear-gradient-38)"/><path d="M28.77,239.87a8.84,8.84,0,0,1,6.43-11.79,86.27,86.27,0,0,1,40.06,1,1.75,1.75,0,0,1,1.29,1.4l2,10.92a142.12,142.12,0,0,1-.23,15.89c-.45,6.43-.89,6.53-1.92,15.61-1.68,14.8-1,18.66-3.95,20.44-1.94,1.16-2.64-.24-12.51-1.21-6.62-.66-10-1-13.35.17-4.57,1.55-6.09,4.14-8,3.3s-2-3.93-2.25-9.36C36,277.9,36,272.2,36,270.16c-.15-9.36-2.52-16.51-5.56-25.66C29.86,242.86,29.31,241.32,28.77,239.87Z" style="fill:url(#linear-gradient-39)"/><path d="M55.69,217a27.51,27.51,0,0,1-.78,5.47c-.36,1.45-.59,1.82-.87,2.11-.42.44-1,.8-4.45,1.46-1.86.35-2.09.33-2.14.51-.25.88,4.59,4.17,9.8,3.71,3.19-.27,6.16-1.93,6-2.88s-3.31-.62-4.16-2.4c-.59-1.23.24-2.9,1.18-4.26C59.54,219.11,56.45,218.63,55.69,217Z" style="fill:url(#linear-gradient-40)"/><path d="M61.51,218.26a3.33,3.33,0,0,0,.14-3.82,3.61,3.61,0,0,0-2.54-1.3c-2-.34-4.61.37-5.59,2.18-.59,1.07.43,3.43.59,3.85s.53.65.85,1,1.13,1.33,2.26,2.69a8,8,0,0,1,.53-1.34,7.56,7.56,0,0,1,1-1.57C59.92,218.75,60.75,219.16,61.51,218.26Z" style="fill:url(#linear-gradient-41)"/><path d="M55.57,221.7a4.52,4.52,0,0,0,3.87,2.22c2.37,0,3-5.32,1.55-6.53a3,3,0,0,0-2.32-.43c-.49.11-.67.31-1.48.47s-.94.06-1.18.24-.52.78-.14,2.35a1.29,1.29,0,0,0-1.35-.52.75.75,0,0,0-.34.29C53.82,220.38,54.33,221.18,55.57,221.7Z" style="fill:url(#linear-gradient-42)"/><path d="M55.92,217.34c.11.09-.26.5-.32,1.1a2.9,2.9,0,0,0,2.2,2.82c.71.11.93-.31,2.12-.37a5.5,5.5,0,0,1,1.72.19,2.86,2.86,0,0,1-1,3.11,3,3,0,0,1-2.6-.05,3.35,3.35,0,0,1-1.86-1.52c-.52-1,.07-1.62-.55-2.34-.32-.37-.75-.54-1.14-1.23a3.91,3.91,0,0,1-.21-.46C54.91,218,55.76,217.21,55.92,217.34Z" style="fill:url(#linear-gradient-43)"/><path d="M60.75,221.51a2.83,2.83,0,0,1-1.4.14c-.05,0-.09,0-.1,0a1.08,1.08,0,0,0,1,.37c.38-.08.69-.42.64-.51S60.84,221.5,60.75,221.51Z" style="fill:url(#linear-gradient-44)"/><path d="M68.56,288.53c-4.86-2.07-4.83-6.35-9.37-8.14-6.47-2.56-13.62,3.38-14.73,1.73s7.37-7,6.24-12.14c-.91-4.11-6.87-3.38-10.06-9-3-5.34-.1-10.28-2.78-12.14-1-.66-2.66-.93-5.88.49,2.25,7,3.86,13.18,4,20.84,0,2,0,7.74.35,16.13.22,5.43.45,8.55,2.25,9.36s3.41-1.75,8-3.3c3.35-1.13,6.73-.83,13.35-.17,9.87,1,10.57,2.37,12.51,1.21,1.26-.75,1.86-1.88,2.26-4.06A11.93,11.93,0,0,1,68.56,288.53Z" style="opacity:0.30000000000000004;mix-blend-mode:multiply;fill:url(#linear-gradient-45)"/><path d="M39.14,291.36a6.43,6.43,0,0,0,5.32,1.82,7,7,0,0,0-2.58,5.17C41.58,302,35.49,297.74,39.14,291.36Z" style="fill:url(#linear-gradient-46)"/><path d="M38.84,294.7c-2.18,1.59-10.41-4.68-14.9-10.34-8.74-11-10.47-28.75-3.35-42,3.92-7.25,11.7-15.37,16.12-13.68,4.1,1.56,4.47,11.26,3.65,17.33-1.7,12.56-8.92,13-8.52,21.59.39,8.16,7.57,16.79,7.61,25.24A2.25,2.25,0,0,1,38.84,294.7Z" style="fill:url(#linear-gradient-47)"/><path d="M74,245.44c8.87,3.69,12.68,8.89,14.29,11.65,1,1.77,2.69,4.73,1.58,6.66s-4.07,1.9-5.55,1.67c-7.55-1.17-10.8-15.62-11.11-17.07Z" style="fill:url(#linear-gradient-48)"/><path d="M74.42,245.75s-1.22-3.65-3.35-4.26-4.26-.31-4.71.3.57,1.67,2.64,2.36,2.68,3.12,4.2,3.42S74.42,245.75,74.42,245.75Z" style="fill:url(#linear-gradient-49)"/><polygon points="276.03 197.1 347.96 194.38 381.29 193.09 328.37 202.79 276.03 197.1" style="fill:#97a6b7"/><polygon points="328.47 202.76 326.98 202.6 327.36 154.74 328.47 154.37 328.47 202.76" style="fill:#fff"/><polygon points="328.47 154.37 329.86 154.83 329.42 202.55 328.47 202.76 328.47 154.37" style="fill:#97a6b7"/><polygon points="277.4 197.12 276.39 197.01 276.65 158.31 277.4 158.06 277.4 197.12" style="fill:#fff"/><polygon points="277.4 158.06 278.34 158.37 278.04 196.97 277.4 197.12 277.4 158.06" style="fill:#97a6b7"/><polygon points="355.8 160.29 356.67 160.08 356.03 197.44 355.17 197.17 355.8 160.29" style="fill:#fff"/><polygon points="356.68 160.11 357.41 160.41 356.77 197.38 356.04 197.5 356.68 160.11" style="fill:#97a6b7"/><polygon points="370.77 162.8 371.53 162.62 370.98 194.62 370.23 194.38 370.77 162.8" style="fill:#fff"/><polygon points="371.54 162.65 372.17 162.91 371.61 194.56 370.99 194.67 371.54 162.65" style="fill:#97a6b7"/><polygon points="380.75 164.99 381.36 164.84 380.92 193.12 380.32 193.14 380.75 164.99" style="fill:#fff"/><polygon points="381.25 164.86 381.76 165.07 381.31 193.04 380.81 193.13 381.25 164.86" style="fill:#97a6b7"/><polygon points="328.37 198.98 381.36 193.08 381.36 194.93 328.31 202.94 276.03 200.16 276.03 197.31 328.37 198.98" style="fill:#fff"/><polygon points="277.96 159.95 328.19 156.35 328.19 202.97 277.4 197.12 277.96 159.95" style="fill:#fff;opacity:0.5"/><polygon points="329.27 156.36 381.21 166.46 380.93 193.12 329.2 199.6 329.27 156.36" style="fill:#fff;opacity:0.5"/><rect x="266.2" y="288.81" width="1.41" height="36.96" style="fill:#97a6b7"/><path d="M266.43,326.15h-.11l-93.25-14.79a.71.71,0,0,1-.59-.72l.94-33.59a.67.67,0,0,1,.24-.51.73.73,0,0,1,.55-.17l92.63,11.73,109.63-33.78a.68.68,0,0,1,.63.11.69.69,0,0,1,.28.57l-.31,28.19a.74.74,0,0,1-.46.65L266.69,326.11A.75.75,0,0,1,266.43,326.15Zm-92.53-16.1,92.46,14.67,109.3-42,.3-26.74L267.11,289.48a.61.61,0,0,1-.3,0l-92-11.64Z" style="fill:#97a6b7"/><path d="M156,364.73a11.67,11.67,0,0,1,.08,2.55c-.16.64-5.71,1.1-7.6.87s1.12-2.14,2.32-2.5S156,364.73,156,364.73Z" style="fill:url(#linear-gradient-50)"/><path d="M153.19,361.54l.58,3.83s1.49.67,2.21,0l.08-4Z" style="fill:url(#linear-gradient-51)"/><path d="M184.48,361.37s-1.18.87-.86,1.92,3.06,5.24,5,6.43,1.34-1.29.77-2.83a29.5,29.5,0,0,0-2.59-5.52C186.25,360.8,184.48,361.37,184.48,361.37Z" style="fill:url(#linear-gradient-52)"/><path d="M182.36,357.16c.57,1.59,1.12,2.89,1.55,3.86a13.85,13.85,0,0,0,2.05,3.62c.51.6,1.72,1.89,2,1.67s-.56-1.78-2.26-6.36l-1-2.79h-2.35Z" style="fill:url(#linear-gradient-53)"/><path d="M141.56,290.84a98.23,98.23,0,0,0-.21,17.7c.76,9.79,2.71,16,5.17,26.42,1.5,6.38,3.52,15.77,5.35,27.52a5.18,5.18,0,0,0,3.28.64,4.83,4.83,0,0,0,2-.75c4.8-14.67,3.39-23.76,1.07-29.42-1-2.42-2.19-4.32-2.83-8-.84-4.91.21-7.66,1.7-19,1.06-8.1.88-9.36.17-10.57C154.4,290.46,145.74,290.55,141.56,290.84Z" style="fill:url(#linear-gradient-54)"/><path d="M111.7,249.79s-.67-2.64-1.79-3.34-2.71-1.44-3.07-1.75-.79.61.26,1.31l1.05.7a1,1,0,0,1-.05.45,1.55,1.55,0,0,1-1.43.9c-2.68.57-3.73.59-4.14.47-.06,0-.29-.09-.39,0s.12.7.24.88c.73,1.11,3.25,1.59,5.14.73.69-.32,1-.66,1.46-.58.8.14,1.29,1.19,1.58,2.07Z" style="fill:url(#linear-gradient-55)"/><path d="M158.08,292.55c2.94,15.18,5.83,23.16,8,27.67a75.15,75.15,0,0,1,4,9.85,81.29,81.29,0,0,1,2.45,9.38c1,4.66,3.52,11.45,10.26,20.37a2.58,2.58,0,0,0,2.34.12,2.25,2.25,0,0,0,.94-1c-.88-8.52-1.89-15.69-2.77-21.21-.19-1.16-1-6.24-2.27-12.94-.5-2.62-1.23-6.46-2.1-10.41-1.09-4.92-2.76-11.6-5.33-19.62Z" style="fill:url(#linear-gradient-56)"/><path d="M109.54,250.63l2.29-2c.28.28,4.36,4.27,10.07,3.06,3.93-.83,6.19-4.06,7.64-6.12,4.36-6.18,1.76-10.72,6.45-14.92,1.3-1.17,3.86-2.58,5.53-2.15,4,1,6.28,13,2.42,22.42-.78,1.91-5.06,12.38-14.78,13.51C121.31,265.31,113,259.78,109.54,250.63Z" style="fill:url(#linear-gradient-57)"/><path d="M155.58,232.47c-1.67-1.54-4.86-3.32-6.46-7.45-.48-1.24-2.19-5.65.33-9a7.19,7.19,0,0,1,6.71-2.88c2.09.42,2.42,1.87,6,4.8a25.09,25.09,0,0,0,6.08,4c4.24,1.75,6.79.11,11,.3,5.23.23,11.3,3.14,14.23,7.39,5.19,7.52-2.33,15.16,3.35,24,1.87,2.89,2.79,2.24,7.2,7.84s6.63,8.4,6.24,11.83c-.55,4.76-5.68,9.31-10.51,9.62s-7.72-3.41-10.12-1.78c-1.71,1.15-.73,3.4-2.55,6.1-2.34,3.48-6.94,4.18-7.69,4.29-6.89,1-16.19-7.05-20.14-16.63C152.13,257.57,164.64,240.85,155.58,232.47Z" style="fill:url(#linear-gradient-58)"/><path d="M158.19,333c-1-2.42-2.19-4.32-2.83-8-.84-4.91.21-7.66,1.7-19,1.06-8.1.88-9.36.17-10.57-1.54-2.64-4.8-3.82-8.12-4.29l.12.5c1.75,8-4.92,12.84-1.91,21.6,1.48,4.32,3.84,5.31,4.4,10.32.51,4.69-1.36,5.67-1,9.94.6,6.38,5.13,7.92,6.31,12.81.76,3.17.12,7.81-5.48,14.53.1.58.19,1.16.28,1.75a5.18,5.18,0,0,0,3.28.64,4.83,4.83,0,0,0,2-.75C161.92,347.7,160.51,338.61,158.19,333Z" style="opacity:0.30000000000000004;mix-blend-mode:multiply;fill:url(#linear-gradient-59)"/><path d="M140.63,239.93c-7.18,5.67-6.38,16.55-10.8,17.1-1.35.17-1.27-.86-4.49-1.91-4.71-1.53-6.92,0-10.23-1.15A10.29,10.29,0,0,1,110.2,250l-.66.59c3.45,9.15,11.77,14.68,19.62,13.76,9.72-1.13,14-11.6,14.78-13.51a28.79,28.79,0,0,0,1.83-13.55A14.86,14.86,0,0,0,140.63,239.93Z" style="opacity:0.15;mix-blend-mode:multiply;fill:url(#linear-gradient-60)"/><path d="M135.42,231.33c.44-.69,1.84-2.58,7.78-4a34.17,34.17,0,0,1,15.56-.4,34.79,34.79,0,0,1,18.06,10.35,24.4,24.4,0,0,0-9.57,12c-.79,2.19-3.14,9.68.22,16.69,1.93,4,5.35,7.07,7.94,9.37,3.9,3.46,5.91,4,7.22,7.08,1.42,3.38,0,5,1.75,7.33,1.9,2.47,4.12,1.32,7.34,3.83s2.12,4.68,5.11,7.51c4.36,4.13,10.13,2.79,10.4,4.64.23,1.6-3.87,3.76-7.36,4.64-6.9,1.74-12.92-1.18-14.71-2.08-5-2.49-4.1-4.1-7.88-6-6.33-3.18-10.65.36-25.06.72-7.8.2-11.75.24-13.91-2.4-2-2.41-.94-5,.25-16.45h0c.38-3.8,1.17-11.77,1.18-16.32,0-2.68-.93-7.07-2.79-15.84-.11-.52-1.12-5.26-1.93-11.59C134.28,234.68,134.39,232.93,135.42,231.33Z" style="fill:url(#linear-gradient-61)"/><g style="opacity:0.15;mix-blend-mode:multiply"><path d="M196.83,301.07c-3-2.83-1.82-4.95-5.11-7.51s-5.44-1.36-7.34-3.83c-1.76-2.31-.33-4-1.75-7.33-1.31-3.09-3.32-3.62-7.22-7.08-2.59-2.3-6-5.33-7.94-9.37-3.36-7-1-14.5-.22-16.69a24.4,24.4,0,0,1,9.57-12l-.62-.64c-12.3,1.69-19.47,8.79-20.36,10.9-2.05,4.86,1.2,6.65,1.28,20.68,0,6.71-.68,9.35,1.5,12.15,2.48,3.2,5.35,2.21,8.95,6.4,2.77,3.21,2.32,5.25,4.9,6.61,2.78,1.45,4.55-.24,7.68.42,5.23,1.12,6.35,7.15,9.81,10.45,2.61,2.5,7.45,4.24,17,2.37a1.36,1.36,0,0,0,.29-.93C207,303.86,201.19,305.2,196.83,301.07Z" style="fill:url(#linear-gradient-62)"/></g><path d="M154.77,219.35s.62,5,2.45,6.09,4.79,2.62,5.11,3-11.34,1.65-17.12-1.26h0c1.91-.4,2.43-.55,2.43-.55a10,10,0,0,0,2.44-1,8.3,8.3,0,0,0,2.7-2.48l0-2.75Z" style="fill:url(#linear-gradient-63)"/><path d="M155,221.11a2.74,2.74,0,0,1-3.06.95c-1.68-.61-.68-4.94.65-5.43a2.32,2.32,0,0,1,1.8.25,2.58,2.58,0,0,1,.82,2.93c.43-.12.8,0,.89.2s-.24.62-.32.71A1.47,1.47,0,0,1,155,221.11Z" style="fill:url(#linear-gradient-64)"/><path d="M156.71,251.18l-9.47-3.35a.57.57,0,0,1-.38-.36l-1.58-4.28a.6.6,0,0,1,.69-.79l8.91,1.93a1,1,0,0,1,.79.55l1.77,5.22C157.6,250.56,157.18,251.33,156.71,251.18Z" style="fill:url(#linear-gradient-65)"/><path d="M156.57,251.23l-9.16-2.93a.57.57,0,0,1-.38-.36l-1.57-4.28a.59.59,0,0,1,.68-.79l8.91,1.93a.58.58,0,0,1,.44.39l1.83,5.28A.6.6,0,0,1,156.57,251.23Z" style="fill:url(#linear-gradient-66)"/><path d="M161.21,251.05s-1.6-3.2-2.56-3.84-5.26-.91-6.46-.78-1.29,1-.29,1.71,3.85,1.44,4.34,2S160.25,252.32,161.21,251.05Z" style="fill:url(#linear-gradient-67)"/><path d="M159.55,251.26c-1.32,2.77,4.65,9.27,11.31,12.38,1.36.63,11.11,5.18,15.49.88,3.61-3.55,1.33-10.94.52-13.58-4-13-16.47-19.61-21.69-22-4,9.76-1.69,14.13-.79,15.49a51.85,51.85,0,0,0,6.36,7.07c2,1.87,3.19,2.77,3,3.06s-2.52-.33-11.48-4.76A3.52,3.52,0,0,0,159.55,251.26Z" style="fill:url(#linear-gradient-68)"/><path d="M81.68,277.77a3.5,3.5,0,0,0,.87-1.61c.35-1.62-.56-3.44-1.24-3.43s-1,1.53-1.17,2.18a5.67,5.67,0,0,0,.33,3.24Z" style="fill:url(#linear-gradient-69)"/><path d="M105.33,276.34a3.09,3.09,0,0,1-.6-1.5c-.16-1.46.83-3,1.42-2.9s.77,1.45.82,2a5,5,0,0,1-.62,2.82Z" style="fill:url(#linear-gradient-70)"/><path d="M82.43,340.8s-.41-.9-.9-.86a4,4,0,0,0-2.14.83c-1.13.75-1.68.87-1.62,1.35S81.41,342.5,82.43,340.8Z" style="fill:url(#linear-gradient-71)"/><path d="M83.78,341.39c-.1,0-1.06-.61-1.61-.94a.59.59,0,0,0-.7.08h0a.73.73,0,0,0-.07,1,19.3,19.3,0,0,0,1.49,1.61Z" style="fill:url(#linear-gradient-72)"/><path d="M91.64,365.11a.85.85,0,0,1,0,.13,1.65,1.65,0,0,0,.45,1.42c.64.61,2.24.75,4.18.85s.4-1.15.12-1.3-4-1.8-4-1.8Z" style="fill:url(#linear-gradient-73)"/><path d="M93.1,363.36l-.32,2.24s-.46.27-.79-.36l-.85-1.58Z" style="fill:url(#linear-gradient-74)"/><path d="M100.7,319.73c2.64-.17,3.74,2.8,5.24,5.4,2.94,5.11,7.29,16.06,3.13,21.63-3.51,4.69-13.73,2.43-16.73,1.45-6.29-2-6-2.68-10.42-5.49.77-.61,1-1.36,1.65-2,1.57-.15,4.53-.2,5.89-.23,2,0,5.59.13,6.67.21,1.73.14,5,1,5.59.23,1.27-1.69-2.35-10.3-2.41-13.11C99.29,326.61,98.28,319.88,100.7,319.73Z" style="fill:url(#linear-gradient-75)"/><path d="M105.89,325a35.17,35.17,0,0,1,1.93,4.1c-.55.37-1.32.81-1.52,1.43-.91,2.86,1,5.44.85,9-.05.92-.42,4.23-2.19,5-2.1,1-6.17-.46-8.95-.11-1.44.18-2.82,1.2-4.29,1-2.33-.27-3.82-2-6.18-2.3a5.74,5.74,0,0,0-2.38.4c-.4-.28-.76-.58-1.13-.88.52-.69,1-1.38,1.53-2.07,1.58-.15,4.54-.2,5.9-.23,2,0,5.59.13,6.67.21,1.73.13,5,1,5.59.23,1.26-1.72-2.33-10.25-2.42-13.14,0-1.21-.94-7.69,1.37-8.08C103.21,319.24,104.72,323.19,105.89,325Z" style="opacity:0.30000000000000004;mix-blend-mode:multiply;fill:url(#linear-gradient-76)"/><path d="M102.09,326.89c.28,4.72-2.63,11.24-2.27,16.69a19.88,19.88,0,0,1-.43,4c-.8,2.38-5.55,16.47-5.67,16.61-.88-.19-1.8-.3-2.69-.49a32,32,0,0,1-2.67-7.39c-.72-3.06.75-6.64,1.1-8.67.4-2.35.36-6.17.6-7,1.77-5.94-.43-8.2.41-13.06.43-2.52,2-3.75,3.87-5.25C96.94,324.94,99.88,324,102.09,326.89Z" style="fill:url(#linear-gradient-77)"/><path d="M82.8,277.31c.18,1.58.48,3.85,1,6.56,1.28,6.73,1.93,10.1,3.93,13.13,3.26,4.9,6.9,4.8,7.09,7.89.17,2.84-3,6.16-6.52,6.73A7.8,7.8,0,0,1,84,311c-.52-1.91-1.18-4.51-1.83-7.61A84.79,84.79,0,0,1,80,288.86c-.22-4.28-.27-7.9-.26-10.59A19.06,19.06,0,0,1,82.8,277.31Z" style="fill:url(#linear-gradient-78)"/><path d="M104.38,276.39a39.65,39.65,0,0,1,.74,6.58,36.54,36.54,0,0,1-1.87,13.49c-1.86,5.35-3.89,6.61-3.34,9.67.48,2.69,2.56,4.59,4.31,5.81a68.15,68.15,0,0,0,3.32-8.09,57,57,0,0,0,2-7.45,34.46,34.46,0,0,0,1-9.62,25.87,25.87,0,0,0-3-10.25A17.76,17.76,0,0,0,104.38,276.39Z" style="fill:url(#linear-gradient-79)"/><path d="M104.77,316.45c.9,3.92,1.93,5.7,1.29,8.43-.53,2.26-3.25,3.35-6,4.48-1.87.75-7.66,3.08-11,.46-1.41-1.1-1.57-2.43-2.58-7.32-2.57-12.42-3.56-13.48-2.48-16.17,1.67-4.16,5.86-6.13,7.28-6.71l.36-.14c3.61-1.37,9.45.12,12.91,1.82C108.28,303.16,102.66,307.3,104.77,316.45Z" style="fill:url(#linear-gradient-80)"/><path d="M101.3,291c.16-.81.75-.83.88-1.58a2.72,2.72,0,0,0-1.49-2.54c-.89-.47-1.29,0-3.24,0s-2.41-.59-4.11-.35a6.15,6.15,0,0,0-2.19.7c-.73.41-2.18,1.22-2.37,2.72a3.65,3.65,0,0,0,1.4,3c-.55,1.91-.31,2.71.09,3.07,0,0,.43.37,2.63.35h0a7.84,7.84,0,0,0,1,1c.41.29,1.21.43,2.93-.39a11,11,0,0,1,.23-1.51c.25-1.17.38-1.75.7-1.86.82-.28,1.91,2.57,3,2.36.71-.14,1.26-1.51,1.17-2.61S101.13,291.93,101.3,291Z" style="fill:url(#linear-gradient-81)"/><path d="M97.82,297.62a1.5,1.5,0,0,0,1.29,1.74,13.11,13.11,0,0,1,2.84.58c1,.44-3,.24-6.55.55a29.12,29.12,0,0,1-4.92.05.24.24,0,0,1-.08-.47,20.55,20.55,0,0,1,3.49-1.28c1.51-.36,2.77-3.92,2.77-3.92l1.45,1.05Z" style="fill:url(#linear-gradient-82)"/><path d="M95.4,296.6a4.68,4.68,0,0,0,4.44,1.34c2.4-.58,1.8-6.1,0-7a3.1,3.1,0,0,0-2.45.11c-.48.23-.61.47-1.39.82s-1,.28-1.14.52-.35.91.41,2.42a1.33,1.33,0,0,0-1.5-.21.78.78,0,0,0-.27.37C93.31,295.67,94,296.37,95.4,296.6Z" style="fill:url(#linear-gradient-83)"/><path d="M101.72,322.3c-4.26.47-7.25-3.58-7.48-3.89-2.2-3.08-.59-4.88-2.45-8.91s-3.71-3-6.22-7.05c-3.49-5.65-3.34-13.23-3.33-13.58a15.28,15.28,0,0,0-.81-6.16,13.93,13.93,0,0,0-1.68-3.2c0,2.52.07,5.69.26,9.35a84.79,84.79,0,0,0,2.15,14.55c.48,2.33,1,4.37,1.42,6,.27,2.07,1.26,5.42,2.83,13,1,4.89,1.17,6.22,2.58,7.32,3.36,2.62,9.15.29,11-.46,2.8-1.13,5.52-2.22,6-4.48a8.56,8.56,0,0,0-.26-4.54A7.28,7.28,0,0,1,101.72,322.3Z" style="opacity:0.2;mix-blend-mode:multiply;fill:url(#linear-gradient-84)"/></g><path d="M325,319.05l35.44,4.06a3.93,3.93,0,0,0,4.24-4.94l-17-61.95-85.93,1.54Z" style="fill:url(#linear-gradient-85)"/><rect x="234.87" y="295.64" width="2.93" height="67.61" transform="translate(80.39 -44.81) rotate(13.03)" style="fill:#97a6b7"/><polygon points="309.32 379.91 305.45 379.29 321.32 284.2 325.16 285.08 309.32 379.91" style="fill:#97a6b7"/><polygon points="359.49 350.57 363.36 349.96 342.57 260.13 338.74 261.02 359.49 350.57" style="fill:url(#linear-gradient-86)"/><path d="M318.29,344.23l-83.23-12.82a4.55,4.55,0,0,1-3.73-5.57l17.52-71.61a1.06,1.06,0,0,1,1.06-.81l91.72,2.76a1,1,0,0,1,1,1.28l-18,82.42A5.61,5.61,0,0,1,318.29,344.23Z" style="fill:url(#linear-gradient-87)"/><polygon points="347.72 256.22 347.24 255.06 341.56 255.09 341.4 256.63 347.72 256.22" style="fill:url(#linear-gradient-88)"/><path d="M317.62,342.77l-83.8-13a4.4,4.4,0,0,1-3.57-5.4l17.84-72.16,93.68,2.94L323.7,338.62A5.34,5.34,0,0,1,317.62,342.77Z" style="fill:url(#linear-gradient-89)"/><polygon points="308.94 330.45 253.09 322.8 256.44 308.22 312.31 314.38 308.94 330.45" style="fill:#fff"/><polygon points="253.78 326.77 242.57 313.99 258.84 304.68 253.78 326.77" style="fill:#fff"/><path d="M272.13,271a9.69,9.69,0,0,1-2.86,5,5.9,5.9,0,0,1-4.59,1.7,4,4,0,0,1-3.52-2.3,7.37,7.37,0,0,1-.25-5.14l.75-3a9.76,9.76,0,0,1,2.8-4.9,5.92,5.92,0,0,1,4.5-1.77,4,4,0,0,1,3.6,2.22,7.19,7.19,0,0,1,.32,5.15Zm-2-3.2a5.51,5.51,0,0,0,0-3.23,2,2,0,0,0-1.87-1.37,3,3,0,0,0-2.43,1.12,7.28,7.28,0,0,0-1.56,3.12l-.75,3a5.79,5.79,0,0,0-.06,3.27,1.94,1.94,0,0,0,1.83,1.4,3,3,0,0,0,2.48-1.09,7.21,7.21,0,0,0,1.59-3.19Z" style="fill:#fff"/><path d="M278.83,272.23l-1.52,6.16-2.78-.21,4.16-16.83,5.32.28a4.08,4.08,0,0,1,3.46,1.69,4.91,4.91,0,0,1,.44,4,6.76,6.76,0,0,1-2.36,3.85,5.85,5.85,0,0,1-4.18,1.23Zm.64-2.61,2.54.16a2.55,2.55,0,0,0,2-.66,3.83,3.83,0,0,0,1.09-1.94,3,3,0,0,0-.11-2.05,1.73,1.73,0,0,0-1.6-.9l-2.54-.14Z" style="fill:#fff"/><path d="M299.28,272.26l-5.41-.36-1.19,4.94,6.45.47-.64,2.69-9.34-.71,4.14-17.17,9.3.49-.63,2.67-6.41-.36-1,4.32,5.41.33Z" style="fill:#fff"/><path d="M314.9,281.25l-3.07-.23-3.33-12.34h-.06l-2.78,11.86-3-.23,4.12-17.49,3,.16,3.34,12.22h.06l2.76-11.89,3.06.16Z" style="fill:#fff"/><path d="M257.27,298.13l-2.68-.29,1.78-7-5.38-.52-1.78,6.95L246.6,297l4.27-16.59,2.61.21-1.83,7.14,5.37.49,1.83-7.18,2.67.22Z" style="fill:#fff"/><path d="M274.53,292.69a9.74,9.74,0,0,1-2.92,5.1,5.86,5.86,0,0,1-4.69,1.62,4.21,4.21,0,0,1-3.6-2.49,7.77,7.77,0,0,1-.27-5.34l.76-3.05a9.86,9.86,0,0,1,2.85-5,5.9,5.9,0,0,1,4.61-1.7,4.24,4.24,0,0,1,3.68,2.4,7.61,7.61,0,0,1,.34,5.36Zm-2-3.38a5.91,5.91,0,0,0,0-3.35,2.09,2.09,0,0,0-1.91-1.47,2.93,2.93,0,0,0-2.49,1.08,7.2,7.2,0,0,0-1.58,3.19l-.77,3.08a6,6,0,0,0,0,3.39,2.07,2.07,0,0,0,1.87,1.5,2.9,2.9,0,0,0,2.53-1.06,7.22,7.22,0,0,0,1.63-3.25Z" style="fill:#fff"/><path d="M292.59,283.84l-2.75,11.49a7.54,7.54,0,0,1-2.75,4.51,6.31,6.31,0,0,1-4.6,1.24,4.75,4.75,0,0,1-3.72-2.11,6,6,0,0,1-.44-4.77l2.76-11.31,2.85.24-2.76,11.35a3.88,3.88,0,0,0,.12,2.75,2.19,2.19,0,0,0,1.85,1.14,3,3,0,0,0,2.34-.71,4.77,4.77,0,0,0,1.43-2.61l2.75-11.45Z" style="fill:#fff"/><path d="M301.87,298.07a2.17,2.17,0,0,0-.21-1.73,4.77,4.77,0,0,0-1.84-1.38,9.32,9.32,0,0,1-3.39-2.56,4.08,4.08,0,0,1-.52-3.54,5.55,5.55,0,0,1,2.33-3.41,6.19,6.19,0,0,1,4.16-1.06,4.77,4.77,0,0,1,3.67,1.82,4.62,4.62,0,0,1,.56,4.06l0,.07-2.93-.26a2.64,2.64,0,0,0-.2-2.11,2.17,2.17,0,0,0-1.74-.88,2.57,2.57,0,0,0-1.86.48,2.68,2.68,0,0,0-1,1.57,1.69,1.69,0,0,0,.3,1.54,6.94,6.94,0,0,0,2,1.43,7.79,7.79,0,0,1,3.27,2.54,4.5,4.5,0,0,1,.48,3.7,5.47,5.47,0,0,1-2.37,3.5,6.46,6.46,0,0,1-4.3.91,5.5,5.5,0,0,1-3.79-1.88c-.92-1.07-1.13-2.55-.65-4.43l0-.08,2.87.29a2.9,2.9,0,0,0,.23,2.41,2.58,2.58,0,0,0,1.94,1,2.82,2.82,0,0,0,2-.41A2.51,2.51,0,0,0,301.87,298.07Z" style="fill:#fff"/><path d="M318.94,296.43l-5.79-.56L312,301.08l6.89.7-.64,2.84-10-1.06,4.17-18.09,9.95.82-.64,2.82-6.86-.59-1,4.55,5.79.53Z" style="fill:#fff"/><path d="M308,324.51c-8.46-2.82-17.85-3.29-24-8.93-3.76-3.76-.47-10.33-2.82-15.5-3.76-8.46-16-8.46-19.73-16.44-2.82-4.7,2.35-11.28.94-17.38a19.51,19.51,0,0,0-11-14l-3.37-.11-17.84,72.16a4.4,4.4,0,0,0,3.57,5.4l83.8,13a5.28,5.28,0,0,0,3.69-.75A19.4,19.4,0,0,0,308,324.51Z" style="opacity:0.30000000000000004;mix-blend-mode:multiply;fill:url(#linear-gradient-90)"/></g></g></g></svg>