<svg xmlns="http://www.w3.org/2000/svg" viewBox="0 0 400 400"><title>item3</title><g style="isolation:isolate"><g id="Layer_1" data-name="Layer 1"><path d="M372.68,404.82l-153.88.07-33.69,0H174l-33.61,0L14.23,406,14,404.59C.34,323.27,41.78,324.29,53.23,299c4.07-9,4.35-21.32-3-41.88,0-.1-.07-.19-.1-.29a226.25,226.25,0,0,1-9.7-36.21,195.45,195.45,0,0,1-.14-69.95,182.87,182.87,0,0,1,14.95-46.08,179.61,179.61,0,0,1,8.65-16C126.5-14.27,279.23-33.78,300.36,146c12,101.95,30.94,43,69.92,115.39,12.87,23.91,17.21,48.25,17.35,69.93C387.91,373,372.68,404.82,372.68,404.82Z" style="fill:#ebf3fa"/><g style="opacity:0.5"><rect x="46.45" y="158.33" width="90.26" height="232.6" style="fill:#9bc1f9"/><rect x="49.64" y="161.72" width="83.85" height="225.56" style="fill:#c5ddf9"/><polygon points="85.38 387.28 95.34 387.28 128.45 161.72 118.5 161.72 85.38 387.28" style="fill:#fff;mix-blend-mode:soft-light"/><polygon points="98.71 161.72 78.18 161.72 49.64 356.13 49.64 387.28 65.59 387.28 98.71 161.72" style="fill:#fff;mix-blend-mode:soft-light"/></g><g style="opacity:0.5"><rect x="221.04" y="158.33" width="90.26" height="232.6" style="fill:#9bc1f9"/><rect x="224.23" y="161.72" width="83.85" height="225.56" style="fill:#c5ddf9"/><polygon points="259.96 387.28 269.92 387.28 303.04 161.72 293.08 161.72 259.96 387.28" style="fill:#fff;mix-blend-mode:soft-light"/><polygon points="273.29 161.72 252.77 161.72 224.23 356.13 224.23 387.28 240.18 387.28 273.29 161.72" style="fill:#fff;mix-blend-mode:soft-light"/></g><path d="M195.31,282.57h142a3.09,3.09,0,0,1,3.09,3.09V330.5A33.33,33.33,0,0,1,307,363.83H225.55a33.33,33.33,0,0,1-33.33-33.33V285.67A3.09,3.09,0,0,1,195.31,282.57Z" transform="translate(532.58 646.4) rotate(180)" style="fill:#f7cc7f"/><path d="M219.83,331.27h92.38c12.1,0,22.38-10.06,26.14-24.07a45.66,45.66,0,0,1,1.52,11.74v41.88c0,2-1.23,3.56-2.75,3.56H194.92c-1.51,0-2.75-1.6-2.75-3.56V318.94a45.22,45.22,0,0,1,1.53-11.74C197.45,321.21,207.73,331.27,219.83,331.27Z" style="fill:#f7cc7f;opacity:0.5;mix-blend-mode:multiply"/><path d="M203.72,350.71c15.27-10.09,35.08-10.39,48.23-9.1a143.27,143.27,0,0,0,28.24,0c13.15-1.29,33-1,48.23,9.1l2.91,9s-5.24,14.67-6.12,14.67-59.14-.94-59.14-.94-58.27.94-59.15.94-6.11-14.67-6.11-14.67Z" style="fill:#fae0b2"/><path d="M178.46,325.75c1.85-5.39,6.13-8.74,10.68-8.27,15.83,1.63,15.2,39.16,15.19,39.28H328c0-.12-.65-37.65,15.19-39.28,4.54-.47,8.83,2.88,10.67,8.27,1.23,3.58,1.76,8.58-.25,15-4.56,14.55-17.09,24.7-18.84,42.76-.27,2.8-.62,4.26-1,4.75a5.82,5.82,0,0,1-5.09,3.78H203.5c-3.26,0-5.9-3.41-5.9-7.62V384c0-.16,0-.31,0-.48-1.75-18.06-14.27-28.21-18.84-42.76C176.7,334.33,177.24,329.33,178.46,325.75Z" style="fill:#f7cc7f"/><ellipse cx="188.63" cy="335.79" rx="5.24" ry="6.77" style="fill:#f7cc7f;opacity:0.5;mix-blend-mode:multiply"/><path d="M337.41,335.79c0,3.74,2.35,6.77,5.25,6.77s5.24-3,5.24-6.77-2.35-6.77-5.24-6.77S337.41,332.05,337.41,335.79Z" style="fill:#f7cc7f;opacity:0.5;mix-blend-mode:multiply"/><path d="M199.72,161.84c.14.23.37.56.69,1v0s-4.12,16.91-.88,18.19c3,1.17,3.22-11.19,2-16.37a26.93,26.93,0,0,1,1.74,3.63,34.56,34.56,0,0,1,1.78,8.05c-.6,1.12-4.29,8.15-2.44,9.59,1.5,1.18,2.48-3.45,2.75-6.5.21,2.76.31,5.68.32,8.58-2,.55-8,2.51-8.14,6-.13,3.91,5.06,2.75,8.14-4.5,0,2.88-.11,5.71-.24,8.3-1.44,1.47-7.34,7.76-6.39,11.4s4.67-.53,6.23-8.58c-.29,4.61-.66,8.11-.82,9.21-.06.37-.12.83-.18,1.39h0c0,.2-.05.41-.07.63h0s-9.17,14-6.55,17.2c1.86,2.29,4.65-7.05,6.12-12.68-.51,6-1,13.77-.53,16.17h0c-.32,5.39-.54,15.19,2.08,15.68,3.63.69,0-10.27,0-10.27s4.43,2,4.84,0c.69-3.35-5.52-8.06-6.52-8.8,0-3,.25-7.19.55-11,.34,8.21,2.15,10.65,2.86,10.92.87.34,2.68-1.67,2.06-8a15.53,15.53,0,0,0-4.32-9.3c.08-.7.15-1.31.23-1.79.15-1.06.49-4.31.78-8.63.71,6.76,2.39,12.28,3.9,8.86s-2.38-9.72-3.73-11.79c.16-3,.27-6.37.27-9.77,1.12,3.34,6.06,9.62,6.68,6s-5.53-7.21-6.69-7.88c0-2.91-.16-5.82-.42-8.55,1.38,2.75,5.56,8.39,6,5.35.57-3.48-6.44-8.81-6.44-8.81h0a32.49,32.49,0,0,0-1.63-6.77,26.11,26.11,0,0,0-1.64-3.46c2.6,2,6.56,3.75,6.4,1.68-.17-2.25-6.27-4.08-8.22-4.6-.06-.11-.11-.15-.13-.15-.7-1-1.44-1.89-2.18-2.75h-.85C198.07,159.71,198.92,160.74,199.72,161.84Z" style="fill:#327f6b"/><path d="M194.44,167.7c1.93,1.24,1.22-4.92.58-8.95h-1.89C192.78,162.12,192.7,166.59,194.44,167.7Z" style="fill:#327f6b"/><path d="M197,167.36c2.57-.41.26-4.8-3.36-8.61h-3.8C191.72,162.72,194.63,167.73,197,167.36Z" style="fill:#327f6b"/><path d="M186.69,158.75H182.8c-2,2.82-3.5,6.28-2.14,9.39C182.57,172.52,185.15,164.65,186.69,158.75Z" style="fill:#327f6b"/><path d="M189.07,158.75h-.64c.16,1.3.34,2.75.53,4.31-1.56,3.48-9.51,21.81-5.72,25.74,4.19,4.35,5.68-17.91,5.68-17.91l.22-6.28c.64,5.41,1.34,12,1.89,18.82-1.44,1.34-7.4,7.26-4.92,11.15,2.31,3.62,4.35-6.39,5-10.11.36,4.51.64,9.09.79,13.45-1.52.8-7.94,4.41-6.18,7.57s5.25-3.73,6.24-5.75c.07,2.68.09,5.26,0,7.68-1.66.88-9.11,5-7.27,7,2.07,2.21,6.31-3.7,6.31-3.7s-3.32,15.13.3,13.51,1.2-14.42,1.31-14.74l-.06-.41c.07-2,.09-4.11.07-6.31.67,2,2,5.19,2.75,3.8.92-1.65-1.89-5-2.79-6-.07-3-.21-6.13-.4-9.29,1.31,3.73,4,9.13,5.43,6.6,1.55-2.84-4.29-10.18-5.79-12-.35-4.65-.78-9.25-1.22-13.51,1.84,5.44,7.83,16.95,9.76,13,2-4.09-8.37-16.9-10.46-19.42C189.63,163.25,189.33,160.82,189.07,158.75Z" style="fill:#3c8f7c"/><path d="M168.1,162.76c1.57,4.74,4.67,12.73,7.71,12.63,4.11-.12-1.75-10.48-7.8-15.31,0-.34,0-.65,0-.94a19.26,19.26,0,0,0-2.91.8c-3.45,2.71-9.29,8.39-7.49,14,2.11,6.62,7.69-9.14,9.36-14.15.08,2.35.19,5.8.27,10-2.47,4.27-12.74,22.74-9.05,27.54,4.18,5.43,8.31-19.13,8.31-19.13l.78-5.81c.1,5.92.13,13,0,20.19-2,1.51-8.79,7.05-6.54,11.59,2.06,4.14,5.21-5.45,6.5-9.89-.1,4.88-.29,9.8-.6,14.49-2.05.8-9.1,3.83-7.53,7.48,1.49,3.48,5.84-2.8,7.38-5.2-.22,2.9-.48,5.69-.8,8.3-2.25.88-10.45,4.28-8.67,6.65,2,2.75,7.43-3.22,7.43-3.22s-5.38,16.36-1.17,15.07c3.71-1.14,3.16-12.59,3.09-15.53.34-2.38.64-4.94.88-7.63.57,2.27,1.57,5.42,2.52,4.09,1.14-1.61-1.27-5.4-2.29-6.86.25-3.23.44-6.6.59-10,1.11,4.3,3.41,10,5.15,7.51,2-2.83-3.26-11.31-4.95-13.89.13-5.05.17-10.06.15-14.73,1.67,6.57,6.75,19.09,9.25,15.14,2.62-4.15-6.92-19.17-9.31-22.82C168.27,169.07,168.18,165.53,168.1,162.76Z" style="fill:#3c8f7c"/><path d="M172.33,170.58c2.21,2.92,4.48-6.65,5.49-11.66,0,3.44.07,8,.1,13.36-1.36,1.58-5.58,6.84-5,10.73s3.82-4.1,5-7.13c0,2.79,0,5.72,0,8.76-1.71,1.67-5.82,6.21-3.86,9.3,1.59,2.49,3-2.45,3.85-6.22,0,3.46,0,7-.05,10.61-2.06,1.87-7.79,7.63-5.7,12.42,1.86,4.25,4.43-4.73,5.67-9.83,0,3.83-.09,7.68-.16,11.45-1.13,2.13-5.24,10.32-3,12.09,1.22.95,2.17-1.06,2.8-3.66-.1,3.52-.21,6.9-.35,10.06-1.51,1.13-7.71,6-7,9.53.45,2.2,5.32,0,5.32,0s-4,12,0,11.27c2.82-.53,2.64-10.88,2.3-16.86.06-1.1.11-2.23.17-3.4.59,2.51,1.58,4.32,2.72,2.79,2-2.69-1.7-9.09-2.44-10.31.11-3.29.19-6.73.26-10.24,1.53,3.37,7.35,11.41,8,7.32.64-3.93-6.22-9.71-7.94-11.09.06-3.49.1-7,.13-10.54,1.1,2.66,4.87,11.19,7.68,10.74,3.26-.52-2.5-8.4-7.67-11.34,0-3.45,0-6.87.05-10.2,0,.09,0,.17,0,.27.31,2.26,3.78,10.78,5.33,8S178.79,186,178.79,186l0,.07c0-3.22,0-6.34,0-9.29,1.1,3.13,4.93,10.07,6.15,7.75s-4.28-8.78-6.16-10.93c0-4.27,0-8.12-.06-11.33,1.29,3.22,5.23,12.07,6.43,8.87,1.29-3.42-5-10-6.46-11.46,0-.32,0-.62,0-.92h-3.12C173.2,162.62,170.51,168.17,172.33,170.58Z" style="fill:#327f6b"/><path d="M77.52,204.82h.42V160.76a28.94,28.94,0,0,0,13.75,6.08,33.27,33.27,0,0,0,12.9-.7,43.86,43.86,0,0,0,12.77-5.42v18h.41V159.9l-.32.22a43.22,43.22,0,0,1-13,5.57c-6.95,1.68-17.2,2.09-26.64-5.56l-.33-.27Z" style="fill:#184655"/><rect x="42.46" y="157.64" width="101.11" height="2.22" style="fill:#f7cc7f"/><path d="M117.56,175.54h0a4,4,0,0,1,3.77,4.26v9.09H113.8V179.8A4,4,0,0,1,117.56,175.54Z" style="fill:#f47458"/><path d="M77.73,203.16h0a4,4,0,0,1,3.77,4.26v9.09H74v-9.09A4,4,0,0,1,77.73,203.16Z" style="fill:#f7cc7f"/><path d="M282.46,204.82h-.41V160.76a28.94,28.94,0,0,1-13.75,6.08,33.27,33.27,0,0,1-12.9-.7,43.86,43.86,0,0,1-12.77-5.42v18h-.41V159.9l.31.22a43.5,43.5,0,0,0,13,5.57c6.94,1.68,17.2,2.09,26.64-5.56l.32-.27Z" style="fill:#184655"/><path d="M242.43,175.54h0a4,4,0,0,0-3.77,4.26v9.09h7.53V179.8A4,4,0,0,0,242.43,175.54Z" style="fill:#f47458"/><path d="M282.26,203.16h0a4,4,0,0,0-3.77,4.26v9.09H286v-9.09A4,4,0,0,0,282.26,203.16Z" style="fill:#f7cc7f"/><rect x="139.82" y="157.64" width="180.29" height="2.22" style="fill:#f7cc7f"/><polygon points="63.32 390.61 61.14 390.61 69.27 342.83 71.08 343.23 63.32 390.61" style="fill:#0e2e35"/><polygon points="123.46 390.39 125.27 390 117.44 342.83 115.63 343.23 123.46 390.39" style="fill:#0e2e35"/><polygon points="103.25 390.61 101.07 390.61 109.2 342.83 111.01 343.23 103.25 390.61" style="fill:#0e2e35"/><polygon points="83.19 390.61 84.97 390.63 77.17 343.05 75.36 343.44 83.19 390.61" style="fill:#0e2e35"/><path d="M91.11,278.5c-7.18.87-16.48,1.79-25.8,19.76-10.2,19.63-4.83,49,3.21,57.12s34.33,18.22,56.42,3.15c0,0,13.34-9.13,6.5-24.29-10.54-23.32-9-28.18-13.76-37.32S106.35,276.64,91.11,278.5Z" style="fill:#fae0b2"/><path d="M65.31,298.26C71.67,286,78,281.67,83.7,279.89a53.57,53.57,0,0,0-6.65,10.18c-10.19,19.64-4.83,49,3.22,57.12,7.13,7.23,28.61,16,48.79,7.34a21.59,21.59,0,0,1-4.12,4c-22.09,15.07-48.37,5-56.42-3.15S55.11,317.89,65.31,298.26Z" style="fill:#f7cc7f"/><path d="M108.36,289.64c.37,0,1.4.41,2.9,3.62,1.92,4.1,4.73,16.49,4.73,16.49l-8.37,3.53-1.08-2.59-1.77-19.91S108.26,289.64,108.36,289.64Z" style="fill:#dd513a"/><path d="M97.3,287.86a45.58,45.58,0,0,1,11.06,1.78s2,19.64-1.82,34.56c-.86,3.34.71,13.84.71,13.84l-24.8-.37s2.94-25.4,1.83-29.5-1.13-18.39-1.13-18.39l5.57-1.09A49.48,49.48,0,0,1,97.3,287.86Z" style="fill:#f47458"/><path d="M105,332.09s17-1.09,20.86,1.58-.69,8.17-.69,8.17-13.88,7-37.13,8.55c-5.5.37-6-16.64-4.94-18.05S105,332.09,105,332.09Z" style="fill:#256653"/><path d="M94.4,374.48s.55,7.16,1.56,9.15,0,5.35-.1,5.82-2.13,1.12-5.42.72-3.24-1.25-3-2.64,2-3.17,2.12-4.5a38.09,38.09,0,0,0-1-6.08Z" style="fill:#f7a491"/><path d="M90,390.73c-3.39-.41-3-2.29-2.7-3.72.17-.9,1.15-1.95,1.73-2.95a5.51,5.51,0,0,0,2.26,1.25c1.53.51,3.63-.5,5-1.14a21.07,21.07,0,0,1,.46,4.95C96.68,389.6,93.42,391.14,90,390.73Z" style="fill:#184655"/><path d="M91.9,346c.68,5.86,4.07,35,4.07,35l-7.86,1.1s-9.66-38-9.17-43.87,4.12-6.31,4.12-6.31S90.09,330.48,91.9,346Z" style="fill:#3c8f7c"/><path d="M82.88,292c2.32-1,3.45,22.65,3.76,32.38a89.1,89.1,0,0,0,13-.15c.84-.07,2.77-.87,3.61-1a6.93,6.93,0,0,1,2-.11,36.3,36.3,0,0,1,4.8,2.44c.46.54,1.69,1.9,1.48,2.49s-2.36-1.64-2.36-1.64l-1.05-.67c1.31,1.45,3.81,3.36,3.45,4.05s-2.61-1.26-4.22-2.58c1.38,1.41,3.09,3.93,2.7,4.32s-2.3-2.56-4.39-3.4c-.77-.31-1.54.55-2.14.65a3.82,3.82,0,0,1-1.57.1l-2.26-.72c-.77.08-.78.59-1.56.78s-2.38.44-3.52.76c-6.6,1.83-8.81,2.67-10.83,2.67C77.75,332.34,77.4,294.28,82.88,292Z" style="fill:#f7a491"/><path d="M78.48,314.15c-.44-10-.37-22.25,4.56-24.35C85,289,88.43,294,87.81,314.35A32.56,32.56,0,0,1,78.48,314.15Z" style="fill:#dd513a"/><path d="M117.38,380.61s-.68,2.48.55,4.13,6.33,3.26,7,4.15a2.7,2.7,0,0,1,.62,1.65l-14.32-.45.15-4.89.66-3.52Z" style="fill:#f7a491"/><path d="M118.82,385.56s-3.68,1.68-5.46.69-1.72-1.28-2.24-.91-.7,5-.7,5l16.11.54c1.12,0,1.68-1,.77-1.76a11.92,11.92,0,0,0-1.75-1.18C124.29,387.08,118.82,385.56,118.82,385.56Z" style="fill:#184655"/><path d="M116.84,336.72c1.11-2.64,3.63-6.07,8.06-4,4.22,2,5.35,6.81,4,11.77s-10.11,34.11-10.41,38.12l-7,.05L113.09,354A60,60,0,0,1,116.84,336.72Z" style="fill:#3c8f7c"/><path d="M128.21,309.87H104.8a1.55,1.55,0,0,0-1.42,1.07l-7.21,20H83.26a.7.7,0,0,0-.65.74h0a.71.71,0,0,0,.65.75H120a2.59,2.59,0,0,0,2.34-1.72l7.26-18.36A1.73,1.73,0,0,0,128.21,309.87Z"/><path d="M115.61,321.49c-.16.9-.85,1.5-1.54,1.34a1.59,1.59,0,0,1-1-1.91c.16-.89.85-1.49,1.54-1.34A1.6,1.6,0,0,1,115.61,321.49Z" style="fill:#fff"/><path d="M102.86,263.88a17.51,17.51,0,0,1-2.07-.94,9.94,9.94,0,0,0-2.36-1,5.24,5.24,0,0,0-4.8,1.45c-1.54,1.89-4.28.34-3.73,10.27.62,11.23,6.15,10,6.28,9.81s4.93-7.19,4.93-7.19,1.67,4.15,1.67,4S111.34,267.11,102.86,263.88Z" style="fill:#0e2e35"/><path d="M98.67,284.29l.47,4s1.07,5.78-.3,6.9S93,288.14,93,288.14L93.47,278Z" style="fill:#f7a491"/><path d="M93.31,281.26a10.86,10.86,0,0,0,5.76,6.43l-.4-3.4L93.47,278Z" style="fill:#f47458"/><path d="M98.38,266.9c2.92-.54,5.53,2.11,5.46,5.41a49,49,0,0,1-.4,5.15c-.64,4.63-3.43,8.72-5.28,8.35s-6.5-4.36-5.68-11C93,270.78,95.33,267.45,98.38,266.9Z" style="fill:#f7a491"/><path d="M93.76,275.64c-.15,1-.88,1.73-1.61,1.58a1.76,1.76,0,0,1-1.05-2.1c.16-1,.88-1.73,1.61-1.59A1.76,1.76,0,0,1,93.76,275.64Z" style="fill:#f7a491"/><path d="M92.71,273.53s2.24.63,3.07-1,3.79-5.13,7.56-3.68-3.31-3.53-3.62-3.53l-3.92,0s-2.79,2.59-2.89,2.88-.9,3.39-.9,3.39Z" style="fill:#0e2e35"/><path d="M96.8,280.32l4.07.88a1.84,1.84,0,0,1-2.19,1.4A2,2,0,0,1,96.8,280.32Z" style="fill:#fff"/><path d="M362,373.25h.54a40.45,40.45,0,0,1,1.17-6.77c2.37-9.08,1.33-10.26,5.34-15.93s4.31-17.44,4.31-17.44,1.94-13.37,0-19.25-2.08-11.77-6.76-18c0,0-.89,8.33-2,12.11s-2.18,7.39-1.35,16.47,1.34,9.84,1.53,12.19-.11,12.27.34,13.91-2.6,13-2.83,17.86C362.25,369.87,362.13,371.54,362,373.25Z" style="fill:#215e4b"/><path d="M363.73,373.25a9.35,9.35,0,0,1,4.52-5.23c6.24-3.16,10.45-3.09,13.35-10.65s2.9-17.9,3.9-20.05c0,0-2.67-.5-5.35,4.92s-4.49,9.46-6,12.61-3.78,2.27-5.67,4.66c-1.59,2-3.06,6.68-3.61,9.05a10.29,10.29,0,0,1-.79,2.2c-.32.63-.69,1.4-.91,1.95a3.19,3.19,0,0,0-.15.54Z" style="fill:#3c8f7c"/><path d="M346.12,337.39c-.45,6.48,3.19,6,3.34,10.09s4.9,11.1,7.11,16c1.14,2.58,1.57,6.53,1.71,9.72h1.77c-.69-8.08-3.58-13.7-5.32-18.2-2.22-5.8-2.56-8.45-.66-13s-.9-16.26,1.8-21.49,1.32-13.43.7-16.58.06-5.3.62-8.62-.62-8.15-.62-8.15c-.1,4.12-2.88,9.75-4.88,13.36s-5.8,13.45-5.35,17.9.22,4.79.22,4.79C345.15,329.24,346.56,330.92,346.12,337.39Z" style="fill:#215e4b"/><path d="M356.74,368c.22.77.95,2.74,1.62,5.26h1.09c-.5-3.2-1.35-6.92-2.79-9-2.9-4.29-8.69-6.14-9.36-9.25s.07-12.44-4.16-17.65c0,0,.59,5.8,0,7.36s-5.65,8.78-2.68,14.83,9.66,5.3,11.74,6.64S356.36,366.73,356.74,368Z" style="fill:#3c8f7c"/><path d="M354.06,340.08c-.07,6.22,4.24,8.57,4.16,12a34.28,34.28,0,0,0,1.71,9.92c.52,1.75.23,6.64.14,11.23h1.2a102.75,102.75,0,0,0,.52-10.39c-.15-2.95,1-5.3,1.19-10.43s1.11-9.75-.89-16.22-1.64-14.2-10-21.35c0,0-1.48,7.57-.37,11.69S354.14,333.86,354.06,340.08Z" style="fill:#3c8f7c"/><path d="M354.06,340.08c-.07,6.22,4.24,8.57,4.16,12a34.28,34.28,0,0,0,1.71,9.92c.52,1.75.23,6.64.14,11.23h.5c.06-1,.13-1.56.13-1.56l.25-11.6s-.5-9.08-1.39-16.48-7.51-28.75-7.51-28.75-1.48,7.57-.37,11.69S354.14,333.86,354.06,340.08Z" style="fill:#327f6b"/><path d="M362.57,367.94H351.06a1.35,1.35,0,0,0-1.19,1.7l4.2,20a1.26,1.26,0,0,0,1.18,1.06h13.83a1.26,1.26,0,0,0,1.18-1.06l4.2-20a1.35,1.35,0,0,0-1.19-1.7Z" style="fill:#9bc1f9"/><path d="M148.48,344.23a4.4,4.4,0,0,0,3.24,3.72c2.9,1,4.26-2.27,3-3.27s-2.86-1.63-3.5-2.45C150,340.72,148.16,342.82,148.48,344.23Z" style="fill:#eab054"/><path d="M153.33,342.32a2.45,2.45,0,0,0-.58.88,3.1,3.1,0,0,0,.11,2.48c.95,1.92,4.62,3.08,4.94.77s-2-1.64-2.62-2.69c-.29-.48-.32-1.07-.72-1.44A.89.89,0,0,0,153.33,342.32Z" style="fill:#f7cc7f"/><path d="M149.21,342.34a2.84,2.84,0,0,1-2-.91,2.69,2.69,0,0,0-2.29-.93c-1.62.44-2,2.47-.85,4.12,1,1.45,4.9,3.52,6.47.48C151.68,343,150.45,342.41,149.21,342.34Z" style="fill:#f7cc7f"/><path d="M144.27,343.2a2.49,2.49,0,0,0,1-.55,4.45,4.45,0,0,0,.9-.84.09.09,0,0,0-.12-.14c-.33.2-.65.46-1,.7a3.94,3.94,0,0,0-.86.66c-.05.07,0,.18.08.17Z" style="fill:#f47458"/><path d="M145,344.09c.55.09,1.57-1,2-1.44.09-.11-.07-.31-.17-.2a7.18,7.18,0,0,1-.94.81c-.28.21-.72.37-.9.68a.09.09,0,0,0,0,.15Z" style="fill:#f47458"/><path d="M146.47,344.73a2.21,2.21,0,0,0,.48-.57c.16-.23.35-.43.51-.65s-.09-.49-.27-.33a2.6,2.6,0,0,0-.91,1.41c0,.13.1.2.19.14Z" style="fill:#f47458"/><path d="M147.58,345.08a1.83,1.83,0,0,0,.43-1c0-.26-.5,0-.6.93,0,.11.11.17.17.09Z" style="fill:#f47458"/><path d="M148.39,344.31c-.23.77.18.79.24.6a1.36,1.36,0,0,0,0-.6.12.12,0,0,0-.22,0Z" style="fill:#f47458"/><path d="M154.45,343.45a1.92,1.92,0,0,0-.59.48.92.92,0,0,0-.35.63c0,.07.07.14.13.12s.31-.25.44-.42.34-.4.49-.62,0-.24-.12-.19Z" style="fill:#f47458"/><path d="M154.8,344.1a3.84,3.84,0,0,0-.91,1.26c0,.13.12.21.2.14a2.16,2.16,0,0,0,.42-.57c.14-.22.3-.43.43-.66s0-.27-.14-.17Z" style="fill:#f47458"/><path d="M155.45,344.64a6.39,6.39,0,0,0-.7,1.38c0,.11.11.21.19.13a4.39,4.39,0,0,0,.68-1.39c0-.12-.1-.23-.17-.12Z" style="fill:#f47458"/><path d="M156,345.16a2.16,2.16,0,0,0-.26.5c-.16.4-.27.61-.13.72a.16.16,0,0,0,.27-.07,4.9,4.9,0,0,0,.33-1c0-.13-.13-.21-.21-.11Z" style="fill:#f47458"/><path d="M156.74,345.66c-.25.19-.43.6-.26.74s.13.08.2,0,0-.35.2-.58,0-.26-.14-.18Z" style="fill:#f47458"/><path d="M152.48,351.9H147c-3.18,0-5.76-2.92-5.76-6.52h17.05C158.25,349,155.67,351.9,152.48,351.9Z" style="fill:#bc4d26"/><rect x="159.04" y="346.86" width="0.95" height="3.44" rx="0.18" ry="0.18" style="fill:#b75742"/><path d="M164.48,310.72a3.87,3.87,0,0,0-2.63-1.93,3.67,3.67,0,0,0-2.67,1l-.59-.75a4.49,4.49,0,0,1,3.34-1.27,4.67,4.67,0,0,1,3.26,2.32Z" style="fill:#50bfa5"/><path d="M157.68,308.2l-3.88,4.4a.73.73,0,0,0,0,.94l1.52,1.73a.55.55,0,0,0,.84,0l3.88-4.4a.73.73,0,0,0,0-.94l-1.52-1.73A.55.55,0,0,0,157.68,308.2Z" style="fill:#b75742"/><path d="M148.72,312.22l8.63,9.77a7.55,7.55,0,0,0,0-9.77A5.61,5.61,0,0,0,148.72,312.22Z" style="fill:#f47458"/><path d="M172.09,330.83l-8.66-20,2.7-1.5,8.66,19.95Zm-7.42-19.48,7.84,18.07,1-.57-7.84-18.07Z" style="fill:#b75742"/><path d="M169,351.63l-2.85-1.1,6.35-21,2.85,1.1Zm-1.68-1.76,1.1.43,5.75-19.05-1.1-.43Z" style="fill:#b75742"/><path d="M157.79,322.75l-.43.48a.15.15,0,0,1-.23,0l-9.51-10.76a.21.21,0,0,1,0-.26l.43-.48a.14.14,0,0,1,.23,0l9.51,10.76A.21.21,0,0,1,157.79,322.75Z" style="fill:#96d9c9"/><ellipse cx="173.59" cy="330.43" rx="2.2" ry="2.48" style="fill:#f47458"/><path d="M154,348.5h18.16a1.13,1.13,0,0,1,1.13,1.13v2.27a0,0,0,0,1,0,0H152.9a0,0,0,0,1,0,0v-2.27A1.13,1.13,0,0,1,154,348.5Z" style="fill:#50bfa5"/><path d="M238.4,338.38c1.51,2.51,15.91-.8,15.91-.8l-2.23,5.95a104.16,104.16,0,0,1-10.51,2.36L238.8,347c-1.62,1-3.87.48-3.9-2.63s-3.62-7.65-3.16-10.43.79-4.21.79-4.21h.05a1.45,1.45,0,0,1,1.72,1.07l.45,1.43S236.32,334.9,238.4,338.38Z" style="fill:#f7a491"/><rect x="135.79" y="351.74" width="46.88" height="2.74" style="fill:#184655"/><rect x="136.64" y="367.63" width="30.65" height="2.4" style="fill:#184655"/><rect x="176.09" y="353.11" width="1.98" height="37.36" style="fill:#184655"/><rect x="148.13" y="353.11" width="1.98" height="37.36" style="fill:#184655"/><polygon points="162.03 390.46 172.68 353.43 170.93 352.79 160.1 390.46 162.03 390.46" style="fill:#184655"/><polygon points="132.06 390.46 141.17 353.35 139.4 352.79 130.15 390.46 132.06 390.46" style="fill:#184655"/><path d="M322.7,340.45,297,321.87s-15.56-13.55-19.67-12.24-28.57,33.24-28.57,33.24,6.1,0,6.55,0,16-10.45,17.66-12.27l4.1-6.67s18.6,23.35,30.46,25.45C322.33,352,322.7,340.45,322.7,340.45Z" style="fill:#13375b"/><path d="M324.3,334.76s.73-4.63-6.56-3.19c-3.51.7-37.65-.33-37.65-.33l-37.18,7.81-.37,7.26s24.09-.34,28-.63,9.89-3.07,9.89-3.07L310,350.55c6.85,1.23,16.14-5.15,16.14-13.49h0Z" style="fill:#355389"/><path d="M312.5,275.93c2-3.86,4-7.73,8.18-9.21,3.36-1.19,6.59-.05,9.11,2.78,7.14,8,1.59,12.8,8.2,27.59,6.11,13.66,3.48,23.75-1.4,26.19-23.37,11.66-31-20.86-29.71-27.84C307.81,290.24,311.21,278.42,312.5,275.93Z" style="fill:#13375b"/><polygon points="307.73 309.11 305.02 315.47 308.88 315.93 309.78 309.35 307.73 309.11" style="fill:#f7a491"/><path d="M311.24,302.5c4.18-7.18,6.61-6.06,6.61-6.06l-6.32,16.69c-1.28-.87-2.53-3.14-3.8-4C308.8,306.76,310.22,304.27,311.24,302.5Z" style="fill:#50bfa5"/><path d="M326.55,339.39c0-2,8.3-36.87,6.13-40.19s-6.53-3.72-6.53-3.72-7.85.18-8.84,1.17-5.75,11.71-6.45,14.41c-.42,1.61-3.7,11.73-4.45,20.56Z" style="fill:#96d9c9"/><path d="M325,285.88s0,.21,0,.57c.12,1.71.67,7.42,1.25,9,.69,2-3.7,7.42-7.34,6.26-1.08-.34,1.44-5.33,1.39-5.89-.09-1.08-.21-2.56-.33-4.07-.07-.85-.14-1.72-.2-2.53-.19-2.31-.34-4.2-.34-4.2Z" style="fill:#f7a491"/><path d="M325,286.45c0-.36,0-.57,0-.57l-5.53-.82s.15,1.89.34,4.2c.06.81.13,1.67.2,2.52a4.89,4.89,0,0,0,2.79-1.19,7.72,7.72,0,0,0,2.32-3.13C325,287.06,325,286.71,325,286.45Z" style="fill:#f47458"/><path d="M323,270.57a6.66,6.66,0,0,1,3.65,3.21c1.41,2.59,2.49,10.2-1.95,13.74s-8.05-1.5-8.19-6.4S317.09,269.69,323,270.57Z" style="fill:#f7a491"/><path d="M315.43,279.79c.15,1.2.75,2.06,1.34,1.94s1-1.2.81-2.39-.75-2.07-1.35-1.94S315.28,278.6,315.43,279.79Z" style="fill:#f7a491"/><path d="M320.49,270.29s4.67,7.54,7.14,8.16,2.45,4.4,2.45,4.4-.09-8.72-2.41-10.68S320.49,270.29,320.49,270.29Z" style="fill:#13375b"/><path d="M326.66,280c-.32,1.22,0,2.42.67,2.67s1.52-.55,1.83-1.77,0-2.42-.67-2.67S327,278.8,326.66,280Z" style="fill:#f7a491"/><path d="M318.83,283.82l3.87.43a1.77,1.77,0,0,1-1.94,1.52A1.85,1.85,0,0,1,318.83,283.82Z" style="fill:#fff"/><polygon points="316.43 309.74 315.02 308.93 305.56 310.55 306.72 312.04 316.43 309.74" style="fill:#eafcfc"/><polygon points="294.55 307.5 295.9 306.98 305.56 310.55 304.51 311.82 294.55 307.5" style="fill:#eafcfc"/><path d="M307.13,332,317.29,331a.53.53,0,0,0,.45-.6L317,310.2a.71.71,0,0,0-.71-.72l-9.95,1.07Z" style="fill:#f47458"/><path d="M305.66,331.89l-10.33-3.18a.76.76,0,0,1-.5-.7L294,307.86a.52.52,0,0,1,.66-.58l10.12,3.12Z" style="fill:#f47458"/><path d="M305.87,332.16l1.07.11a.18.18,0,0,0,.19-.21l-.83-21.47a.27.27,0,0,0-.22-.26l-1.06-.11a.2.2,0,0,0-.2.22l.84,21.46A.26.26,0,0,0,305.87,332.16Z" style="fill:#b75742"/><g style="opacity:0.30000000000000004"><path d="M312.64,319.31l-.85-1.73.68-1.61c.07-.18-.08-.42-.26-.4l-1.61.18-1.23-1.44a.21.21,0,0,0-.38.11l-.14,1.85-1.43.71a.27.27,0,0,0,0,.46l1.53,1,.33,1.89c0,.22.28.32.4.18l1.08-1.26,1.64.46C312.61,319.72,312.74,319.51,312.64,319.31Z" style="fill:#f7cc7f"/><path d="M312.4,326.57l-.45-.92.36-.86a.15.15,0,0,0-.14-.21l-.85.1-.65-.77a.11.11,0,0,0-.2.06l-.07,1-.77.38a.14.14,0,0,0,0,.24l.81.51.17,1c0,.11.15.17.21.09l.58-.67.87.25A.12.12,0,0,0,312.4,326.57Z" style="fill:#f7cc7f"/><path d="M303.4,325.4l-.59-1.2.47-1.11a.21.21,0,0,0-.18-.28l-1.12.13-.84-1a.15.15,0,0,0-.27.07l-.09,1.28-1,.49a.2.2,0,0,0,0,.33l1.06.66.23,1.31c0,.15.19.22.27.12l.75-.87,1.14.32C303.38,325.68,303.46,325.54,303.4,325.4Z" style="fill:#f7cc7f"/><path d="M299.5,317.3l-.4-.81.31-.74a.13.13,0,0,0-.12-.18l-.74.08L298,315a.09.09,0,0,0-.17,0l-.07.86-.66.33c-.07,0-.07.16,0,.21l.71.45.15.87c0,.1.13.15.18.08l.5-.58.76.21C299.48,317.48,299.54,317.39,299.5,317.3Z" style="fill:#f7cc7f"/><path d="M294.7,307.28l2.74.84-.38.91L298,311c.11.22,0,.45-.24.39l-1.82-.5-1.2,1.39c-.13.16-.39,0-.43-.2l-.14-.78-.14-3.39A.52.52,0,0,1,294.7,307.28Z" style="fill:#f7cc7f"/><path d="M294.72,325.25l.06.07,1.61-.19c.18,0,.33.22.26.4l-.68,1.61.85,1.73a.27.27,0,0,1,0,.29l-1.48-.45a.76.76,0,0,1-.5-.7Z" style="fill:#f7cc7f"/><path d="M314.71,330.4l1.44-.72.14-1.85a.21.21,0,0,1,.38-.11l1,1.21.05,1.42a.53.53,0,0,1-.45.6l-2.06.22-.49-.31A.27.27,0,0,1,314.71,330.4Z" style="fill:#f7cc7f"/><path d="M314.78,313.59l1.32-.65.13-1.7a.18.18,0,0,1,.34-.1l.45.52.18,4.76-.33.38c-.11.13-.32,0-.36-.16l-.31-1.74-1.4-.88A.26.26,0,0,1,314.78,313.59Z" style="fill:#f7cc7f"/></g><path d="M308.23,324.73a16,16,0,0,0-1.49-2.89,3.32,3.32,0,0,0-1.17-1s-1-.49-1.17-.25a.69.69,0,0,0,.05.78c.15.17.57.31.72.48a2.09,2.09,0,0,1,.08,1.2c-.08.26-3-1.29-3-1.29s-.81-.49-1.07-.67-.85-.7-.85-.7-.93-.71-1.11-.37.57,1.1,1.34,1.84a20.2,20.2,0,0,1,1.72,1.55c-.11.26-1.72-.54-1.72-.54a5.2,5.2,0,0,0-1-.72c-.37-.44-1.13-.94-1.32-.5a8,8,0,0,0,.83,1.11s.66.53,1,.8a20.73,20.73,0,0,0,1.85,1.2c.32.24.15.28.15.33a8.26,8.26,0,0,1-1.09-.54,5.89,5.89,0,0,1-1.07-.53,8.09,8.09,0,0,0-1.1-.65c-.83-.42-.92.26-.19.8l.88.64c1.19.86,2.42,1.34,2.39,1.51s-2.25-.82-2.25-.82-1.33-.16-.27.62a10.09,10.09,0,0,0,2.39,1.33,9.35,9.35,0,0,0,2.64,1c.9.09,2.19.18,2.8.22Z" style="fill:#f8a492"/><path d="M331.2,316.86l-6.18-.42s-.74,5.86-.94,6.51c0,0-11.31,1.67-15.85,1.78l-1.17,3.92c.89,0,1.62-.07,2.05,0,.84,0,14.29,1,14.29,1s5.39.11,5.88-.85S331.2,316.86,331.2,316.86Z" style="fill:#f7a491"/><path d="M331.65,321.23S335.34,306.85,335,303s-4.22-7.49-7-6.21-3.95,22-3.95,22Z" style="fill:#50bfa5"/><path d="M341.55,317.78s-5.25,1.44-8.23,8,8.94-1.07,8.94-1.07Z" style="fill:#f7cc7f"/><path d="M39.89,353.9A15.36,15.36,0,0,0,38.82,349c-.84-1.84-2.32-3.16-3.62-4.62a26.23,26.23,0,0,1-5.4-9.75c-.87-2.82-1.3-5.83-2.49-8.5-.73-1.63-1.72-3.09-2.55-4.66-2-3.71-3-8.09-5.67-11.19a14.71,14.71,0,0,0,2.69,10.64,18.3,18.3,0,0,1,1.91,2.62c.9,1.79.82,4,.92,6a29.09,29.09,0,0,0,2.8,11.08c1.74,3.61,4.25,6.83,5.18,10.8.69,3,.49,6.33,2,8.91a2.45,2.45,0,0,1,.39.89,2.6,2.6,0,0,1,0,.56l-.1.72c-.34,2.44-.69,5.54,1.16,7.37,1.29,1.26,2.94,1.29,3.86-.39s.85-4.17.78-6.07C40.5,360.23,40.2,357.05,39.89,353.9Z" style="fill:#3c8f7c"/><path d="M43.23,351.93c-.72-2.82-1.84-5.51-2.4-8.38a43.91,43.91,0,0,1-.55-8.51q0-4.69,0-9.37a38.93,38.93,0,0,0-.29-5.82c-.61-4.13-2.5-8-2.83-12.11-.13-1.81,0-3.63-.15-5.43a9.46,9.46,0,0,0-.75-3,1.12,1.12,0,0,0-2.11.07A13.58,13.58,0,0,0,33,306.51a32.42,32.42,0,0,0,1.2,4.2c1.84,6.21.86,13.09,2.29,19.45a31.72,31.72,0,0,1,1.16,5.77c.18,4.74-2.94,9.06-2.66,13.79.24,3.87,2.7,7.08,3.74,10.78.58,2.08.7,4.29,1.32,6.35.48,1.6,1.6,3.54,3.34,3s1.15-2,1.08-3.44C44.22,361.53,44.46,356.75,43.23,351.93Z" style="fill:#215e4b"/><path d="M47,354.52c-.08-1.47.8-2.21,1-3.66a42,42,0,0,1,.64-4.36c.58-2.23-.12-4.53,0-6.85q.39-6.31.77-12.65a185.31,185.31,0,0,1,1.87-19.58c.31-1.8.64-3.74-.07-5.37-.15-.35-.44-.71-.77-.6s-.34.37-.43.63c-2.36,7.28-3.26,15.12-5.9,22.28a30.61,30.61,0,0,0-1.7,5.22,33.85,33.85,0,0,0-.13,6.68,35.2,35.2,0,0,1-1,9.5,42.15,42.15,0,0,0-1.18,4.84,28.44,28.44,0,0,0,.13,6.25,107.21,107.21,0,0,1,.34,12c-.06,2.36,1.7,2.3,2.86.85.82-1,.81-2.13,1.09-3.39C45.47,362.19,47.23,359,47,354.52Z" style="fill:#3c8f7c"/><path d="M36,360.92c-1.56-2.83-4.66-4.44-5.66-7.58-.25-.8-.35-1.66-.66-2.43a7.26,7.26,0,0,0-3.78-3.48.33.33,0,0,0-.46.33h0a1.31,1.31,0,0,0,.48,1.07,7,7,0,0,1,2.48,3.83c.47,1.83.27,3.85.86,5.65.49,1.51,1.51,2.74,2,4.25a27.27,27.27,0,0,1,.6,4.35c.2,1.45.77,3,2,3.61C38.08,372.74,37,362.75,36,360.92Z" style="fill:#215e4b"/><path d="M53.74,360a13.35,13.35,0,0,1-.35,4.06,12.42,12.42,0,0,1-1.29,2.17c-1.57,2.52-2.14,6.07-4.56,7.49a.74.74,0,0,1-.51.14c-.25-.05-.41-.32-.51-.59-.59-1.55.07-3.31.47-4.95a1.36,1.36,0,0,0,0-.87c-.13-.29-.43-.41-.64-.64a2.36,2.36,0,0,1-.29-1.85,45.58,45.58,0,0,1,.86-4.78,9.09,9.09,0,0,1,.9-2.55,10.84,10.84,0,0,1,1.91-2.14,25.92,25.92,0,0,0,6.59-11,7.66,7.66,0,0,1,1.11-2.6,1.69,1.69,0,0,1,2.3-.53c.5.39-1.55,4.11-1.78,4.56a16.32,16.32,0,0,0-1.08,3.8C55.93,353.17,53.93,356.27,53.74,360Z" style="fill:#3c8f7c"/><path d="M51.37,361.57a19.16,19.16,0,0,0,1-4c.16-1.55,0-3.13.18-4.66.3-2,1.32-3.7,1.82-5.62.36-1.39.45-2.84.67-4.26.62-4.07,2.32-8.05,1.83-12.15-.11-.89-.46-1.92-1.24-2.08s-1.35.6-1.54,1.38a8.6,8.6,0,0,0,0,2.43A11,11,0,0,1,52.55,339c-1.11,1.77-2.72,3.11-3.72,5-1.23,2.28-1.4,5.07-2,7.64-1.25,5.13-4.37,9.6-4.94,14.88-.22,2.1.21,4.65,1.92,5.49C48.75,374.44,50.24,364.85,51.37,361.57Z" style="fill:#215e4b"/><path d="M42.71,368.07H31.33a1.34,1.34,0,0,0-1.17,1.68l4.15,19.78a1.25,1.25,0,0,0,1.17,1.05H49.14a1.25,1.25,0,0,0,1.17-1.05l4.15-19.78a1.34,1.34,0,0,0-1.18-1.68Z" style="fill:#96d9c9"/><rect x="15.11" y="390.31" width="362.82" height="2.69" style="fill:#f47458"/></g></g></svg>