<svg xmlns="http://www.w3.org/2000/svg" xmlns:xlink="http://www.w3.org/1999/xlink" viewBox="0 0 400 400"><defs><linearGradient id="linear-gradient" x1="412.05" y1="436.85" x2="135.69" y2="138.55" gradientUnits="userSpaceOnUse"><stop offset="0" stop-color="#dae3fe"/><stop offset="1" stop-color="#e9effd"/></linearGradient><linearGradient id="linear-gradient-2" x1="-1850.66" y1="15.24" x2="-1895.61" y2="196.39" gradientTransform="translate(689.46 1891.3) rotate(80.78)" gradientUnits="userSpaceOnUse"><stop offset="0" stop-color="#ff928e"/><stop offset="1" stop-color="#fe7062"/></linearGradient><linearGradient id="linear-gradient-3" x1="327.7" y1="90.72" x2="329.55" y2="90.72" gradientTransform="matrix(1, 0, 0, 1, 0, 0)" xlink:href="#linear-gradient-2"/><linearGradient id="linear-gradient-4" x1="325.02" y1="90.59" x2="326.86" y2="90.59" gradientTransform="matrix(1, 0, 0, 1, 0, 0)" xlink:href="#linear-gradient-2"/><linearGradient id="linear-gradient-5" x1="330.38" y1="90.58" x2="332.22" y2="90.58" gradientTransform="matrix(1, 0, 0, 1, 0, 0)" xlink:href="#linear-gradient-2"/><linearGradient id="linear-gradient-6" x1="322.38" y1="90.2" x2="324.2" y2="90.2" gradientTransform="matrix(1, 0, 0, 1, 0, 0)" xlink:href="#linear-gradient-2"/><linearGradient id="linear-gradient-7" x1="333.05" y1="90.2" x2="334.87" y2="90.2" gradientTransform="matrix(1, 0, 0, 1, 0, 0)" xlink:href="#linear-gradient-2"/><linearGradient id="linear-gradient-8" x1="319.79" y1="89.57" x2="321.58" y2="89.57" gradientTransform="matrix(1, 0, 0, 1, 0, 0)" xlink:href="#linear-gradient-2"/><linearGradient id="linear-gradient-9" x1="335.67" y1="89.56" x2="337.46" y2="89.56" gradientTransform="matrix(1, 0, 0, 1, 0, 0)" xlink:href="#linear-gradient-2"/><linearGradient id="linear-gradient-10" x1="317.27" y1="88.68" x2="319.02" y2="88.68" gradientTransform="matrix(1, 0, 0, 1, 0, 0)" xlink:href="#linear-gradient-2"/><linearGradient id="linear-gradient-11" x1="338.22" y1="88.67" x2="339.97" y2="88.67" gradientTransform="matrix(1, 0, 0, 1, 0, 0)" xlink:href="#linear-gradient-2"/><linearGradient id="linear-gradient-12" x1="314.86" y1="87.54" x2="316.55" y2="87.54" gradientTransform="matrix(1, 0, 0, 1, 0, 0)" xlink:href="#linear-gradient-2"/><linearGradient id="linear-gradient-13" x1="340.68" y1="87.53" x2="342.37" y2="87.53" gradientTransform="matrix(1, 0, 0, 1, 0, 0)" xlink:href="#linear-gradient-2"/><linearGradient id="linear-gradient-14" x1="312.58" y1="86.18" x2="314.21" y2="86.18" gradientTransform="matrix(1, 0, 0, 1, 0, 0)" xlink:href="#linear-gradient-2"/><linearGradient id="linear-gradient-15" x1="343.02" y1="86.17" x2="344.64" y2="86.17" gradientTransform="matrix(1, 0, 0, 1, 0, 0)" xlink:href="#linear-gradient-2"/><linearGradient id="linear-gradient-16" x1="310.45" y1="84.6" x2="312" y2="84.6" gradientTransform="matrix(1, 0, 0, 1, 0, 0)" xlink:href="#linear-gradient-2"/><linearGradient id="linear-gradient-17" x1="345.22" y1="84.6" x2="346.77" y2="84.6" gradientTransform="matrix(1, 0, 0, 1, 0, 0)" xlink:href="#linear-gradient-2"/><linearGradient id="linear-gradient-18" x1="308.48" y1="82.82" x2="309.94" y2="82.82" gradientTransform="matrix(1, 0, 0, 1, 0, 0)" xlink:href="#linear-gradient-2"/><linearGradient id="linear-gradient-19" x1="347.27" y1="82.82" x2="348.74" y2="82.82" gradientTransform="matrix(1, 0, 0, 1, 0, 0)" xlink:href="#linear-gradient-2"/><linearGradient id="linear-gradient-20" x1="306.7" y1="80.86" x2="308.07" y2="80.86" gradientTransform="matrix(1, 0, 0, 1, 0, 0)" xlink:href="#linear-gradient-2"/><linearGradient id="linear-gradient-21" x1="349.15" y1="80.85" x2="350.52" y2="80.85" gradientTransform="matrix(1, 0, 0, 1, 0, 0)" xlink:href="#linear-gradient-2"/><linearGradient id="linear-gradient-22" x1="305.12" y1="78.73" x2="306.39" y2="78.73" gradientTransform="matrix(1, 0, 0, 1, 0, 0)" xlink:href="#linear-gradient-2"/><linearGradient id="linear-gradient-23" x1="350.83" y1="78.72" x2="352.1" y2="78.72" gradientTransform="matrix(1, 0, 0, 1, 0, 0)" xlink:href="#linear-gradient-2"/><linearGradient id="linear-gradient-24" x1="303.76" y1="76.45" x2="304.91" y2="76.45" gradientTransform="matrix(1, 0, 0, 1, 0, 0)" xlink:href="#linear-gradient-2"/><linearGradient id="linear-gradient-25" x1="352.31" y1="76.44" x2="353.47" y2="76.44" gradientTransform="matrix(1, 0, 0, 1, 0, 0)" xlink:href="#linear-gradient-2"/><linearGradient id="linear-gradient-26" x1="302.62" y1="74.05" x2="303.66" y2="74.05" gradientTransform="matrix(1, 0, 0, 1, 0, 0)" xlink:href="#linear-gradient-2"/><linearGradient id="linear-gradient-27" x1="353.56" y1="74.03" x2="354.6" y2="74.03" gradientTransform="matrix(1, 0, 0, 1, 0, 0)" xlink:href="#linear-gradient-2"/><linearGradient id="linear-gradient-28" x1="301.73" y1="71.55" x2="302.65" y2="71.55" gradientTransform="matrix(1, 0, 0, 1, 0, 0)" xlink:href="#linear-gradient-2"/><linearGradient id="linear-gradient-29" x1="354.57" y1="71.52" x2="355.49" y2="71.52" gradientTransform="matrix(1, 0, 0, 1, 0, 0)" xlink:href="#linear-gradient-2"/><linearGradient id="linear-gradient-30" x1="301.09" y1="68.96" x2="301.88" y2="68.96" gradientTransform="matrix(1, 0, 0, 1, 0, 0)" xlink:href="#linear-gradient-2"/><linearGradient id="linear-gradient-31" x1="355.34" y1="68.93" x2="356.13" y2="68.93" gradientTransform="matrix(1, 0, 0, 1, 0, 0)" xlink:href="#linear-gradient-2"/><linearGradient id="linear-gradient-32" x1="300.7" y1="66.31" x2="301.37" y2="66.31" gradientTransform="matrix(1, 0, 0, 1, 0, 0)" xlink:href="#linear-gradient-2"/><linearGradient id="linear-gradient-33" x1="355.85" y1="66.28" x2="356.52" y2="66.28" gradientTransform="matrix(1, 0, 0, 1, 0, 0)" xlink:href="#linear-gradient-2"/><linearGradient id="linear-gradient-34" x1="300.57" y1="63.64" x2="301.11" y2="63.64" gradientTransform="matrix(1, 0, 0, 1, 0, 0)" xlink:href="#linear-gradient-2"/><linearGradient id="linear-gradient-35" x1="356.11" y1="63.58" x2="356.64" y2="63.58" gradientTransform="matrix(1, 0, 0, 1, 0, 0)" xlink:href="#linear-gradient-2"/><linearGradient id="linear-gradient-36" x1="300.6" y1="60.95" x2="301.2" y2="60.95" gradientTransform="matrix(1, 0, 0, 1, 0, 0)" xlink:href="#linear-gradient-2"/><linearGradient id="linear-gradient-37" x1="356.01" y1="60.86" x2="356.61" y2="60.86" gradientTransform="matrix(1, 0, 0, 1, 0, 0)" xlink:href="#linear-gradient-2"/><linearGradient id="linear-gradient-38" x1="300.85" y1="58.29" x2="301.58" y2="58.29" gradientTransform="matrix(1, 0, 0, 1, 0, 0)" xlink:href="#linear-gradient-2"/><linearGradient id="linear-gradient-39" x1="355.62" y1="58.2" x2="356.35" y2="58.2" gradientTransform="matrix(1, 0, 0, 1, 0, 0)" xlink:href="#linear-gradient-2"/><linearGradient id="linear-gradient-40" x1="301.36" y1="55.67" x2="302.22" y2="55.67" gradientTransform="matrix(1, 0, 0, 1, 0, 0)" xlink:href="#linear-gradient-2"/><linearGradient id="linear-gradient-41" x1="354.97" y1="55.58" x2="355.83" y2="55.58" gradientTransform="matrix(1, 0, 0, 1, 0, 0)" xlink:href="#linear-gradient-2"/><linearGradient id="linear-gradient-42" x1="302.13" y1="53.11" x2="303.11" y2="53.11" gradientTransform="matrix(1, 0, 0, 1, 0, 0)" xlink:href="#linear-gradient-2"/><linearGradient id="linear-gradient-43" x1="354.08" y1="53.03" x2="355.06" y2="53.03" gradientTransform="matrix(1, 0, 0, 1, 0, 0)" xlink:href="#linear-gradient-2"/><linearGradient id="linear-gradient-44" x1="303.14" y1="50.65" x2="304.24" y2="50.65" gradientTransform="matrix(1, 0, 0, 1, 0, 0)" xlink:href="#linear-gradient-2"/><linearGradient id="linear-gradient-45" x1="352.94" y1="50.58" x2="354.04" y2="50.58" gradientTransform="matrix(1, 0, 0, 1, 0, 0)" xlink:href="#linear-gradient-2"/><linearGradient id="linear-gradient-46" x1="304.39" y1="48.3" x2="305.6" y2="48.3" gradientTransform="matrix(1, 0, 0, 1, 0, 0)" xlink:href="#linear-gradient-2"/><linearGradient id="linear-gradient-47" x1="351.58" y1="48.24" x2="352.79" y2="48.24" gradientTransform="matrix(1, 0, 0, 1, 0, 0)" xlink:href="#linear-gradient-2"/><linearGradient id="linear-gradient-48" x1="305.86" y1="46.09" x2="307.18" y2="46.09" gradientTransform="matrix(1, 0, 0, 1, 0, 0)" xlink:href="#linear-gradient-2"/><linearGradient id="linear-gradient-49" x1="349.99" y1="46.04" x2="351.31" y2="46.04" gradientTransform="matrix(1, 0, 0, 1, 0, 0)" xlink:href="#linear-gradient-2"/><linearGradient id="linear-gradient-50" x1="307.54" y1="44.04" x2="308.96" y2="44.04" gradientTransform="matrix(1, 0, 0, 1, 0, 0)" xlink:href="#linear-gradient-2"/><linearGradient id="linear-gradient-51" x1="348.21" y1="43.99" x2="349.63" y2="43.99" gradientTransform="matrix(1, 0, 0, 1, 0, 0)" xlink:href="#linear-gradient-2"/><linearGradient id="linear-gradient-52" x1="309.41" y1="42.16" x2="310.92" y2="42.16" gradientTransform="matrix(1, 0, 0, 1, 0, 0)" xlink:href="#linear-gradient-2"/><linearGradient id="linear-gradient-53" x1="346.24" y1="42.12" x2="347.75" y2="42.12" gradientTransform="matrix(1, 0, 0, 1, 0, 0)" xlink:href="#linear-gradient-2"/><linearGradient id="linear-gradient-54" x1="311.46" y1="40.48" x2="313.05" y2="40.48" gradientTransform="matrix(1, 0, 0, 1, 0, 0)" xlink:href="#linear-gradient-2"/><linearGradient id="linear-gradient-55" x1="344.11" y1="40.44" x2="345.7" y2="40.44" gradientTransform="matrix(1, 0, 0, 1, 0, 0)" xlink:href="#linear-gradient-2"/><linearGradient id="linear-gradient-56" x1="313.67" y1="39.01" x2="315.32" y2="39.01" gradientTransform="matrix(1, 0, 0, 1, 0, 0)" xlink:href="#linear-gradient-2"/><linearGradient id="linear-gradient-57" x1="341.82" y1="38.97" x2="343.49" y2="38.97" gradientTransform="matrix(1, 0, 0, 1, 0, 0)" xlink:href="#linear-gradient-2"/><linearGradient id="linear-gradient-58" x1="316.01" y1="37.75" x2="317.72" y2="37.75" gradientTransform="matrix(1, 0, 0, 1, 0, 0)" xlink:href="#linear-gradient-2"/><linearGradient id="linear-gradient-59" x1="339.41" y1="37.72" x2="341.14" y2="37.72" gradientTransform="matrix(1, 0, 0, 1, 0, 0)" xlink:href="#linear-gradient-2"/><linearGradient id="linear-gradient-60" x1="318.46" y1="36.74" x2="320.23" y2="36.74" gradientTransform="matrix(1, 0, 0, 1, 0, 0)" xlink:href="#linear-gradient-2"/><linearGradient id="linear-gradient-61" x1="336.9" y1="36.71" x2="338.67" y2="36.71" gradientTransform="matrix(1, 0, 0, 1, 0, 0)" xlink:href="#linear-gradient-2"/><linearGradient id="linear-gradient-62" x1="321.01" y1="35.97" x2="322.82" y2="35.97" gradientTransform="matrix(1, 0, 0, 1, 0, 0)" xlink:href="#linear-gradient-2"/><linearGradient id="linear-gradient-63" x1="334.3" y1="35.95" x2="336.11" y2="35.95" gradientTransform="matrix(1, 0, 0, 1, 0, 0)" xlink:href="#linear-gradient-2"/><linearGradient id="linear-gradient-64" x1="323.63" y1="35.45" x2="325.46" y2="35.45" gradientTransform="matrix(1, 0, 0, 1, 0, 0)" xlink:href="#linear-gradient-2"/><linearGradient id="linear-gradient-65" x1="331.66" y1="35.44" x2="333.49" y2="35.44" gradientTransform="matrix(1, 0, 0, 1, 0, 0)" xlink:href="#linear-gradient-2"/><linearGradient id="linear-gradient-66" x1="326.3" y1="35.19" x2="328.14" y2="35.19" gradientTransform="matrix(1, 0, 0, 1, 0, 0)" xlink:href="#linear-gradient-2"/><linearGradient id="linear-gradient-67" x1="328.98" y1="35.19" x2="330.82" y2="35.19" gradientTransform="matrix(1, 0, 0, 1, 0, 0)" xlink:href="#linear-gradient-2"/><linearGradient id="linear-gradient-68" x1="431.55" y1="118.37" x2="381.16" y2="164.68" gradientTransform="matrix(1, 0, 0, 1, 0, 0)" xlink:href="#linear-gradient-2"/><linearGradient id="linear-gradient-69" x1="320.48" y1="111.09" x2="355.88" y2="-3.31" gradientUnits="userSpaceOnUse"><stop offset="0" stop-color="#4f52ff"/><stop offset="1" stop-color="#4042e2"/></linearGradient><linearGradient id="linear-gradient-70" x1="315.16" y1="-6.26" x2="286.14" y2="177.95" xlink:href="#linear-gradient-69"/><linearGradient id="linear-gradient-71" x1="-17.49" y1="124.58" x2="100.99" y2="289.36" gradientTransform="translate(119.48 466.01) rotate(-180)" xlink:href="#linear-gradient-2"/><linearGradient id="linear-gradient-72" x1="40.62" y1="129.06" x2="-82.63" y2="-74.54" xlink:href="#linear-gradient-69"/><linearGradient id="linear-gradient-73" x1="69.66" y1="38.4" x2="60.84" y2="166.33" xlink:href="#linear-gradient-69"/><linearGradient id="linear-gradient-74" x1="287.77" y1="91.44" x2="379.69" y2="-16.83" gradientTransform="matrix(1, 0, 0, 1, 0, 0)" xlink:href="#linear-gradient-2"/><linearGradient id="linear-gradient-75" x1="236.67" y1="48.05" x2="328.6" y2="-60.21" gradientTransform="matrix(1, 0, 0, 1, 0, 0)" xlink:href="#linear-gradient-2"/><linearGradient id="linear-gradient-76" x1="264.21" y1="1.51" x2="358.18" y2="-76.8" xlink:href="#linear-gradient-69"/><linearGradient id="linear-gradient-77" x1="282.77" y1="-84.06" x2="250.81" y2="-29.59" xlink:href="#linear-gradient-69"/><linearGradient id="linear-gradient-78" x1="170.5" y1="239.77" x2="169.62" y2="-3.73" xlink:href="#linear-gradient-69"/><linearGradient id="linear-gradient-79" x1="165.71" y1="13.64" x2="169.94" y2="198.82" gradientTransform="matrix(1, 0, 0, 1, 0, 0)" xlink:href="#linear-gradient-2"/><linearGradient id="linear-gradient-80" x1="169.55" y1="250.25" x2="169.55" y2="353.48" gradientTransform="matrix(1, 0, 0, 1, 0, 0)" xlink:href="#linear-gradient-2"/><linearGradient id="linear-gradient-81" x1="176.45" y1="230.86" x2="166.99" y2="319.85" gradientTransform="matrix(1, 0, 0, 1, 0, 0)" xlink:href="#linear-gradient-2"/><linearGradient id="linear-gradient-82" x1="256.94" y1="377.69" x2="257.58" y2="306.27" gradientUnits="userSpaceOnUse"><stop offset="0" stop-color="#2c759e"/><stop offset="1" stop-color="#051042"/></linearGradient><linearGradient id="linear-gradient-83" x1="273.27" y1="272.9" x2="231.93" y2="459.31" xlink:href="#linear-gradient-82"/><linearGradient id="linear-gradient-84" x1="315.24" y1="215.4" x2="374.48" y2="86.7" xlink:href="#linear-gradient-69"/><linearGradient id="linear-gradient-85" x1="713.54" y1="303.32" x2="731.59" y2="296.16" gradientTransform="translate(-458)" gradientUnits="userSpaceOnUse"><stop offset="0" stop-color="#09005d"/><stop offset="1" stop-color="#1a0f91"/></linearGradient><linearGradient id="linear-gradient-86" x1="718.22" y1="300.79" x2="739.56" y2="300.79" xlink:href="#linear-gradient-85"/><linearGradient id="linear-gradient-87" x1="718.22" y1="310.1" x2="739.56" y2="310.1" xlink:href="#linear-gradient-85"/><linearGradient id="linear-gradient-88" x1="732.61" y1="303.32" x2="750.37" y2="296.27" xlink:href="#linear-gradient-85"/><linearGradient id="linear-gradient-89" x1="266.75" y1="334.61" x2="277.08" y2="334.61" xlink:href="#linear-gradient"/><linearGradient id="linear-gradient-90" x1="273.49" y1="326" x2="268.88" y2="334.35" gradientUnits="userSpaceOnUse"><stop offset="0" stop-color="#e1473d"/><stop offset="1" stop-color="#e9605a"/></linearGradient><linearGradient id="linear-gradient-91" x1="-6378.04" y1="-212.84" x2="-6385.55" y2="-195.27" gradientTransform="matrix(-1, -0.1, -0.1, 1, -6086.3, -61.62)" gradientUnits="userSpaceOnUse"><stop offset="0" stop-color="#febbba"/><stop offset="1" stop-color="#ff928e"/></linearGradient><linearGradient id="linear-gradient-92" x1="291.15" y1="347.46" x2="298.9" y2="296.35" gradientTransform="matrix(1, 0, 0, 1, 0, 0)" xlink:href="#linear-gradient-91"/><linearGradient id="linear-gradient-93" x1="-6416.31" y1="-218" x2="-6406.1" y2="-218" xlink:href="#linear-gradient-91"/><linearGradient id="linear-gradient-94" x1="-6393.52" y1="-216.98" x2="-6407.53" y2="-184.22" gradientTransform="matrix(-1, -0.1, -0.1, 1, -6086.3, -61.62)" xlink:href="#linear-gradient-90"/><linearGradient id="linear-gradient-95" x1="-6405.16" y1="-244.45" x2="-6397.91" y2="-244.45" xlink:href="#linear-gradient-91"/><linearGradient id="linear-gradient-96" x1="-6392.1" y1="-236.6" x2="-6430.49" y2="-187.35" gradientTransform="matrix(-1, -0.1, -0.1, 1, -6086.3, -61.62)" xlink:href="#linear-gradient-90"/><linearGradient id="linear-gradient-97" x1="-6362.63" y1="-240.32" x2="-6425.33" y2="-204.4" xlink:href="#linear-gradient-91"/><linearGradient id="linear-gradient-98" x1="-6356.4" y1="-229.44" x2="-6419.1" y2="-193.53" xlink:href="#linear-gradient-91"/><linearGradient id="linear-gradient-99" x1="-6393.09" y1="-244.46" x2="-6407.17" y2="-265.05" xlink:href="#linear-gradient-91"/><linearGradient id="linear-gradient-100" x1="319.18" y1="276.58" x2="323.94" y2="335.14" gradientTransform="matrix(1, 0, 0, 1, 0, 0)" xlink:href="#linear-gradient-85"/></defs><title>item4</title><g id="Illustration"><path d="M374,266.7C335.9,355.26,235.4,393.3,156.65,386.82c-21.5-1.77-64.76-5.34-98.54-37.12C-6.75,288.65,3.24,161.05,65.33,85.93c8-9.68,63.35-74.5,149.61-73.63,63.15.64,107.48,36.14,112.87,40.56a173.11,173.11,0,0,1,35.36,39.93C395,142.27,397.77,211.36,374,266.7Z" style="fill:url(#linear-gradient)"/><circle cx="329" cy="62.93" r="22.18" transform="translate(214.18 377.61) rotate(-80.78)" style="fill:url(#linear-gradient-2)"/><path d="M328.61,91H328a.26.26,0,0,1-.25-.26.25.25,0,0,1,.25-.25h0c.44,0,.89,0,1.33,0h0a.26.26,0,0,1,.25.25.25.25,0,0,1-.25.25Z" style="fill:url(#linear-gradient-3)"/><path d="M326.61,90.9h0c-.44,0-.9-.07-1.34-.13a.24.24,0,0,1-.22-.28.26.26,0,0,1,.28-.22c.43.06.88.1,1.32.13a.25.25,0,0,1,0,.5Z" style="fill:url(#linear-gradient-4)"/><path d="M330.64,90.9a.25.25,0,0,1-.26-.23.26.26,0,0,1,.24-.27c.44,0,.88-.08,1.32-.13a.24.24,0,0,1,.28.22.25.25,0,0,1-.22.28c-.44,0-.9.1-1.35.13Z" style="fill:url(#linear-gradient-5)"/><path d="M324,90.58h-.05c-.44-.07-.89-.16-1.33-.26a.25.25,0,0,1-.19-.3.26.26,0,0,1,.3-.19c.43.1.87.18,1.31.25a.25.25,0,0,1,.2.29A.24.24,0,0,1,324,90.58Z" style="fill:url(#linear-gradient-6)"/><path d="M333.3,90.58a.26.26,0,0,1-.25-.21.25.25,0,0,1,.21-.29c.43-.08.87-.16,1.3-.26a.26.26,0,0,1,.11.5c-.44.09-.88.18-1.33.25Z" style="fill:url(#linear-gradient-7)"/><path d="M321.33,90h-.07c-.44-.12-.87-.25-1.3-.39a.25.25,0,0,1-.16-.31.24.24,0,0,1,.32-.16c.42.13.84.26,1.27.37a.27.27,0,0,1,.18.31A.24.24,0,0,1,321.33,90Z" style="fill:url(#linear-gradient-8)"/><path d="M335.92,90a.24.24,0,0,1-.24-.19.24.24,0,0,1,.18-.3l1.27-.38a.25.25,0,1,1,.16.47c-.43.14-.87.27-1.3.39Z" style="fill:url(#linear-gradient-9)"/><path d="M318.77,89.18a.15.15,0,0,1-.09,0c-.42-.16-.85-.33-1.26-.51a.25.25,0,0,1-.13-.33.26.26,0,0,1,.33-.13c.41.18.82.35,1.24.5A.25.25,0,0,1,319,89,.24.24,0,0,1,318.77,89.18Z" style="fill:url(#linear-gradient-10)"/><path d="M338.47,89.17a.25.25,0,0,1-.23-.16.25.25,0,0,1,.14-.33c.42-.15.83-.32,1.23-.5a.26.26,0,0,1,.34.13.26.26,0,0,1-.13.33c-.41.18-.84.35-1.26.51A.15.15,0,0,1,338.47,89.17Z" style="fill:url(#linear-gradient-11)"/><path d="M316.3,88.11l-.11,0c-.4-.2-.81-.41-1.2-.63a.25.25,0,0,1-.1-.34.26.26,0,0,1,.35-.1c.38.22.78.42,1.17.62a.25.25,0,0,1-.11.48Z" style="fill:url(#linear-gradient-12)"/><path d="M340.93,88.1a.27.27,0,0,1-.23-.14.25.25,0,0,1,.12-.34c.39-.19.79-.4,1.17-.62a.25.25,0,1,1,.25.44c-.39.22-.8.43-1.2.63A.23.23,0,0,1,340.93,88.1Z" style="fill:url(#linear-gradient-13)"/><path d="M314,86.8a.22.22,0,0,1-.13,0L312.69,86a.25.25,0,0,1-.07-.35.26.26,0,0,1,.35-.07c.37.26.74.5,1.12.73a.26.26,0,0,1,.08.35A.25.25,0,0,1,314,86.8Z" style="fill:url(#linear-gradient-14)"/><path d="M343.27,86.79a.24.24,0,0,1-.21-.12.24.24,0,0,1,.08-.34c.37-.23.74-.48,1.11-.73a.25.25,0,0,1,.35.06.25.25,0,0,1-.07.35c-.37.26-.75.51-1.13.75A.28.28,0,0,1,343.27,86.79Z" style="fill:url(#linear-gradient-15)"/><path d="M311.74,85.27a.23.23,0,0,1-.15,0c-.36-.27-.71-.56-1.06-.85a.26.26,0,0,1,0-.35.25.25,0,0,1,.36,0l1,.83a.24.24,0,0,1,0,.35A.23.23,0,0,1,311.74,85.27Z" style="fill:url(#linear-gradient-16)"/><path d="M345.48,85.27a.26.26,0,0,1-.2-.1.24.24,0,0,1,0-.35c.35-.27.7-.55,1-.84a.25.25,0,0,1,.35,0,.25.25,0,0,1,0,.36c-.34.29-.69.57-1.05.85A.3.3,0,0,1,345.48,85.27Z" style="fill:url(#linear-gradient-17)"/><path d="M309.69,83.54a.23.23,0,0,1-.17-.07c-.33-.3-.65-.62-1-.94a.26.26,0,0,1,0-.36.25.25,0,0,1,.36,0l.95.92a.25.25,0,0,1,0,.36A.27.27,0,0,1,309.69,83.54Z" style="fill:url(#linear-gradient-18)"/><path d="M347.53,83.54a.27.27,0,0,1-.19-.08.26.26,0,0,1,0-.36q.5-.45,1-.93a.24.24,0,0,1,.35,0,.25.25,0,0,1,0,.35c-.32.32-.64.64-1,1A.28.28,0,0,1,347.53,83.54Z" style="fill:url(#linear-gradient-19)"/><path d="M307.82,81.62a.27.27,0,0,1-.19-.08c-.3-.34-.59-.69-.88-1a.25.25,0,0,1,0-.35.26.26,0,0,1,.36,0c.27.34.56.68.85,1a.25.25,0,0,1,0,.36A.23.23,0,0,1,307.82,81.62Z" style="fill:url(#linear-gradient-20)"/><path d="M349.4,81.62a.23.23,0,0,1-.17-.07.25.25,0,0,1,0-.35c.3-.33.59-.68.86-1a.25.25,0,1,1,.39.32c-.28.35-.57.69-.87,1A.25.25,0,0,1,349.4,81.62Z" style="fill:url(#linear-gradient-21)"/><path d="M306.13,79.53a.25.25,0,0,1-.2-.1c-.26-.37-.52-.74-.77-1.12a.24.24,0,0,1,.07-.34.25.25,0,0,1,.35.07c.24.37.5.73.76,1.09a.25.25,0,0,1-.06.35A.2.2,0,0,1,306.13,79.53Z" style="fill:url(#linear-gradient-22)"/><path d="M351.08,79.52a.23.23,0,0,1-.14,0,.26.26,0,0,1-.06-.36c.26-.35.52-.72.76-1.09A.25.25,0,0,1,352,78a.25.25,0,0,1,.07.35c-.25.37-.51.75-.77,1.11A.25.25,0,0,1,351.08,79.52Z" style="fill:url(#linear-gradient-23)"/><path d="M304.66,77.29a.26.26,0,0,1-.22-.12c-.22-.39-.45-.79-.65-1.18a.25.25,0,1,1,.44-.24c.21.39.42.78.65,1.16a.26.26,0,0,1-.09.35A.28.28,0,0,1,304.66,77.29Z" style="fill:url(#linear-gradient-24)"/><path d="M352.56,77.28a.22.22,0,0,1-.13,0,.25.25,0,0,1-.09-.34c.23-.38.45-.77.65-1.16a.25.25,0,0,1,.34-.11.26.26,0,0,1,.11.34c-.21.4-.43.8-.66,1.18A.26.26,0,0,1,352.56,77.28Z" style="fill:url(#linear-gradient-25)"/><path d="M303.41,74.92a.26.26,0,0,1-.23-.15c-.19-.4-.37-.82-.54-1.23a.25.25,0,0,1,.14-.33.25.25,0,0,1,.33.13c.16.41.34.82.53,1.22a.26.26,0,0,1-.12.34Z" style="fill:url(#linear-gradient-26)"/><path d="M353.81,74.9l-.11,0a.26.26,0,0,1-.12-.34c.19-.4.37-.81.54-1.22a.25.25,0,0,1,.32-.14.25.25,0,0,1,.14.33c-.17.42-.35.83-.54,1.24A.24.24,0,0,1,353.81,74.9Z" style="fill:url(#linear-gradient-27)"/><path d="M302.4,72.44a.26.26,0,0,1-.24-.17q-.23-.64-.42-1.29a.25.25,0,0,1,.17-.31.24.24,0,0,1,.31.17q.19.63.42,1.26a.26.26,0,0,1-.16.32Z" style="fill:url(#linear-gradient-28)"/><path d="M354.83,72.41l-.09,0a.24.24,0,0,1-.15-.32c.14-.41.28-.84.41-1.26a.25.25,0,0,1,.48.14c-.13.43-.27.87-.42,1.29A.25.25,0,0,1,354.83,72.41Z" style="fill:url(#linear-gradient-29)"/><path d="M301.63,69.87a.26.26,0,0,1-.25-.2c-.1-.44-.2-.88-.29-1.32a.26.26,0,0,1,.5-.1c.08.44.18.87.28,1.3a.25.25,0,0,1-.18.31Z" style="fill:url(#linear-gradient-30)"/><path d="M355.59,69.84h-.06a.25.25,0,0,1-.18-.31c.1-.43.2-.86.28-1.3a.25.25,0,0,1,.3-.19.24.24,0,0,1,.2.29c-.09.44-.19.89-.29,1.32A.26.26,0,0,1,355.59,69.84Z" style="fill:url(#linear-gradient-31)"/><path d="M301.11,67.23a.26.26,0,0,1-.25-.21c-.06-.45-.12-.9-.16-1.35a.25.25,0,0,1,.23-.27.24.24,0,0,1,.27.22c.05.44.1.89.16,1.32a.25.25,0,0,1-.21.29Z" style="fill:url(#linear-gradient-32)"/><path d="M356.11,67.2h0a.25.25,0,0,1-.21-.29c.06-.43.11-.88.15-1.32a.26.26,0,0,1,.51,0c0,.45-.1.9-.17,1.35A.24.24,0,0,1,356.11,67.2Z" style="fill:url(#linear-gradient-33)"/><path d="M300.85,64.56a.25.25,0,0,1-.25-.24q0-.67,0-1.35a.26.26,0,0,1,.25-.26h0a.26.26,0,0,1,.25.26c0,.44,0,.89,0,1.33a.26.26,0,0,1-.24.26Z" style="fill:url(#linear-gradient-34)"/><path d="M356.36,64.53h0a.25.25,0,0,1-.24-.26c0-.44,0-.89,0-1.33v-.06a.25.25,0,1,1,.5,0v.06q0,.68,0,1.35A.25.25,0,0,1,356.36,64.53Z" style="fill:url(#linear-gradient-35)"/><path d="M300.85,61.88h0a.26.26,0,0,1-.24-.27c0-.45,0-.9.1-1.35A.25.25,0,0,1,301,60a.26.26,0,0,1,.23.28c0,.44-.08.88-.1,1.33A.25.25,0,0,1,300.85,61.88Z" style="fill:url(#linear-gradient-36)"/><path d="M356.36,61.79a.25.25,0,0,1-.25-.24c0-.44-.06-.89-.1-1.33a.25.25,0,1,1,.5,0c0,.45.08.9.1,1.35a.26.26,0,0,1-.24.27Z" style="fill:url(#linear-gradient-37)"/><path d="M301.11,59.2h0a.25.25,0,0,1-.21-.28c.06-.45.14-.9.22-1.34a.25.25,0,0,1,.3-.2.27.27,0,0,1,.2.3c-.09.43-.16.87-.23,1.31A.24.24,0,0,1,301.11,59.2Z" style="fill:url(#linear-gradient-38)"/><path d="M356.1,59.11a.25.25,0,0,1-.25-.21c-.07-.44-.14-.88-.23-1.31a.25.25,0,0,1,.2-.3.26.26,0,0,1,.3.2c.08.44.16.89.23,1.34a.25.25,0,0,1-.22.28Z" style="fill:url(#linear-gradient-39)"/><path d="M301.62,56.57h-.06a.25.25,0,0,1-.19-.3c.11-.44.23-.88.35-1.31a.26.26,0,0,1,.32-.17.25.25,0,0,1,.17.31c-.13.43-.25.86-.35,1.29A.26.26,0,0,1,301.62,56.57Z" style="fill:url(#linear-gradient-40)"/><path d="M355.58,56.48a.26.26,0,0,1-.25-.19c-.1-.43-.22-.86-.35-1.28a.26.26,0,0,1,.17-.32.25.25,0,0,1,.31.17c.13.43.25.87.36,1.31a.24.24,0,0,1-.18.3Z" style="fill:url(#linear-gradient-41)"/><path d="M302.38,54l-.08,0a.24.24,0,0,1-.16-.32c.15-.42.31-.85.48-1.27a.25.25,0,0,1,.47.19c-.17.41-.33.83-.47,1.25A.27.27,0,0,1,302.38,54Z" style="fill:url(#linear-gradient-42)"/><path d="M354.81,53.91a.25.25,0,0,1-.24-.17c-.15-.41-.31-.83-.48-1.24a.25.25,0,1,1,.47-.19q.26.63.48,1.26a.26.26,0,0,1-.15.33Z" style="fill:url(#linear-gradient-43)"/><path d="M303.39,51.5a.22.22,0,0,1-.11,0,.25.25,0,0,1-.12-.33c.19-.41.39-.82.6-1.22a.26.26,0,0,1,.34-.11.25.25,0,0,1,.11.34c-.21.39-.4.8-.59,1.2A.24.24,0,0,1,303.39,51.5Z" style="fill:url(#linear-gradient-44)"/><path d="M353.79,51.43a.24.24,0,0,1-.23-.15c-.19-.39-.38-.79-.59-1.18a.25.25,0,1,1,.44-.24c.21.4.42.81.61,1.21a.26.26,0,0,1-.12.34Z" style="fill:url(#linear-gradient-45)"/><path d="M304.64,49.12a.31.31,0,0,1-.13,0,.26.26,0,0,1-.09-.35c.23-.38.47-.77.72-1.15a.25.25,0,1,1,.42.28c-.24.37-.48.75-.7,1.13A.25.25,0,0,1,304.64,49.12Z" style="fill:url(#linear-gradient-46)"/><path d="M352.54,49.06a.25.25,0,0,1-.22-.12c-.22-.38-.46-.76-.7-1.13a.25.25,0,0,1,.07-.35.26.26,0,0,1,.35.07c.24.38.49.76.71,1.15a.24.24,0,0,1-.08.34A.22.22,0,0,1,352.54,49.06Z" style="fill:url(#linear-gradient-47)"/><path d="M306.11,46.88a.3.3,0,0,1-.15-.05.25.25,0,0,1,0-.35c.26-.37.54-.73.82-1.08a.25.25,0,0,1,.39.31c-.27.35-.54.7-.8,1.06A.26.26,0,0,1,306.11,46.88Z" style="fill:url(#linear-gradient-48)"/><path d="M351.06,46.82a.28.28,0,0,1-.2-.1c-.26-.36-.53-.71-.81-1.06a.25.25,0,1,1,.39-.31c.28.35.56.71.83,1.07a.25.25,0,0,1-.06.35A.27.27,0,0,1,351.06,46.82Z" style="fill:url(#linear-gradient-49)"/><path d="M307.79,44.78a.23.23,0,0,1-.16-.06.25.25,0,0,1,0-.36c.3-.33.61-.67.93-1a.24.24,0,0,1,.35,0,.25.25,0,0,1,0,.35c-.31.32-.62.65-.91,1A.27.27,0,0,1,307.79,44.78Z" style="fill:url(#linear-gradient-50)"/><path d="M349.38,44.73a.27.27,0,0,1-.19-.08c-.29-.33-.6-.66-.91-1a.26.26,0,0,1,0-.36.24.24,0,0,1,.35,0c.32.32.63.66.93,1a.26.26,0,0,1,0,.36A.27.27,0,0,1,349.38,44.73Z" style="fill:url(#linear-gradient-51)"/><path d="M309.67,42.86a.27.27,0,0,1-.19-.08.26.26,0,0,1,0-.36c.33-.3.67-.61,1-.9a.25.25,0,0,1,.32.39c-.33.28-.67.58-1,.88A.23.23,0,0,1,309.67,42.86Z" style="fill:url(#linear-gradient-52)"/><path d="M347.5,42.81a.27.27,0,0,1-.17-.06c-.33-.3-.66-.6-1-.88a.26.26,0,0,1,0-.36.25.25,0,0,1,.36,0c.34.29.68.59,1,.9a.24.24,0,0,1,0,.35A.21.21,0,0,1,347.5,42.81Z" style="fill:url(#linear-gradient-53)"/><path d="M311.71,41.13a.28.28,0,0,1-.2-.1.27.27,0,0,1,.05-.36c.36-.27.73-.54,1.09-.79a.27.27,0,0,1,.36.06.26.26,0,0,1-.07.35c-.36.25-.72.52-1.07.78A.25.25,0,0,1,311.71,41.13Z" style="fill:url(#linear-gradient-54)"/><path d="M345.45,41.08a.24.24,0,0,1-.16,0c-.35-.27-.71-.53-1.07-.78a.25.25,0,0,1-.07-.35.25.25,0,0,1,.35-.06c.37.25.74.52,1.1.79a.25.25,0,0,1-.15.45Z" style="fill:url(#linear-gradient-55)"/><path d="M313.92,39.6a.22.22,0,0,1-.21-.12.25.25,0,0,1,.08-.35c.38-.24.77-.47,1.16-.69a.26.26,0,0,1,.34.1.24.24,0,0,1-.09.34c-.39.22-.77.45-1.15.68A.22.22,0,0,1,313.92,39.6Z" style="fill:url(#linear-gradient-56)"/><path d="M343.23,39.56a.22.22,0,0,1-.13,0c-.37-.23-.76-.46-1.15-.67a.26.26,0,0,1-.09-.35.24.24,0,0,1,.34-.09l1.17.68a.26.26,0,0,1,.08.35A.25.25,0,0,1,343.23,39.56Z" style="fill:url(#linear-gradient-57)"/><path d="M316.26,38.29a.27.27,0,0,1-.23-.14.25.25,0,0,1,.12-.34c.4-.2.81-.39,1.22-.57a.25.25,0,0,1,.2.46l-1.2.56A.23.23,0,0,1,316.26,38.29Z" style="fill:url(#linear-gradient-58)"/><path d="M340.88,38.26l-.11,0c-.39-.2-.8-.38-1.21-.56a.26.26,0,0,1-.13-.33.25.25,0,0,1,.33-.13c.42.18.83.37,1.24.57a.25.25,0,0,1,.11.33A.25.25,0,0,1,340.88,38.26Z" style="fill:url(#linear-gradient-59)"/><path d="M318.71,37.22a.26.26,0,0,1-.23-.17.24.24,0,0,1,.14-.32c.42-.16.85-.31,1.28-.45a.25.25,0,0,1,.32.16.26.26,0,0,1-.16.32c-.42.13-.85.28-1.26.44Z" style="fill:url(#linear-gradient-60)"/><path d="M338.42,37.18h-.09c-.41-.16-.84-.31-1.26-.44a.26.26,0,0,1-.16-.32.25.25,0,0,1,.32-.16c.42.14.86.29,1.28.45a.24.24,0,0,1,.14.32A.24.24,0,0,1,338.42,37.18Z" style="fill:url(#linear-gradient-61)"/><path d="M321.26,36.38a.25.25,0,0,1-.06-.49c.43-.12.87-.23,1.31-.33a.25.25,0,0,1,.3.19.25.25,0,0,1-.19.3l-1.29.32Z" style="fill:url(#linear-gradient-62)"/><path d="M335.86,36.36h-.07c-.42-.12-.86-.22-1.29-.32a.24.24,0,0,1-.19-.29.25.25,0,0,1,.3-.2l1.32.32a.25.25,0,0,1,.17.31A.26.26,0,0,1,335.86,36.36Z" style="fill:url(#linear-gradient-63)"/><path d="M323.88,35.8a.24.24,0,0,1-.24-.21.25.25,0,0,1,.2-.29c.44-.07.89-.14,1.34-.19a.24.24,0,0,1,.28.22.25.25,0,0,1-.22.28c-.44,0-.88.11-1.31.19Z" style="fill:url(#linear-gradient-64)"/><path d="M333.24,35.79h0l-1.32-.19a.24.24,0,0,1-.22-.27.26.26,0,0,1,.28-.23c.45.06.9.12,1.34.2a.25.25,0,0,1,.21.29A.26.26,0,0,1,333.24,35.79Z" style="fill:url(#linear-gradient-65)"/><path d="M326.55,35.48a.26.26,0,0,1,0-.51l1.35-.06a.24.24,0,0,1,.26.24.25.25,0,0,1-.24.26c-.45,0-.89,0-1.33.07Z" style="fill:url(#linear-gradient-66)"/><path d="M330.57,35.47h0c-.44,0-.89,0-1.33-.06a.26.26,0,0,1-.25-.26.24.24,0,0,1,.26-.24l1.35.06a.25.25,0,0,1,0,.5Z" style="fill:url(#linear-gradient-67)"/><path d="M248,173.12H366.32a0,0,0,0,1,0,0V291a2.74,2.74,0,0,1-2.74,2.74H248a0,0,0,0,1,0,0V173.12A0,0,0,0,1,248,173.12Z" style="fill:url(#linear-gradient-68)"/><g style="opacity:0.89"><rect x="260.74" y="205.88" width="35.74" height="55.09" rx="0.15" ry="0.15" style="fill:#fff;opacity:0.93"/><rect x="279.99" y="208.86" width="13.87" height="49.14" rx="0.08" ry="0.08" style="fill:#91b3fa"/><rect x="263.34" y="208.86" width="13.87" height="49.14" rx="0.08" ry="0.08" style="fill:#91b3fa"/></g><g style="opacity:0.89"><rect x="314.55" y="205.88" width="35.74" height="55.09" rx="0.15" ry="0.15" style="fill:#fff;opacity:0.93"/><rect x="333.81" y="208.86" width="13.87" height="49.14" rx="0.08" ry="0.08" style="fill:#bdd0fb"/><rect x="317.16" y="208.86" width="13.87" height="49.14" rx="0.08" ry="0.08" style="fill:#bdd0fb"/></g><path d="M367.65,182.64H246.84L241.91,127l99.87-1.22,30.63,52.08C374,180.1,371.48,182.64,367.65,182.64Z" style="fill:url(#linear-gradient-69)"/><path d="M342.19,128.36l-96-.68.6-6.22,89.73.44c3.47.13,6.11,1.93,5.91,4Z" style="fill:url(#linear-gradient-70)"/><path d="M28.47,172.7H88a3,3,0,0,1,3,3V293.31a0,0,0,0,1,0,0H28.47a0,0,0,0,1,0,0V172.7A0,0,0,0,1,28.47,172.7Z" transform="translate(119.48 466.01) rotate(180)" style="fill:url(#linear-gradient-71)"/><g style="opacity:0.89"><rect x="41.69" y="205.46" width="35.74" height="55.09" rx="0.15" ry="0.15" transform="translate(119.11 466.01) rotate(180)" style="fill:#fff"/><rect x="44.29" y="208.44" width="13.87" height="49.14" rx="0.08" ry="0.08" transform="translate(102.46 466.01) rotate(180)" style="fill:#91b3fa"/><rect x="60.94" y="208.44" width="13.87" height="49.14" rx="0.08" ry="0.08" transform="translate(135.76 466.01) rotate(180)" style="fill:#bdd0fb"/></g><path d="M16.7,182.23H94l3.15-55.63-63.89-1.22L13.65,177.46A3.36,3.36,0,0,0,16.7,182.23Z" style="fill:url(#linear-gradient-72)"/><path d="M33,127.94l61.41-.68L94,121l-57.4.44a3.89,3.89,0,0,0-3.78,4Z" style="fill:url(#linear-gradient-73)"/><path d="M82.37,165.4V288.82a9.81,9.81,0,0,0,9.81,9.81H253a3.13,3.13,0,0,0,3.13-3.13V165.4Z" style="fill:url(#linear-gradient-74)"/><rect x="196.67" y="202.64" width="50.6" height="80.97" rx="0.42" ry="0.42" style="fill:#fff"/><rect x="199.48" y="206.04" width="44.88" height="74.58" rx="0.39" ry="0.39" style="fill:#bdd0fb"/><rect x="219.71" y="205.02" width="2.57" height="78.6" style="fill:#fff"/><rect x="91.01" y="202.64" width="50.6" height="80.97" rx="0.42" ry="0.42" style="fill:#fff"/><rect x="93.81" y="206.04" width="44.88" height="74.58" rx="0.39" ry="0.39" style="fill:#bdd0fb"/><rect x="114.04" y="205.02" width="2.57" height="78.6" style="fill:#fff"/><polygon points="258.16 90.88 256.69 89.77 256.69 88.21 254.63 88.21 169.25 23.68 82.92 88.21 82.92 165.4 256.69 165.4 256.69 98.84 258.16 90.88" style="fill:url(#linear-gradient-75)"/><rect x="207.37" y="31.19" width="14.37" height="23.4" style="fill:url(#linear-gradient-76)"/><path d="M204.06,27.79h21.17A1.24,1.24,0,0,1,226.48,29V35a0,0,0,0,1,0,0H203.25a0,0,0,0,1,0,0V28.61A.82.82,0,0,1,204.06,27.79Z" style="fill:url(#linear-gradient-77)"/><path d="M77.11,100.5l92.21-70.71,87.53,67.89a5.43,5.43,0,0,0,8.65-3.2l1.23-6-97.41-74.2L75,86.28a4.7,4.7,0,0,0-1.49,5.52Z" style="fill:url(#linear-gradient-78)"/><g style="opacity:0.89"><rect x="150.7" y="98.87" width="35.74" height="55.09" rx="0.15" ry="0.15" transform="translate(337.14 252.84) rotate(180)" style="fill:#fff"/><rect x="153.31" y="101.85" width="13.87" height="49.14" rx="0.08" ry="0.08" transform="translate(320.49 252.84) rotate(180)" style="fill:#91b3fa"/><rect x="169.96" y="101.85" width="13.87" height="49.14" rx="0.08" ry="0.08" transform="translate(353.79 252.84) rotate(180)" style="fill:#91b3fa"/></g><g style="opacity:0.89"><rect x="100.55" y="99.26" width="35.74" height="55.09" rx="0.15" ry="0.15" transform="translate(236.84 253.62) rotate(180)" style="fill:#fff"/><rect x="103.16" y="102.24" width="13.87" height="49.14" rx="0.08" ry="0.08" transform="translate(220.19 253.62) rotate(180)" style="fill:#91b3fa"/><rect x="119.81" y="102.24" width="13.87" height="49.14" rx="0.08" ry="0.08" transform="translate(253.49 253.62) rotate(180)" style="fill:#91b3fa"/></g><g style="opacity:0.89"><rect x="198.68" y="99.76" width="35.74" height="55.09" rx="0.15" ry="0.15" transform="translate(433.1 254.61) rotate(180)" style="fill:#fff"/><rect x="201.29" y="102.74" width="13.87" height="49.14" rx="0.08" ry="0.08" transform="translate(416.45 254.61) rotate(180)" style="fill:#91b3fa"/><rect x="217.94" y="102.74" width="13.87" height="49.14" rx="0.08" ry="0.08" transform="translate(449.75 254.61) rotate(180)" style="fill:#91b3fa"/></g><rect x="77.42" y="163.82" width="183.65" height="9.95" rx="1.06" ry="1.06" style="fill:url(#linear-gradient-79)"/><path d="M138.17,287.17h62.76a.42.42,0,0,1,.42.42V298a0,0,0,0,1,0,0H137.74a0,0,0,0,1,0,0V287.6A.42.42,0,0,1,138.17,287.17Z" style="fill:url(#linear-gradient-80)"/><path d="M133.76,291.58H205a.42.42,0,0,1,.42.42v10.37a0,0,0,0,1,0,0H133.33a0,0,0,0,1,0,0V292A.42.42,0,0,1,133.76,291.58Z" style="fill:url(#linear-gradient-81)"/><path d="M191.25,287.17H147.84V203a.47.47,0,0,1,.48-.48h42.46a.47.47,0,0,1,.47.48Z" style="fill:#7d97f4"/><path d="M163.52,264.4H157a4,4,0,0,1-4-4V212a4,4,0,0,1,4-4h6.56a4,4,0,0,1,4,4v48.44A4,4,0,0,1,163.52,264.4ZM157,208.52a3.48,3.48,0,0,0-3.48,3.48v48.44a3.49,3.49,0,0,0,3.48,3.49h6.56a3.49,3.49,0,0,0,3.48-3.49V212a3.48,3.48,0,0,0-3.48-3.48Z" style="fill:#bdd0fb"/><path d="M181.8,264.4h-6.55a4,4,0,0,1-4-4V212a4,4,0,0,1,4-4h6.55a4,4,0,0,1,4,4v48.44A4,4,0,0,1,181.8,264.4Zm-6.55-55.88a3.49,3.49,0,0,0-3.49,3.48v48.44a3.5,3.5,0,0,0,3.49,3.49h6.55a3.5,3.5,0,0,0,3.49-3.49V212a3.49,3.49,0,0,0-3.49-3.48Z" style="fill:#bdd0fb"/><path d="M163.52,280.74H157a4,4,0,0,1-4-4V271.2a4,4,0,0,1,4-4h6.56a4,4,0,0,1,4,4v5.57A4,4,0,0,1,163.52,280.74Zm-6.56-13a3.48,3.48,0,0,0-3.48,3.48v5.57a3.48,3.48,0,0,0,3.48,3.49h6.56a3.48,3.48,0,0,0,3.48-3.49V271.2a3.48,3.48,0,0,0-3.48-3.48Z" style="fill:#bdd0fb"/><path d="M181.8,280.74h-6.55a4,4,0,0,1-4-4V271.2a4,4,0,0,1,4-4h6.55a4,4,0,0,1,4,4v5.57A4,4,0,0,1,181.8,280.74Zm-6.55-13a3.49,3.49,0,0,0-3.49,3.48v5.57a3.49,3.49,0,0,0,3.49,3.49h6.55a3.49,3.49,0,0,0,3.49-3.49V271.2a3.49,3.49,0,0,0-3.49-3.48Z" style="fill:#bdd0fb"/><path d="M388.71,370.26v0c1.45-3.11.28-8,.28-8l-1.37.64a30.84,30.84,0,0,0-4-5.27c-19.18-21.24-39.06-20.2-7.34-31.6,3.67-1.32,5.91-2.64,6.84-3.95h0s1.56-1.62.17-5a2.17,2.17,0,0,0-1.56.89c-11.5-8.24-74-14.84-154.23-13.65-63.05.92-91.73,7.21-104.59,12.13a8.4,8.4,0,0,0-4.25,3.48A6,6,0,0,0,118,319c-.78,1.74-.27,5.68-.27,5.68l.1-.07a8,8,0,0,0,5.83,6.22c17.23,5.13,42.48-5.05,8.87,29.29a23,23,0,0,0-4.71,6.44,20.79,20.79,0,0,1-.31-3.16c-1.32,3.28-.54,7.76-.54,7.76v0c3.3,28.35,179.4,10.49,209,8.62,23.66-1.49,47.91-1.37,52.5-9.1h0C388.55,370.57,388.63,370.41,388.71,370.26Z" style="fill:#7d97f4"/><path d="M323.05,371.1c-26.21,1.77-196.2,20.39-162.24-16.85,26.79-29.39,6.67-20.67-7.07-25.07a6.77,6.77,0,0,1-4.06-3.46,6.29,6.29,0,0,1-.67-2.58,6.64,6.64,0,0,1,4.2-6.38c10.26-4.21,33.12-9.6,83.39-10.39,79.15-1.25,136.73,7.7,122.25,16.88a21.25,21.25,0,0,1-3.62,1.74c-25.29,9.75-9.44,8.87,5.85,27S349.25,369.32,323.05,371.1Z" style="fill:url(#linear-gradient-82)"/><path d="M323.05,371.1c-26.21,1.77-196.2,20.39-162.24-16.85,26.79-29.39,6.67-20.67-7.07-25.07a6.77,6.77,0,0,1-4.06-3.46,6.81,6.81,0,0,1,3.53-3.27c10.26-4.2,33.12-9.59,83.39-10.38,62.43-1,111.44,4.37,122.25,11.18a21.25,21.25,0,0,1-3.62,1.74c-25.29,9.75-9.44,8.87,5.85,27S349.25,369.32,323.05,371.1Z" style="fill:url(#linear-gradient-83)"/><path d="M383.67,353.92c-19.18-20.59-39.06-19.59-7.34-30.64s-43.25-22.61-148.78-21.1c-63.05.9-91.73,7-104.59,11.77a7.53,7.53,0,0,0-5.26,7.24,7.74,7.74,0,0,0,5.92,6.84c17.23,5,42.48-4.9,8.87,28.4-42.59,42.2,170.6,21.1,203.47,19.09S402.86,374.52,383.67,353.92Z" style="fill:#91b3fa"/><path d="M323.05,367.06c-26.21,1.72-196.2,19.78-162.24-16.34,26.79-28.5,6.67-20.05-7.07-24.31a6.69,6.69,0,0,1-4.06-3.36,5.92,5.92,0,0,1-.67-2.49,6.45,6.45,0,0,1,4.2-6.2c10.26-4.08,33.12-9.3,83.39-10.07,79.15-1.21,136.73,7.47,122.25,16.37a20.76,20.76,0,0,1-3.62,1.69c-25.29,9.45-9.44,8.6,5.85,26.22S349.25,365.34,323.05,367.06Z" style="fill:#7d97f4"/><path d="M323.05,367.06c-26.21,1.72-196.2,19.78-162.24-16.34,26.79-28.5,6.67-20.05-7.07-24.31a6.69,6.69,0,0,1-4.06-3.36,6.74,6.74,0,0,1,3.53-3.16c10.26-4.08,33.12-9.3,83.39-10.07,62.43-1,111.44,4.24,122.25,10.84a20.76,20.76,0,0,1-3.62,1.69c-25.29,9.45-9.44,8.6,5.85,26.22S349.25,365.34,323.05,367.06Z" style="fill:url(#linear-gradient-84)"/><path d="M261.53,316.39a1.07,1.07,0,0,1-1.13-1V288.45a3.78,3.78,0,0,1,1.94-3.31,5.06,5.06,0,0,1,4.25-.37l.81.23a4.19,4.19,0,0,1,3,3.69v13.13a1.14,1.14,0,0,1-2.27,0V288.69a2.21,2.21,0,0,0-1.6-1.83l-.76-.23a2.46,2.46,0,0,0-2.1.18,1.9,1.9,0,0,0-1,1.64v26.94A1.07,1.07,0,0,1,261.53,316.39Z" style="fill:url(#linear-gradient-85)"/><path d="M280.41,301.93h-19a1.14,1.14,0,1,1,0-2.27h19a1.14,1.14,0,1,1,0,2.27Z" style="fill:url(#linear-gradient-86)"/><path d="M280.41,311h-19c-.64,0-1.16-.36-1.16-.91s.52-.91,1.16-.91h19c.63,0,1.15.35,1.15.91S281,311,280.41,311Z" style="fill:url(#linear-gradient-87)"/><path d="M280.6,316.39a1.06,1.06,0,0,1-1.13-1V288.45a3.76,3.76,0,0,1,1.92-3.31,5,5,0,0,1,4.24-.37l.64.24a4,4,0,0,1,2.82,3.65l.12,14.11a1.07,1.07,0,0,1-1.15,1h0a1.06,1.06,0,0,1-1.16-.95l-.12-14.13a2,2,0,0,0-1.4-1.8l-.67-.24a2.36,2.36,0,0,0-2,.19,1.8,1.8,0,0,0-.92,1.64v26.94A1.07,1.07,0,0,1,280.6,316.39Z" style="fill:url(#linear-gradient-88)"/><path d="M172.91,362.35c-4.12-.88-6.43-2.39-6.85-4.51-1.09-5.44,10.3-13.32,17.83-18.53l1.24-.86c2.37-1.65,3.41-3.21,3.08-4.64-.74-3.18-8.22-6-21.05-8-3.14-.48-3.64-1.09-3.74-1.51s.12-.73.62-1.09c4.09-3,27.5-6.63,29-5.69l-.24.39c-1.27-.78-24.51,2.73-28.53,5.67-.18.13-.49.4-.44.61s.48.73,3.37,1.17c9.22,1.41,20.42,4,21.42,8.3.38,1.63-.72,3.35-3.26,5.12l-1.24.86c-7,4.83-18.68,12.92-17.64,18.07.38,1.92,2.57,3.32,6.5,4.15Z" style="fill:#91b3fa"/><path d="M348.09,361.18l0-.45c6.28-.58,9.82-2.13,10.51-4.62,1.23-4.37-6.7-10.3-6.78-10.36l.27-.36c.34.25,8.26,6.17,6.95,10.84C358.25,358.92,354.58,360.59,348.09,361.18Z" style="fill:#bdd0fb"/><path d="M138.89,373.32a.23.23,0,0,1-.21-.14.22.22,0,0,1,.12-.3l15.72-6.48a.22.22,0,0,1,.29.12.23.23,0,0,1-.12.3L139,373.3Z" style="fill:#bdd0fb"/><path d="M382.67,367.38h-.07l-13.84-4.69a.23.23,0,0,1,.15-.43l13.84,4.69a.23.23,0,0,1-.08.44Z" style="fill:#bdd0fb"/><path d="M357.73,331.67h0l-12.11-2a.23.23,0,0,1-.19-.26.22.22,0,0,1,.26-.19l12.11,2a.23.23,0,0,1,0,.45Z" style="fill:#bdd0fb"/><path d="M357.73,313a.23.23,0,0,1-.2-.13.21.21,0,0,1,.11-.3L363,310a.23.23,0,0,1,.3.11.21.21,0,0,1-.11.3l-5.33,2.52Z" style="fill:#bdd0fb"/><path d="M148,319.32h0l-23.64-3a.22.22,0,0,1-.2-.25.24.24,0,0,1,.26-.2l23.64,3a.23.23,0,0,1,0,.45Z" style="fill:#bdd0fb"/><path d="M128.94,322.17a.23.23,0,0,1,0-.46l17.81-.67a.23.23,0,0,1,.23.22.23.23,0,0,1-.22.24l-17.8.67Z" style="fill:#bdd0fb"/><path d="M371.91,371a.25.25,0,0,1-.18-.08L366,364a.23.23,0,0,1,.35-.29l5.76,6.95a.23.23,0,0,1,0,.32A.24.24,0,0,1,371.91,371Z" style="fill:#bdd0fb"/><path d="M276.68,330.29a24.82,24.82,0,0,0,0-8.93h-9.51a25.11,25.11,0,0,0,0,8.93,8.91,8.91,0,0,0,3.92,5.9l-.06,9.9h-.65a1.77,1.77,0,0,0-1.85,1.45v.31h6.36v-.31a1.31,1.31,0,0,0-1.36-1.45H272.4v-9.8A8.26,8.26,0,0,0,276.68,330.29Z" style="fill:url(#linear-gradient-89)"/><path d="M276,327.37h-8.11c-.06,5.3,2.82,7.73,3.47,8.2.09.06.18.27.28.27h.17c.09,0,.18-.2.26-.25C276.11,333,276,327.37,276,327.37Z" style="fill:url(#linear-gradient-90)"/><path d="M302.44,356.55s-28.08-3.36-29.24,0-4.36,11-4.36,11l21.36-3.14Z" style="fill:url(#linear-gradient-91)"/><path d="M259.76,371.73l9.62-.57,2.88-3.37L286,371.2a75.19,75.19,0,0,0,7.89,1.45H294l.26,0,1.43.2h0l.2,0H296l.26,0,.79.1,0,0c2.5.32,5.45.56,9,1h0c.2,0,.4,0,.6.05l1.76.17,1.29.06H310c1.56,0,2.64-.33,3.09-.85h0c3.18-1.59,2.76-5.28,1.16-9-.34-.79-.56-1.57-1-2.34s-.67-1.38-1-2a40,40,0,0,0-3.85-5.15l-.13.39c0-.1.18-.48.18-.48l-.29-.07-7.81,1.44-2.85.53h0s-17.34,2.13-25.48,3l-2.38.26C265.29,360.58,261.47,367.38,259.76,371.73Z" style="fill:url(#linear-gradient-92)"/><path d="M314.18,328.62s16.06,27.62-3.83,39l-1.73-1.88s10.3-10,2.38-24.2Z" style="fill:url(#linear-gradient-93)"/><path d="M294,372.66v0l1.95.26H296c2.77.36,6.1.75,10,1.14l2.45.23c2.53.23,4.36-.08,5.38-.77h0c3.52-1.93,1.87-6.91-.37-11.3-2-3.95-4.52-7.46-4.73-8l-.13-.13-11-.86a20.12,20.12,0,0,1-.24,3.57c-.13,1-.31,2.23-.62,3.76C296.33,363.21,295,367.5,294,372.66Z" style="fill:url(#linear-gradient-94)"/><polygon points="305.78 318.78 304.14 327.63 311.36 328.34 310.9 314.53 305.78 318.78" style="fill:url(#linear-gradient-95)"/><path d="M313.61,327.31c-2.47-.38-8-1.18-12-1.35a4.61,4.61,0,0,0-4.6,3.22l-1.41,4.52a11.17,11.17,0,0,0-.36,5.2l2.47,14.56s3.24,2.4,11,.93c0,0,8.18-15.14,6.46-25.52A1.91,1.91,0,0,0,313.61,327.31Z" style="fill:url(#linear-gradient-96)"/><path d="M297.3,328.37c-1.34,2.7-2.58,5.54-3.89,8.19-.65,1.32-1.32,2.62-2,3.8-.35.59-.72,1.12-1.06,1.61a7.61,7.61,0,0,1-.9,1s.07.06.11.06-.73.05-1,.07l-.89-.09a31.75,31.75,0,0,1-4.1-1c-2.87-.83-5.82-1.89-8.88-2.78h0a1.1,1.1,0,0,0-1.37.75,1.13,1.13,0,0,0,.25,1.06,31.71,31.71,0,0,0,3.69,3.28c.65.5,1.32,1,2,1.45s1.4.9,2.13,1.32a26.33,26.33,0,0,0,4.79,2.17c.47.13.93.26,1.42.37a14.22,14.22,0,0,0,1.66.2l1,0c.18,0,.3,0,.52,0l.68-.16a7,7,0,0,0,1.17-.46,10.12,10.12,0,0,0,.92-.54,11.64,11.64,0,0,0,2.41-2.3,19,19,0,0,0,1.61-2.28,32.92,32.92,0,0,0,2.34-4.57,44,44,0,0,0,2.91-9.43,2.9,2.9,0,0,0-5.45-1.83Z" style="fill:url(#linear-gradient-97)"/><path d="M275.56,340.83l-1-3.19L268,335.29s-.66,1.12,2.14,1.91a2.49,2.49,0,0,0-.71,2.4C269.8,341,275.43,342.87,275.56,340.83Z" style="fill:url(#linear-gradient-98)"/><path d="M303.74,308.16c-.28.13-3,7.09-1.6,10.26s6.93.32,8.76-3.89S311,304.79,303.74,308.16Z" style="fill:url(#linear-gradient-99)"/><path d="M316.65,315.1c.6,5.82,4.61,4.64,7.1,7.45,4,4.55,10.78.93,16.56,5.43,4.17,3.26,5.61,10.67,2.9,16.28C339.46,352,329,354.34,324,351.37c-4.78-2.83-3.38-9.79-9.84-13.16-2.75-1.44-4.23-.83-5.78-2.7-2.7-3.29-1.32-9-.79-11.21,1.15-4.79,2.86-5.5,2.3-7.71-1.11-4.3-8.24-4.13-8.54-7.12-.28-2.71,5.33-7.26,10.06-6C318.77,305.44,316.38,312.5,316.65,315.1Z" style="fill:url(#linear-gradient-100)"/><path d="M341.12,342.67a.2.2,0,0,0,.21-.13c1.34-3.86,1.23-7.14-.34-9.76-2.6-4.35-8.38-5.32-8.44-5.33a.2.2,0,0,0-.23.16.19.19,0,0,0,.17.22c.05,0,5.66,1,8.16,5.15,1.51,2.52,1.61,5.69.31,9.43a.19.19,0,0,0,.12.25Z" style="fill:#bdd0fb"/><path d="M321.69,344.42h0a.1.1,0,0,0,.08-.11c-.58-3.65-2-6.29-4.12-7.83a9.54,9.54,0,0,0-4.47-1.57,5.19,5.19,0,0,1-3.29-1.3c-1.74-1.87-1.23-5.93,1.51-12a.1.1,0,0,0-.18-.08c-2.77,6.19-3.27,10.32-1.48,12.26a5.36,5.36,0,0,0,3.41,1.35,9.49,9.49,0,0,1,4.39,1.54c2.11,1.51,3.47,4.1,4,7.7A.09.09,0,0,0,321.69,344.42Z" style="fill:#bdd0fb"/><path d="M314,313.41h0a.09.09,0,0,0,.07-.12c-.52-2.27-2.68-2.15-5-2a9.83,9.83,0,0,1-4.16-.34c-.9-.36-1.41-.85-1.52-1.43-.18-1,.89-2,.9-2a.1.1,0,0,0,0-.14.09.09,0,0,0-.13,0,2.8,2.8,0,0,0-1,2.17c.12.66.67,1.19,1.64,1.59a10.23,10.23,0,0,0,4.24.34c2.29-.12,4.28-.23,4.76,1.88A.1.1,0,0,0,314,313.41Z" style="fill:#bdd0fb"/><path d="M75.29,221.88A34.4,34.4,0,0,0,78,209.11c0-11.33-7.3-21.26-12.8-30.63-5.06-8.61-9.29-21.67,5.73-21.55,12,.1,26.79,11,29.27,23.22,2.92,14.51-2.89,33.47,6.5,46.16,13.13,17.77,21.36,12.9,23.58,44.29,1,13.41-5.95,21.33-14.17,26a35.7,35.7,0,0,1-40.61-3.68c-10.1-8.48-16.65-21.23-15.69-34.57S70.48,234,75.29,221.88Z" style="fill:#7d97f4"/><path d="M92.43,322.08a.41.41,0,0,0,.38-.34c5.31-30.08,7.44-57.15,6.33-80.47-.88-18.67-3.83-35-8.77-48.52-8.43-23.1-19.56-29.92-20-30.2a.42.42,0,0,0-.43.72c.11.07,11.4,7,19.72,29.87C97.32,214.28,104,253.72,92,321.59a.41.41,0,0,0,.34.48Z" style="fill:#91b3fa"/><path d="M36.35,266c-1.64-10.81,2.29-23.22,4.25-34.65a54.93,54.93,0,0,0,.55-18.13c-1-6.06-3.81-12.6-1.19-18.63,5.29-12.16,17.85-6.63,25,2.52,8.36,10.62,10.64,28,13.81,41.32,1.91,8,4.79,16.31,5.8,24.51,1.67,13.6-1.4,23-7.9,29.41a19.69,19.69,0,0,1-23.37,3.13C46.45,291.64,39,283.43,36.35,266Z" style="fill:#91b3fa"/><path d="M65.09,316.41H65a.68.68,0,0,1-.56-.78,268.37,268.37,0,0,0,2.82-39.24c.06-20.9-2.18-51.53-13.21-78.8a.69.69,0,0,1,.38-.89.68.68,0,0,1,.88.37c11.12,27.49,13.38,58.32,13.31,79.35a271.67,271.67,0,0,1-2.83,39.43A.69.69,0,0,1,65.09,316.41Z" style="fill:#7d97f4"/><path d="M354.48,296.58s-23,14.35-35.37,2c-9.9-9.91,6.33-3.44,21.41-2.51a.93.93,0,0,0,.19-1.85c-11.52-1.68-28.8-5.29-30.1-11.92-2-10,1.54-5.94,14.7-.84s16.72,2.51,8.48-2.08-23.57-4-25.63-9.18S306.73,256,306.47,252s19.42-4.35,23,1.84,4.48,18,9.74,21.62,1.69-7.64-.78-13.62-3-10,4.41-6.68,8.78,13.92,7.59,21.17.42,11.95,1.28,8.44,2.64-14.52,1.08-18.42S367.67,271.34,354.48,296.58Z" style="fill:#91b3fa"/><path d="M353,296.36a.28.28,0,0,1-.23-.11c-11.31-17.45-33.84-34.21-34.06-34.37a.24.24,0,0,1,0-.34.24.24,0,0,1,.33-.05c.23.17,22.83,17,34.19,34.5a.24.24,0,0,1-.07.33Z" style="fill:#fff;opacity:0.53"/><path d="M368.65,302.2s-29.7,1-34.62-17.47c-4-14.83,7.89.2,21.66,9.34a1,1,0,0,0,1.2-1.64c-10-7.91-24.4-20.8-22-27.79,3.63-10.55,4.72-4.79,14.4,7.26s14.46,11.53,9.17,2.68-20.16-16.69-19.26-22.75,6.43-14.24,8.38-18.2,20.79,6.52,20.75,14.32-5.62,19.53-2.61,25.83,5.79-6.31,6.73-13.33,2.69-11.14,7.84-3.92.69,18-4.41,24.23-6.15,11.55-3.41,8.7,10.45-12.32,11.12-16.87S395,285.51,368.65,302.2Z" style="fill:#7d97f4"/><path d="M367.37,301.17a.27.27,0,0,1-.15-.22c-1.16-22.74-13.33-51-13.46-51.24a.28.28,0,0,1,.14-.35.26.26,0,0,1,.34.14c.13.28,12.34,28.59,13.5,51.42a.26.26,0,0,1-.24.28A.28.28,0,0,1,367.37,301.17Z" style="fill:#fff;opacity:0.53"/></g></svg>