<svg xmlns="http://www.w3.org/2000/svg" xmlns:xlink="http://www.w3.org/1999/xlink" viewBox="0 0 400 400"><defs><linearGradient id="linear-gradient" x1="403.96" y1="429.58" x2="135.4" y2="139.7" gradientUnits="userSpaceOnUse"><stop offset="0" stop-color="#dae3fe"/><stop offset="1" stop-color="#e9effd"/></linearGradient><linearGradient id="linear-gradient-2" x1="437.19" y1="-68.4" x2="389.68" y2="40.58" gradientUnits="userSpaceOnUse"><stop offset="0" stop-color="#4f52ff"/><stop offset="1" stop-color="#4042e2"/></linearGradient><linearGradient id="linear-gradient-3" x1="322.6" y1="138.77" x2="344.44" y2="14.37" xlink:href="#linear-gradient-2"/><linearGradient id="linear-gradient-4" x1="198.52" y1="-47.76" x2="106.3" y2="131.09" xlink:href="#linear-gradient-2"/><linearGradient id="linear-gradient-5" x1="91.66" y1="98.23" x2="113.49" y2="-26.17" xlink:href="#linear-gradient-2"/><linearGradient id="linear-gradient-6" x1="182.58" y1="289.23" x2="219.44" y2="289.23" xlink:href="#linear-gradient-2"/><linearGradient id="linear-gradient-7" x1="312.02" y1="-127.17" x2="283.48" y2="-46.46" xlink:href="#linear-gradient-2"/><linearGradient id="linear-gradient-8" x1="228.96" y1="-116.53" x2="212.2" y2="25.99" xlink:href="#linear-gradient-2"/><linearGradient id="linear-gradient-9" x1="-6705.56" y1="375.06" x2="-6690.56" y2="375.06" gradientTransform="matrix(-1, 0, 0, 1, -6387.96, 0)" gradientUnits="userSpaceOnUse"><stop offset="0" stop-color="#09005d"/><stop offset="1" stop-color="#1a0f91"/></linearGradient><linearGradient id="linear-gradient-10" x1="-6701.38" y1="357.98" x2="-6704.25" y2="382.99" gradientTransform="matrix(-1, 0, 0, 1, -6387.96, 0)" gradientUnits="userSpaceOnUse"><stop offset="0" stop-color="#a22b25"/><stop offset="1" stop-color="#c0423c"/></linearGradient><linearGradient id="linear-gradient-11" x1="-6682.72" y1="375.44" x2="-6661.13" y2="375.44" xlink:href="#linear-gradient-9"/><linearGradient id="linear-gradient-12" x1="-6494.93" y1="-6.28" x2="-6497.79" y2="18.73" gradientTransform="matrix(-1, -0.06, -0.06, 1, -6191.86, -41.64)" xlink:href="#linear-gradient-10"/><linearGradient id="linear-gradient-13" x1="790.84" y1="381.57" x2="820.49" y2="240.17" gradientTransform="translate(-496.4)" xlink:href="#linear-gradient-9"/><linearGradient id="linear-gradient-14" x1="-2328.65" y1="-1383.63" x2="-2394.83" y2="-1328.71" gradientTransform="matrix(-1, 0, 0, 1, -3967.37, 0)" gradientUnits="userSpaceOnUse"><stop offset="0" stop-color="#ff928e"/><stop offset="1" stop-color="#fe7062"/></linearGradient><linearGradient id="linear-gradient-15" x1="308.65" y1="227.79" x2="296.74" y2="287.79" gradientUnits="userSpaceOnUse"><stop offset="0" stop-color="#febbba"/><stop offset="1" stop-color="#ff928e"/></linearGradient><linearGradient id="linear-gradient-16" x1="293.61" y1="212.35" x2="301.55" y2="172.06" gradientTransform="matrix(1, 0, 0, 1, 0, 0)" xlink:href="#linear-gradient-10"/><linearGradient id="linear-gradient-17" x1="-4039.21" y1="-623.23" x2="-4065.68" y2="-527.06" xlink:href="#linear-gradient-14"/><linearGradient id="linear-gradient-18" x1="-4035.78" y1="-622.29" x2="-4062.25" y2="-526.12" xlink:href="#linear-gradient-14"/><linearGradient id="linear-gradient-19" x1="-6124.67" y1="-1227.63" x2="-6136.44" y2="-1197.64" xlink:href="#linear-gradient-10"/><linearGradient id="linear-gradient-20" x1="-6688.91" y1="174.61" x2="-6670.73" y2="198.01" xlink:href="#linear-gradient-9"/><linearGradient id="linear-gradient-21" x1="-6130.27" y1="-1229.83" x2="-6142.03" y2="-1199.83" xlink:href="#linear-gradient-10"/><linearGradient id="linear-gradient-22" x1="739.85" y1="193.13" x2="781.16" y2="228.81" gradientTransform="translate(-496.4)" xlink:href="#linear-gradient-10"/><linearGradient id="linear-gradient-23" x1="267.58" y1="204.27" x2="257.66" y2="284.34" gradientTransform="matrix(1, 0, 0, 1, 0, 0)" xlink:href="#linear-gradient-10"/><linearGradient id="linear-gradient-24" x1="738.33" y1="194.9" x2="779.63" y2="230.58" gradientTransform="translate(-496.4)" xlink:href="#linear-gradient-10"/><linearGradient id="linear-gradient-25" x1="-2334.73" y1="1394.61" x2="-2414.29" y2="1561.52" gradientTransform="translate(1358.04 -2373.81) rotate(-34.57)" gradientUnits="userSpaceOnUse"><stop offset="0" stop-color="#e1473d"/><stop offset="1" stop-color="#e9605a"/></linearGradient><linearGradient id="linear-gradient-26" x1="2647.86" y1="-156.96" x2="2604.23" y2="-70.16" gradientTransform="matrix(-0.66, 0.75, 0.75, 0.66, 2026.23, -1667.55)" xlink:href="#linear-gradient-14"/><linearGradient id="linear-gradient-27" x1="-2389.78" y1="1442.17" x2="-2325.36" y2="1593.27" gradientTransform="translate(1358.04 -2373.81) rotate(-34.57)" gradientUnits="userSpaceOnUse"><stop offset="0" stop-color="#ff9085"/><stop offset="1" stop-color="#fb6fbb"/></linearGradient><linearGradient id="linear-gradient-28" x1="-2400.19" y1="1462.81" x2="-2373.31" y2="1561.38" gradientTransform="translate(1358.04 -2373.81) rotate(-34.57)" xlink:href="#linear-gradient-15"/><linearGradient id="linear-gradient-29" x1="245.32" y1="151.03" x2="211.79" y2="367.2" gradientTransform="matrix(1, 0, 0, 1, 0, 0)" xlink:href="#linear-gradient-14"/><linearGradient id="linear-gradient-30" x1="356.77" y1="159.95" x2="317.07" y2="191.05" gradientTransform="matrix(1, 0, 0, 1, 0, 0)" xlink:href="#linear-gradient-10"/><linearGradient id="linear-gradient-31" x1="324.26" y1="188.31" x2="409.67" y2="281.71" gradientTransform="matrix(1, 0, 0, 1, 0, 0)" xlink:href="#linear-gradient-9"/><linearGradient id="linear-gradient-32" x1="451.59" y1="143.98" x2="385.41" y2="198.9" gradientTransform="matrix(1, 0, 0, 1, 0, 0)" xlink:href="#linear-gradient-14"/><linearGradient id="linear-gradient-33" x1="-9171.38" y1="1655.11" x2="-9169.16" y2="1639.34" gradientTransform="translate(9615.82 1043.3) rotate(15.3)" xlink:href="#linear-gradient-15"/><linearGradient id="linear-gradient-34" x1="-9181.56" y1="1621.32" x2="-9160.79" y2="1645.2" gradientTransform="translate(9615.82 1043.3) rotate(15.3)" xlink:href="#linear-gradient-15"/><linearGradient id="linear-gradient-35" x1="337.42" y1="179.62" x2="429.76" y2="280.61" gradientTransform="matrix(1, 0, 0, 1, 0, 0)" xlink:href="#linear-gradient-9"/><linearGradient id="linear-gradient-36" x1="-9176.37" y1="1616.81" x2="-9155.61" y2="1640.68" gradientTransform="translate(9615.82 1043.3) rotate(15.3)" xlink:href="#linear-gradient-15"/><linearGradient id="linear-gradient-37" x1="5536.52" y1="413.69" x2="5586.07" y2="326.23" gradientTransform="matrix(-1, 0.01, 0.01, 1, 5905.71, -50.52)" xlink:href="#linear-gradient-15"/><linearGradient id="linear-gradient-38" x1="5547.32" y1="382.77" x2="5561.8" y2="382.77" gradientTransform="matrix(-1, 0.01, 0.01, 1, 5905.71, -50.52)" xlink:href="#linear-gradient-9"/><linearGradient id="linear-gradient-39" x1="5592.67" y1="348.99" x2="5518.57" y2="372.69" gradientTransform="matrix(-1, 0.01, 0.01, 1, 5905.71, -50.52)" xlink:href="#linear-gradient-15"/><linearGradient id="linear-gradient-40" x1="5560.75" y1="385.39" x2="5578.01" y2="385.39" gradientTransform="matrix(-1, 0.01, 0.01, 1, 5905.71, -50.52)" xlink:href="#linear-gradient-9"/><linearGradient id="linear-gradient-41" x1="336.09" y1="293.61" x2="360.58" y2="253.25" gradientTransform="matrix(1, 0, 0, 1, 0, 0)" xlink:href="#linear-gradient-25"/><linearGradient id="linear-gradient-42" x1="5607.74" y1="473" x2="5689.92" y2="378.99" gradientTransform="matrix(-0.99, -0.11, -0.11, 0.99, 5991.13, 403.5)" xlink:href="#linear-gradient-15"/><linearGradient id="linear-gradient-43" x1="2443.68" y1="1337.6" x2="2455.98" y2="1365.56" gradientTransform="translate(-2414.33 -499.14) rotate(-12.16)" xlink:href="#linear-gradient-15"/><linearGradient id="linear-gradient-44" x1="2444.01" y1="1339.72" x2="2457.39" y2="1370.17" gradientTransform="translate(-2414.33 -499.14) rotate(-12.16)" xlink:href="#linear-gradient-15"/><linearGradient id="linear-gradient-45" x1="248.07" y1="286.02" x2="251.72" y2="286.02" gradientTransform="matrix(1, 0, 0, 1, 0, 0)" xlink:href="#linear-gradient-14"/><linearGradient id="linear-gradient-46" x1="-7210.25" y1="268.97" x2="-7224.33" y2="281.39" gradientTransform="matrix(-1, 0, 0, 1, -6950.82, 0)" xlink:href="#linear-gradient-9"/><linearGradient id="linear-gradient-47" x1="-7799.64" y1="-837.9" x2="-7788.21" y2="-837.9" gradientTransform="matrix(-0.98, -0.18, -0.18, 0.98, -7524.24, -272.32)" xlink:href="#linear-gradient-9"/><linearGradient id="linear-gradient-48" x1="-7186.43" y1="-1244.78" x2="-7248.14" y2="-1201.72" gradientTransform="matrix(-0.98, -0.18, -0.18, 0.98, -7524.24, -272.32)" xlink:href="#linear-gradient-9"/><linearGradient id="linear-gradient-49" x1="-7222.7" y1="375.81" x2="-7211.76" y2="375.81" gradientTransform="matrix(-1, 0, 0, 1, -6950.82, 0)" xlink:href="#linear-gradient-25"/><linearGradient id="linear-gradient-50" x1="-7236.56" y1="379.35" x2="-7230.47" y2="379.35" gradientTransform="matrix(-1, 0, 0, 1, -6950.82, 0)" xlink:href="#linear-gradient-25"/><linearGradient id="linear-gradient-51" x1="-7229.56" y1="310.27" x2="-7228.68" y2="301.32" gradientTransform="matrix(-1, 0, 0, 1, -6950.82, 0)" xlink:href="#linear-gradient-15"/><linearGradient id="linear-gradient-52" x1="-7190.12" y1="217.93" x2="-7153.26" y2="105.03" gradientTransform="matrix(-1, 0, 0, 1, -6950.82, 0)" xlink:href="#linear-gradient-15"/><linearGradient id="linear-gradient-53" x1="-7179.1" y1="221.53" x2="-7142.23" y2="108.63" gradientTransform="matrix(-1, 0, 0, 1, -6950.82, 0)" xlink:href="#linear-gradient-15"/><linearGradient id="linear-gradient-54" x1="-7263.49" y1="346.49" x2="-7233.94" y2="305.89" gradientTransform="matrix(-1, 0, 0, 1, -6950.82, 0)" xlink:href="#linear-gradient-15"/><linearGradient id="linear-gradient-55" x1="461.8" y1="156.28" x2="395.63" y2="211.21" gradientTransform="matrix(1, 0, 0, 1, 0, 0)" xlink:href="#linear-gradient-14"/><linearGradient id="linear-gradient-56" x1="475.42" y1="172.69" x2="409.25" y2="227.61" gradientTransform="matrix(1, 0, 0, 1, 0, 0)" xlink:href="#linear-gradient-14"/><linearGradient id="linear-gradient-57" x1="464.89" y1="160.01" x2="398.72" y2="214.93" gradientTransform="matrix(1, 0, 0, 1, 0, 0)" xlink:href="#linear-gradient-25"/><linearGradient id="linear-gradient-58" x1="-7784.85" y1="-918.55" x2="-7783.68" y2="-935.99" gradientTransform="matrix(-0.99, -0.17, -0.19, 1.03, -7568.84, -101.09)" xlink:href="#linear-gradient-15"/><linearGradient id="linear-gradient-59" x1="-7768.77" y1="-818.77" x2="-7767.59" y2="-836.23" gradientTransform="matrix(-0.98, -0.18, -0.18, 0.98, -7524.24, -272.32)" xlink:href="#linear-gradient-15"/><linearGradient id="linear-gradient-60" x1="-7785.24" y1="-819.87" x2="-7784.06" y2="-837.33" gradientTransform="matrix(-0.98, -0.18, -0.18, 0.98, -7524.24, -272.32)" xlink:href="#linear-gradient-15"/><linearGradient id="linear-gradient-61" x1="-7187.59" y1="-1246.44" x2="-7249.3" y2="-1203.38" gradientTransform="matrix(-0.98, -0.18, -0.18, 0.98, -7524.24, -272.32)" xlink:href="#linear-gradient-9"/><linearGradient id="linear-gradient-62" x1="-571.91" y1="524.26" x2="-566.66" y2="423.04" gradientTransform="matrix(-1, 0, 0, 1, -448.34, 0)" xlink:href="#linear-gradient-9"/><linearGradient id="linear-gradient-63" x1="1930.32" y1="358.96" x2="1927.53" y2="383.3" gradientTransform="translate(-1811.84)" xlink:href="#linear-gradient-15"/><linearGradient id="linear-gradient-64" x1="1962.98" y1="423.58" x2="1968.23" y2="322.37" gradientTransform="translate(-1811.84)" xlink:href="#linear-gradient-9"/><linearGradient id="linear-gradient-65" x1="1959.7" y1="362.08" x2="1957.09" y2="384.85" gradientTransform="translate(-1811.84)" xlink:href="#linear-gradient-15"/><linearGradient id="linear-gradient-66" x1="176.05" y1="200.01" x2="117.33" y2="371.9" gradientTransform="matrix(1, 0, 0, 1, 0, 0)" xlink:href="#linear-gradient-25"/><linearGradient id="linear-gradient-67" x1="137.87" y1="239.71" x2="70.8" y2="272.48" gradientTransform="matrix(1, 0, 0, 1, 0, 0)" xlink:href="#linear-gradient-9"/><linearGradient id="linear-gradient-68" x1="120.47" y1="204.65" x2="132.98" y2="204.65" xlink:href="#linear-gradient-15"/><linearGradient id="linear-gradient-69" x1="798.49" y1="-532.08" x2="820.4" y2="-537.41" gradientTransform="matrix(0.88, -0.48, 0.48, 0.88, 726.99, 90.39)" xlink:href="#linear-gradient-15"/><linearGradient id="linear-gradient-70" x1="-581.98" y1="-206.33" x2="-559.41" y2="-206.33" gradientTransform="matrix(0.88, -0.48, 0.48, 0.88, 726.99, 90.39)" xlink:href="#linear-gradient-9"/><linearGradient id="linear-gradient-71" x1="797.72" y1="-535.25" x2="819.63" y2="-540.58" gradientTransform="matrix(0.88, -0.48, 0.48, 0.88, 726.99, 90.39)" xlink:href="#linear-gradient-15"/><linearGradient id="linear-gradient-72" x1="134.2" y1="232.19" x2="67.12" y2="264.96" gradientTransform="matrix(1, 0, 0, 1, 0, 0)" xlink:href="#linear-gradient-9"/><linearGradient id="linear-gradient-73" x1="123.52" y1="268.47" x2="101.26" y2="287.49" xlink:href="#linear-gradient-15"/><linearGradient id="linear-gradient-74" x1="137.51" y1="238.97" x2="70.43" y2="271.74" gradientTransform="matrix(1, 0, 0, 1, 0, 0)" xlink:href="#linear-gradient-9"/><linearGradient id="linear-gradient-75" x1="172.91" y1="237.2" x2="220.56" y2="220.88" xlink:href="#linear-gradient-15"/><linearGradient id="linear-gradient-76" x1="172.85" y1="237.01" x2="220.49" y2="220.69" xlink:href="#linear-gradient-15"/></defs><title>item5</title><g id="Illustration"><path d="M367,264.23C330,350.29,232.3,387.26,155.78,381c-20.9-1.72-62.94-5.18-95.76-36.07C-3,285.56,6.69,161.56,67,88.56,74.8,79.15,128.6,16.17,212.42,17c61.37.62,104.44,35.11,109.68,39.41a168.46,168.46,0,0,1,34.37,38.8C387.37,143.31,390.09,210.45,367,264.23Z" style="fill:url(#linear-gradient)"/><path d="M18.31,290.65c35.4,116,314.74,125.37,365.14,14.69,3.46-7.59-2.64-15.93-11.77-16.09l-346.57-6.4C20.52,282.76,17.1,286.67,18.31,290.65Z" style="fill:#bdd0fb"/><path d="M259.6,289.16s12.44-166,79.54-265.68c4.51-6.7,15-6,18.44,1.32C380.73,73.52,434.74,223.74,259.6,289.16Z" style="fill:#bdd0fb"/><path d="M274.47,276.33c-.34.45.3,1,.71.57,14.81-14.56,69.94-83.47,74.07-204.8a.32.32,0,0,0-.64-.06C345.05,100.56,328.64,206.21,274.47,276.33Z" style="fill:#fff;opacity:0.5"/><path d="M71.51,121.21a54.85,54.85,0,0,0,5.67-20C78.45,83.13,68,66.51,60.25,51,53.17,36.69,47.9,15.4,71.81,17.3c19,1.51,41.43,20.49,44,40.28,3,23.42-8.38,53,5.14,74.24,18.91,29.76,32.55,22.94,32.55,73.17,0,21.47-11.88,33.31-25.5,39.83a57,57,0,0,1-64.25-10.44c-15.13-14.64-24.12-35.69-21.08-56.82C45.73,156.22,62.47,140,71.51,121.21Z" style="fill:#bdd0fb"/><path d="M87.49,282.71a.66.66,0,0,0,.64-.5C100,234.91,106.43,192,107.3,154.79c.7-29.84-2.16-56.17-8.49-78.26C88,38.8,71,26.68,70.31,26.18a.67.67,0,0,0-.76,1.1c.18.12,17.36,12.44,28,49.8,9.86,34.52,16,98.08-10.74,204.8a.67.67,0,0,0,.48.81Z" style="fill:#7d97f4"/><path d="M52.53,68.26a8,8,0,0,1,3-.21c6,.69,8.4,7,10.15,11.88,1.5,4.21,3.27,9.32,2.38,13.87-.95,4.93-6.19,9-10,4-4.32-5.69-10.79-14.42-10.83-22C47.24,72.05,49.34,69.12,52.53,68.26Z" style="fill:#bdd0fb"/><path d="M19.19,235.57c-2.62-17.26,3.66-37.07,6.79-55.31,1.65-9.65,2.42-19.23.87-28.95S20.76,131.2,25,121.57c8.44-19.4,28.49-10.57,40,4,13.33,17,17,44.64,22,66,3,12.86,7.65,26,9.26,39.14,2.67,21.7-2.24,36.76-12.62,46.94a31.42,31.42,0,0,1-37.3,5C35.31,276.51,23.42,263.41,19.19,235.57Z" style="fill:#91b3fa"/><path d="M65.07,315.63H65a.66.66,0,0,1-.54-.76c0-.26,4.39-26.49,4.5-62.7.1-33.4-3.48-82.36-21.11-126a.66.66,0,1,1,1.22-.49c17.72,43.82,21.32,93,21.21,126.5-.11,36.31-4.47,62.63-4.51,62.89A.67.67,0,0,1,65.07,315.63Z" style="fill:#7d97f4"/><path d="M291,196.75h70.32a0,0,0,0,1,0,0V329.68a2.68,2.68,0,0,1-2.68,2.68H291a0,0,0,0,1,0,0V196.75A0,0,0,0,1,291,196.75Z" style="fill:#7d97f4"/><g style="opacity:0.89"><rect x="306.28" y="233.58" width="40.18" height="61.94" rx="0.15" ry="0.15" style="fill:#fff;opacity:0.67"/><rect x="327.93" y="236.93" width="15.6" height="55.25" rx="0.08" ry="0.08" style="fill:#7d97f4"/><rect x="309.21" y="236.93" width="15.6" height="55.25" rx="0.08" ry="0.08" style="fill:#7d97f4"/></g><path d="M374.56,207.45h-86.9l-3.54-62.54L356,143.54l22,58.55A3.77,3.77,0,0,1,374.56,207.45Z" style="fill:url(#linear-gradient-2)"/><path d="M356.25,146.42l-69.05-.77.43-7,64.54.49a4.39,4.39,0,0,1,4.25,4.52Z" style="fill:url(#linear-gradient-3)"/><path d="M44.14,196.27h67.4a2.92,2.92,0,0,1,2.92,2.92V331.88a0,0,0,0,1,0,0H44.14a0,0,0,0,1,0,0V196.27A0,0,0,0,1,44.14,196.27Z" transform="translate(158.59 528.16) rotate(180)" style="fill:#7d97f4"/><g style="opacity:0.89"><rect x="59" y="233.11" width="40.18" height="61.94" rx="0.15" ry="0.15" transform="translate(158.17 528.16) rotate(180)" style="fill:#fff;opacity:0.67"/><rect x="61.92" y="236.45" width="15.6" height="55.25" rx="0.08" ry="0.08" transform="translate(139.45 528.16) rotate(180)" style="fill:#7d97f4"/><rect x="80.65" y="236.45" width="15.6" height="55.25" rx="0.08" ry="0.08" transform="translate(176.89 528.16) rotate(180)" style="fill:#7d97f4"/></g><path d="M30.9,207h86.89l3.55-62.54L49.5,143.07l-22,58.55A3.77,3.77,0,0,0,30.9,207Z" style="fill:url(#linear-gradient-4)"/><path d="M49.21,146l69.05-.77-.44-7-64.53.49A4.38,4.38,0,0,0,49,143.2Z" style="fill:url(#linear-gradient-5)"/><path d="M104.73,188.07V326.84a11,11,0,0,0,11,11H296.58a3.53,3.53,0,0,0,3.53-3.53V188.07Z" style="fill:#91b3fa"/><path d="M181.54,250.34h38.94a.47.47,0,0,1,.47.47v77.32a0,0,0,0,1,0,0H181.07a0,0,0,0,1,0,0V250.8A.47.47,0,0,1,181.54,250.34Z" style="fill:#7d97f4"/><path d="M183,253.27H219a.47.47,0,0,1,.47.47v71.45a0,0,0,0,1,0,0H182.58a0,0,0,0,1,0,0V253.74A.47.47,0,0,1,183,253.27Z" style="fill:url(#linear-gradient-6)"/><path d="M218.13,245.1H183.89a2.81,2.81,0,0,1-2.82-2.81v-2.46a2.82,2.82,0,0,1,2.62-2.81l34.25-2.38a2.82,2.82,0,0,1,3,2.81v4.84A2.81,2.81,0,0,1,218.13,245.1Z" style="fill:#bdd0fb"/><path d="M220.68,332.94H181.81a3.19,3.19,0,0,1-3.19-3.2V327c0-1.68,1.28-6.32,2.95-6.44l38.89.56a3.19,3.19,0,0,1,3.41,3.18v5.49A3.19,3.19,0,0,1,220.68,332.94Z" style="fill:#bdd0fb"/><path d="M220.78,339H181.92a3.2,3.2,0,0,1-3.2-3.2V333c0-1.68.37-4.79,2-4.91l39.8-1a3.2,3.2,0,0,1,3.42,3.19v5.49A3.2,3.2,0,0,1,220.78,339Z" style="fill:#7d97f4"/><rect x="233.26" y="229.94" width="56.89" height="91.04" rx="0.41" ry="0.41" style="fill:#fff"/><rect x="236.41" y="233.76" width="50.47" height="83.86" rx="0.38" ry="0.38" style="fill:#7d97f4"/><rect x="259.16" y="232.61" width="2.89" height="88.37" style="fill:#fff"/><rect x="114.45" y="229.94" width="56.89" height="91.04" rx="0.41" ry="0.41" style="fill:#fff"/><rect x="117.6" y="233.76" width="50.47" height="83.86" rx="0.38" ry="0.38" style="fill:#7d97f4"/><rect x="140.35" y="232.61" width="2.89" height="88.37" style="fill:#fff"/><polygon points="302.4 104.28 300.74 103.02 300.74 101.28 298.43 101.28 202.42 28.72 105.36 101.28 105.36 188.07 300.74 188.07 300.74 113.23 302.4 104.28" style="fill:#91b3fa"/><rect x="245.28" y="37.16" width="16.16" height="26.31" style="fill:#7d97f4"/><path d="M241.44,33.34h24.11a1.21,1.21,0,0,1,1.21,1.21v6.87a0,0,0,0,1,0,0H240.65a0,0,0,0,1,0,0V34.14A.8.8,0,0,1,241.44,33.34Z" style="fill:url(#linear-gradient-7)"/><path d="M98.82,115.1,202.5,35.59l98.42,76.33a6.11,6.11,0,0,0,9.73-3.6l1.38-6.75L202.5,18.13l-106,81a5.27,5.27,0,0,0-1.68,6.2Z" style="fill:url(#linear-gradient-8)"/><g style="opacity:0.89"><rect x="181.57" y="113.26" width="40.18" height="61.94" rx="0.15" ry="0.15" transform="translate(403.32 288.47) rotate(180)" style="fill:#fff"/><rect x="184.5" y="116.61" width="15.6" height="55.25" rx="0.08" ry="0.08" style="fill:#7d97f4"/><rect x="203.22" y="116.61" width="15.6" height="55.25" rx="0.08" ry="0.08" style="fill:#7d97f4"/></g><g style="opacity:0.89"><rect x="125.18" y="113.7" width="40.18" height="61.94" rx="0.15" ry="0.15" transform="translate(290.54 289.34) rotate(180)" style="fill:#fff"/><rect x="128.11" y="117.05" width="15.6" height="55.25" rx="0.08" ry="0.08" style="fill:#7d97f4"/><rect x="146.83" y="117.05" width="15.6" height="55.25" rx="0.08" ry="0.08" style="fill:#7d97f4"/></g><g style="opacity:0.89"><rect x="235.51" y="114.26" width="40.18" height="61.94" rx="0.15" ry="0.15" transform="translate(511.21 290.46) rotate(180)" style="fill:#fff"/><rect x="238.44" y="117.61" width="15.6" height="55.25" rx="0.08" ry="0.08" style="fill:#7d97f4"/><rect x="257.16" y="117.61" width="15.6" height="55.25" rx="0.08" ry="0.08" style="fill:#7d97f4"/></g><rect x="99.18" y="186.28" width="206.5" height="11.19" rx="1.03" ry="1.03" style="fill:#7d97f4"/><path d="M302.59,380.4a1.32,1.32,0,0,1,0-.34c1.69-6.7,10.07-10.87,10.07-10.87l3.32.26c1.91,5.9,1.67,9.52,1.36,11.14l0,.13A79.8,79.8,0,0,1,302.59,380.4Z" style="fill:url(#linear-gradient-9)"/><path d="M317.35,380.72a1.43,1.43,0,0,1-1.06,1.06c-3.9.82-10.09.16-12.69-.18a1.2,1.2,0,0,1-1-1.2A79.8,79.8,0,0,0,317.35,380.72Z" style="fill:#7d97f4"/><path d="M317.36,364.5,316,371.28a1.11,1.11,0,0,1-.94.91,9.54,9.54,0,0,1-2.18,0,1.38,1.38,0,0,1-1.11-1.63l1-6Z" style="fill:url(#linear-gradient-10)"/><path d="M288.2,380.63a19.85,19.85,0,0,0,6.55-.93c0,.36,0,.73,0,1.12a.71.71,0,0,1-.69.73l-20.15-.13a.91.91,0,0,1-.74-1.33C275.8,380.3,282.53,380.79,288.2,380.63Z" style="fill:#7d97f4"/><path d="M273.16,380.09c0-.06,0-.11.08-.16,1.78-2.48,6.31-7.43,15.27-9.58l4.29-.14s1.92,3.33,1.95,9.49a19.85,19.85,0,0,1-6.55.93C282.53,380.79,275.8,380.3,273.16,380.09Z" style="fill:url(#linear-gradient-11)"/><path d="M293.79,363.9c-.07.32-1,5.14-1.31,7a.92.92,0,0,1-.84.79,9.77,9.77,0,0,1-2.94-.23,1.27,1.27,0,0,1-.88-1.33l.48-7.63Z" style="fill:url(#linear-gradient-12)"/><path d="M297.05,274.91s-5.91,40.6-10.18,88.92a1.84,1.84,0,0,0,1.52,1.87,22.35,22.35,0,0,0,4.81.56,1.77,1.77,0,0,0,1.69-1.49c1.46-8.52,11.82-54.24,14.54-64.3,0,0,3.13,42.74,2.13,64.92a1.05,1.05,0,0,0,.93,1.09,17.34,17.34,0,0,0,3.85,0,1.4,1.4,0,0,0,1.26-1.19c1-7.21,7-50.13,6.73-81,0-1.74-2-16.07-2-16.07Z" style="fill:url(#linear-gradient-13)"/><path d="M294.76,206.62,294,227.87a57.17,57.17,0,0,1-6.43,1.82c-1.27-4.1-4.08-9.13-6.38-12.88A31.45,31.45,0,0,0,294.76,206.62Z" style="fill:url(#linear-gradient-14)"/><path d="M323.18,277.25a1.68,1.68,0,0,0,1.09-1.41c.79-7.62,4.6-54.9-19.43-74.34,0,0-1.37-3.6-12.7,5.25s-5.26,18.15-2.55,31c3.28,15.5,9,28.17,6.49,37.71a1.33,1.33,0,0,0,.81,1.58A37.54,37.54,0,0,0,323.18,277.25Z" style="fill:url(#linear-gradient-15)"/><path d="M295.47,187.34c0,.67,9.6,14.29,9.6,14.29s-1.72,3.39-9.94,6.15L288,193.19Z" style="fill:url(#linear-gradient-16)"/><path d="M300.23,234a.26.26,0,0,0,.17,0,34.94,34.94,0,0,0,11.3-13.62.29.29,0,0,0-.16-.4.31.31,0,0,0-.41.16,34.38,34.38,0,0,1-11.08,13.34.32.32,0,0,0-.08.44A.3.3,0,0,0,300.23,234Z" style="fill:url(#linear-gradient-17)"/><path d="M288.81,222.37a.3.3,0,0,0,.26-.14s2.37-3.68,6.83-11.66a9,9,0,0,1,5.35-4.63,10.54,10.54,0,0,1,7.14.95.3.3,0,0,0,.42-.11.31.31,0,0,0-.12-.43,10.91,10.91,0,0,0-7.6-1,9.61,9.61,0,0,0-5.74,4.92c-4.44,8-6.78,11.6-6.8,11.63a.32.32,0,0,0,.09.43A.28.28,0,0,0,288.81,222.37Z" style="fill:url(#linear-gradient-18)"/><path d="M287.92,179.53s-3.41,7.84-3.64,11.95-1.12,6.79,3.64,7.62,8.77-1.54,10.94-5.64c0,0,3.4-6.32,2.64-8.91S287.92,179.53,287.92,179.53Z" style="fill:url(#linear-gradient-19)"/><path d="M297.23,190.51l-.27-.12a.66.66,0,0,1-.32-.9c.68-1.29,2-4.26.29-5-2.17-.89-10.8-2.65-12.66-5.71a5.69,5.69,0,0,1,2.18-7.82.34.34,0,0,1,.43.14l.19.38a.33.33,0,0,0,.6-.06h0a.32.32,0,0,1,.58-.09c.58.92,2.12,2.4,6.25,3.17,5.87,1.08,9.75,3.45,9.85,7.51a.32.32,0,0,0,.5.27c.43-.27,1.12-.39,2,.39,1.61,1.35,1,4.87-2.58,7.76a.32.32,0,0,0,0,.52c.65.42,1.6,1.41-.87,2.73a8.35,8.35,0,0,1-5.21,1.14.32.32,0,0,1-.26-.39l.78-3.57a.32.32,0,0,0-.31-.39Z" style="fill:url(#linear-gradient-20)"/><path d="M297.09,191.26s1.3-5,3.54-3.6-1.16,5.61-3,5.8Z" style="fill:url(#linear-gradient-21)"/><path d="M252.89,205s1.71-3,1.6-4.5.81-3.64-.16-3.48-1.18,0-1.45,1.8S249.53,208.33,252.89,205Z" style="fill:url(#linear-gradient-22)"/><path d="M252.57,200.2l0,6.06c11.58,12.5,20.95,13.24,28.55,10.55,2.3,3.75,5.11,8.78,6.38,12.88-30.92,6.82-38.2-21.61-38.2-21.61-4.19-1.73-5-2.75-4.86-3.88Z" style="fill:url(#linear-gradient-23)"/><path d="M243.67,194.19c1-.4,2.92-4.09,3.29-2.88s-.16,2.88,0,3.4,2.57,6.45,2.08,7.77c-.34,1-2.26.81-2.55,2.36a1,1,0,0,1-2,0C244.47,204.64,242.68,194.59,243.67,194.19Z" style="fill:url(#linear-gradient-24)"/><path d="M210,189.49a31.36,31.36,0,0,0,22.51,29.57l0,3.05h0l.11,7.14,3.16-.05.08,5.07-3.15,0,0,2.54,3.15-.05,0,2.93-3.16,0,.07,4.1,1.49,0,.09,5.27-1.5,0,0,2.34,2.9,0,.1,6.28-2.9.05.08,4.84,3.15-.05.08,5.17-3.15.05.1,6a2.88,2.88,0,0,0,.76,1.92l7.75,8.51a2.94,2.94,0,0,0,2.84.87h0L245,285l.07,0,.21-.09.08,0,.27-.16,5.11-3.35a2.92,2.92,0,0,0,1.31-2.49l-1-60.12A31.34,31.34,0,1,0,210,189.49Zm31-20.91a6.35,6.35,0,1,1-6.25,6.45A6.34,6.34,0,0,1,241,168.58Z" style="fill:url(#linear-gradient-25)"/><path d="M230.29,200.91l.46,28.5,3.15,0,.08,5.08-3.15.05,0,2.54L234,237l0,2.92-3.15,0,.07,4.1,1.49,0,.08,5.27-1.49,0,0,2.35,2.9,0,.1,6.29-2.9,0,.08,4.84,3.15-.05.08,5.18-3.15.05.1,6a2.92,2.92,0,0,0,.76,1.92l7.75,8.5a2.93,2.93,0,0,0,3.76.48l5.1-3.36a2.93,2.93,0,0,0,1.32-2.48L249,206.47Z" style="fill:url(#linear-gradient-26)"/><path d="M238.91,157.82a31.33,31.33,0,1,0,31.83,30.82A31.33,31.33,0,0,0,238.91,157.82Zm.38,23.62a6.35,6.35,0,1,1,6.24-6.45A6.35,6.35,0,0,1,239.29,181.44Z" style="fill:url(#linear-gradient-27)"/><path d="M270.74,188.64a31.33,31.33,0,1,0-40.15,30.58l0,3.06c4-.14,5.92.93,7,2.14,3,3.39,1,54.08,3.58,60.79a2.92,2.92,0,0,0,2.53-.32l5.1-3.36a2.93,2.93,0,0,0,1.32-2.48l-1-60.13A31.33,31.33,0,0,0,270.74,188.64Zm-31.66-19.89a6.35,6.35,0,1,1-6.24,6.44A6.34,6.34,0,0,1,239.08,168.75Z" style="fill:url(#linear-gradient-28)"/><path d="M239,164a25.19,25.19,0,1,0,25.58,24.78A25.19,25.19,0,0,0,239,164Zm.28,17.48a6.35,6.35,0,1,1,6.24-6.45A6.35,6.35,0,0,1,239.29,181.44Z" style="fill:url(#linear-gradient-29)"/><path d="M300.23,234s-29.51,9.88-46-2.68a4.72,4.72,0,0,0-3.59-.92l-6.3,1a5,5,0,0,1-5.74-3.9,10.75,10.75,0,0,1-.15-4.54l11.9-.72-.34-1.54s5.27,1.29,5.37,5.4c0,0,12.34,8.09,34.85-4.46C290.21,221.62,299,228.48,300.23,234Z" style="fill:url(#linear-gradient-30)"/><path d="M326.6,217.18c1.21-2.54,3.33-4.22,4.6-6.71a15.1,15.1,0,0,0,.61-10.81c-.87-2.91-2.43-5.42-3.32-8.32a17.7,17.7,0,0,1-.68-9.49c.49-3.45,1.54-7.12,4.14-9.1a12.71,12.71,0,0,1,10.85-2,18.9,18.9,0,0,1,10.33,6.42,21.11,21.11,0,0,1,4.58,13.22c0,3.35-.88,6.81,0,10a7,7,0,0,0,4.36,5c2.22.66,4.52-.31,6.8-.27a8.77,8.77,0,0,1,6.21,3,11.3,11.3,0,0,1,2.92,6.46,9.13,9.13,0,0,1-2,6.88c-1,1.13-2.51,1.89-2.89,3.56a4.32,4.32,0,0,0,2.24,4.49c1.41.76,3,.83,4.43,1.51,3.2,1.51,5.15,6.11,4.9,10.45a15.61,15.61,0,0,1-5.25,10.71,17.2,17.2,0,0,1-9.67,3.89,62.82,62.82,0,0,1-10.26-.19c-3.91-.24-7.9-.3-11.6-1.9s-7-4.7-10-8a13.8,13.8,0,0,1-3.53-5.46c-.46-1.63-.46-3.43-1-5-1.15-3.42-4.34-4.87-6.18-7.75A11.56,11.56,0,0,1,326.6,217.18Z" style="fill:url(#linear-gradient-31)"/><path d="M369,223.32h0a5.4,5.4,0,0,0,3.64-3.83,7.69,7.69,0,0,0-.69-5.94c-1.49-2.46-4.11-3.1-6.67-3.54l-4.64-.8c-2.62-.45-5.3-1.1-6.8-3.56-1.61-2.62-1.29-6.2-1-9.67,0-.4.07-.79.11-1.18A31.83,31.83,0,0,0,351.78,182c-1.47-4.32-4.22-7.5-7.36-8.5-.06,0-.12,0-.14.11a.16.16,0,0,0,.09.18c3.06,1,5.75,4.09,7.2,8.33a31.48,31.48,0,0,1,1.19,12.64c0,.39-.07.78-.1,1.18-.32,3.52-.64,7.17,1,9.89,1.56,2.55,4.29,3.21,7,3.67l4.64.8c2.51.43,5.08,1,6.52,3.42a7.32,7.32,0,0,1,.64,5.65A5.14,5.14,0,0,1,369,223c-.06,0-.1.09-.09.17S369,223.32,369,223.32Z" style="fill:#bdd0fb"/><path d="M367.55,221.51a.21.21,0,0,0,.16-.08A8.84,8.84,0,0,0,369.3,219a4,4,0,0,0,0-3.22,3.49,3.49,0,0,0-1.54-1.37,16.49,16.49,0,0,0-4.42-1.63c-1-.2-2-.31-3-.41a23.78,23.78,0,0,1-3.82-.63,7.85,7.85,0,0,1-5.35-4.55c-.94-2.42-.59-5.11-.22-8a22.37,22.37,0,0,0,.18-7c0-.16-.15-.26-.28-.22a.31.31,0,0,0-.18.36,21.5,21.5,0,0,1-.19,6.73c-.36,2.82-.74,5.74.27,8.33a8.31,8.31,0,0,0,5.66,4.87,24.08,24.08,0,0,0,3.89.64,29.67,29.67,0,0,1,2.94.41,15.55,15.55,0,0,1,4.32,1.59,3,3,0,0,1,1.33,1.15,3.27,3.27,0,0,1,0,2.61,8.31,8.31,0,0,1-1.49,2.25.34.34,0,0,0,0,.42A.22.22,0,0,0,367.55,221.51Z" style="fill:#bdd0fb"/><path d="M331.07,212.12c2.76-.87,10.82-2.54,18.62,4.43a4.75,4.75,0,0,1,1.44,4.72c-1.94,7.63-7,30.17-2.09,39.8,0,0-8.27,9.41-17.57,2.09,0,0-4.4-17.89-9.92-25.68-3.82-5.38,5.61-20.53,8-24.19A2.88,2.88,0,0,1,331.07,212.12Z" style="fill:url(#linear-gradient-32)"/><path d="M338.49,196.9s4.29,11.55,4.68,16.66a8.76,8.76,0,0,1-8.83-1.28s-.63-11.58-1.32-13.65Z" style="fill:url(#linear-gradient-33)"/><path d="M332.54,181.17s-10.49,15.19-4,19.45,14-6.53,14-6.53,2.35-8.27-.3-11S332.54,181.17,332.54,181.17Z" style="fill:url(#linear-gradient-34)"/><path d="M337.45,177.5s-4.92,1.25-5.57,3.49,7.06,4.19,9.21,4.26l1.88,9s5-8.55,2.89-13.41S337.45,177.5,337.45,177.5Z" style="fill:url(#linear-gradient-35)"/><path d="M340.39,193s4.1-4.9,5.81-1.77-3.67,5.58-5.57,4.06Z" style="fill:url(#linear-gradient-36)"/><path d="M321.37,301c0,.81-1.29,7.3-2,10.76a5.66,5.66,0,0,0,.68,4.06l27.7,45a6.3,6.3,0,0,1,.73,1.76,38.82,38.82,0,0,1,1.18,12.08l-1.35,2.92,6-1.47,1.06-16.22-1.73-1a8.15,8.15,0,0,1-3.34-3.79c-2.54-5.89-8.84-20.87-10.52-28.19-1.9-8.32-11.29-15-11.29-15l1.57-3.87Z" style="fill:url(#linear-gradient-37)"/><path d="M360.93,370.4s-3.34-5.11-3.76-7.12-1.54-5.53-3.53-4.43c0,0-.79,9.78-.4,13.59S349,376.2,349,376.2a4.29,4.29,0,0,0-2.19,1.16,1.08,1.08,0,0,0,.75,1.81,26.31,26.31,0,0,0,6.46-.47,2,2,0,0,0,1.57-1.85l.48-11.25,4.2,5.12Z" style="fill:url(#linear-gradient-38)"/><path d="M337.59,308s1.61,40.58,1.83,46.34-.61,18.56-6.33,22.47l2.54,1.83a33.83,33.83,0,0,0,6.09-7.92c3.36-5.83,4.38-6.9,4.38-6.9l-1.18-2.33a5.15,5.15,0,0,1-.47-3.3c1.15-6.06,5-26.24,6.06-30.59,1.26-5.13,1.25-12-3.51-17.6S337.59,308,337.59,308Z" style="fill:url(#linear-gradient-39)"/><path d="M344.1,380.32a.35.35,0,0,0,.35-.31c.17-1.36.88-6.8,1.51-8.21.73-1.62,3.07-8.43-.14-9,0,0-7.78,11.77-9.28,13.36a3,3,0,0,1-3.45.6,5.81,5.81,0,0,0-2.58,1.92,1.05,1.05,0,0,0,.85,1.68l5.37,0a3.78,3.78,0,0,0,3.5-2.44c.91-2.37,2.47-5.86,4.34-7.42l-.83,9.42a.35.35,0,0,0,.36.39Z" style="fill:url(#linear-gradient-40)"/><path d="M330.13,258.8s1.28,3.83-.48,10.21l-10.87,40.42a1.24,1.24,0,0,0,.8,1.5,76.81,76.81,0,0,0,30.3,3.18,1.75,1.75,0,0,0,1.58-1.39c.94-4.6,4.17-20.31,4.83-23.54,2.53-12.29,5.37-25.55-8.16-33.33C342,258.6,336.26,260.25,330.13,258.8Z" style="fill:url(#linear-gradient-41)"/><path d="M350.81,218.05s13.28,10.68,16.78,25.51-18.89,16.78-18.89,16.78-3.1-3.35-6.69-2.08-.38-5.92,3.85-6,2.32,3.32,8.26.52c5.78-2.73,9.24-10.95-5.81-23.07a6.75,6.75,0,0,1-2-2.64C343.3,219.88,345.51,215.08,350.81,218.05Z" style="fill:url(#linear-gradient-42)"/><path d="M251.12,284.88s7.53,20.29,19,17.8c0,0,1.18,6.9-.74,7.72,0,0-17.19.5-18.89-23.1Z" style="fill:url(#linear-gradient-43)"/><path d="M251.44,289.63c0,.35,1.28.6,1.69-.9-.11-.65-.32-3.51-.81-4a52.57,52.57,0,0,0-7.4-5,1,1,0,0,0,.16,1.34l2.37,1.6a9.45,9.45,0,0,0-.65,2.47,2.78,2.78,0,0,0,.7,1.94,22.83,22.83,0,0,0,1.68,1.76A2.71,2.71,0,0,0,251.44,289.63Z" style="fill:url(#linear-gradient-44)"/><path d="M250.13,288.48a19.37,19.37,0,0,0-1.65-3.32,1.2,1.2,0,0,1-.41-.87.85.85,0,0,1,.37-.63l.11-.09,2.26,1.21.91,1.42-.38.23-.84-1.32-1.89-1a.36.36,0,0,0-.1.22.81.81,0,0,0,.29.53,19.26,19.26,0,0,1,1.74,3.46Z" style="fill:url(#linear-gradient-45)"/><path d="M270,276.4s3.64-3.29-1-6.85c-4.39-3.35-7.6,1.14-6.14,4a.36.36,0,0,1-.24.51c-.39.08-.72.46-.11,1.81a.39.39,0,0,1,0,.36c-.54.72-2.34,3.61,3.08,4.05a.33.33,0,0,0,.27-.09Z" style="fill-rule:evenodd;fill:url(#linear-gradient-46)"/><path d="M289.1,281.22s.35-4.19,2.59-5.56,6.6-2.53,8.42,2c.87,2.17.58,3.21,0,3.69a1.38,1.38,0,0,0-.22,1.72c.37.66.42,1.47-.69,2.22a1.39,1.39,0,0,0-.62.9c-.29,1.52-1.85,5.17-10.16,1.18Z" style="fill-rule:evenodd;fill:url(#linear-gradient-47)"/><path d="M279.49,273.68c1.63-.7,5.1-1.41,7.79,3.3a2,2,0,0,0,.79.78c1.61.89,6.26,4.11,2,9.91a1.92,1.92,0,0,0-.37.9c-.14,1-.61,3.16-2,3.7a2.08,2.08,0,0,0-1,.84c-.94,1.56-3.64,4.84-8.18,1.41a2.22,2.22,0,0,0-.78-.36l-6.27-1.38a2,2,0,0,0-1,0,2.12,2.12,0,0,1-2.89-1.38,2.12,2.12,0,0,0-.63-.95,5.35,5.35,0,0,1-1.59-6.71,2.13,2.13,0,0,0,.19-1.22c-.2-1.28-.3-4.1,2.34-5.32a1.94,1.94,0,0,0,.92-.87c.88-1.69,3.75-6,8.81-2.85A2,2,0,0,0,279.49,273.68Z" style="fill-rule:evenodd;fill:url(#linear-gradient-48)"/><path d="M271,373.27l.91,1.05-.63,2.29a1.63,1.63,0,0,1-1.27,1.17c-2,.37-6.65,1-9,0,0,0-.74-4.95,7.45-3.48Z" style="fill-rule:evenodd;fill:url(#linear-gradient-49)"/><path d="M285.25,375.9l.49,1.19-.2,4.29a1.31,1.31,0,0,1-1.17,1.21,15.7,15.7,0,0,1-3.42.19,1.29,1.29,0,0,1-1.18-1.78l1.44-3.1a1.88,1.88,0,0,1,1.09-1Z" style="fill-rule:evenodd;fill:url(#linear-gradient-50)"/><path d="M281.1,292.23l.93,9.24s-5,1.7-8.32-.22l.89-9.27Z" style="fill-rule:evenodd;fill:url(#linear-gradient-51)"/><path d="M289.15,342.79s-2.38,26.56-4,34.69a2.65,2.65,0,0,1-2.94-.25l-2.13-35.45Z" style="fill-rule:evenodd;fill:url(#linear-gradient-52)"/><path d="M278.56,344.38,272,374.13a3,3,0,0,1-4.08,0l1.13-31.27Z" style="fill-rule:evenodd;fill:url(#linear-gradient-53)"/><path d="M286.82,302.16l1.63.19c3.16,3.39,9,26.68,11.05,31.64L308,332.6a.42.42,0,0,1,.47.57c-.37.93-1.79,3.59-7.32,3.59-2.58,0,1.45,2-.09,2.69,0,0-3.39-1.22-3.4-3.37,0,0-9.72-22.15-11.72-24.48S286.82,302.16,286.82,302.16Z" style="fill-rule:evenodd;fill:url(#linear-gradient-54)"/><path d="M288.45,302.35a32.82,32.82,0,0,0-19.45.11s-1.21,8.17-.59,12.07l18.61.67Z" style="fill-rule:evenodd;fill:url(#linear-gradient-55)"/><path d="M268.67,317.08s-5.95,19.09-6.83,31.81a1.19,1.19,0,0,0,1.1,1.27,26.5,26.5,0,0,1,6.39,1.38,19.85,19.85,0,0,0,12.38,0c2.82-.81,9.88-1.52,12.78-1.79a1.18,1.18,0,0,0,1.06-1.38c-.85-4.71-4.05-21.42-8.92-32.77Z" style="fill-rule:evenodd;fill:url(#linear-gradient-56)"/><path d="M268.35,314.08l.32,3s5.72,0,18.36-.4l.07-2.17S273.09,314.78,268.35,314.08Z" style="fill-rule:evenodd;fill:url(#linear-gradient-57)"/><path d="M268.39,283.28c-1.43,5.55-1,11.93,5.52,13.37,4.52,1,9.27-3.62,10.7-9.17s-1-9.78-5.5-10.94S269.83,277.73,268.39,283.28Z" style="fill-rule:evenodd;fill:url(#linear-gradient-58)"/><path d="M268.89,285s-.22-3.35-1.89-2.32.64,5.06,1.68,5.3S268.89,285,268.89,285Z" style="fill-rule:evenodd;fill:url(#linear-gradient-59)"/><path d="M283.21,288.87s.5-2.56,2.31-1.38-1.64,5.37-3.78,4.44Z" style="fill-rule:evenodd;fill:url(#linear-gradient-60)"/><path d="M285.89,286.83s-5.19,5.62-7.89-6c0,0-2.69,3.48-3.92.4,0,0-5.36,1.84-5.95-.42s7.24-8.37,13.55-4S285.89,286.83,285.89,286.83Z" style="fill-rule:evenodd;fill:url(#linear-gradient-61)"/><path d="M109.1,380a1.12,1.12,0,0,1,0-.32c1.59-6.31,8.09-9.54,8.09-9.54l3.13.24c1.8,5.56,3,8.28,2.67,9.79a.5.5,0,0,1,0,.13A74.48,74.48,0,0,1,109.1,380Z" style="fill:url(#linear-gradient-62)"/><path d="M123,380.34a1.34,1.34,0,0,1-1,1c-3.67.77-9.51.15-12-.17a1.13,1.13,0,0,1-.94-1.13A74.48,74.48,0,0,0,123,380.34Z" style="fill:#7d97f4"/><path d="M114.65,365.31,116,371.9a1.07,1.07,0,0,0,.92.89,9.53,9.53,0,0,0,2.12,0,1.37,1.37,0,0,0,1.08-1.6l-1-5.85Z" style="fill:url(#linear-gradient-63)"/><path d="M149.58,380.28a17.89,17.89,0,0,1-6-.85c0,.33,0,.67,0,1a.65.65,0,0,0,.63.67L162.6,381a.83.83,0,0,0,.67-1.22A135.81,135.81,0,0,1,149.58,380.28Z" style="fill:#7d97f4"/><path d="M163.27,379.78a.83.83,0,0,0-.07-.13c-1.62-2.27-5.75-6.78-13.9-8.73l-3.91-.12s-1.74,3-1.78,8.63a17.89,17.89,0,0,0,6,.85A135.81,135.81,0,0,0,163.27,379.78Z" style="fill:url(#linear-gradient-64)"/><path d="M144.66,364.87c.05.29.58,4.72.79,6.44a.85.85,0,0,0,.72.77,9,9,0,0,0,2.68,0,1.17,1.17,0,0,0,.88-1.17v-6.95Z" style="fill:url(#linear-gradient-65)"/><path d="M117.26,278.71s-6.26,55.65-2.78,90.42a27.13,27.13,0,0,0,6.26-.69s6.51-54.41,8.61-70a.52.52,0,0,1,1,0c2.6,13.1,12.8,64.46,14,69.31,0,0,3.48,1.39,6.26,0,0,0-5.56-74.42-9.74-87.64Z" style="fill:url(#linear-gradient-66)"/><path d="M104.74,214s26.43-4.17,47.3,1.39L150.65,237s-5.56,29.91-9.74,43.12c0,0-16,2.78-23.65-1.39,0,0-6.26-37.56-9.74-43.12C107.52,235.59,104.05,221,104.74,214Z" style="fill:url(#linear-gradient-67)"/><path d="M123.1,195l-2.63,17.8s7.36,3.38,12.51-.14l-1.11-12.57Z" style="fill:url(#linear-gradient-68)"/><path d="M134.44,183.42c.08.15,1.67,9.13,2.65,14.69a3.91,3.91,0,0,1-3.61,4.57l-2.14.12a7.59,7.59,0,0,1-8-6.43l-1.55-10.07S132.43,179.77,134.44,183.42Z" style="fill:url(#linear-gradient-69)"/><path d="M119.55,186.33a3,3,0,0,1,.21-4.39,4.21,4.21,0,0,1,5-.73,1.39,1.39,0,0,0,1.65-.33.88.88,0,0,1,.83-.3,1.32,1.32,0,0,0,1.48-1.15,3.48,3.48,0,0,1,3.06-3.18c4.09-.79,6.13,3.31,6.06,6.19s-4.56,3.49-7.11,3c-1.87-.35-3.48,1.29-4.21,2.19a1.38,1.38,0,0,0-.27,1.16l.65,2.78a12.86,12.86,0,0,1-1.52,2.49,2.78,2.78,0,0,1-1.48,1c-.76-1.42-2.89-1.67-3.89-1.7a1.36,1.36,0,0,1-1-.46,3,3,0,0,1,.32-4.66A1.35,1.35,0,0,0,119.55,186.33Z" style="fill:url(#linear-gradient-70)"/><path d="M124.67,198s-.09-5-2.12-5.5-4.23,1-2.49,4C122.23,200.25,124.67,198,124.67,198Z" style="fill:url(#linear-gradient-71)"/><path d="M104.74,214s-41,44.52,7.31,61.56V272.1S94,256.8,107.87,235.93C107.87,235.93,106.13,216.11,104.74,214Z" style="fill:url(#linear-gradient-72)"/><path d="M112.39,272.45s6.26-4.17,9-2.78,2.78,3.48,2.78,3.48-1.39,2.78-3.48,2.08-7,.7-9,0C111.7,275.23,111,272.45,112.39,272.45Z" style="fill:url(#linear-gradient-73)"/><path d="M184,229.75c-13.25,2-20.69-7.06-27.13-12.13-8.49-6.7-16.29-2.75-16.29-2.75L149,234.38c13.53,12.76,28.1,7.7,36.85,3.57A16.83,16.83,0,0,0,184,229.75Z" style="fill:url(#linear-gradient-74)"/><path d="M202.67,221.84l-4.4,2.37A38.62,38.62,0,0,1,184,229.75a16.83,16.83,0,0,1,1.79,8.2,40.54,40.54,0,0,0,9-5.79C204.84,226.22,202.67,221.84,202.67,221.84Z" style="fill:url(#linear-gradient-75)"/><path d="M215.61,228a3.24,3.24,0,0,0-1.89-2.07l-8.92-3.59s-.14-1.14,1.88-1.92a2.67,2.67,0,0,0,1.55-3s-2.76,1.25-6.8,3.25a9.43,9.43,0,0,0-4.29,4.67l2.3,3a40.69,40.69,0,0,0,16.66,1.31Z" style="fill:url(#linear-gradient-76)"/></g></svg>