<svg id="Слой_1" data-name="Слой 1" xmlns="http://www.w3.org/2000/svg" viewBox="0 0 400 400"><title>team</title><polygon points="309.77 31.38 115.83 39.49 115.35 24.09 309.3 15.99 309.77 31.38" style="fill:#afcdfb"/><rect x="147.23" y="47.99" width="57.18" height="14.18" style="fill:#afcdfb"/><rect x="222.68" y="47.99" width="57.18" height="14.18" style="fill:#afcdfb"/><path d="M13.6,318.76S24,348,66,357.48s39.31,4.58,77.38,21.76S241,385,253,370.66s40.45-22.2,79.72-22,41-30.67,41-30.67Z" style="fill:#dfebfd"/><path d="M372.68,318.85l-153.88,0H140.36l-126.13.69L14,318.7c-13.65-52.64,27.79-52,39.24-68.34,4.07-5.82,4.35-13.8-3-27.1l-.1-.19a108.34,108.34,0,0,1-9.7-23.44,82.78,82.78,0,0,1-.14-45.27,92.76,92.76,0,0,1,14.95-29.83,114.7,114.7,0,0,1,8.65-10.34C126.5,47.58,279.23,35,300.36,151.34c12,66,30.94,27.81,69.92,74.69,12.87,15.47,17.21,31.23,17.35,45.26C387.91,298.25,372.68,318.85,372.68,318.85Z" style="fill:#ebf3fa"/><path d="M185.83,138.88a79.52,79.52,0,0,1-2.28,11.47,130.94,130.94,0,0,1-9.89,24.78q-1.46,2.85-2.48,5.41L40.41,199.63a82.78,82.78,0,0,1-.14-45.27l140.82-44a40.23,40.23,0,0,1,4.74,14.39A55.27,55.27,0,0,1,185.83,138.88Z" style="fill:#f1f7fd"/><path d="M372.68,318.85l-153.88,0H140.36l-126.13.69L14,318.7c-13.65-52.64,27.79-52,39.24-68.34,4.07-5.82,4.35-13.8-3-27.1l-.1-.19c40.19-19.2,40-17.14,82.9-8.83,52.88,10.26,96.41,22.17,118,9.24s68-3.6,80.8,15,9.94,37.09,23.19,35.54c9.45-1.1,21.31-6.46,32.66-2.76C387.91,298.25,372.68,318.85,372.68,318.85Z" style="fill:#dfebfd"/><path d="M124.37,228.92s-18.27-3.5-30.67,8.31-5.07,32-15.31,34.6C63.63,275.6,29.69,281,33.23,318c.36,3.74,103.61,0,103.61,0l-4.43-79.71Z" style="fill:#bde5b3"/><path d="M273.39,255.72s21.82-4.62,37,9.75,8.24,26.19,16.35,29.27,19.59,9.11,17,24.33h-73.3Z" style="fill:#82b378"/><path d="M363.42,317.87h-9.86c-.53-.52.37-1.7,1.3-1.78a5.37,5.37,0,0,1,1.51.21c.13-2.09.91-11.48,3.82-11.1,3.29.42,0,4.13-.92,6.33-.69,1.63-1.42,4-1.75,5.07l.83.19c.43-1.55,2-6.76,4.11-6.46,2.42.36,1.44,2.45-.27,3.69-1.26.91-2.8,2.21-3.53,2.83a8.78,8.78,0,0,0,1.93.18A3.76,3.76,0,0,1,363.42,317.87Z" style="fill:#82b378"/><rect x="124.37" y="30.35" width="173.71" height="277.42" style="fill:#cde0fb"/><rect x="122.08" y="156.35" width="178.29" height="8.9" style="fill:#afcdfb"/><rect x="226.21" y="69.06" width="47.45" height="73.14" style="fill:#fff;opacity:0.5"/><rect x="227.37" y="70.4" width="45.14" height="70.46" style="fill:#dfebfd"/><path d="M238.1,69.69V90.27c0,1.56-.19,2.77-.38,2.77h-.06c-.18,0-.33-1-.37-2.44,0-.11,0-.23,0-.35V69.59Z" style="fill:#afcdfb"/><path d="M237.47,90.5c-3,0-5.42,3-5.42,6.65H242.9C242.9,93.48,240.47,90.5,237.47,90.5Z" style="fill:#afcdfb"/><path d="M237.91,90.58a2,2,0,0,0-.48-.06c-2,0-3.53,3-3.53,6.63h.95C234.85,93.79,236.18,91,237.91,90.58Z" style="fill:#cde0fb"/><path d="M236.56,119.24s-2.67-3.62-.16-5.91a6.42,6.42,0,0,1,3.32-1.18s-2.11,4.11-1.43,4.52,2.07-4.78,2.07-4.78,4.17-.47,5.51.28c0,0-3.56,3.38-2.81,3.58s4.6-3.12,4.6-3.12,3.88.77,3.67,3.51-1.54,3.59-2.13,3.52-4-1.59-4.1-1,2,2.39,3.44,2.47c0,0-2.73,3.5-4.55,2.49s-2-2.61-3.11-3.21-2.1-.6-1.63,0,2.52,1.21,3.17,2.54,1.23,2.22-.65,1.9-4.94-1.93-5.07-3.75Z" style="fill:#82b378"/><path d="M249.42,116.22s-10.53-.48-12.86,3a8.91,8.91,0,0,1-2.1,3.41l-.24.78s1.82-2.23,2.48-2.36C236.7,121.07,235.67,116.74,249.42,116.22Z" style="fill:#82b378"/><path d="M234.46,122.65a8,8,0,0,0-2.42,5.41l.42,0s.72-3.58,2-5S234.46,122.65,234.46,122.65Z" style="fill:#82b378"/><path d="M229.7,119.67l-.58,1.45c0,.06-.05.13-.08.2h0a2.59,2.59,0,0,1-1.67,1.31V110.79c.57.29.95.51.95.51s-.23,5.4.53,5.29,0-4.8,0-4.8a7.42,7.42,0,0,1,2.75,2.43C233.27,117.36,229.7,119.67,229.7,119.67Z" style="fill:#a8d29f"/><path d="M230.65,123.7v.82l0-.09h0l-.09-.24s0,0,0-.06a.08.08,0,0,1,0,0c-.06-.16-.14-.36-.23-.57h0a7.17,7.17,0,0,0-1.21-2.18h0a1,1,0,0,0,.08-.2c.14-.49.25-1.82-1.75-3.83v-.72a6.75,6.75,0,0,1,2.33,3.1,9.9,9.9,0,0,0,1,4Z" style="fill:#82b378"/><path d="M230.65,123.7a8.64,8.64,0,0,1,.66,6l-.39-.13s.38-3.63-.42-5.46S230.65,123.7,230.65,123.7Z" style="fill:#82b378"/><path d="M234,113.78s-4.7-3-2.51-7.2c0,0,1.76-2.54,3.64-3.19,0,0-1,6.17,0,6.32s.69-7,.69-7,5-2.76,6.89-2.54c0,0-3.07,6-2.07,5.89s4.45-6.25,4.45-6.25,5.07-1.09,5.89,2.4-.5,5.23-1.26,5.44-5.57.15-5.45.88,3.39,1.89,5.2,1.23c0,0-2,5.74-4.63,5.45s-3.45-2.18-5.08-2.32-2.82.36-2,.87,3.57.16,4.88,1.46,2.39,2.1-.06,2.68-6.83.22-7.7-2Z" style="fill:#a8d29f"/><path d="M248.63,103.32s-13.16,4.94-14.66,10.46a13.17,13.17,0,0,1-1.25,5.3v1.09s1.37-3.7,2.13-4.21C234.85,116,231.9,111.16,248.63,103.32Z" style="fill:#82b378"/><path d="M232.72,119.08a11.42,11.42,0,0,0-.88,7.92l.53-.16s-.51-4.79.55-7.2S232.72,119.08,232.72,119.08Z" style="fill:#82b378"/><path d="M262.36,129.67s7-32.86,7.46-35.62a1.93,1.93,0,0,1,1.61-1.79c-1.23-.14-2.12-.15-2.12-.15-2.4,0-4.54,2-5.31,5-1.69,6.48-8.21,17.31-11.36,29.47C252.8,126.54,262.36,129.67,262.36,129.67Z" style="fill:#f99746"/><path d="M227.37,140.86V134.7c1.26-2.83,2.53-5.38,3.64-7.39l.49-.88h0c.05-.09.1-.18.16-.27h0q.32-.55.6-1h0c.29-.47.56-.88.8-1.22a3.87,3.87,0,0,1,1.25-1.13h0l.12-.07a6.28,6.28,0,0,1,.59-.27l.07,0h0A7.44,7.44,0,0,1,237,122h0a18.29,18.29,0,0,1,4.9.24h0l.65.12c.94.17,1.87.39,2.74.62h0l.93.25.07,0h0l.32.09,1.32.41c1.7.56,2.82,1,2.82,1V125l0,1v.49l0,1.43v.26l0,1.25v.1l.24,11.3Z" style="fill:#f99746"/><path d="M260.17,129.14l-.64-.36h0l-.17-.09h0l-.5-.27-.72-.39c-.36-.19-.76-.4-1.19-.61l-.38-.2h0l-.37-.18h0c-.49-.25-1-.5-1.57-.76h0c-.51-.24-1.05-.48-1.61-.72l-.08,0a47.86,47.86,0,0,0-4.87-1.82l-1.55-.45h0l-.21,0h0c-.32-.09-.65-.16-1-.22h0a19.59,19.59,0,0,0-2.52-.36l-.56,0a7.06,7.06,0,0,0-3.82.79,4.17,4.17,0,0,0-1.67,1.8c-.4.83-.95,2.15-1.56,3.82-1.15,3.08-2.53,7.35-3.72,11.86h28l.08-.92h0l.14-1.82.69-8.83v0Z" style="fill:#db6f26"/><path d="M272.5,92.23v48.63h-1.62c-1.16-.19-2.31-.4-3.43-.62h0c-1.91-.38-3.72-.81-5.3-1.28l-1.33-.42-.74-.27-.38-.15c-1.77-.71-2.91-1.5-3.05-2.33a17.73,17.73,0,0,1,.79-5h0c.11-.44.23-.91.36-1.4l.18-.69c0-.09,0-.18.07-.27l0-.11c0-.08.05-.16.07-.24s0,0,0-.06h0c.15-.53.29-1.06.45-1.61.23-.79.46-1.6.71-2.44.32-1.09.66-2.22,1-3.37.1-.34.21-.67.31-1,.38-1.2.76-2.42,1.15-3.64,1-3.13,2-6.28,3-9.16.3-.87.58-1.71.85-2.52h0c.19-.57.38-1.11.56-1.64.53-1.55.9-3,1.25-4.38h0a13.26,13.26,0,0,1,1.84-4.74,3,3,0,0,1,2-1.17l.15,0h0a4.12,4.12,0,0,1,.51,0Z" style="fill:#ffa969"/><path d="M267.45,140.24h0l-2.82-10.79-.05-.18-.89-.1-1.19-.12-2.72-.25h-.24l-.61-.05h0l-.28,0-.67,0c-1.59-.13-3.38-.25-5.25-.35l-1.39-.07-.49,0c-1.12,0-2.25-.08-3.38-.1h0c-1.53,0-3,0-4.49,0h-.35c-.72,0-1.42.05-2.1.1a34.75,34.75,0,0,0-3.56.38,17.88,17.88,0,0,0-1.79.39,5,5,0,0,0-2.62,1.37c-1,1.27-1.76,5.34-2.29,10.49h37.35Z" style="fill:#ffa969"/><path d="M257,108.21s-1.6.66-2.86,3.62-1.79,11-2.41,11a53.67,53.67,0,0,1-5.37-1l.11,1.37s4.93,3.81,6,3.12,3.87-9.91,4.06-11.3S257,108.21,257,108.21Z" style="fill:#ffb27d"/><path d="M268,107.18s-6.42-1.58-11,1c0,0-2.95,7.36-2.86,8.61s1.11,6.46.18,8.42,8.54,5.46,10.25,4.24S268.31,108.53,268,107.18Z" style="fill:#fff"/><path d="M245,137c-.43,1.16-1,2.48-1.65,3.9h-8.73c1-6.06,1.9-10.27,2.34-12.25.19-.85.3-1.28.3-1.28a2.78,2.78,0,0,1,1.49-1.55h0c1.18-.39,2.55.52,3.78,1.85.14.16.29.32.43.49h0a16.79,16.79,0,0,1,1.28,1.76,10.51,10.51,0,0,1,1.57,3.4A9.13,9.13,0,0,1,245,137Z" style="fill:#163560"/><path d="M238.7,125.82s2-1.31,6.42-.19a26.47,26.47,0,0,1,8.11,3.81l-11.37.55Z" style="fill:#163560"/><path d="M266.25,107.16s2.85-.61,3.24,2.08.05,18.91-2.13,19.72-11.12-3.74-11.12-3.74l.27-1.73s8.55,1.35,8.86,1.2S266.25,107.16,266.25,107.16Z" style="fill:#ffb27d"/><path d="M244.25,119.38l-.41-4.32,5.28,8.06s-2.21,1.27-2.34,1Z" style="fill:#b5453c"/><polygon points="252.14 119.38 257.02 128.01 248.83 128.01 244.25 119.38 252.14 119.38" style="fill:#b5453c"/><polygon points="244.25 119.38 243.87 115.1 246.62 119.1 244.25 119.38" style="fill:#fff"/><polygon points="256.77 127.57 257.14 127.26 252.3 118.91 252.14 119.38 256.77 127.57" style="fill:#efdece"/><polygon points="252.3 118.91 244.59 119.17 244.25 119.38 252.14 119.38 252.3 118.91" style="fill:#fcecdb"/><path d="M254.88,140.86h-8.72c-.43-1.4-.81-2.7-1.16-3.9-.88-3.05-1.52-5.45-1.92-7-.22-.84-.37-1.45-.46-1.8s-.08-.35-.08-.35v-.15a2.93,2.93,0,0,1,.88-2.33l.09-.07h0a4.39,4.39,0,0,1,3.7-.28h0a14.25,14.25,0,0,1,3.59,1.57,6.26,6.26,0,0,1,1.71,1.4l.06.09.15.29a9.19,9.19,0,0,1,.39,1s0,.05,0,.07v0a56.11,56.11,0,0,1,1.32,7.49h0C254.6,138.2,254.75,139.52,254.88,140.86Z" style="fill:#1c468a"/><path d="M243.51,125.23s3.38-3.52,17.16,4.06l-11.32.19Z" style="fill:#1c468a"/><path d="M256.51,123.49a7.37,7.37,0,0,0-1.72-1c-.54-.09-1.13-.88-1.07-.43s.66,1,.83,1.22-.94.16-1.39-.09c-.21-.12-1.32-.45-1.31,0a2.44,2.44,0,0,0,1.54,1.9c.5.13,2.94.21,2.94.21Z" style="fill:#ffb27d"/><path d="M262.23,99.62s2.39,1.52.55,4.55c0,0,2.07.35,2.61-.33a1.8,1.8,0,0,1-.18.45,5.38,5.38,0,0,0,2.77-1.1c.75-.87-1.22-12.75-6.66-10.51,0,0-4.79.35-3.59,6.65s-.58,6.58-.58,6.58a2.2,2.2,0,0,0,.77.17s.33-.22.38-.45a1.63,1.63,0,0,1-.11.49A4.7,4.7,0,0,0,261,105C261.88,104,262.66,100.89,262.23,99.62Z" style="fill:#233862"/><path d="M263.07,102.79a15.15,15.15,0,0,0,1.68-4c.26-1.33,1.71-6.8-2.64-6.35a14.64,14.64,0,0,0-4.29,1.37c-1,.68-2.39,2.18-1.08,6.62l.33,1.49Z" style="fill:#233862"/><path d="M260.27,109.18a3.09,3.09,0,0,0,2.88,0,2.73,2.73,0,0,0,1.4-2.48,10.75,10.75,0,0,1-1.2-4l-.21.1-3.49,1.66s.3,1.31.52,2.56C260.35,108,260.08,109,260.27,109.18Z" style="fill:#ffb27d"/><path d="M259.65,104.41s.3,1.31.52,2.56c2-.53,2.73-2.93,3-4.22Z" style="fill:#ed975d"/><path d="M259.17,105.75s4.83-1,4.24-4.48-.35-5.94-3.45-5.45-3.48,2-3.53,3.16S257.9,105.92,259.17,105.75Z" style="fill:#ffb27d"/><path d="M257.87,95s2.37,4.65,4.71,5,2.88-.88,2.88-.88a7.31,7.31,0,0,1-2.61-4S258.72,92.65,257.87,95Z" style="fill:#233862"/><path d="M258.28,95.31a5.73,5.73,0,0,0-1.13,2.22c-.15,1,0,3.09-.55,3.1,0,0-1.48-2.91-.44-4.87S258.28,95.31,258.28,95.31Z" style="fill:#233862"/><path d="M258.09,95.49s1.62,4.61,4.66,5.68c0,0-3.21-2.48-3.83-5.59S258.09,95.49,258.09,95.49Z" style="fill:#233862"/><path d="M268,103.19a5.38,5.38,0,0,1-2.77,1.1,1.8,1.8,0,0,0,.18-.45c-1.06,1-3.59.15-3.59.15,2.05-.45,1.47-3.87.78-4-.34-2.58-1.06-5.8-1.4-7.25l.14,0C266.76,90.44,268.73,102.32,268,103.19Z" style="fill:#233862"/><path d="M265.32,106.87s3.14.06,4,.84,1.21,12,1.21,12a5.76,5.76,0,0,0-2.82-.11,8.21,8.21,0,0,1-3.09,0Z" style="fill:#fff"/><path d="M260,107.07s-3.95.92-4.85,2.14-2.72,7.34-2.72,7.34a1.71,1.71,0,0,1,1.06.69c.36.57,1.54.3,1.54.3Z" style="fill:#fff"/><path d="M252.81,140.86c.54-1.37,1.09-2.68,1.64-3.92h0c1.08-2.46,2.12-4.6,3-6.19h0c.29-.54.56-1,.8-1.41l.32-.5.09-.13,0-.06.11-.14.07-.08.06-.07a4.39,4.39,0,0,1,1.66-1.12,8.11,8.11,0,0,1,2.41-.52,15.67,15.67,0,0,1,2.64.06h0a27.21,27.21,0,0,1,2.73.42l.9.2h0c1.21.29,2.32.62,3.22.91v12.56Z" style="fill:#f99746"/><path d="M259.26,140.86c.1-.31.19-.62.29-.92h0c.17-.57.35-1.13.52-1.67.5-1.53,1-2.93,1.43-4.17.67-1.82,1.26-3.25,1.69-4.13l.12-.24a5.42,5.42,0,0,1,.37-.56,4.4,4.4,0,0,1,.56-.58,4.81,4.81,0,0,1,1.08-.68,7.42,7.42,0,0,1,3-.55l.95,0h0a16.19,16.19,0,0,1,1.65.21l.29.05h.07c.4.07.81.16,1.21.26v12.94Z" style="fill:#ed7d2b"/><path d="M275.86,140.83h-1V67.69H225.08v73.14h-1c-2.54,0-4.59,2.39-4.59,5.33v.19h61v-.19C280.46,143.22,278.4,140.83,275.86,140.83ZM227.4,70.38h45.13V83.31H227.4Zm0,16h45.13v54.5H227.4Z" style="fill:#8fb7ef"/><rect x="228.21" y="71.53" width="43.64" height="2.54" style="fill:#fff"/><rect x="228.21" y="75.53" width="43.64" height="2.54" style="fill:#fff"/><rect x="228.21" y="79.53" width="43.64" height="2.54" style="fill:#fff"/><rect x="228.21" y="83.27" width="43.64" height="2.54" style="fill:#fff"/><rect x="228.21" y="87.48" width="43.64" height="2.54" style="fill:#fff"/><rect x="230.24" y="70.34" width="0.42" height="21.75" style="fill:#fff"/><rect x="269.66" y="70.34" width="0.42" height="21.75" style="fill:#fff"/><rect x="227.25" y="196.24" width="47.45" height="73.14" style="fill:#f9ddbf"/><path d="M251.9,197.55s.11,21.62-18.8,39.89c0,0,3.94,23.82,3.38,30.57H227.4V197.55Z" style="fill:#fff"/><path d="M253.55,234.37a4.46,4.46,0,0,0-3.12,2.51c-1.15,2.26-3.39,12-5,14s-7.39,6-7.39,6l1.46,1.09s8.77-3.09,10.05-4.88,3.11-11.41,3.11-11.41Z" style="fill:#ffb27d"/><path d="M255.49,220.63s.11-3.22,4.11-3.42,6.87,3.7,7,5.84-.69,5.45,1.93,7.65,1.34,12.46-4.85,12.46-9.88-.42-9.9-4.13-.13-7.06,2.33-8.09S255.49,220.63,255.49,220.63Z" style="fill:#233862"/><path d="M262.24,261.83a.66.66,0,0,0,0,.09.64.64,0,0,0,0,.07l-.07.25a.19.19,0,0,1,0,.07c0,.08,0,.18-.07.28a1.8,1.8,0,0,1-.05.19c-.14.53-.33,1.28-.56,2.17-.05.23-.12.47-.18.72l-.09.38a.74.74,0,0,0,0,.14l-.06.26c0,.1-.05.21-.08.31l-.18.75c-.15.59-.3,1.22-.45,1.87H251c0-.68.05-1.33.08-1.93,0-.14,0-.28,0-.41,0-.68.09-1.31.14-1.87l0-.44c0-.29,0-.56.08-.81,0-.05,0-.09,0-.14s0-.09,0-.14c0-.27.06-.51.08-.74l0-.22,0-.2a1.11,1.11,0,0,1,0-.19,1,1,0,0,0,0-.17s0-.06,0-.08l0-.22a.51.51,0,0,1,0-.13s0-.07,0-.11a1.61,1.61,0,0,1,.12-.39.36.36,0,0,1,0-.09.59.59,0,0,0,0-.08l.11-.16.06-.06a.23.23,0,0,1,.07-.07s0,0,0-.05l.09-.08.07,0a.42.42,0,0,1,.14-.09l.08-.05.1,0,.09,0,.09,0,.34-.1.08,0,.14,0,.18,0h.22l.17,0h.21c.33,0,.67,0,1,0l.25,0,.42.05.61.09h.05l.29.05.86.17.34.08.31.07.85.22.3.09.08,0,.14,0,.22.06.34.1.13,0,.2.07.52.16.2.07.17.06h0l.14.05.12,0,.13.05.08,0,.08,0Z" style="fill:#1c468a"/><path d="M262.24,261.83a.66.66,0,0,0,0,.09.64.64,0,0,0,0,.07l-.07.25a.19.19,0,0,1,0,.07c0,.08,0,.18-.07.28a1.8,1.8,0,0,1-.05.19c-.14.53-.33,1.28-.56,2.17-.05.23-.12.47-.18.72l-.09.38a.74.74,0,0,0,0,.14l-.06.26c0,.1-.05.21-.08.31l-.18.75c-.15.59-.3,1.22-.45,1.87H251c0-.68.05-1.33.08-1.93,0-.14,0-.28,0-.41,0-.68.09-1.31.14-1.87l0-.44c0-.29,0-.56.08-.81,0-.05,0-.09,0-.14s0-.09,0-.14c0-.27.06-.51.08-.74l0-.22,0-.2a1.11,1.11,0,0,1,0-.19,1,1,0,0,0,0-.17s0-.06,0-.08l0-.22a.51.51,0,0,1,0-.13s0-.07,0-.11a1.61,1.61,0,0,1,.12-.39.36.36,0,0,1,0-.09.59.59,0,0,0,0-.08l.11-.16.06-.06a.23.23,0,0,1,.07-.07s0,0,0-.05l.09-.08.07,0a.42.42,0,0,1,.14-.09l.08-.05.1,0,.09,0,.09,0,.34-.1.08,0,.14,0,.18,0h.22l.17,0h.21c.33,0,.67,0,1,0l.25,0,.42.05.61.09h.05l.29.05.86.17.34.08.31.07.85.22.3.09.08,0,.14,0,.22.06.34.1.13,0,.2.07.52.16.2.07.17.06h0l.14.05.12,0,.13.05.08,0,.08,0Z" style="fill:#163560"/><path d="M266.86,269.38h-9.24c-.23-1.51-.45-2.9-.64-4.11-.33-2.06-.59-3.61-.71-4.3,0-.27-.07-.41-.07-.41l.24-.31h0c1-1.26,4.58-5.69,6.31-3.66.28.34.58.69.89,1.08a14.37,14.37,0,0,1,2.75,5.3A18.27,18.27,0,0,1,266.86,269.38Z" style="fill:#1c468a"/><path d="M255.49,235.88l1.56,2.72,3.15-.18,1.45-4.36s-.44-.1-.65-5.53l-3.93,1.39a10.64,10.64,0,0,1-.07,3A5.17,5.17,0,0,1,255.49,235.88Z" style="fill:#ffb27d"/><path d="M255.05,234c.2,0,3.9-1.44,9.19,1.06,0,0-2.51,16.65-1.43,19.83a37.56,37.56,0,0,1,1.49,6l-11.7.16s.16-10.9-.37-14.77S255.05,234,255.05,234Z" style="fill:#ffb27d"/><path d="M266.6,262.61a2.55,2.55,0,0,1-1.18,1.16,10.48,10.48,0,0,1-2.25.84,18.84,18.84,0,0,1-2.3.42c-.5.06-1,.12-1.58.16h-.23c-3.52.2-7.47.1-8-1.84a4.81,4.81,0,0,1,0-1.05c.06-1,.27-2.5.46-3.91s.37-2.59.42-3.24c.27-3.45-.29-8.39-.38-11.59-.06-2.67,2-9.2,2-9.2a5.45,5.45,0,0,1,1.91-.51s.22,3.2,1.64,3.47c2.46.47,4.44-2.13,5-3.18,0,0,2.82.82,3.65,1.92.6.78.52,2.66.34,3.84a4.94,4.94,0,0,1-.18.86c-.17.54-.83,4.46-1.13,6a.43.43,0,0,0,0,.11q0,.15-.06.27h0a1.24,1.24,0,0,1,0,.19l0,.07h0a15.14,15.14,0,0,0-.54,5.26,6.71,6.71,0,0,0,.13.84C264.63,255.89,266.26,260.5,266.6,262.61Z" style="fill:#f99746"/><path d="M257,232.88c1.62-.15,4-4.35,4-4.35l-3.93,1.39A10.64,10.64,0,0,1,257,232.88Z" style="fill:#ed975d"/><path d="M255.46,233.86s-3.77.47-5,2.52a22.81,22.81,0,0,0-2.06,5.14s.9,3.13,3.53,2.74S255.46,233.86,255.46,233.86Z" style="fill:#f99746"/><path d="M256.41,231.15s4.8-.17,4.66-3.63.39-5.82-2.68-5.86-3.61,1.32-3.81,2.49S255.15,231.11,256.41,231.15Z" style="fill:#ffb27d"/><path d="M256.78,221.22s.14,1.15,2,2.66,2.22,5,2.22,5,1.43-6.23-.28-7.63S256.78,221.22,256.78,221.22Z" style="fill:#233862"/><path d="M258.33,219.26s-2.46-.27-4.2,2.93c-.75,1.37-.17,3.52.61,4.65,0,0,.25-2.94,1.59-3.92S258.33,219.26,258.33,219.26Z" style="fill:#233862"/><path d="M257.51,229.13s-.05.43-.95.48c0,0-.75,0-.77-.41A2.14,2.14,0,0,1,257.51,229.13Z" style="fill:#fff"/><path d="M241.92,252.2s-1.27-1.71-.08-2.8a3.08,3.08,0,0,1,1.58-.56s-1,1.95-.68,2.15,1-2.27,1-2.27a7,7,0,0,1,2.61.13s-1.69,1.6-1.33,1.7,2.17-1.48,2.17-1.48,1.84.37,1.74,1.67-.73,1.7-1,1.66-1.9-.75-1.94-.49.95,1.13,1.63,1.17c0,0-1.29,1.66-2.15,1.18s-.94-1.24-1.47-1.52-1-.29-.78,0,1.2.58,1.5,1.21.58,1.05-.31.89-2.33-.91-2.4-1.77Z" style="fill:#82b378"/><path d="M248,250.77s-5-.22-6.09,1.43a4.24,4.24,0,0,1-1,1.62l-.12.37s.86-1.06,1.17-1.12C242,253.07,241.5,251,248,250.77Z" style="fill:#82b378"/><path d="M240.93,253.82a3.76,3.76,0,0,0-1.15,2.56l.19,0a6.49,6.49,0,0,1,1-2.36C241.55,253.37,240.93,253.82,240.93,253.82Z" style="fill:#82b378"/><path d="M237.49,250.05s2-1.31,1.08-3.08A4.14,4.14,0,0,0,237,245.6s.43,2.64,0,2.71-.29-3-.29-3-2.12-1.18-3-1.09c0,0,1.32,2.58.89,2.52s-1.91-2.68-1.91-2.68-2.17-.46-2.52,1,.22,2.24.54,2.33,2.39.07,2.33.38-1.45.81-2.23.53c0,0,.86,2.46,2,2.33s1.48-.93,2.17-1,1.21.15.86.37-1.53.07-2.09.63-1,.89,0,1.14,2.92.1,3.3-.84Z" style="fill:#a8d29f"/><path d="M231.21,245.57s5.64,2.11,6.28,4.48a5.72,5.72,0,0,0,.54,2.27v.47a7.23,7.23,0,0,0-.91-1.81S238.38,248.93,231.21,245.57Z" style="fill:#82b378"/><path d="M238,252.32a4.88,4.88,0,0,1,.37,3.4l-.22-.07a8,8,0,0,0-.24-3.09C237.49,251.53,238,252.32,238,252.32Z" style="fill:#82b378"/><path d="M240.7,248.25s-2.66-1.73-1.42-4.06a5.49,5.49,0,0,1,2.05-1.81s-.56,3.49,0,3.57.39-3.94.39-3.94,2.8-1.56,3.89-1.44c0,0-1.73,3.41-1.16,3.33s2.51-3.53,2.51-3.53,2.87-.62,3.33,1.35-.29,3-.71,3.08-3.15.08-3.08.49,1.91,1.07,2.94.7c0,0-1.14,3.24-2.62,3.08s-1.95-1.23-2.87-1.32-1.59.21-1.13.5,2,.09,2.76.82,1.34,1.19,0,1.51-3.85.13-4.35-1.1Z" style="fill:#a8d29f"/><path d="M249,242.34s-7.43,2.79-8.28,5.91a7.48,7.48,0,0,1-.71,3v.62a9.41,9.41,0,0,1,1.2-2.38S239.53,246.77,249,242.34Z" style="fill:#82b378"/><path d="M240,251.24a6.42,6.42,0,0,0-.49,4.48l.29-.1a10.75,10.75,0,0,1,.31-4.06C240.7,250.2,240,251.24,240,251.24Z" style="fill:#82b378"/><path d="M245.81,255c0,3.33-2.33,6-5.2,6a4.65,4.65,0,0,1-1.71-.33,6,6,0,0,1-3.49-5.7Z" style="fill:#1c468a"/><path d="M240.61,261a4.42,4.42,0,0,0,.63,0c-2.87,0-5.2-2.7-5.2-6h1.29C237.33,258.09,238,260.67,240.61,261Z" style="fill:#285ba5"/><path d="M245.88,261.35H235.34a.8.8,0,0,1,.19-.53.59.59,0,0,1,.45-.22h9.26A.71.71,0,0,1,245.88,261.35Z" style="fill:#163560"/><rect x="235.24" y="255.01" width="10.69" height="0.18" style="fill:#163560"/><path d="M246.13,257.26c-.12-.32-1.24-.64-1.69-.86,0,0-.29.24.09.63l.48.42-.16-.05c-.41-.13-3,.9-3.32,1.57s1.5,2.34,2.84,1.81c.69-.27,2.95-.74,2.95-.74l-.38-2.12S246.25,257.58,246.13,257.26Z" style="fill:#ffb27d"/><path d="M266.19,237.43s.54,4.3-3.33,10.68-3.65,6.77-5.86,8.47-9.68,3.46-9.68,3.46l-.38-2.12s7.24-5.39,7.92-6.46,5.34-13,5.34-13Z" style="fill:#ffb27d"/><path d="M262.48,235.83a30.86,30.86,0,0,0-3.91,4.17,22,22,0,0,0-1.57,4.44s3.23,2.35,8.8.65c0,0,1.48-8,0-9a2.87,2.87,0,0,0-2.93-.24Z" style="fill:#f99746"/><path d="M253.14,197.55s3.45,17.7,19.39,24c0,0-.15,27.28-1.95,34.46a88.13,88.13,0,0,0-2.25,12h4.2V197.55Z" style="fill:#fff"/><path d="M275.86,268h-1V194.87H225.08V268h-1c-2.54,0-4.59,2.39-4.59,5.33v.19h61v-.19C280.46,270.4,278.4,268,275.86,268ZM227.4,197.55h45.13v12.94H227.4Zm0,16h45.13V268H227.4Z" style="fill:#8fb7ef"/><rect x="122.08" y="290.6" width="178.29" height="28.3" style="fill:#77a4e5"/><path d="M164.43,319.07s-3.3-13.77-17-18.39-12.84-2.31-25.24-10.53-31.88-3.08-35.86,3.6S73,304,60.18,303.76,46.69,318,46.69,318Z" style="fill:#a8d29f"/><path d="M106.52,318.31s3.41,13.75,17.17,18.26,12.85,2.21,25.31,10.33,31.91,2.84,35.84-3.87,13.2-10.36,26-10.21,13.37-14.34,13.37-14.34Z" style="fill:#a8d29f"/><path d="M185.22,318.54s3.3,13.76,17,18.38,12.84,2.31,25.24,10.53,31.88,3.08,35.86-3.6,13.28-10.27,26.12-10S303,319.59,303,319.59Z" style="fill:#a8d29f"/><rect x="150.66" y="196.23" width="47.45" height="73.14" style="fill:#fff;opacity:0.5"/><rect x="151.82" y="197.58" width="45.14" height="70.46" style="fill:#ffcb9c"/><path d="M170.22,259.62a18.2,18.2,0,0,0-2.6,8.41h17.66s-.94-6.67-5-8.41S170.22,259.62,170.22,259.62Z" style="fill:#233862"/><path d="M191.84,237.44s-2.78,8.19-3.09,8.48c-.83.78-6-8.31-6.76-9.89s-5.66-.23-6.07-3.18a25,25,0,0,1-.39-2.54v-.23a18.07,18.07,0,0,1,.11-1.86l-.25,0-4.08.37a6.39,6.39,0,0,1,.27,2.52c-.05.45-.06,1.3-.11,2.12a2.14,2.14,0,0,1-1.36,2c-1.75.6-3.92,1.49-4.3,2.62a136.28,136.28,0,0,0-2.71,15.49c-.31,3.37-3.26,13.24-3.26,13.24h1.48s5.52-10.77,6-12.45c.15-.52.67-2.58,1.33-5.18.62,2.83,1.49,5.66,1.68,6.81.34,2-2.85,8.5-2.54,10.3s17.2,2.78,17,0-2.61-7.47-3.09-9.66c-.35-1.66.48-7.18.73-10.46,2.58,3.41,6.09,6.6,7.16,5.95,2.76-1.68,3.63-14.06,3.63-14.06Z" style="fill:#ffb27d"/><path d="M172.63,225.67a3.83,3.83,0,0,0-.34,5s-2.15-.1-2.7-.75a2,2,0,0,0,.19.43,5.27,5.27,0,0,1-2.74-1c-.74-.83,1-12.53,6.36-10.45,0,0,4.71.24,3.63,6.44s.69,6.44.69,6.44a2.08,2.08,0,0,1-.76.18s-.33-.2-.37-.43a1.75,1.75,0,0,0,.1.48,4.5,4.5,0,0,1-2.78-1A7.74,7.74,0,0,1,172.63,225.67Z" style="fill:#233862"/><path d="M170.69,228.23a15.33,15.33,0,0,1-1-4.19c-.07-1.34,1-6.11,5.14-4.83a5.5,5.5,0,0,1,2.27,1.37c.84.84,2,2.57.09,6.6l-.53,1.38Z" style="fill:#233862"/><path d="M175.92,232.85c-3-.5-4.62-4.1-4.62-4.1a7.82,7.82,0,0,1,4.23,1.33v.23A13.72,13.72,0,0,0,175.92,232.85Z" style="fill:#ed975d"/><path d="M176,231.48s-5.3-.63-4.91-4.45,0-6.48,3.37-6.24,3.91,1.79,4.05,3.1S177.34,231.54,176,231.48Z" style="fill:#ffb27d"/><path d="M176.83,221s-1.91,4.28-4.2,4.64-3.18-.47-3.18-.47a7.28,7.28,0,0,0,2.5-4S176,218.75,176.83,221Z" style="fill:#233862"/><path d="M176.43,221.35a5.68,5.68,0,0,1,1.15,2.16c.16,1,.07,3,.58,3,0,0,1.41-2.9.36-4.79S176.43,221.35,176.43,221.35Z" style="fill:#233862"/><path d="M176.62,221.53s-1.52,4.55-4.47,5.66c0,0,3.1-2.49,3.65-5.56S176.62,221.53,176.62,221.53Z" style="fill:#233862"/><path d="M174.87,229.25s.13.55.45.63a4.14,4.14,0,0,0,1.25.12,4.9,4.9,0,0,0,.33-.56A5.46,5.46,0,0,0,174.87,229.25Z" style="fill:#fff"/><path d="M191.78,237.9A22.87,22.87,0,0,1,192,234a8.8,8.8,0,0,1,1-2.55,9.33,9.33,0,0,1,.28,2.75c-.11.49.11,1.65.27,1.42s.44-1.78.66-1.69,0,1,.12,1.27a2.3,2.3,0,0,1-.33,1.67c-.43.81-.84,1.73-.84,1.73Z" style="fill:#ffb27d"/><path d="M160.16,266.57a7.46,7.46,0,0,0-2.83-.31c-.7.28-2,1.73-1.65,1.75s1.79-.43,2-.37.8.15.8.15-.86.06-.82.24a5.14,5.14,0,0,0,2.5,0,15.63,15.63,0,0,0,1.16-1.46Z" style="fill:#ffb27d"/><path d="M167.84,236.13s2.67,2.66,6.07,2.45,6.09-3.45,6.09-3.45a3.37,3.37,0,0,1,2.36,1c.82,1,3.92,5.51,3.92,5.51a6.76,6.76,0,0,1-3.21,5.75l-.36-.73s-.58,8.43-.21,9.22,3.26,9.09,2.78,10.36-16.3,4.4-17.5-.21,1.79-8.6,1.67-10.24-.81-6.87-.81-6.87-4.57-.81-4.73-4C163.91,245,164.72,236.09,167.84,236.13Z" style="fill:#fff"/><path d="M200.32,268h-1V194.87H149.53V268h-1c-2.54,0-4.6,2.39-4.6,5.33v.19h61v-.19C204.92,270.4,202.86,268,200.32,268Zm-48.47-70.46H197v12.94H151.85Zm0,16H197V268H151.85Z" style="fill:#8fb7ef"/><rect x="152.67" y="198.71" width="43.64" height="2.54" style="fill:#fff"/><rect x="152.67" y="202.71" width="43.64" height="2.54" style="fill:#fff"/><rect x="152.67" y="206.7" width="43.64" height="2.54" style="fill:#fff"/><rect x="152.67" y="210.45" width="43.64" height="2.54" style="fill:#fff"/><rect x="152.67" y="214.65" width="43.64" height="2.54" style="fill:#fff"/><rect x="154.69" y="197.51" width="0.42" height="21.75" style="fill:#fff"/><rect x="194.11" y="197.51" width="0.42" height="21.75" style="fill:#fff"/><path d="M178.43,263.34h6.38a1,1,0,0,1,1,1V265a1,1,0,0,1-1,1h-6.35a0,0,0,0,1,0,0v-2.63A0,0,0,0,1,178.43,263.34Z" style="fill:#fcecdb"/><path d="M191.26,264.42v.4a1.37,1.37,0,0,1-.13.58,1,1,0,0,1-.86.57h-12a.15.15,0,0,1-.14-.17v-.06a.15.15,0,0,1,.14-.16h7.34a1.62,1.62,0,0,0,.1-.18,1.18,1.18,0,0,0,.11-.5v-.51a1.24,1.24,0,0,0,0-.27,1.13,1.13,0,0,0-.17-.39h-7.35a.15.15,0,0,1-.14-.16v-.06a.16.16,0,0,1,.14-.17h12.1a1,1,0,0,1,.9.78A1.53,1.53,0,0,1,191.26,264.42Z" style="fill:#699dee"/><path d="M191.23,264.12h-5.48a1.13,1.13,0,0,0-.17-.39h-7.35a.15.15,0,0,1-.14-.16v-.06a.16.16,0,0,1,.14-.17h12.1A1,1,0,0,1,191.23,264.12Z" style="fill:#548ee2"/><polygon points="178.43 264.66 179.32 264.7 178.43 264.73 178.43 264.66" style="fill:#f4d2b8"/><polygon points="178.43 265.07 180.55 265.11 178.43 265.14 178.43 265.07" style="fill:#f4d2b8"/><path d="M179.8,268h6.84V266h-6.89a.93.93,0,0,0-.86,1h0A1,1,0,0,0,179.8,268Z" style="fill:#b5453c"/><path d="M185.36,266h7.71a1,1,0,0,1,1,1v.15a.94.94,0,0,1-.94.94h-7.74a0,0,0,0,1,0,0v-2a0,0,0,0,1,0,0Z" transform="translate(379.39 533.97) rotate(-180)" style="fill:#fcecdb"/><path d="M184.84,268h9.46a.14.14,0,0,0,.13-.15h0a.15.15,0,0,0-.13-.16h-9.46a.15.15,0,0,0-.13.16h0A.14.14,0,0,0,184.84,268Z" style="fill:#b5453c"/><path d="M184.84,266.27h9.46a.14.14,0,0,0,.13-.15h0a.15.15,0,0,0-.13-.16h-9.46a.15.15,0,0,0-.13.16h0A.14.14,0,0,0,184.84,266.27Z" style="fill:#b5453c"/><polygon points="194.03 266.99 192.98 267.02 194.03 267.04 194.03 266.99" style="fill:#f4d2b8"/><polygon points="194.03 266.51 191.53 266.55 194.03 266.57 194.03 266.51" style="fill:#f4d2b8"/><path d="M191.56,266.54a.54.54,0,0,1,.14.23s0,.06,0,.09v.62l.32-.21.31.21v-.59a.52.52,0,0,0-.08-.29s0-.06-.08-.06Z" style="fill:#699dee"/><path d="M191.56,266.54a.54.54,0,0,1,.14.23h.63s0-.2-.15-.24Z" style="fill:#568cdb"/><rect x="149.68" y="69.06" width="47.45" height="73.14" style="fill:#dfebfd"/><path d="M172.48,70.38s-.11,21.61,18.8,39.88c0,0-3.94,23.82-3.38,30.57H197V70.38Z" style="fill:#fff"/><path d="M155.56,111.39s-4,.65-5,1.68c-1.72,1.75-.46,28.35-.46,28.35s5.95.57,5.95,0S155.56,111.39,155.56,111.39Z" style="fill:#d39e7a"/><path d="M171.07,141.47l-8.51.73-5.92.51-1.25.11-.08-.62-.07-.55v-.12l-.3-2.41h0l-.12-1-.37-2.93-1.86-15-.52-4.17s-.39-3.93,2.76-4.57l.73-.15h0c1.07-.22,2.29-.48,3.49-.66a18,18,0,0,1,2.84-.22,8.39,8.39,0,0,1,1.05.09,3.74,3.74,0,0,1,1.1.35l.1.06a1.46,1.46,0,0,1,.33.26.68.68,0,0,1,.12.12,2.83,2.83,0,0,1,.37.78c.16.41.32,1,.51,1.64.26.94.54,2.09.84,3.39.84,3.65,1.8,8.46,2.64,12.83,0,.14.05.27.08.4.11.56.21,1.12.32,1.66,0,0,0,0,0,.08l.06.3.15.8c.1.53.19,1,.28,1.53.62,3.32,1.07,5.84,1.19,6.5Z" style="fill:#efcbab"/><path d="M165.69,113.72a22.07,22.07,0,0,1,2.11,7.15c.67,4.25,1.26,5.82,2.23,6.69S176.4,131,176.4,131l-.4,1.1s-7.92-1.25-8.81-2.79-4.28-10.6-4-12.69A4,4,0,0,1,165.69,113.72Z" style="fill:#f4a269"/><path d="M183.83,142.2H177.3c-.17-.76-.41-1.23-.87-1.26s-2.67.25-5.39.36c-4.32.17-9.84-.07-11.08-2.61a9.59,9.59,0,0,1-.66-1.8h0c0-.09-.05-.18-.07-.26a11,11,0,0,1-.25-3,10.75,10.75,0,0,1,.18-1.42,9.65,9.65,0,0,1,.45-1.7l2.14,1.81h0l.24.2s1.83-.16,4.35-.28l1.77-.07.93,0h.31c.76,0,1.54,0,2.32,0h.78c3,0,5.87.26,7.33.9a3.11,3.11,0,0,1,.52.29h0C181.36,134.07,182.63,137.78,183.83,142.2Z" style="fill:#ed7d2b"/><path d="M177.83,142.2H162.56l-5.92.51a5,5,0,0,1-.78-.51,3.57,3.57,0,0,1-.55-.55l-.08-.12a2.67,2.67,0,0,1-.25-.43,4.13,4.13,0,0,1-.36-1.93h0a4.21,4.21,0,0,1,.19-1,6.13,6.13,0,0,1,1.18-2.08,12,12,0,0,1,3-2.5h0c.17,0,2,.12,4.31.34h0l.69.07h0c1.84.19,4,.45,5.87.8,2.49.45,4.68,1,5.64,1.8C176.23,137.19,177,139.34,177.83,142.2Z" style="fill:#f99746"/><path d="M165.39,105.33s0,0,0,0h0c0-.31,0-.61,0-.91a21.32,21.32,0,0,0-.29-2.55c-.08-.45-.18-.87-.28-1.25a1.09,1.09,0,0,0-.05-.17h0a3.63,3.63,0,0,0-.88-1.75,3.1,3.1,0,0,0-1.89-.57.77.77,0,0,1,.41-.2,2.69,2.69,0,0,0-1.08.24c-4.44-2.39-5.61,5.35-5.62,7.17s-.12,3.9-2.49,5.35a5.07,5.07,0,0,0-1.89,1.95c-1.56,3,.69,6.77.69,6.77l.6.91c.91,1.38,2.51,3.84,2.51,3.84h0a5.06,5.06,0,0,1,.66-1.81c.31-.61.71-1.31,1.18-2.06.22-.36.46-.73.71-1.1s.67-1,1-1.48l.42-.56a30.08,30.08,0,0,1,1.95-2.37l.45-.48h0c.19-.18.37-.37.55-.53a10,10,0,0,1,1-.84l0,0h0l.14-.09a6.27,6.27,0,0,0,.37-.68l.12-.28A8.82,8.82,0,0,0,164,111a18,18,0,0,0,.43-1.76,17.09,17.09,0,0,1-.33,1.82c-.08.33-.16.6-.24.83a2.7,2.7,0,0,1-.17.44c0,.06,0,.12-.07.17l.1-.11a2.73,2.73,0,0,0,.36-.45,4.14,4.14,0,0,0,.35-.62A14.31,14.31,0,0,0,165.39,105.33Z" style="fill:#b5453c"/><path d="M163.16,111.71l-.27-.12,0-.74c.07-1.16.22-2.39.22-2.39l-3.33-1-.2-.06A13.66,13.66,0,0,1,159,111l-.57,0a1.77,1.77,0,0,0,.19,1c0,.07,0,.14-.05.19-.21,1.08,2.14,2.61,3.22,2.66a1.1,1.1,0,0,0,1.16-.63A1.4,1.4,0,0,0,163.16,111.71Z" style="fill:#ffb27d"/><path d="M163.14,108.46s-.15,1.23-.22,2.39c-1.88-.21-2.76-2.29-3.11-3.43Z" style="fill:#f4a269"/><path d="M159.49,107a12.73,12.73,0,0,1-1-3.46c-.1-1.12.62-5.18,4.14-4.32a4.48,4.48,0,0,1,1.95,1c.74.66,1.78,2,.33,5.54l-.39,1.18Z" style="fill:#b5453c"/><path d="M163.71,109.61s-4.48-.26-4.29-3.49-.27-5.44,2.59-5.41,3.35,1.31,3.51,2.4S164.88,109.59,163.71,109.61Z" style="fill:#ffb27d"/><path d="M164.05,100.79s-1.44,3.69-3.35,4.11-2.69-.23-2.69-.23a6.31,6.31,0,0,0,2-3.51S163.23,98.92,164.05,100.79Z" style="fill:#b5453c"/><path d="M163.73,101.08a4.64,4.64,0,0,1,1,1.75c.17.84.18,2.54.61,2.52,0,0,1.07-2.51.11-4S163.73,101.08,163.73,101.08Z" style="fill:#b5453c"/><path d="M168.19,132.75c-.37.51-1.5.66-2.71.89a7.33,7.33,0,0,0-2.66.89c-1.61,1.1-6.88,4.81-8.42,4.64-.6-.06-.49-1.39-.13-3.14.58-2.78,1.77-6.64,1.77-8.32,0-.91.26-3.08.61-5.55l.09-.61c.69-4.81,1.65-10.49,1.65-10.49s1.08,2.71,3.16,2.71,1.61-2.06,1.61-2.06,1.9.26,2.35.82a23,23,0,0,1,1.82,3.65s0,.85-1.75,1.25a33.43,33.43,0,0,1,.49,3.81c0,1.13-.67,4.66-.87,6.85a4.72,4.72,0,0,0,0,1.67,3,3,0,0,0,1.1,1.05C167.35,131.5,168.61,132.16,168.19,132.75Z" style="fill:#739af0"/><path d="M166.33,130.81c1.16,2.28-3.13,3-3.84,3.45-1.62,1.1-6.55,5.08-8.09,4.91-.6-.06-.49-1.39-.13-3.14.58-2.78,1.77-6.64,1.77-8.32,0-.91.26-3.08.61-5.55l1.86-2.07s2,6,3.89,7a14.41,14.41,0,0,0,2.8,1,4.72,4.72,0,0,0,0,1.67A3,3,0,0,0,166.33,130.81Z" style="fill:#4a75cb"/><rect x="166.73" y="132.47" width="5.85" height="0.8" style="fill:#233862"/><path d="M171.34,133.17c.06-.27,5.37-9.95,5.37-9.95h11.84l-5.94,9.69Z" style="fill:#233862"/><path d="M171.84,133.28c0-.27,5.39-10.06,5.39-10.06h11.32l-5.65,10.06Z" style="fill:#2b478b"/><path d="M181.2,128.58a1,1,0,0,1-.82.71c-.34,0-.52-.32-.4-.71a1,1,0,0,1,.82-.71C181.14,127.87,181.32,128.19,181.2,128.58Z" style="fill:#afcdfb"/><path d="M170,130a11.83,11.83,0,0,0-2.68.39c-1.71-.39-7.34-1.69-7.61-2.1s-1-15.17-1.84-15.41c0,0-1.59-1.12-3.12,1s1.09,17.3,3.37,18.08c2.53.87,9.83-.14,9.83-.14h0c.6.24,1.65.38,2.21.59a1.25,1.25,0,0,0,1.55-.28C171.82,131.77,170.23,130.11,170,130Z" style="fill:#ffb27d"/><path d="M158.39,111.06s-3.26.34-4.21,1.59-1.22,4.62-1.22,4.62,2.87,2.69,6.34,1.64Z" style="fill:#739af0"/><path d="M171.25,70.38s-3.46,17.69-19.4,24c0,0,.15,27.27,2,34.45a88.43,88.43,0,0,1,2.25,12h-4.2V70.38Z" style="fill:#fff"/><path d="M143.92,146.16v.19h61v-.19c0-2.94-2.06-5.33-4.6-5.33h-1V67.69H149.53v73.14h-1C146,140.83,143.92,143.22,143.92,146.16ZM197,83.31H151.85V70.38H197Zm0,57.52H151.85V86.33H197Z" style="fill:#8fb7ef"/><path d="M189.31,135.52a2.16,2.16,0,0,0,2.75-1.14A2.73,2.73,0,0,0,189.31,135.52Z" style="fill:#6bb7bf"/><path d="M189.2,134.74a.82.82,0,0,0-.78-.68S188.67,134.73,189.2,134.74Z" style="fill:#6bb7bf"/><path d="M189.54,130.86a1.05,1.05,0,0,0,1.07-.89A1.31,1.31,0,0,0,189.54,130.86Z" style="fill:#6bb7bf"/><path d="M191.38,117.8a2,2,0,0,1-1.59-1.87C191.63,116.6,191.38,117.8,191.38,117.8Z" style="fill:#6bb7bf"/><path d="M191.49,117.46a1.29,1.29,0,0,0,1.67-.69A1.65,1.65,0,0,0,191.49,117.46Z" style="fill:#6bb7bf"/><path d="M189.34,139.88l-.2.27s-.09,0-.09,0a111.76,111.76,0,0,1,1.56-18.46,64.86,64.86,0,0,1,1.55-7h0s-.71,2.66-1.48,7a84.49,84.49,0,0,0-1.3,18.1A.13.13,0,0,1,189.34,139.88Z" style="fill:#6bb7bf"/><path d="M192.15,113.61c-.25.23-1.21,1.23-.28,2,0,0,.71.26.95-.37a4.53,4.53,0,0,0,.24-1.26.1.1,0,0,0-.09-.11.63.63,0,0,1-.2-.06c-.09,0-.13-.19-.25-.22a.48.48,0,0,0-.24,0A.18.18,0,0,0,192.15,113.61Z" style="fill:#f99746"/><path d="M191.62,115.33a.71.71,0,0,1,.17.68v.16a.73.73,0,0,1,.43-.51A.7.7,0,0,1,191.62,115.33Z" style="fill:#6bb7bf"/><path d="M191.38,117.8a2,2,0,0,1-1.59-1.87A4.26,4.26,0,0,1,191.38,117.8Z" style="fill:#8ad8db"/><path d="M189.88,116.79a1.32,1.32,0,0,1-1.66-.74A1.65,1.65,0,0,1,189.88,116.79Z" style="fill:#6bb7bf"/><path d="M191.63,139.25l.2.27a0,0,0,0,0,.09,0,113.53,113.53,0,0,0-1.23-18.5,64.14,64.14,0,0,0-1.44-7h0s.67,2.67,1.36,7.05a84.88,84.88,0,0,1,1,18.13A.2.2,0,0,0,191.63,139.25Z" style="fill:#6bb7bf"/><path d="M189.29,112.92c.24.24,1.18,1.25.24,2,0,0-.72.25-.94-.39a4.72,4.72,0,0,1-.22-1.26.12.12,0,0,1,.09-.12.54.54,0,0,0,.2,0c.09,0,.14-.2.26-.23a.58.58,0,0,1,.23,0A.21.21,0,0,1,189.29,112.92Z" style="fill:#f99746"/><path d="M189.79,114.64a.72.72,0,0,0-.19.68v.16a.73.73,0,0,0-.42-.52A.7.7,0,0,0,189.79,114.64Z" style="fill:#6bb7bf"/><path d="M190.29,115.45a1.4,1.4,0,0,0,1.51-1.11A1.78,1.78,0,0,0,190.29,115.45Z" style="fill:#6bb7bf"/><path d="M192.42,137.86l-.15.32s-.09,0-.1,0a113.67,113.67,0,0,1-1.95-18.41,67.57,67.57,0,0,1,.2-7.22h0s-.19,2.77-.12,7.23a84.46,84.46,0,0,0,2.13,18A.17.17,0,0,1,192.42,137.86Z" style="fill:#6bb7bf"/><path d="M190.21,111.52c-.2.29-1,1.5.1,2,0,0,.75.08.86-.6a4.92,4.92,0,0,0,0-1.29.1.1,0,0,0-.11-.09.67.67,0,0,1-.2,0c-.1,0-.17-.16-.29-.16a.66.66,0,0,0-.24,0A.23.23,0,0,0,190.21,111.52Z" style="fill:#f99746"/><path d="M190,113.33a.67.67,0,0,1,.31.62l0,.15a.76.76,0,0,1,.32-.6A.7.7,0,0,1,190,113.33Z" style="fill:#6bb7bf"/><path d="M191.15,114.1s0-1,.71-1.26A1.21,1.21,0,0,1,191.15,114.1Z" style="fill:#6bb7bf"/><path d="M189.48,112.56a1,1,0,0,0-.56-.94A.83.83,0,0,0,189.48,112.56Z" style="fill:#ed9f4a"/><path d="M191.39,117a1.14,1.14,0,0,0-.27-1.29A1.39,1.39,0,0,0,191.39,117Z" style="fill:#ed9f4a"/><path d="M191.8,116.9a.38.38,0,0,1,.29-.42A.38.38,0,0,1,191.8,116.9Z" style="fill:#6bb7bf"/><path d="M188.82,115.66a1,1,0,0,0-1.06-.5S187.88,115.8,188.82,115.66Z" style="fill:#6bb7bf"/><path d="M193.28,140.78h-5.17a.64.64,0,0,1-.57-.76L190,120.8a.34.34,0,0,1,.31-.32H191a.36.36,0,0,1,.33.34L193.82,140A.61.61,0,0,1,193.28,140.78Z" style="fill:#f99746"/><path d="M189.25,140.2l1.28-19.71a.33.33,0,0,0-.27.31L187.86,140a.63.63,0,0,0,.56.76h1A.8.8,0,0,1,189.25,140.2Z" style="fill:#ffb278"/><path d="M330.54,184.5h-1.09v-.09l.33-3.36a.2.2,0,0,1,.19-.19h0a.26.26,0,0,1,.16.09.31.31,0,0,1,.09.21Z" style="fill:#a2c5f9"/><path d="M329.56,183.74h0l.27-2.69a.2.2,0,0,1,.19-.19h0l0,0a.36.36,0,0,1,.08.23v1.94A.64.64,0,0,1,329.56,183.74Z" style="fill:#afcdfb"/><rect x="329.14" y="199.44" width="2.09" height="107.17" style="fill:#a2c5f9"/><rect x="329.14" y="199.44" width="0.97" height="107.17" style="fill:#afcdfb"/><rect x="326.85" y="289.51" width="6.67" height="28.36" style="fill:#a2c5f9"/><rect x="326.85" y="289.51" width="3.97" height="28.36" style="fill:#afcdfb"/><path d="M333.83,186.12c0,1.33-1.72,2.4-3.83,2.4l-.48,0c-1.89-.15-3.35-1.16-3.35-2.38s1.46-2.23,3.35-2.38H330C332.11,183.73,333.83,184.8,333.83,186.12Z" style="fill:#a2c5f9"/><path d="M331.85,186.12c0,1.07-1,2-2.33,2.38-1.89-.15-3.35-1.16-3.35-2.38s1.46-2.23,3.35-2.38C330.89,184.14,331.85,185.05,331.85,186.12Z" style="fill:#afcdfb"/><polygon points="333.51 201.56 326.84 201.56 324.49 188.43 335.5 188.43 333.51 201.56" style="fill:#afcdfb"/><rect x="323.9" y="187.45" width="12.2" height="1.26" style="fill:#a2c5f9"/><rect x="323.9" y="187.45" width="7.67" height="1.26" style="fill:#afcdfb"/><path d="M327.94,289.51h4.26l-.62-2.19a.41.41,0,0,0-.39-.33h-2a.54.54,0,0,0-.5.38Z" style="fill:#a2c5f9"/><polygon points="325.28 189.07 334.68 189.07 332.85 200.87 327.45 200.87 325.28 189.07" style="fill:#c7dcf9"/><path d="M326.42,186.26s.72-1.81,2.13-1.76a2.83,2.83,0,0,0-.82,1.76C327.82,187.09,326.42,186.26,326.42,186.26Z" style="fill:#c7dcf9"/><polygon points="335.32 187.44 324.68 187.44 325.55 186.01 334.49 186.01 335.32 187.44" style="fill:#a2c5f9"/><polygon points="332.7 187.44 324.68 187.44 325.55 186.01 331.87 186.01 332.7 187.44" style="fill:#afcdfb"/><polygon points="325.91 189.49 328.06 189.49 328.69 200.5 328.06 200.5 325.91 189.49" style="fill:#d2e4f9"/><path d="M106.63,104.86,55.22,124.53a114.7,114.7,0,0,1,8.65-10.34Z" style="fill:#f1f7fd"/><path d="M103.28,118.91a3.39,3.39,0,1,1,3.35,3.88A3.65,3.65,0,0,1,103.28,118.91Z" style="fill:#f8fbff"/><rect x="145.9" y="175.24" width="57.18" height="14.18" style="fill:#afcdfb"/><rect x="221.34" y="175.24" width="57.18" height="14.18" style="fill:#afcdfb"/></svg>