<?xml version="1.0" encoding="utf-8"?>
<!-- Generator: Adobe Illustrator 22.1.0, SVG Export Plug-In . SVG Version: 6.00 Build 0)  -->
<svg version="1.1" id="Layer_1" xmlns="http://www.w3.org/2000/svg" xmlns:xlink="http://www.w3.org/1999/xlink" x="0px" y="0px"
	 viewBox="0 0 16 16" style="enable-background:new 0 0 16 16;" xml:space="preserve" width="24" height="24">
<style type="text/css">
	.st0{fill:#cce5ff;}
</style>
<path class="st0" d="M12.2,13c0,0.8-0.7,1.5-1.5,1.5S9.2,13.8,9.2,13s0.7-1.5,1.5-1.5S12.2,12.2,12.2,13z M12.2,8
	c0,0.8-0.7,1.5-1.5,1.5S9.2,8.8,9.2,8s0.7-1.5,1.5-1.5S12.2,7.2,12.2,8z M12.2,3c0,0.8-0.7,1.5-1.5,1.5S9.2,3.8,9.2,3
	s0.7-1.5,1.5-1.5S12.2,2.2,12.2,3z"/>
<path class="st0" d="M6.6,13c0,0.8-0.7,1.5-1.5,1.5S3.6,13.8,3.6,13s0.7-1.5,1.5-1.5S6.6,12.2,6.6,13z M6.6,8c0,0.8-0.7,1.5-1.5,1.5
	S3.6,8.8,3.6,8s0.7-1.5,1.5-1.5S6.6,7.2,6.6,8z M6.6,3c0,0.8-0.7,1.5-1.5,1.5S3.6,3.8,3.6,3s0.7-1.5,1.5-1.5S6.6,2.2,6.6,3z"/>
</svg>
